<svg xmlns="http://www.w3.org/2000/svg" width="566.9" height="297.2"><style>.st1{fill:#fff}</style><g opacity=".05"><path class="st1" d="M248.7 69.7l14.1 27.7 27.6-14.1 14 27.6 27.7-14 14 27.6 14.1 27.6 14 27.6 14 27.6 27.7-14 27.6-14.1 27.6-14 27.6-14-14-27.7-27.7 14-14-27.6-27.6 14-14.1-27.6-27.6 14.1-14-27.7-14-27.6-14.1-27.6-14-27.5L290 14l-27.6 14.1-27.6 14-27.6 14.1 14 27.6 27.5-14.1zm165.8 61.5l11.2 22.1-22.1 11.2-11.2-22 22.1-11.3zM302 42.4l11.1 22.1-22 11.2-11.2-22.1L302 42.4zM204.7 228l-14-27.6-14.1-27.6-27.6 14.1-27.6 14-27.6 14L66.1 229l14 27.6 27.6-14 14.1 27.6 27.5-14.1 14.1 27.5 27.6-13.9 14 27.5 27.6-14-14.1-27.6-13.8-27.6zm-54.4 20.5l-11.2-22.1 22.1-11.2 11.2 22.1-22.1 11.2zm-38.9-65.7l27.8-14.1 27.6-14-14.1-27.6L125 141l-14-27.6-27.6 14L69.3 100l-27.6 14-14-27.6L0 100.3l14.1 27.6 14 27.8 14.1 27.6 14 27.6 27.6-14.1 27.6-14zm-51.1-36.7l22.1-11.2L93.6 157l-22.1 11.2-11.2-22.1z"/><path class="st1" d="M411.4 70.1l14 27.6 27.6-14 14.1 27.7 27.6-14 14.1 27.5 27.6-14-14.1-27.6-14-27.6-14.1-27.8-14-27.6-27.6 14.1-27.6 14-27.6 14.1-27.7 14 14.1 27.6 27.6-14zM464.7 43l11.2 22-22.1 11.2-11.2-22.1L464.7 43zM553 253.4l-14-27.6-14.1-27.6-14-27.6-27.6 14-27.7 14.1-27.6 14-27.6 14.1 14.1 27.6 27.6-14 14 27.7 27.6-14.1 14.1 27.5 27.5-13.9 14 27.5 27.6-14-13.9-27.7zm-68.5-7l-11.2-22.1 22.1-11.2 11.2 22-22.1 11.3zM82.3 72.1l14 27.6 27.6-14 14.1 27.6 27.6-14 14 27.6 14.1 27.6 14 27.6 14.1 27.6 27.5-14 27.6-14.1 27.6-14 27.6-14.1-14-27.6-27.6 14-14.1-27.6-27.6 14-14-27.6-27.7 14-14-27.6-14-27.6-14-27.6-14-27.6-27.7 14-27.6 14.2-27.6 14-27.6 14.1 14 27.6 27.7-14.1zM248 133.9l11.2 22-22.1 11.2-11.2-22.1 22.1-11.1zM135.5 44.8l11.2 22.1-22.1 11.2L113.4 56l22.1-11.2zm236.2 182.1l-14-27.6-14.1-27.6-27.6 14-27.6 14.1-27.6 14-27.6 14.1 14 27.6 27.6-14.1 14.1 27.7 27.6-14.1 14.1 27.5 27.6-13.8 14 27.5 27.6-14-14-27.6-14.1-27.7zm-54.5 20.5l-11.2-22 22.1-11.2 11.2 22.1-22.1 11.1z"/></g></svg>