<svg id="Capa_1" data-name="Capa 1" xmlns="http://www.w3.org/2000/svg" viewBox="0 0 125 45"><defs><style>.cls-1,.cls-2{fill:#fff}.cls-1{fill-rule:evenodd}</style></defs><path class="cls-1" d="M3.37 40.29h1.44l-.68-1.81zM1.8 42.51l.09-.09.07-.1.09-.11.08-.12.08-.09.08-.13.08-.14.09-.15.07-.15.09-.15.08-.17.09-.18.09-.18.12-.22.09-.2.08-.2.04-.13.07-.17.06-.16.06-.16.06-.16v-.14l.11-.21v-.13l.1-.26V38h.87l.13.42.12.41.21.37.11.37.13.35.11.34.12.31.11.29.12.29.11.26.11.24.1.22.1.2.09.17.09.15.1.12h-.78l-.73-2H3.26L3 41.3l-.13.32-.09.27v.58zm5.88-.11l-.21.14-.18.13-.08.07-.06.06-.07.06v.06L7 43v.78l.06.07.06.06.08.06h1.38l.08-.06.08-.07.07-.06.05-.06.06-.08v-.76l-.05-.05h-.13l-.08-.05h-.71zm.78-2.08v-.59h-.8v1.01l.05.05v.05h.39v-.37zm.14-.92h.65v.06h-.43v.32L9 40v.68l-.06.08-.07.07-.07.07-.08.06-.23.04h-.54l-.15.06-.13.07-.12.07-.09.07-.07.06v.21h.07l.08.05h.27l.17.05h.45l.17.05h.16l.14.05h.22l.09.05h.07l.06.06.06.06v1.05h-.06l-.07.06-.09.07-.18.84-.11.07-.13.07-.14.09-.15.09-.15.07-.14.07-.18.11H6.94l-.11-.06-.09-.05-.09-.07-.08-.06-.07-.07v-.08L6.39 44v-.79l.2-.21.12-.14.15-.15.14-.11.09-.08.09-.07.08-.06.07-.07H6.9v-.26l.07-.05h.15l.13-.07.12-.07.1-.07.09-.06h-.41L7 40.89v-1.17l.07-.09.09-.07.08-.06.1-.06h1.22zm1.81.89h1.19v-.39h-.9v.42zm1.87 1.47v.38l-.06.06-.05.06-.07.06-.08.06-.09.06-.1.05h-1.51l-.05-.06v-.05L10 42v-.08l-.06-.14-.05-.15-.05-.15v-1.06l.05-.15v-.21L10 40l.09-.12.09-.12.11-.1.11-.1h1.49l.09.06.07.06.07.07.08.07.05.08v.51h-1.92v1.16l.06.1.06.09.08.09.08.07.08.06h1L12 42l.11-.06.11-.08zm.6.75v-2.96l.64-.07v.42l.11-.11.11-.1.07-.05h.17l.13-.06h.87l.07.05.05.06v2.74h-.68v-2.52h-.86v2.46h-.78zm5.63-.7v.46h-.06l-.06.06h-1.66l-.06-.06v-.05h-.06l-.29-.22v-.12l-.07-.13-.07-.15V40l.09-.13.11-.13.05-.06.08-.06h.06l.07-.06h1.66v.75-.26h-.87l-.09.06-.09.07-.09.08-.07.09-.07.1-.06.11-.05.11v1.31l.05.1.06.1.07.1.07.07.09.07.09.06h.77H18h.18l.1-.07.11-.06h.05zm.76-2.92L19 38.4l.51-.32.3.48zM19 42.51v-3.04h.66v3.18zm3.06-1.7l-.36.15-.29.13-.12.06-.09.05h-.14l-.06.2v.37h.82v-1.16zm.11 1.76V42v.26l-.05.06h-.05v.05h-.05l-.13.06h-1.32l-.07-.06h-.06l-.05-.06v-.73h.05l.06-.06h.08l.09-.07.11-.06.13-.07.15-.07.15-.07.18-.07.2-.09.16-.09h.07V39.8h-.64v.24l-.05.07v.05h-.26v-.36h.06l.07-.06h.07l.08-.06h1.71v2.69zm3.11-.06v-4.52h2.21l.12.05h.1l.11.06.08.06.09.09.07.09.06.1.05.12v.96l-.05.13-.05.12-.07.12-.07.1-.09.1-.09.09-.1.07-.11.07h-1.27l-.08-.05h.69l.1-.05.1-.07.08-.07.14-.08.06-.09.07-.1V38.6l-.05-.07-.05-.07-.06-.05h-.07l-.08-.05h-.98v4.1zm3.77-2.22h1.24v-.39h-.83l-.05.07v.35zm1.87 1.47v.35l-.05.06-.06.06-.07.06-.08.06-.09.06-.09.05h-1.43l-.11-.09-.1-.11-.16-.26-.07-.12-.07-.14-.06-.15v-1.64l.08-.12.1-.12.1-.1.11-.1h1.5l.08.06.07.06.08.07.06.07.06.08.05.08v.09L31 40v.28h-2v1.06l.05.1.05.1.06.09.08.09.08.07.09.06h1l.12-.06.1-.06.11-.08zm.59.75v-2.92h.54v.36l.08-.12.1-.1.08-.09.09-.07h.45v.18H33h-.49v2.48zm4.3.06v-.52.07l-.05.07v.13l-.06.05h-1.3l-.1-.07-.08-.07-.08-.09-.07-.1v-2.68l.47-.09h.11v2.58h.81l.06-.05h.05v-2.35l.7-.09v3.2zm2.82-1.76l-.36.15-.29.13-.12.06-.09.05h-.14v.43h.57l.05-.05v-1.11zm.11 1.76V42l-.07.14-.09.12v.06h-.06v.05h-.06l-.12.06h-1.19l-.07-.06h-.05v-.79l.07-.06h.08l.09-.07.11-.06.12-.07.14-.07.16-.07.18-.07.2-.09.16-.09h.06v-.57h-.69v.36h-.17v-.4l.07-.06h.07l.08-.06h1.66v2.79zm1.16-.06v-2.96l.65-.07v.39l.12-.11.11-.1.05-.05h.18l.13-.06h.88l.07.05.06.06v2.93h-.68v-2.68h-.81v2.52h-.79zm4.85-1.7l-.35.15-.29.13-.12.06-.1.05h-.14v.43h.63v-1.16zm.1 1.76V42l-.09.14-.08.12-.05.06-.05.05h-.06l-.13.06h-1.13l-.07-.06v-.19L43 42v-.52h.11l.06-.06h.07l.1-.07.11-.06.12-.07.15-.07.16-.07.17-.07.19-.09.16-.09.11-.08.08-.06v-.89h-.54l-.05.07v.29h-.7v-.36l.07-.06h.07l.1-.06h1.7v2.59l.05.14v.11zm4.5-.36h.43v-2.48h-.75l-.11.06-.1.06-.09.08-.09.08-.07.1-.07.1v1.56l.07.1.06.1.08.08.08.07.07.06.1.05h.29zm1.25-4.65v4.9h.05l-.65.06v-.37l-.09.1-.09.09-.11.07-.12.07h-1.06l-.11-.06-.1-.07h-.05l-.05-.05-.09-.11L48 42l-.06-.13v-1.73l.05-.07v-.06l.06-.06.06-.07h.06l.07-.06.06-.06h.07l.08-.06h1.46v-2.01zm1.27 2.73h1.18v-.34h-.77l-.05.07v.06L52 40v.23zm1.87 1.47v.44l-.07.06-.07.06-.08.06-.09.06-.1.05h-1.36l-.11-.09-.11-.11-.25-.29-.07-.12-.07-.14v-1.79l.09-.12.09-.12.1-.1.12-.1h1.49l.08.06.08.06.07.07.07.07v.59h-1.69v1.16l.07.1.06.09.08.09.07.07.09.06h.95l.12-.06.11-.06.11-.08zM59.63 38l-.05 1v-.24l-.06-.07v-.07l-.07-.07-.06-.06-.07-.05H57.7l-.07.05h-.06v.06h-.06l-.05.06v2.14L57 41v.25l.05.08v.07l.06.07v.07l.06.06.06.06.07.06.07.05h.3L58 42h1.51l.07-.05h.07l.07-.06.07-.05.06-.07.06-.06v.23l-.06.1-.07.11-.08.09-.08.09-.1.08-.1.08-.11.07-.11.06-.12.06h-1.73l-.09-.05-.09-.06-.17-.4-.08-.07-.11-.1-.07-.08-.07-.07-.07-.09-.06-.09-.06-.09v-.19l-.05-.1v-1.98l.05-.11v-.1l.06-.1v-.1l.07-.09.07-.09.07-.08.08-.08.08-.08.09-.07.09-.07.09-.06.1-.06.1-.06h.57L58 38h1.59zm2.14 1.57h-.46l-.07.06-.06.06-.06.08-.06.08v.1l-.05.1v1.67l.06.12.06.1.07.09.08.08.08.06h.09l.1.05h.7l.08-.05.07-.06.06-.07.07-.09v-1.82l.01-.13-.07-.1-.06-.08-.07-.08-.08-.06-.08-.06h-.3zm.13-.27h.6l.13.06.12.07.11.08.1.1.09.1.07.11.07.11.05.13v1.89L63 42l-.05.07-.06.06h-.05l-.06.05h-1.62l-.16.25-.12-.07-.12-.07-.1-.1-.09-.11-.04-.08-.07-.13-.05-.15v-1.84h.05l.06-.06.06-.06.07-.06h.92zm3.33.27h-.46l-.08.06-.06.06-.07.08-.06.23v1.75l.06.12.06.1.08.09.08.08.08.06h.1l.09.05h.69l.08-.05.07-.06.06-.07L66 42v-2l-.06-.1-.08-.08-.08-.08-.07-.06-.09-.06h-.29zm.11-.27h.92l.05.05.08.1.08.11.06.11.06.13v1.69l-.05.07v.13l-.05.07-.06.06h-.05l-.06.05h-1.77l-.12-.06-.12-.07-.12-.07-.1-.1-.09.51V42l-.07-.13v-.15l-.05-.15v-1.43L64 40v-.12l.05-.07h.06l.06-.06v-.06h.06l.07-.06h.89zM68 41.16V42h.81l.09-.05h.09l.08-.07.07-.07.06-.08v-1.58l-.06-.11-.07-.09-.07-.1-.07-.08-.08-.07.15.07h-.88v1.19zm-.63 3.33v-5.04l.65-.09v.46l.11-.11.13-.09.12-.08.12-.07h.85l.11.07.1.07.09.1.09.1.09.12.07.12.06.12.06.14v1.66l-.06.07-.06.06-.06.07-.08.06h-.07l-.08.05H68v1.75zm3.88-4.23h1.19v-.36h-.66l-.06.06v.47zm1.84 1.46V42H73v.14l-.06.06-.08.07-.08.06-.09.06-.09.05h-1.43v-.17l-.29-.27v-2.17l.05-.06v-.06h.06v-.06h1.54l.09.06.08.06.07.07.06.07v.6h-1.68v1.16l.06.1v.09l.08.08.08.07h.09l.09.06h.9l.12-.06.11-.08.11-.08zm.59.79v-2.99h.56v.39l.08-.12.08-.1.09-.09.07-.07h.62v.27h-.7v2.53zm3.82-1.7l-.37.15-.28.13-.12.06-.09.05h-.14v.49h.76v-1.21zm.11 1.73V42v.26h-1.17l-.06-.06-.06-.07v-.77h.05l.06-.06h.08l.09-.07.11-.07.13-.07.14-.07.16-.07.18-.08.2-.09.16-.07h.07v-.73h-.58v.36h-1.22v-.36h.06l.07-.06h.06l.09-.06h1.66v2.36L78 42v.37zm3.55-.73v.48h-.06l-.07.06h-1.71l-.05-.05h-.07v-.06h-.05L79 42l-.09-.12-.07-.14v-1.72L79 40v-.16l.07-.06.06-.06.06-.06h.06l.07-.06h1.77v.75L81 40l-.07-.12-.07-.1-.07-.09-.1-.05h-.81l-.09.06-.09.07-.08.08-.09.09-.07.1v.1l-.06.12v1.31l.06.1v.1l.07.1.09.07.08.07.09.06h1.02l.1-.07H81zm.75-2.92l-.3-.49.52-.32.29.48zm-.24 3.62v-3.1h.66v3.18zm2.82-2.95h-.47l-.08.06-.07.06-.06.08v1.81l.05.11.07.11.07.09.09.09.08.07h.09l.1.05h.69l.08-.05.06-.06.07-.07v-.09l.06-.08v-1.25.01-.45l-.07-.11-.07-.09-.18-.08v-.07l-.09-.05h-.28zm.1-.27h.61l.13.06.11.06.11.08.1.08v.18l.07.12v1.69l-.06.16-.07.15-.08.14-.1.14-.05.06h-.06l-.07.05h-1.84v-.11h-.05V40.1l.09-.14.11-.12.12-.1.11-.1.14-.07.13-.07h.46zm.19-1.59h.6l-.07.12-.08.12-.07.11-.07.11-.07.1-.08.09-.08.08-.08.08-.08.07-.08.06-.09.06h-.48l.12-.17.11-.16.09-.16.08-.16.11-.14.08-.14.08-.14zm1.79 4.81v-3h.65v.42-.06l.06-.07v-.05l.06-.06h.06v-.05h1.12l.07.05.06.07v2.78h-.67v-2.71h-.86v2.53zm5.2 0V38.1h1v4.25zm1.7 0v-2.99h.66v.42-.06l.06-.07v-.05l.06-.06h.06l.06-.05h1.07l.06.05.06.07v2.66h-.68v-2.6h-.76v2.63zm3.44-2.87h-.32v-.24h.32v-.9l.51-.16v1.06h.64v.05h-.56v2.37h.24l.11-.09.11-.08v.3l-.07.08-.07.06-.08.06h-.78v-.73zm2.3.62h1.22v-.46h-.75v.45zm1.87 1.46v.44l-.07.06-.07.07-.08.06-.09.06-.08.05h-1.38l-.31-.19-.1-.11-.07-.16-.08-.14-.06-.13v-1.78l.08-.12.09-.12.06-.06h1.57l.08.06.09.06.07.07v.07l.06.07v.5h-1.6v1.13l.06.1.07.09.07.08.08.07h.09l.09.06h.91l.12-.06.11-.08.1-.08zm.6.79v-3.03h.56v.31l.1-.12.09-.1.09-.09.08-.07h.43v.1h-.8v2.96zm2.22 0v-2.99h.65v.42l.06-.06.05-.07v-.05l.06-.06.11-.09.11-.07h1.03l.06.05.05.07v2.88h-.7v-2.68h-.9v2.5zm4.84-1.7l-.36.15-.29.13-.12.06-.09.05h-.14v.49h.67v-1.21zm.11 1.73V42v.2l-.06.06h-1.21l-.06-.06v-.25.05-.52l.06-.06h.08l.09-.07.11-.07.14-.07.13-.07.17-.07.17-.08.11-.05h.24l.12-.08.07-.06v-.57h-1.19v.36h-.16v-.36l.07-.06h.07l.09-.06h1.7v2.26V42v.42zm3.55-.73v.46l-.07.06h-1.79v-.05h-.06v-.06h-.06l-.09-.12-.09-.12-.07-.14v-.14l-.05-.14v-1.64l.07-.06.06-.06.06-.06h.07l.06-.06h1.67v.75l.09-.43-.06-.12-.07-.1-.08-.09-.1-.05h-.72l-.09.06-.09.07-.08.08-.09.09-.06.1-.06.1-.06.12v1.31l.06.1.06.1.06.1.09.07.08.07.09.06h1.02l.1-.07.09-.06h.05zm.76-2.92l-.3-.49.51-.32.3.48zm-.25 3.62v-3.05h.66v3.12zm2.82-2.95h-.47l-.08.06-.07.06-.06.08v1.81l.06.11.07.11.07.09.08.09.09.07h.08l.1.05h.67l.07-.05.07-.06.07-.07v-.09l.05-.08v-1.25.01-.45l-.06-.11-.08-.09-.07-.08-.09-.07-.08-.05h-.28zm.11-.27h.6l.13.06.12.06.1.08.1.08v.18l.06.12.05.13v2.15l-.06.06v.05H115v-.11h-.05V40.1l.09-.14.11-.12.12-.1.12-.1.13-.07.13-.07h.46zm2 3.22v-2.99h.66v.42l.05-.06.06-.07.05-.05.06-.06h.06l.06-.05h1.12l.06.05.06.07v2.66h-.68v-2.6h-.68v2.63zm4.85-1.7l-.37.15-.29.13-.11.06-.09.05h-.15v.49h.7v-.33.24-.79zm.11 1.73V42l-.09.14-.08.11v.06h-1.48v-.06l-.06-.07v-.77l.07-.06h.07l.11-.07.1-.07.13-.07.15-.07.16-.07.19-.08.18-.09.15-.07h.11v-.57h-.64v.26h-.26v-.36l.06-.06h.08l.09-.06h1.7v2.81zm1.17 0v-4.72l.69-.14v4.91z"/><path class="cls-2" d="M25.78 8l1.44 2.84 2.83-1.45 1.44 2.83 2.84-1.43 1.43 2.82 1.44 2.84 1.44 2.83 1.43 2.82 2.84-1.43 2.83-1.45 2.83-1.43 2.82-1.43L50 13.52 47.12 15l-1.43-2.82-2.83 1.43-1.45-2.83-2.82 1.44-1.44-2.88-1.44-2.83-1.44-2.82L32.83.86 30 2.29l-2.83 1.45-2.82 1.43-2.84 1.44L23 9.45zm17 6.31l1.15 2.26-2.27 1.14-1.16-2.25zm-11.54-9.1l1.14 2.26-2.25 1.15L29 6.36zm-9.98 19.01l-1.43-2.83-1.44-2.83L15.56 20l-2.83 1.43-2.83 1.45-2.83 1.45 1.44 2.82 2.82-1.43 1.45 2.83 2.81-1.45L17 29.92l2.83-1.43 1.44 2.82 2.83-1.43-1.4-2.83zm-5.57 2.1l-1.15-2.26 2.27-1.15L18 25.17zm-3.99-6.73l2.85-1.45 2.83-1.43-1.45-2.83-2.83 1.43-1.43-2.82-2.83 1.44-1.45-2.83-2.83 1.43L3.13 9.7.29 11.14 1.74 14l1.43 2.85 1.45 2.82 1.43 2.84L8.88 21zm-5.23-3.76l2.26-1.15 1.15 2.26-2.26 1.15z"/><path class="cls-2" d="M42.45 8.05l1.43 2.83 2.83-1.45 1.45 2.84L51 10.83l1.45 2.82 2.83-1.43-1.47-2.83-1.43-2.82-1.45-2.85L49.5.9l-2.83 1.44-2.82 1.44L41 5.22l-2.82 1.43 1.44 2.83zm5.46-2.79l1.15 2.26-2.26 1.15-1.15-2.26zM57 26.83L55.52 24l-1.44-2.83-1.43-2.83-2.84 1.43L47 21.22l-2.84 1.43-2.85 1.45 1.45 2.82 2.83-1.44L47 28.32l2.83-1.44 1.45 2.81 2.82-1.42 1.43 2.81 2.84-1.43zm-7-.72l-1.15-2.27 2.26-1.14L52.2 25zM8.73 8.25l1.43 2.83L13 9.64l1.45 2.83L17.27 11l1.43 2.82 1.44 2.84 1.44 2.83L23 22.35l2.83-1.43 2.83-1.45L31.51 18l2.82-1.45-1.43-2.78-2.82 1.44-1.45-2.83-2.83 1.44L24.37 11l-2.84 1.43-1.44-2.84-1.44-2.83-1.44-2.82-1.43-2.83-2.84 1.43L10.11 4 7.29 5.42 4.45 6.86l1.44 2.83zm17 6.33l1.15 2.25L24.59 18l-1.15-2.27zM14.18 5.45l1.15 2.26-2.27 1.15-1.15-2.26zm24.21 18.66L37 21.28l-1.45-2.83-2.83 1.43-2.83 1.45L27 22.76l-2.83 1.45L25.63 27l2.82-1.45 1.45 2.84L32.73 27l1.45 2.81L37 28.39l1.43 2.81 2.83-1.43-1.43-2.83zm-5.59 2.11L31.65 24l2.26-1.15 1.16 2.26z"/><path class="cls-1" d="M74.82 20.64h5.88l-2.76-7.5zm-6.47 9.15l.17-.2.17-.21.16-.21L69 29l.34-.46.32-.49.34-.51.33-.54.33-.56.34-.58.16-.3.17-.31.17-.33.17-.33.17-.34.18-.34.17-.36.18-.36.18-.37.17-.38.18-.38.18-.4.19-.4.18-.41.17-.41.19-.43.31-.71.28-.7.27-.66.26-.67.24-.63.23-.62.22-.6.19-.58.2-.54.16-.48.14-.42.11-.37.09-.31.06-.25v-1.28H80l.26.87.26.87.26.83.25.83.26.8.26.78.25.77.25.75.24.73.25.72.25.7.24.67.24.66.24.65.23.62.26.56.24.6.22.57.23.55.22.52.22.5.21.49.21.46.2.42.21.42.19.39.2.37.18.34.18.32.19.29.17.28.18.25h-3.2l-2.93-8.07h-6.76l-1.25 3.05v.09l-.15.34-.13.34-.12.31-.11.31-.11.29-.1.29-.08.27-.08.26-.07.25v.23L72 28v1.83zm20.2 0v-.06l.06-.07v-.58l.07-.26.06-.29V12.42l-.06-.3-.07-.26v-.57l-.06-.06v-.07h5.01L94 11h2.87l.29.05.27.07.26.07.25.08.24.1.23.1.21.11.21.12.21.13.18.14.18.16.16.16.16.18.15.19.13.18.13.21.11.21.1.22.1.23.07.24.07.25.07.25v2.92l-.07.28-.07.28-.09.27-.1.25-.11.26-.21.29-.13.23-.15.24-.16.21-.17.22-.18.21-.19.19-.2.18-.21.17-.21.15-.21.14-.23.14-.23.11-.24.11-.25.09-.26.09-.26.07-.27.06h-3.07l-.17-.05-.17-.05-.17-.06-.15-.07-.16-.07-.11-.31h1.67l.25-.06.24-.07.24-.07.23-.08.22-.1.21-.11.21-.12.19-.12.19-.14.18-.14.17-.17.16-.17.16-.18.14-.18L97 19l.12-.2.12-.22.1-.22.08-.22.09-.24.06-.24.06-.26v-2.93l-.06-.2-.06-.18-.07-.17-.08-.17-.08-.15-.1-.15-.09-.14-.09-.12-.11-.13-.12-.12-.13-.11-.14-.1-.14-.1-.15-.08-.21-.09-.17-.07-.17-.06-.19-.06h-3.39v16.28l.07.29.07.25v.7zm28-18.63l-.17 4-.08-.19-.09-.18-.08-.18-.1-.17-.09-.17-.1-.15-.11-.16-.1-.15-.12-.14-.11-.13-.12-.12-.12-.13-.13-.11-.13-.11-.13-.11-.14-.1-.15-.1-.14-.08-.16-.08-.15-.08-.16-.07-.15-.06-.18-.05h-.16l-.17-.05h-3.31l-.16.05h-.16l-.17.05-.15.06-.16.07-.14.06-.15.07-.15.08-.15.07-.14.08-.14.09-.13.09-.13.09-.13.11-.13.1-.13.11-.12.1-.12.12-.12.12-.12.12-.11.13-.11.13-.1.13-.11.14-.1.14-.1.14-.09.15-.09.15-.08.15-.09.16-.07.15-.07.17-.07.16-.07.16-.07.17-.06.18-.06.17-.06.18v5.95l.06.2.05.18.06.19.06.19.07.18.07.18.08.18.08.17.07.17.09.16.09.16.1.17.09.15.1.16.11.15.11.15.11.15.11.14.12.14.12.14.13.13.13.13.13.12.14.12.14.11.13.11.15.1.14.11.14.09.15.09.16.09.15.08.16.08.16.08.16.07.17.06.16.06.17.07.17.05h4.11l.18-.05.17-.05.18-.07.17-.06.17-.07.16-.07.17-.08.17-.07.15-.08.16-.09.15-.09.16-.09.15-.1.14-.11.14-.11.14-.11.14-.12.14-.12.14-.13.13-.13.12-.13.14-.14-.08.25-.08.24-.09.24-.1.23-.11.23-.11.22-.13.21-.15.2-.14.2-.16.2-.17.18-.18.18-.18.18-.2.16-.21.17-.22.15-.22.15-.24.14-.24.12-.24.13-.25.11-.25.1-.26.08-.27.09-.27.07-.27.06-.28.06h-3.5l-.21-.05-.21-.06-.21-.05-.21-.07-.2-.07-.2-.08-.19-.08-.2-.08-.2-.09-.18-.1-.19-.1-.19-.11-.17-.11-.18-.11-.17-.13-.17-.12-.18-.13-.17-.14-.16-.14-.16-.15-.16-.15-.16-.16-.15-.16-.15-.17-.15-.16-.14-.18-.13-.17-.13-.18-.13-.19-.12-.19-.12-.18-.11-.19-.1-.19-.1-.21-.11-.2-.09-.2-.08-.2-.09-.21-.08-.22-.07-.21-.07-.22-.06-.22-.06-.22-.06-.24v-5.65l.06-.24.06-.24.07-.24.08-.22.08-.24.08-.22.09-.22.09-.22.1-.21.11-.21.11-.2.12-.2.12-.2.12-.19.13-.2.14-.18.14-.18.15-.18.15-.17.16-.17.16-.17.17-.16.16-.16.17-.14.18-.15.18-.14.19-.13.19-.14.19-.12.2-.12.2-.12.16-.06.21-.1.21-.1.22-.1.23-.09.22-.08.23-.08.23-.08.24-.07.24-.06.25-.06.25-.06.24-.05h6.79zm3.62 18.63l.06-.06v-.65l.06-.26.07-.29V12.42l-.07-.3-.06-.26v-.63l-.06-.07h4v1.22l-.06.32v15.55l.06.32v1.22z"/></svg>