<svg xmlns="http://www.w3.org/2000/svg" width="336.7" height="118.3"><style>.st0{fill-rule:evenodd;clip-rule:evenodd;fill:#1b365d}</style><path class="st0" d="M8.3 106.7h3.9l-1.8-4.9-2.1 4.9zm-4.2 6l.2-.3.2-.3.2-.3.2-.3.2-.4.2-.4.2-.4.2-.4.2-.4.2-.4.2-.4.2-.5.2-.5.2-.5.2-.5.2-.5.2-.5.2-.5.2-.4.2-.4.2-.4.1-.4.1-.4.1-.4.3-.7.1-.5.1-.4v-.9h2.3l.4 1.1.3 1.1.4 1 .3 1 .3.9.3.9.3.8.3.8.3.8.3.7.3.7.3.6.3.5.2.5.3.4.3.3h-2.1l-2-5.3H8l-.8 2.1-.3.9-.3.9-.1.3-.1.3v1.4H4.1zm15.9-.3l-.5.4-.5.4-.2.2-.2.2-.2.2-.1.2-.1.1-.1.2-.1.2-.1.1-.1.2v.7l.1.2.1.2.1.2.2.2.2.2.2.2.2.1.2.1.3.1.3.1h1.9l.3-.1.2-.1.2-.1.2-.1.2-.2.2-.2.1-.3.1-.2.1-.2.1-.2.1-.2v-.9l-.1-.2-.1-.2-.1-.2-.1-.1-.1-.1-.2-.1-.2-.1-.2-.1-.3-.1-.3-.1-.4-.1-.4-.1-.5-.1-.4-.3zm2.1-5.7v-.8l-.1-.2-.1-.2-.1-.2-.1-.2-.1-.1-.1-.1-.1-.1-.1-.1-.1-.1h-.9l-.1.1-.1.1-.1.1-.1.1-.1.1-.1.1-.1.1-.1.2v1.6l.1.2.1.2.1.2.1.2.1.1.1.1.1.1.1.1.1.1h.8l.1-.1.1-.1.1-.1.1-.1.1-.1.1-.1.1-.1.1-.1.1-.1v-.8zm.4-2.4h1.7v.4l-.1.1H24l-.1.1h-.7l.1.2.1.2.1.2.1.2.1.2v1.1l-.1.2-.1.2-.1.2-.1.2-.1.2-.2.2-.2.2-.2.2-.2.1-.3.1-.3.1-.3.1H21l-.3.1-.4.2-.4.2-.3.2-.2.2-.2.1-.1.2v.6l.1.1.2.1.2.1.3.1.4.2.5.1.5.1h.3l.5.1.5.1.4.1.4.1.3.1.3.1.2.1.2.1.2.1.2.2.1.2.1.2.1.2.1.2v1l-.1.2-.1.2-.1.2-.1.2-.1.2-.1.1-.1.1-.2.2-.2.2-.3.2-.3.2-.3.2-.4.2h-.2l-.4.2-.4.2-.4.2-.4.2-.4.1-.3.1-.3.1h-.9l-.3-.1-.3-.1-.5.2-.3-.1-.3-.1-.3-.2-.2-.2-.2-.2-.1-.2-.1-.2-.1-.2-.1-.2v-.9l.1-.1.1-.2.1-.2.1-.2.1-.2.3-.4.3-.4.4-.4.5-.4.2-.2.2-.2.2-.2.2-.2-.5-.1-.4-.1-.2-.1-.1-.1-.1-.1-.1-.1-.1-.1-.1-.1-.1-.1v-.7l.1-.1.1-.1.1-.1.2-.1.2-.1.2-.1.4-.2.3-.2.3-.2.2-.2h-.2l-.2-.1-.2-.1-.2-.1-.2-.1-.2-.1-.1-.1-.1-.1-.1-.2-.1-.2-.1-.2-.1-.2-.1-.2-.1-.2v-1l.1-.3.1-.3.1-.3.2-.2.2-.2.2-.2.2-.2.3-.2.3-.1.3-.1.3-.1.3-.1h1.8l.2.1.2.1.2.1zm4.9 2.4h3.2l.1-.1.1-.1v-.7l-.1-.1-.1-.1-.1-.1-.1-.1-.1-.1-.1-.1-.1-.1-.1-.1-.1-.1-.1-.1H29l-.2.1-.2.1-.2.1-.1.1-.1.1-.1.1-.1.1-.1.2-.1.2-.1.2-.1.2-.1.2v.2h-.1zm5 3.9v.6l-.1.2-.1.2-.1.2-.1.2-.2.2-.2.1-.3.2-.3.1-.3.1-.3.1-.3.1-.3.1h-1.6l-.2-.1h-.2l-.2-.1-.2-.1-.1-.1-.2-.1-.1-.1-.2-.1-.1-.1-.1-.1-.1-.1-.2-.3-.2-.3-.2-.4-.1-.4-.1-.4-.1-.4v-2l.1-.4.1-.4.1-.2.1-.2.1-.2.1-.2.2-.3.3-.3.3-.3.3-.3.2-.1.2-.1.2-.1.2-.1.2-.1.2-.1.2-.1h1.6l.3.1.3.1.3.1.2.1.2.2.2.2.2.2.2.2.1.2.1.2.1.3.1.3v.9l-.1.1-.2.1-.2.1-.4.1h-4.5v2.3l.1.3.1.3.1.3.1.3.2.2.2.2.2.2.2.2.3.1.3.1.3.1h1.6l.2-.1.1-.1.3-.2.3-.2.3-.2.3-1zm1.6 2.1l.1-.1v-.1l.1-.2.1-.3v-6.9l-.1-.3-.1-.2v-.3l1.7-.2v1.2l.3-.3.3-.3.2-.1.1-.1.2-.1.2-.1.3-.2.3-.1h1.4l.3.1.2.1.2.1.2.1.1.2.1.2.1.1.1.1v.1l.1.1.1.4.1.4.1.5v5.6l.1.2.1.1.1.1.1.1h-1.8v-6.5l-.1-.2-.1-.2-.1-.2-.1-.1-.1-.1-.1-.1-.1-.1-.1-.1-.2-.1h-1.3l-.2.1-.2.1-.2.1-.1.1-.1.1-.1.2-.2.4-.1.3-.1.3v4.7l.1.4v.9h.1-2zm15.3-1.9v.5l-.1.2-.1.2-.1.2-.1.2-.1.1-.2.1-.2.1-.2.1-.3.1-.3.1-.3.1h-1.7l-.4-.1-.4-.1-.2-.1-.2-.1-.2-.1-.1-.1-.2-.1-.1-.1-.1-.1-.1-.1-.1-.1-.1-.2-.1-.2-.1-.2-.2-.4-.2-.4-.1-.4-.1-.4-.1-.4v-1.7l.1-.2.1-.2.1-.2.1-.2.1-.2.1-.2.1-.2.3-.4.3-.3.1-.2.2-.1.2-.1.2-.1.2-.1.2-.1.2-.1.2-.1.2-.1.2-.1.2-.1h2.8l.2.1-.1 2-.1-.2-.1-.2-.1-.2-.1-.2-.1-.1-.1-.1-.1-.1-.1-.1-.1-.1-.1-.1-.1-.1-.1-.1h-.9l-.3.1-.3.1-.3.1-.2.1-.3.2-.2.2-.2.3-.2.3-.1.3-.1.3-.1.3-.1.3-.1.4v1.6l.1.3.1.3.1.3.1.3.1.3.2.3.2.2.2.2.3.1.2.1.3.1.3.1h1.8l.1-.1.2-.1.3-.2.3-.2.1-.1.1-.1.1-.1-.1-.1zm2-7.9l-.8-1.3 1.4-.9.8 1.3-1.4.9zm-.6 9.8l.1-.1v-.1l.1-.2.1-.3v-7.1l-.1-.3-.1-.2v-.3h1.8l.2-.1v8.1l.1.2.1.2.1.2.1.1h-2.5zm8.2-4.6l-1 .4-.8.4-.3.1-.3.1-.2.1-.2.1-.1.1-.1.1-.1.1-.1.1-.1.1-.1.1v.6l.1.1v.1l.1.1.1.1.1.1.1.1.1.1.1.1.2.1h.9l.2-.1.2-.1.1-.1.1-.1.1-.1.1-.1.1-.1.1-.2.1-.2.1-.2v-2zm.3 4.7l-.1-.2v-.2l-.1-.2-.1-.2v-.8l-.1.2-.1.2-.1.2-.1.2-.1.1-.1.1-.1.1-.1.1-.4.2-.4.1h-1.5l-.2-.1-.2-.1-.2-.1-.2-.1-.2-.1-.2-.1-.2-.1-.1-.2-.1-.2-.1-.2-.1-.2v-1l.1-.2.1-.2.1-.1.1-.1.1-.1.2-.1.2-.1.3-.2.3-.2.3-.2.4-.2.4-.2.5-.2.5-.3.4-.2.2-.1.1-.1.1-.1.1-.1.1-.2.1-.2v-1.3l-.1-.1-.1-.1-.1-.1-.1-.1-.1-.1-.1-.1-.1-.1-.1-.1h-1.4l-.2.1-.1.1-.1.1-.1.1-.1.1-.1.2-.1.2-.1.2-.1.2-.1.1-.1.1-.1.1-.1.1h-.5l-.1-.1-.1-.1-.1-.1-.1-.1v-.7l.1-.2.1-.1.2-.1.2-.1.2-.1.2-.1.3-.1.3-.1.3-.1.3-.1H59l.2.1.2.1.2.1.1.1.1.1.1.1.1.1.1.2.1.2.1.2v6l.1.2v.7l.1.1.1.1.1.1.1.1.1.1-1.7-.1zm8.5-.1l.1-.1.1-.1v-.2l.1-.4.1-.5v-9.7l-.1-.4-.1-.3-.1-.3-.1-.2H73l.4.1.4.1.3.1.3.1.3.2.2.2.2.2.2.3.2.3.1.3.1.3.1.3v1.6l-.1.4-.1.4-.1.3-.2.3-.2.3-.2.3-.3.2-.3.2-.3.2-.3.1-.3.1-.3.1-.4.1h-1.5l-.2-.1-.2-.1-.2-.1-.2-.1h1.3l.3-.1.3-.1.3-.1.3-.2.2-.2.2-.2.2-.3.2-.3.1-.3.1-.3.1-.3v-1.7l-.1-.3-.1-.2-.1-.2-.1-.2-.1-.2-.2-.1-.2-.1-.2-.1-.2-.1-.2-.1h-2.3v10.4l.1.5.1.4v.1l.1.1v.1l.1.1h-2.9zm10.1-6h3.5v-1.1l-.1-.1-.1-.1-.1-.1-.1-.1-.1-.1-.1-.1-.1-.1-.1-.1-.1-.1h-.9l-.2.1-.2.1-.2.1-.1.1-.1.1-.1.1-.1.1-.1.2-.1.2-.1.2H78l-.1.2-.1.2v.3zm5.1 3.9v.6l-.1.2-.1.2-.1.2-.2.2-.2.2-.2.1-.2.2-.2.1-.3.1-.3.1-.3.1-.3.1h-1.6l-.2-.1h-.2l-.2-.1-.2-.1-.2-.1-.2-.1-.1-.1-.3-.2-.3-.3-.3-.3-.2-.3-.2-.4-.1-.4-.1-.4-.1-.4v-2l.1-.4.1-.4.1-.2.1-.2.1-.2.1-.2.2-.3.3-.3.3-.3.3-.3.2-.1.2-.1.2-.1.2-.1.2-.1.2-.1.2-.1h1.6l.3.1.3.1.3.1.2.1.2.2.2.2.2.2.2.2.2.2.1.2.1.3.1-.1v.9l-.1.1-.2.1-.2.1-.4.1h-4.5l-.1.3-.1.2v1.4l.1.4.1.3.1.3.1.3.1.3.2.2.2.2.2.2.2.2.2.1.3.1.3.1h1.7l.1-.1.1-.1.3-.2.3-.2.3-.2.6-.5zm1.6 2.1l.1-.1v-.6l.1-.3v-6.2l-.1-.4v-.6l-.1-.1h.2l.2-.1h.5l.4-.1h.3l.1.1v1.1l.2-.3.3-.3.2-.3.2-.2.1-.1.1-.1.1-.1h1.4l.1.1.1.1.1.1.1.1v.4l-.1.1H89l-.1.1h-.6l-.3-.1h-1.2l-.1.1-.1.1-.1.1-.1.1-.1.1-.1.2v6.1l.1.2.1.2.1.1.1.1h-2.1zm11.6.1H96v-.2l-.1-1.4-.1.2-.1.2-.1.2-.1.1-.1.2-.1.1-.1.1-.2.1-.2.1-.2.1-.2.1-.2.1h-1.7l-.2-.1h-.1l-.1-.1-.3-.2-.2-.2-.2-.2-.2-.3-.1-.2-.1-.3-.1-.3-.1-.3v-6.2l-.1-.1-.1-.1h-.1l1.3-.2h.3l.1.1h.1v.5l-.1 4.4v1l.1.3.1.3.1.2.1.2.1.1.1.1.1.1.1.1.2.1.2.1h1.2l.2-.1.2-.1.2-.1.1-.1.1-.2.1-.2.1-.2.1-.3.1-.3v-5.3l-.1-.2-.1-.2v-.2l1.9-.2v8.1l.1.2.1.2.1.2.1.1-1.8.1zm7.7-4.7l-1 .4-.8.4-.3.1-.3.1-.2.1-.2.1-.1.1-.1.1-.1.1-.1.1v.8l.1.1v.1l.1.1.1.1.1.1.1.1.1.1.1.1.2.1h.9l.2-.1.2-.1.2-.1.1-.1.1-.1.1-.1.1-.1.1-.2.1-.2.1-.2v-2zm.3 4.7l-.1-.2v-1.4l-.2.4-.2.3-.1.1-.2.1-.1.1-.1.1-.3.2-.4.1h-1.5l-.2-.1-.2-.1-.2-.1-.2-.1-.2-.1-.2-.1-.1-.1-.1-.2-.1-.2-.1-.2-.1-.2v-1l.1-.2.1-.2.1-.1.1-.1.1-.1.2-.1.2-.1.3-.2.3-.2.3-.2.4-.2.4-.2.5-.2.5-.3.4-.2.2-.1.1-.1.1-.1.1-.1.1-.1.1-.1v-.2l.1-.3v-1.1l-.1-.1-.1-.1-.1-.1-.1-.1-.1-.1-.1-.1-.1-.1-.2-.1h-1.4l-.2.1-.1.1-.1.1-.1.1-.1.1-.1.2-.1.2-.1.2-.1.2-.1.1-.1.1-.1.1-.1.1h-.5l-.1-.1-.1-.1-.1-.1v-.8l.1-.2.1-.1.1-.1.2-.1.2-.1.2-.1.3-.1.3-.1.3-.1.3-.1h2.6l.2.1.2.1.2.1.1.1.1.1.1.1.1.1.1.2.1.2.1.2v6.9l.1.1.1.1.1.1.1.1.1.1-1.9.1zm3.1-.1l.1-.1v-.6l.1-.3v-6.2l-.1-.4v-.6l-.1-.1h-.1l1.8-.2v1.2l.3-.3.3-.3.1-.1.1-.1.2-.1.2-.1.3-.2.4-.1h1.4l.3.1.2.1.2.1.2.1.2.2.1.2.1.2.1.3.1.4.1.4.1.5v5.6l.1.2.1.1.1.1.1.1h-1.8v-6.5l-.1-.2-.1-.2-.1-.2-.1-.1-.1-.1-.1-.1-.1-.1-.1-.1-.2-.1h-1.3l-.2.1-.2.1-.2.1-.1.1-.1.1-.1.2-.1.2-.1.3-.1.3v5.4l.1.3.1.2v.2h.1-2.1zm13.1-4.6l-.9.4-.8.4-.3.1-.3.1-.2.1-.1.1-.1.1-.1.1-.1.1-.1.1-.1.1v.7l.1.1v.1l.1.1.1.1.1.1.1.1.1.1.1.1.1.1h.9l.2-.1.2-.1.1-.1.1-.1.1-.1.1-.1.1-.1.1-.2.1-.2.1-.2v-2zm.3 4.7v-1.6l-.2.4-.2.3-.1.1-.1.1-.1.1-.2.1-.3.2-.3.1h-1.8l-.2-.1-.2-.1-.2-.1-.2-.1-.2-.1-.2-.1-.1-.1-.1-.2-.1-.2-.1-.2-.1-.2v-1l.1-.2.1-.2.1-.1.1-.1.1-.1.2-.1.2-.1.3-.2.3-.2.3-.2.4-.2.4-.2.5-.2.5-.3.4-.2.3-.2.2-.2.1-.1v-1.8l-.1-.1-.1-.1-.1-.1-.1-.1-.1-.1-.1-.1h-1.3l-.1.1-.1.1-.1.1-.1.1-.1.1-.1.2-.1.2-.1.2-.1.2-.1.1-.1.1-.1.1-.1.1h-.6l-.1-.1-.1-.1v-.7l.1-.2.1-.1.1-.1.2-.1.2-.1.3-.1.3-.1.3-.1.3-.1.3-.1h2.7l.2.1.2.1.2.1.2.1.1.1.1.1.1.1.1.2.1.2v6.6l.1.4.1.3.1.1.1.1.1.1.1.1-2.4-.3zm12.2-.9h.6l.2-.1.1-.1.1-.1.1-.1.1-.1.1-.2.1-.2.1-.2v-5.7l-.1-.1-.1-.1-.1-.1-.1-.1h-1l-.3.1-.3.1-.3.1-.3.1-.3.2-.3.2-.2.2-.2.3-.2.3-.1.3-.1.3-.1.4-.1.4v1.7l.1.3.1.3.1.3.1.3.2.3.2.3.2.2.2.2.2.2.2.1.3.1.3.1h.3l.2-.2zm3.3-12.6v12.3l.1.4.1.3.1.2.1.1-1.8.1v-.9l-.3.3-.3.2-.3.2-.3.2-.2.1h-.2l-.2.1h-1.8l-.4-.1-.3-.1-.3-.2-.3-.2-.1-.1-.1-.1-.1-.1-.1-.1-.2-.3-.2-.3-.2-.4-.1-.4-.1-.4-.1-.4v-2.3l.1-.2.1-.2.1-.2.1-.2.1-.2.1-.2.1-.2.1-.2.1-.2.2-.2.2-.1.2-.2.2-.1.2-.1.2-.1.2-.1.2-.1.2-.1.2-.1.2-.1.3-.1.3-.1h2.4v-3.7l-.1-.3-.1-.2-.1-.2-.1-.2 1.9-.2zm3.5 7.4h3.2l.1-.1.1-.1v-.9l-.1-.1-.1-.1-.1-.1-.1-.1-.1-.1-.1-.1-.1-.1-.1-.1-.1-.1h-.8l-.2.1-.2.1-.2.1-.1.1-.1.1-.1.1-.1.1-.1.2-.1.2-.1.2-.1.2-.1.2-.1.2-.1.1zm5 3.9v.6l-.1.2-.1.2-.1.2-.2.2-.2.2-.2.1-.2.2-.3.1-.3.1-.3.1-.3.1-.3.1h-1.6l-.2-.1h-.2l-.2-.1-.2-.1-.2-.1-.2-.1-.1-.1-.3-.2-.3-.3-.2-.3-.2-.3-.2-.4-.1-.4-.1-.4-.1-.4v-2l.1-.4.1-.4.1-.2.1-.2.1-.2.1-.2.2-.3.3-.3.3-.3.3-.3.2-.1.2-.1.2-.1.2-.1.2-.1.2-.1.2-.1h1.6l.3.1.3.1.3.1.3.1.2.2.2.2.2.2.2.2.1.2.1.2.1.3.1.3v.9l-.1.1-.2.1-.2.1-.4.1h-4.4l-.1.3v1.6l.1.4.1.3.1.3.1.3.2.3.2.2.2.2.2.2.2.2.2.1.3.1.3.1h1.6l.1-.1.2-.1.3-.2.3-.2.3-.2.3-.9zm15.9-10.1l-.1 2.6-.1-.2-.1-.2-.1-.2-.1-.2-.1-.2-.2-.2-.2-.2-.2-.1-.2-.1-.2-.1-.2-.1-.2-.1-.2-.1h-1.9l-.2.1-.2.1-.2.1-.2.1-.2.1-.2.1-.2.1-.2.1-.2.1-.2.1-.1.2-.2.1-.1.2-.1.2-.1.2-.1.2-.1.2-.1.2-.1.2-.1.2-.1.2-.1.3-.1.3v3.3l.1.3.1.3.1.2.1.2.1.2.1.2.1.2.1.2.1.2.1.2.2.2.2.2.2.2.2.1.2.1.2.1.2.1.2.1.2.1.2.1.2.1h2.2l.2-.1h.3l.2-.1.2-.1.2-.1.2-.1.2-.1.2-.1.2-.1.2-.1.2-.1.2-.2.2-.2-.1.3-.1.3-.1.3-.2.3-.2.3-.2.2-.3.2-.3.2-.3.2-.3.2-.3.1-.3.1-.4.1-.4.1h-2l-.3-.1-.3-.1-.3-.1-.3-.1-.3-.1-.3-.1-.2-.1-.3-.1-.2-.2-.2-.2-.2-.2-.2-.2-.2-.2-.2-.2-.2-.3-.1-.2-.1-.3-.1-.3-.1-.3-.1-.3-.1-.3-.1-.3-.1-.3-.1-.3v-2.7l.1-.3.1-.3.1-.3.1-.3.1-.3.1-.3.1-.3.1-.3.2-.3.2-.2.2-.2.2-.2.2-.2.2-.2.3-.2.3-.2.3-.2.3-.1.3-.1.3-.1.3-.1.3-.1.3-.1.3-.1h3l.5.1h1zm5.8 4.2h-.6l-.3.1-.2.1-.2.1-.2.2-.2.2-.2.2-.1.2-.1.3-.1.3-.1.3v.3l-.1.4v1.6l.1.4.1.4.1.4.1.4.2.3.2.3.2.2.2.2.2.2.3.1.3.1.3.1h1.2l.2-.1.2-.1.2-.1.2-.2.2-.2.2-.2.1-.2.1-.3.1-.3.1-.3v-2.9l-.1-.3-.1-.3-.1-.3-.1-.3-.2-.3-.2-.2-.2-.2-.2-.2-.2-.1-.3-.1-.3-.1h-.3l-.4-.1zm.4-.7h.9l.4.1.4.1.3.2.3.2.3.2.3.3.2.3.2.3.2.3.1.3.1.4.1.4v1.4l-.1.5-.1.5-.1.5-.1.2-.1.2-.1.2-.1.2-.1.2-.1.2-.1.2-.1.2-.1.2-.1.1-.1.1-.2.1-.2.1-.2.1-.2.1-.2.1-.2.1-.2.1-.2.1h-1.9l-.4-.1-.4-.1-.3-.2-.3-.2-.3-.2-.3-.3-.2-.3-.2-.3-.2-.4-.1-.4-.1-.4-.1-.4v-2.2l.1-.2v-.2l.1-.2.1-.2.1-.2.1-.2.1-.2.1-.2.1-.2.1-.2.1-.1.1-.2.2-.1.1-.1.2-.1.2-.1.2-.1.2-.1.2-.1.2-.1.2-.1.2-.1h1zm9 .7h-.6l-.3.1-.3.1-.2.1-.2.2-.2.2-.2.2-.1.2-.1.3-.1.3-.1.3-.1.3v2.4l.1.4.1.4.1.4.1.3.2.3.2.2.2.2.2.2.3.1.3.1.3.1h1.2l.2-.1.2-.1.2-.1.2-.2.2-.2.1-.2.1-.2.1-.3.1-.3.1-.3.1-.4v-2l-.1-.4-.1-.3-.1-.3-.1-.3-.2-.3-.2-.3-.2-.2-.2-.2-.2-.2-.2-.1-.3-.1-.3-.1h-.3l.1-.2zm.3-.7h.9l.4.1.4.1.2.1.2.1.2.1.1.1.1.1.1.1.1.1.1.1.2.3.2.3.2.3.2.3.1.4.1.4v1.9l-.1.5-.1.5-.1.2-.1.2-.1.2-.1.2-.1.2-.1.2-.1.2-.1.2-.1.2-.1.1-.2.1-.2.1-.2.1-.2.1-.2.1-.2.1-.2.1-.2.1-.2.1h-2l-.4-.1-.4-.1-.3-.2-.3-.2-.3-.2-.3-.3-.2-.3-.2-.3-.2-.4-.1-.4-.1-.4-.1-.4v-2.3l.1-.2.1-.2.1-.2.1-.2.1-.2.1-.2.1-.2.1-.2.1-.2.1-.2.1-.1.2-.2.1-.1.2-.1.2-.1.2-.1.2-.1.2-.1.2-.1.2-.1.2-.1.2-.1h.9zm7 5v1.9l.1.2.1.2.1.1.1.1.1.1.1.1.1.1.2.1.2.1h1.2l.3-.1.3-.1.3-.1.2-.1.2-.2.2-.2.2-.2.1-.3.1-.3.1-.3.1-.3.1-.3v-1.6l-.1-.4-.1-.3-.1-.3-.1-.3-.2-.3-.2-.3-.2-.3-.2-.2-.2-.2-.2-.1-.2-.1-.3-.1h-1l-.2.1-.2.1-.2.1-.2.1-.1.1-.1.1-.1.1v.3l-.1.3-.1.3v2.4zm-1.7 9l.1-.1v-.2l.1-.3.1-.4v-11.2l-.1-.5-.1-.4v-.3l-.1-.1-.1-.1 1.8-.2v1.2l.3-.3.3-.3.3-.2.3-.2.2-.1.2-.1.2-.1h1l.3.1.3.1.3.1.3.2.3.2.3.3.3.3.2.3.2.3.2.3.1.4.1.4.1.4v1.8l-.1.2-.1.2-.1.2-.1.2-.1.2-.1.2-.1.2-.1.2-.1.2-.1.2-.2.2-.2.2-.2.2-.2.1-.2.1-.2.1-.2.1-.2.1-.2.1-.2.1-.3.1-.3.1-.3.1h-2v4.1l.1.4.1.3v.1l.1.1v.1l.1.1h-2zm10.6-11.4h3.3v-1l-.1-.1-.1-.1-.1-.1.1-.3-.1-.1-.1-.1-.1-.1-.1-.1h-1.3l-.2.1-.1.1-.1.1-.1.1-.1.2-.1.2-.1.2-.1.2-.4.2v.4l-.1.2zm5 4v.6l-.1.2-.1.2-.1.2-.2.2-.2.2-.2.1-.2.2-.3.1-.3.1-.3.1-.3.1-.3.1h-1.4l-.4-.1-.3-.1-.2-.1-.1-.1-.1-.1-.1-.1-.1-.1-.1-.1-.1-.1-.1-.1-.1-.2-.1-.2-.1-.2-.1-.2-.1-.2-.1-.2-.1-.2-.1-.2-.1-.4-.1-.4v-2l.1-.4.1-.4.1-.2.1-.2.1-.2.1-.2.1-.2.1-.2.1-.1.1-.2.1-.1.1-.1.1-.1.1-.1.2-.1.2-.1.2-.1.2-.1.2-.1.2-.1h.4l.4-.1h1l.3.1.3.1.3.1.3.1.3.2.2.2.2.2.2.2.1.2.1.2.1.2.1.3v.8l-.1.1-.1.1-.1.1-.1.1h-.1l-.4.1h-4.4l-.1.3-.1.2v1.7l.1.3.1.3.1.3.1.3.1.3.2.2.2.2.3.1.3.1.3.1.3.1h1.3l.3-.1.3-.1.3-.2.3-.2.3-.2.3-.7zm1.6 2.1l.1-.1.1-.2.1-.2.1-.2v-6.9l-.1-.3-.1-.2-.1-.2-.1-.1h.8l.4-.1h.3l.1.1v1.1l.2-.3.2-.3.2-.3.2-.2.1-.1.1-.1.1-.1h1.2l.2.1.2.1v.8l-.1.1h-.1l-.1.1h-2.1l-.1.1-.1.1-.1.1-.1.1-.1.1v6.4l.1.2.1.2.1.1h-1.7zm10.4-4.6l-1 .4-.8.4-.3.1-.3.1-.2.1-.2.1-.1.1-.1.1-.1.1-.1.1-.1.1-.1.2v.6l.1.1.1.1.1.1.1.1.1.1.1.1.1.1.1.1.1.1h1l.2-.1.2-.1.2-.1.1-.1.1-.1.1-.1.1-.2.1-.2.1-.2.1-.2v-2zm.3 4.7l-.1-.1v-.1l-.1-.2v-1l-.1.2-.1.2-.1.2-.1.1-.1.1-.1.1-.1.1-.1.1-.2.1-.2.1-.2.1-.2.1h-1.5l-.2-.1-.2-.1-.2-.1-.2-.1-.2-.1-.2-.2-.2-.2-.1-.2-.1-.2-.1-.2-.1-.2v-.8l.1-.2.1-.2.1-.2.1-.1.1-.1.1-.1.2-.1.2-.1.3-.2.3-.2.3-.2.4-.2.4-.2.5-.2.5-.2.4-.2.2-.1.1-.1.1-.1.1-.1.1-.2.1-.2v-1.1l-.1-.2-.1-.1-.1-.1-.1-.1-.1-.1-.1-.1-.1-.1-.1-.1-.1-.1h-1.3l-.2.1-.1.1-.1.1-.1.1-.1.1v.2l-.1.3-.1.2-.1.2-.1.1-.1.1-.1.1-.1.1h-.5l-.1-.1-.1-.1-.1-.1-.1-.1v-.7l.1-.2.1-.1.1-.1.2-.1.2-.1.2-.1.3-.1.3-.1.3-.1.3-.1h2.6l.2.1.2.1.2.1.1.1.1.1.1.1.1.1.1.2.1.2.1.2v6.8l.1.1.1.1.1.1.1.1.1.1-1.8-.2zm9.6-2v.4l-.1.2-.1.2-.1.2-.1.2-.1.1-.2.1-.2.1-.2.1-.2.1-.3.1-.3.1h-1.3l-.4-.1h-.2l-.2-.1-.2-.1-.2-.1-.2-.1-.2-.1-.1-.1-.2-.1-.1-.1-.2-.1-.1-.1-.1-.1-.3-.3-.2-.3-.2-.4-.1-.4-.1-.4-.1-.4-.2-.3v-1l.1-.5v-.4l.1-.2.1-.2.1-.2.1-.2.1-.2.1-.2.1-.2.1-.2.1-.2.2-.2.2-.2.2-.1.2-.1.2-.1.2-.1.2-.1.2-.1.2-.1.2-.1.2-.1.2-.1h2.9l.2.1-.1 2-.1-.4-.2-.3-.2-.3-.2-.2-.3-.1-.3-.1h-.8l-.3.1-.3.1-.3.1-.3.1-.2.2-.2.2-.2.3-.2.3-.1.3-.1.3-.1.3-.1.4-.1.4v1.6l.1.3.1.3.1.3.1.3.1.3.2.3.2.2.2.2.2.1.3.1.3.1.3.1h1.4l.3-.1.3-.1.3-.2.3-.2.1-.1.1-.1.1-.1-.1-.2zm2-7.9l-.8-1.3 1.4-.9.8 1.3-1.4.9zm-.7 9.8l.1-.1.1-.2.1-.2.1-.2v-7.1l-.1-.3-.1-.2v-.2l-.1-.1h2v8.1l.1.2.1.2.1.2.1.1h-2.5zm7.7-8h-.6l-.3.1-.2.1-.2.1-.2.2-.2.2-.2.2-.1.2-.1.3-.1.3-.1.3-.1.3v2l.1.4.1.4.1.4.1.3.1.3.2.3.2.3.2.2.2.2.3.1.3.1.3.1h1.2l.2-.1.2-.1.2-.1.2-.2.2-.2.1-.2.2-.2.1-.3.1-.3.1-.3.1-.4v-2.5l-.1-.3-.1-.3-.1-.3-.1-.3-.2-.3-.2-.3-.2-.2-.2-.2-.2-.1-.2-.1-.3-.1h-.8zm.3-.7h.8l.4.1.4.1.3.1.3.2.3.2.3.2.1.1.1.1.1.2.1.1.2.3.1.3.1.4.1.4v1.9l-.1.5-.1.5-.1.4-.2.4-.2.4-.3.4-.1.2-.2.1-.2.1-.2.1-.2.1-.2.1-.2.1-.2.1-.2.1-.2.1-.2.1h-2.1l-.2-.1h-.2l-.2-.1-.2-.1-.2-.1-.2-.1-.1-.1-.1-.1-.1-.1-.1-.1-.1-.1-.1-.1-.1-.1-.1-.1-.1-.2-.1-.2-.1-.2-.1-.2-.1-.2-.1-.4-.1-.4-.1-.5v-1.4l.1-.2v-.2l.1-.2.1-.2.1-.2.1-.2.1-.2.1-.2.3-.4.3-.3.3-.3.3-.3.4-.2.4-.2.2-.1.2-.1.2-.1h.2l.4-.1.4.2zm.5-4.3h1.6l-.2.3-.2.3-.2.3-.2.3-.2.3-.2.3-.2.2-.2.2-.2.2-.2.2-.3.2-.2.1-.3.1-.2.1-.3.1-.3.1.3-.5.3-.4.3-.4.2-.4.3-.4.2-.4.2-.4.2-.4zm4.8 13l.1-.1.1-.2v-.7l.1-.4v-5.2l-.1-.6v-.8l-.1-.2-.1-.1 1.7-.1v1.1l.1-.2.1-.2.1-.1.1-.1.2-.1.1-.1.2-.1.2-.1.2-.1.2-.1.2-.1h1.6l.3.1.2.1.2.1.2.1.1.2.1.2.1.1.1.1v.1l.1.2.1.3.1.4.1.5v5.8l.1.1.1.1.1.1h-1.8V106l-.1-.2-.1-.2-.1-.1-.1-.1-.1-.1-.1-.1h-1.7l-.2.1-.2.1-.1.1-.1.1-.1.1-.1.2-.1.2-.1.3-.1.3-.1.4v5.5l.1.2.1.1h-1.9zm14.1 0l.1-.2.1-.3.1-.4.1-.4v-9.7l-.1-.4-.1-.4v-.1l-.1-.1v-.1l-.1-.1h2.6l-.1.1-.1.1-.1.1v.1l-.1.4-.1.4v9.8l.1.4.1.4v.1l.1.1.1.1.1.1h-2.6zm4.6 0l.1-.1.1-.2.1-.2v-7.4l-.1-.2-.1-.2-.1-.1 1.8-.1v1.1l.1-.2.1-.2.1-.1.2-.1.1-.1.2-.1.2-.1.2-.1.1-.1.2-.1.2-.1h1.6l.3.1.2.1.2.1.2.1.1.2.1.2.1.1.1.1.1.1v.2l.1.3.1.4v6.1l.1.2.1.1.1.1.1.1h-1.8v-6.5l-.1-.2-.1-.2-.1-.2-.1-.1-.1-.1-.1-.1-.1-.1h-1.6l-.2.1-.2.1-.2.1-.1.1-.1.1-.1.2-.1.2-.1.3-.1.3v5.2l.1.3v.4l.1.2.1.1h-2.1zm9.3-7.8l-.9-.1v-.6l.9-.1.1-2.4 1.4-.4-.1 2.9h1.6v.4l-.1.1h-.3l-.2.1h-1.1l-.1 5v1.4l.1.1.1.1.1.1.1.1.1.1h.8l.3-.2.3-.2-.1.8-.2.2-.2.2-.2.2-.2.1-.2.1-.3.1h-1.2l-.2-.1-.1-.1-.1-.1-.1-.1-.1-.1-.1-.2-.1-.2-.1-.2v-1.4l.4-5.6zm6.2 1.7h3.3l.1-.1v-.8l-.1-.1v-.1l-.1-.1-.1-.1-.1-.1-.1-.1-.1-.1-.1-.1-.1-.1h-1.3l-.2.1-.2.1-.2.1-.1.1-.1.2-.1.2-.1.2-.1.2-.1.2-.1.2v.2zm5 4v.6l-.1.2-.1.2-.1.2-.2.2-.2.2-.2.1-.2.2-.2.1-.3.1-.2.1-.3.1-.3.1h-1.6l-.2-.1h-.2l-.2-.1-.2-.1-.2-.1-.1-.1-.2-.1-.3-.2-.3-.3-.2-.3-.2-.4-.2-.4-.1-.4-.1-.4-.1-.4v-2l.1-.4.1-.4.1-.2.1-.2.1-.2.1-.2.2-.3.3-.3.1-.1.1-.1.1-.1.1-.1.2-.1.2-.1.2-.1.2-.1.2-.1.2-.1h.4l.4-.1h1.1l.3.1.3.1.3.1.2.1.2.2.2.2.2.2.1.2.1.2.1.2.1.2.1.3v.9l-.1.1-.1.1-.1.1h-.1l-.4.1h-4.4l-.1.3-.1.2v1.7l.1.3.1.3.1.3.1.3.2.3.2.2.2.2.2.1.3.1.3.1.3.1h1.4l.3-.1.3-.1.3-.2.3-.2.3-.2.4-.8zm1.7 2.1l.1-.1.1-.2.1-.2.1-.2v-6.9l-.1-.3-.1-.2-.1-.2-.1-.1h.9l.4-.1h.4v1.2l.3-.3.2-.3.2-.3.2-.2.1-.1.1-.1.1-.1h1.2l.2.1.1.1h.2l.1.1v.8h-.1l-.1.1h-1.9l-.1.1-.1.1-.1.1-.1.1v.1l-.1.2v6l.1.2.1.2.1.2.1.1h-2.5zm6 0l.1-.1.1-.2.1-.2v-7.4l-.1-.2-.1-.2-.1-.1 1.8-.1v1l.1-.2.1-.2.1-.1.1-.1.3-.3.3-.2.2-.1.2-.1.2-.1h1.6l.3.1.2.1.2.1.2.1.1.2.1.2.1.2.1.3.1.3.1.4v5.9l.1.2v.4l.1.1.1.1h-1.9V106l-.1-.2-.1-.2-.1-.2-.1-.1-.1-.1-.1-.1-.1-.1H283l-.2.1-.2.1-.2.1-.1.1-.1.1-.1.2-.1.2-.1.3-.1.3v5.5l.1.2.1.2v.1l.1.1.1.1h.1-2zm13.1-4.6l-1 .4-.8.4-.3.1-.3.1-.2.1-.2.1-.1.1-.1.1-.1.1-.1.1-.1.1v.9l.1.1.1.1.1.1.1.1.1.1.1.1.1.1.1.1h.9l.2-.1.2-.1.2-.1.1-.1.1-.1.1-.1.1-.2.1-.2.1-.2.1-.2v-2zm.3 4.7v-.1l-.1-.1-.1-.2v-1l-.1.2-.1.2-.1.2h-.2l-.1.1-.1.1-.1.1-.1.1-.1.1-.2.1-.2.1-.2.1h-1.4l-.2-.1-.2-.1-.2-.1-.2-.1-.2-.1-.2-.2-.3-.1-.1-.2-.1-.2-.1-.2v-1l.1-.2.1-.2.1-.2.1-.1.1-.1.1-.1.2-.1.2-.1.3-.2.3-.2.4-.2.4-.2.4-.2.5-.2.3-.1.3-.1.2-.1.2-.1.3-.2.2-.2v-1.8l-.1-.1-.1-.1-.1-.1-.2-.2-.1-.1-.1-.1-.1-.1-.1-.1h-1.4l-.2.1-.1.1-.1.1-.1.1-.1.1v.2l-.1.3-.1.2-.1.2-.1.1-.1.1-.1.1-.1.1h-.4l-.1-.1-.1-.1-.1-.1-.1-.1v-.7l.1-.2.1-.1.1-.1.2-.1.2-.1.2-.1.3-.1.3-.1.3-.1.3-.1h2.7l.2.1.2.1.2.1.1.1.1.1.1.1.1.1.1.2.1.2v6.1l.1.4.1.4.1.3.1.1.1.1.1.1.1.1-2.1-.1zm9.6-2v.4l-.1.2-.1.2-.1.2-.1.2-.1.1-.2.1-.2.1-.2.1-.2.1-.3.1-.3.1h-1.3l-.4-.1h-.2l-.2-.1-.2-.1-.2-.1-.2-.1-.2-.1-.2-.1-.2-.1-.1-.1-.1-.1-.1-.1-.1-.1-.3-.3-.2-.3-.2-.4-.1-.4-.1-.4-.1-.4v-2.1l.1-.2v-.2l.1-.2.1-.2.1-.2.1-.2.1-.2.1-.2.1-.2.1-.2.2-.2.2-.2.2-.1.2-.1.2-.1.2-.1.2-.1.2-.1.2-.1.2-.1.2-.1.2-.1h3l.2.1-.1 2-.2-.4-.2-.3-.2-.3-.2-.2-.3-.1-.3-.1h-1l-.3.1-.3.1-.3.1-.3.1-.2.2-.2.2-.2.3-.2.3-.2.3-.1.3-.1.3-.1.4-.1.4v1.6l.1.3.1.3.1.3.1.3.2.3.2.3.2.2.2.2.2.1.3.1.3.1.3.1h1.4l.3-.1.3-.1.3-.2.2-.2.1-.1.1-.1.1-.1.1-.1zm2-7.9l-.8-1.3 1.4-.9.8 1.3-1.4.9zm-.6 9.8l.1-.1.1-.2.1-.2.1-.2v-7.1l-.1-.3-.1-.2v-.3h-.1 1.8v8.1l.1.2.1.2v.1l.1.1.1.1h.1-2.4zm7.6-8h-.6l-.3.1-.2.1-.2.1-.2.2-.2.2-.2.2-.1.2-.1.3-.1.3-.1.3v2.3l.1.4.1.4.1.4.1.3.2.3.2.3.2.3.2.2.2.2.2.1.3.1.3.1h1.2l.3-.1.2-.1.2-.1.2-.2.2-.2.1-.2.1-.2.1-.3.1-.3.1-.3.1-.4.1-.4v-2.1l-.1-.3-.1-.3-.1-.3-.1-.3-.2-.3-.2-.3-.2-.2-.2-.2-.2-.1-.2-.1-.3-.1h-1zm.3-.7h.9l.4.1.4.1.4.1.3.2.3.2.3.2.1.1.1.1.1.2.1.1.2.3.1.3.1.4.1.4v1.4l-.1.5-.1.5-.1.5-.1.2-.1.2-.1.2-.1.2-.1.2-.1.2-.1.2-.1.2-.1.2-.1.1-.1.1-.2.1-.2.1-.2.1-.2.1-.2.1-.2.1-.2.1-.2.1h-2.1l-.2-.1h-.2l-.2-.1-.2-.1-.2-.1-.2-.1-.1-.1-.1-.1-.1-.1-.1-.1-.1-.1-.1-.1-.1-.1-.1-.1-.1-.2-.1-.2-.1-.2-.1-.2-.1-.2-.1-.4-.1-.4v-2.5l.1-.2.1-.2.1-.2.1-.2.1-.2.1-.2.3-.4.3-.3.3-.3.3-.3.3-.2.4-.2.2-.1.2-.1.2-.1h.2l.4-.1.2.4zm5.3 8.7l.1-.1.1-.2.1-.2.1-.2v-6.9l-.1-.3-.1-.2-.1-.2-.1-.1 1.8-.1v1.1l.1-.2.1-.2.1-.1.1-.1.2-.1.2-.1.1-.1.2-.1.2-.1.2-.1.2-.1h1.6l.2.1.2.1.2.1.2.1.1.2.1.2.1.1.1.1.1.1v.2l.1.3.1.4v6.3l.1.1.1.1.1.1H323v-6.7l-.1-.2-.1-.2-.1-.1-.1-.1-.1-.1-.1-.1h-1.7l-.2.1-.2.1-.2.1-.1.1-.1.1-.1.2-.1.2-.1.3-.1.3v5.2l.1.3v.4l.1.2.1.1h-1.9zm13.1-4.6l-1 .4-.8.4-.3.1-.2.1-.2.1-.2.1-.1.1-.1.1-.1.1-.1.1-.1.1v1l.1.1.1.1.1.1.1.1.1.1.1.1.1.1h1l.2-.1.2-.1.2-.1.1-.1.1-.1.1-.1.1-.2.1-.2.1-.2.1-.2v-2zm.3 4.7l-.1-.1v-1.3l-.2.4-.2.3-.1.1-.1.1-.1.1-.1.1-.2.1-.2.1-.2.1-.2.1h-1.4l-.2-.1-.2-.1-.2-.1-.2-.1-.2-.1-.1-.2-.1-.2-.1-.2-.1-.2-.1-.2-.1-.2v-.8l.1-.2.1-.2.1-.2.1-.1.1-.1.1-.1.2-.1.2-.1.3-.2.3-.2.3-.2.4-.2.4-.2.5-.2.5-.2.4-.2.2-.1.1-.1.1-.1.1-.1.1-.1.1-.1.1-.1v-1.5l-.1-.1-.1-.1-.1-.1-.1-.1-.1-.1-.1-.1-.1-.1-.2-.1h-1.3l-.2.1-.1.1-.1.1-.1.1-.1.1v.1l-.1.1-.1.1v.1l-.1.2-.1.2-.1.1-.1.1-.1.1-.1.1h-.4l-.1-.1-.1-.1v-.1l-.1-.1v-.7l.1-.2.1-.1.1-.1.2-.1.2-.1.2-.1.3-.1.3-.1.3-.1.3-.1h2.6l.2.1.2.1.2.1.1.1.1.1.1.1.1.1.1.2v7.1l.1.1.1.1.1.1.1.1.1.1.1.1h-2.3zm3.2-.1l.1-.1v-.1l.1-.1.1-.3.1-.3V99.7h-.1l1.9-.4v12.8l.1.2.1.2.1.2.1.1h-2.6z"/><path d="M157.2 77.9l-7.7 3.9-3.9-7.6L138 78l-3.9-7.6-7.7 3.9-3.9-7.7-7.7 3.9-3.9-7.6 7.7-3.9 7.7-3.9 7.7-3.9 7.7-3.9 3.9 7.6 3.9 7.7 3.9 7.7 3.8 7.6zM53.6 23.6l3.9 7.7 7.7-3.9 3.9 7.7 7.7-3.9 3.9 7.6 7.6-3.9 3.9 7.6-7.6 3.9-7.7 3.9-7.7 3.9-7.6 3.9-3.9-7.6-3.9-7.7-3.9-7.7-3.9-7.6-7.7 3.9-3.9-7.7-7.6 3.9-4-7.6-7.7 3.9-3.9-7.7 7.7-3.9 7.6-3.9 7.7-3.9L41.9.6l3.9 7.7 3.9 7.6 3.9 7.7zM0 27.8l7.7-3.9 3.9 7.7 7.7-3.9 3.9 7.6 7.7-3.9 3.9 7.6 7.6-3.9 3.9 7.7-7.6 3.9-7.7 3.9-7.6 3.9-7.7 3.9-3.9-7.7-3.9-7.6L4 35.4l-4-7.6zm64.5 50.7l-7.7 3.9-3.8-7.6-7.7 3.9-3.9-7.7-7.6 3.9-3.9-7.7-7.6 3.9-3.9-7.6 7.7-3.9 7.7-3.9 7.6-3.9 7.7-3.9 3.9 7.7 3.9 7.7 3.9 7.6 3.7 7.6zm46.3-.3l-7.7 3.9-3.9-7.6-7.6 3.8-3.9-7.6-7.7 3.9-3.9-7.7-7.6 3.9-3.9-7.7 7.7-3.9 7.7-3.9 7.6-3.9 7.7-3.9 3.9 7.7 3.9 7.6 3.9 7.7 3.8 7.7zM99.7 23l3.9 7.7 7.6-3.9 3.9 7.7 7.7-3.9 3.9 7.6 7.7-3.9 3.9 7.7-7.6 3.9-7.7 3.9-7.7 3.9-7.7 3.9-3.9-7.6-3.9-7.7-3.9-7.7L92 27l-7.7 3.9-3.9-7.7-7.5 3.8-3.9-7.7-7.7 3.9-3.9-7.7 7.7-3.9 7.6-3.9 7.7-3.9L88 0l3.9 7.7 3.9 7.6 3.9 7.7zm49 7.7l-7.7 3.9-3.9-7.6-7.6 3.9-3.9-7.7-7.7 3.9-3.9-7.7-7.6 3.9-3.9-7.7 7.7-3.9 7.7-3.9 7.6-3.9 7.7-3.9 3.9 7.6 3.9 7.7 3.9 7.6 3.8 7.8z" fill-rule="evenodd" clip-rule="evenodd" fill="#e09c34"/><path d="M16.727 40.524l6.15-3.127 3.128 6.15-6.151 3.127zM31.42 15.54l6.15-3.126 3.127 6.151-6.152 3.126zM68.8 37.1l-6.2 3.1 3.1 6.1 6.2-3.1zM41.7 68.9l6.1-3.1-3.1-6.1-6.1 3.1zm39-47.9l6.1-3.1-3.1-6.1-6.1 3.1zm28.1 18.5l3.1 6.1 6.1-3.1-3.1-6.1M84.803 62.438l6.151-3.126 3.126 6.151-6.15 3.127zM134.3 68.3l6.1-3.1-3.1-6.1-6.1 3.1zm-8.5-47.2l6.1-3.1-3.1-6.1-6.1 3.1z" fill="#2e4576" fill-rule="evenodd" clip-rule="evenodd"/><path class="st0" d="M201.6 53.5h15.9L210 33.2l-8.4 20.3zm-17.5 24.8l.4-.5.5-.6.4-.6.4-.6.9-1.2.9-1.3.9-1.4.9-1.5.9-1.5.9-1.6.4-.8.5-.8.5-.9.5-.9.5-.9.5-.9.5-1 .5-1 .5-1 .5-1 .5-1 .5-1.1.5-1.1.5-1.1.5-1.1.5-1.2.8-1.9.8-1.9.7-1.8.7-1.8.7-1.7.6-1.7.6-1.6.5-1.6.5-1.5.4-1.3.4-1.1.3-1 .2-.8.2-.7.1-.3v-1.9l-.1-.3-.1-.3-.1-.3-.1-.3h9.7l.7 2.4.7 2.3.7 2.3.7 2.2.7 2.2.7 2.1.7 2.1.7 2 .7 2 .7 1.9.7 1.9.7 1.8.7 1.8.6 1.7.6 1.7.6 1.6.7 1.6.6 1.5.6 1.5.6 1.4.6 1.4.6 1.3.6 1.2.5 1.2.5 1.1.5 1.1.5 1 .5.9.5.9.5.8.5.7.5.7H227l-7.9-21.9h-18.3l-3.4 8.3-.1.2-.4.9-.4.9-.3.9-.3.8-.3.8-.6.9-.2.7-.2.7-.2.7-.1.6-.1.6-.1.6-.1.5-.1.5v2.4l.1.3.1.3.1.3h-10.1zm54.6 0l.1-.2.1-.2.1-.2.1-.2.1-.3.1-.3.1-.3.1-.3.2-.7.2-.8.1-.9.1-1 .1-.6V33.8l-.1-.5-.1-1-.1-.9-.2-.8-.2-.7-.1-.3-.1-.3-.1-.3-.1-.3-.1-.2-.1-.2-.1-.2-.1-.2h7.6l1.2-.1 1.2-.1 1.3-.1 1.2-.1 1.1-.1h6.3l.8.1.8.1.8.1.8.1.7.2.7.2.7.2.6.3.6.3.6.3.6.3.5.4.5.4.5.4.4.4.4.5.4.5.4.5.3.6.3.6.3.6.3.6.2.7.2.7.2.7.1.7.1.7.1.8v3.3l-.1.8-.1.8-.1.8-.2.8-.2.8-.2.7-.3.7-.3.7-.3.7-.4.6-.4.6-.4.6-.5.6-.5.6-.5.5-.5.5-.6.5-.6.4-.6.4-.6.4-.6.3-.7.3-.7.3-.7.2-.7.2-.7.1-.7.1-.8.1h-3.2l-.5-.1-.5-.1-.5-.1-.5-.1-.5-.1-.5-.1-.5-.1-.5-.1-.5-.1-.4-.2-.4-.2-.4-.2-.4-.2h2.4l.7-.1.7-.1.7-.1.7-.1.7-.2.6-.2.6-.2.6-.3.6-.3.6-.3.5-.3.5-.4.5-.4.5-.4.4-.5.4-.5.4-.5.4-.5.3-.5.3-.6.3-.6.2-.6.2-.7.2-.7.2-.7.1-.7.1-.7.1-.8.1-.8v-2.7l-.1-.6-.1-.6-.1-.5-.1-.5-.1-.5-.2-.5-.2-.5-.2-.5-.2-.4-.3-.4-.3-.4-.3-.4-.3-.3-.3-.3-.4-.3-.4-.3-.4-.3-.4-.2-.4-.2-.5-.2-.5-.7-.5-.2-.5-.1-.5-.1-.6-.1-.6-.1-.6-.1h-4.1l-.6.1h-.6l-.6.1-.6.1-.1.5-.1.6-.1.8-.1.9-.1 1-.1 1.1v36.9l.1.5.1 1 .1.9.2.8.2.7.1.3.1.3.1.3.1.3.1.2.1.2.1.2.1.2h-10.4zm75.8-50.4l-.4 10.8-.2-.5-.2-.5-.2-.5-.3-.5-.3-.4-.3-.4-.3-.4-.3-.4-.3-.4-.3-.4-.3-.3-.3-.3-.4-.3-.4-.3-.4-.3-.4-.3-.4-.3-.4-.2-.4-.2-.4-.2-.4-.2-.4-.2-.5-.1-.3-.1-.5-.1-.5-.1-.5-.1-.5-.1-.5-.1h-4l-.5.1-.5.1-.5.1-.5.1-.5.1-.4.1-.4.1-.4.1-.4.1-.4.2-.4.2-.6.2-.4.2-.4.2-.4.2-.4.2-.4.2-.4.3-.4.3-.4.3-.3.3-.4.3-.3.3-.3.3-.3.3-.3.3-.3.3-.3.4-.3.4-.3.4-.3.4-.3.4-.3.4-.2.4-.2.4-.2.4-.2.4-.2.4-.2.4-.2.4-.2.5-.1.5-.2.5-.1.5-.1.5-.1.5-.1.5-.1.5-.1.5-.1.5-.1.5-.1 1.1-.1 1.1v5.5l.1.6.1.6.1.6.1.6.1.5.1.5.1.5.1.5.1.5.1.5.1.5.2.5.2.5.2.5.2.5.2.5.2.5.2.4.2.4.3.4.3.4.3.4.3.4.3.4.3.4.3.4.3.4.3.4.3.4.4.3.4.3.4.3.4.3.4.3.4.4.4.3.4.3.4.3.4.2.4.2.4.2.4.2.4.2.5.2.4.2.5.2.5.1.5.1.5.1.5.1.5.1.5.1.5.1.5.1h4.6l.5-.1.5-.1.5-.1.5-.1.5-.1.5-.1.5-.1.5-.1.5-.2.5-.2.5-.2.4-.2.5-.2.4-.2.4-.2.4-.2.4-.3.4-.2.4-.3.4-.3.4-.3.4-.3.4-.3.4-.3.4-.3.4-.4.3-.4.4-.4-.2.7-.2.7-.2.7-.3.6-.3.6-.3.6-.4.6-.4.5-.4.5-.4.5-.5.5-.5.5-.5.5-.5.4-.6.4-.6.4-.6.4-.6.4-.7.3-.7.3-.7.3-.7.3-.7.2-.7.2-.7.2-.7.2-.8.1-.8.1-.8.1-.8.1h-3.5l-.6-.1-.6-.1-.6-.1-.6-.1-.6-.1-.6-.1-.6-.1-.6-.1-.6-.1-.5-.2-.5-.2-.6-.2-.5-.2-.5-.2-.5-.2-.5-.3-.5-.3-.5-.3-.5-.3-.5-.3-.5-.3-.5-.3-.5-.4-.5-.4-.4-.4-.4-.4-.4-.4-.4-.4-.4-.4-.4-.5-.4-.4-.4-.5-.4-.5-.4-.5-.3-.5-.3-.5-.3-.5-.3-.5-.3-.5-.3-.5-.3-.5-.3-.5-.2-.5-.2-.6-.2-.6-.2-.6-.2-.6-.2-.6-.2-.6-.1-.6-.1-.6-.1-.6-.1-.6-.1-.7-.1-.7-.1-.7-.1-.7v-5.9l.1-.7.1-.7.1-.7.1-.7.1-.7.2-.7.1-.7.2-.7.2-.6.2-.7.2-.6.2-.6.2-.6.2-.6.3-.6.3-.6.3-.6.3-.5.3-.5.3-.5.3-.5.4-.5.4-.5.4-.5.4-.5.4-.5.4-.5.4-.5.5-.4.4-.4.5-.4.5-.4.5-.4.5-.4.5-.4.5-.3.5-.3.6-.3.5-.3.6-.3.6-.3.6-.3.5.1.6-.2.6-.2.6-.2.6-.2.7-.2.7-.2.7-.1.7-.1.7-.1.7-.1.7-.1.7-.1.7-.1h5l.7.1.8.1.8.1.9.1 1 .1.9.1.9.1.8.1.8.1h2.2zm9.8 50.4l.1-.2.1-.2.1-.2.1-.2.1-.3.1-.3.1-.3.1-.3.2-.7.2-.8.1-.9.1-1 .1-.6v-.6l.1-.7V34.9l-.1-.7v-.6l-.1-.5-.1-1-.1-.9-.2-.8-.2-.7-.1-.3-.1-.3-.1-.3-.1-.3-.1-.2-.1-.2-.1-.2-.1-.2H335l-.1.1-.1.2-.1.2-.1.2-.1.2-.1.3-.1.3-.1.3-.2.5-.1.4-.1.4-.1.4-.1.9-.1 1v.5l-.1.6v37.9l.1.6v.5l.1 1 .1.9.1.4.1.4.1.4.1.3.1.3.1.3.1.3.1.2.1.2.1.2.1.2.1.1h-10.6z"/></svg>