<svg id="Capa_1" data-name="Capa 1" xmlns="http://www.w3.org/2000/svg" viewBox="0 0 100 30"><defs><style>.cls-3{fill-rule:evenodd}.cls-2,.cls-3{fill:#2e4576}</style></defs><path d="M46.91 26.08l-2.29 1.16L43.46 25l-2.28 1.14-1.18-2.3L37.73 25l-1.16-2.29-2.28 1.16-1.17-2.27 2.29-1.17 2.28-1.15L40 18.11 42.27 17l1.16 2.28 1.16 2.29 1.16 2.28zM16 9.89l1.16 2.28L19.44 11l1.16 2.3 2.28-1.16 1.17 2.28 2.28-1.16 1.16 2.28-2.28 1.17-2.29 1.15L20.63 19l-2.28 1.16-1.17-2.28L16 15.62l-1.17-2.28-1.13-2.28-2.28 1.15-1.17-2.28L8 11.09 6.81 8.8 4.52 10 3.36 7.68l2.29-1.16 2.28-1.16 2.28-1.17L12.51 3l1.15 2.28 1.16 2.32zM0 11.14L2.29 10l1.16 2.28 2.28-1.15 1.17 2.26 2.29-1.17 1.15 2.28 2.28-1.15 1.17 2.28-2.28 1.16L9.21 18l-2.28 1.11-2.28 1.17L3.49 18l-1.17-2.28-1.15-2.3zm19.26 15.13L17 27.42l-1.16-2.27-2.32 1.15-1.17-2.3-2.27 1.17-1.17-2.26-2.28 1.15-1.16-2.28 2.29-1.17L10 19.45l2.28-1.15 2.29-1.17 1.17 2.28 1.15 2.29 1.2 2.3zm13.82-.09l-2.28 1.15-1.16-2.27-2.28 1.14-1.17-2.27-2.29 1.17-1.16-2.29L20.46 24l-1.16-2.31 2.28-1.17 2.29-1.16 2.28-1.16 2.28-1.2 1.17 2.29 1.16 2.28 1.17 2.28zM29.76 9.69L30.92 12l2.28-1.17 1.17 2.29L36.66 12l1.15 2.28 2.29-1.16 1.16 2.29-2.26 1.1-2.29 1.15-2.28 1.17L32.11 20 31 17.71l-1.2-2.29-1.16-2.29-1.16-2.28L25.19 12 24 9.72l-2.27 1.17-1.15-2.29-2.29 1.17-1.16-2.29 2.29-1.17 2.28-1.15L24 4l2.28-1.16 1.17 2.29L28.6 7.4zM44.38 12l-2.28 1.17-1.17-2.28-2.28 1.16-1.17-2.29-2.29 1.16L34 8.64 31.76 9.8l-1.17-2.29 2.29-1.15 2.29-1.17L37.45 4l2.28-1.16 1.16 2.28 1.17 2.29 1.15 2.28z" fill-rule="evenodd" fill="#e09c34"/><path class="cls-2" d="M5 14.92L6.81 14l.93 1.83-1.83.93zm4.38-7.46l1.83-.93.93 1.83-1.83.93zm9.31 7.37l1.83-.93.93 1.83-1.83.93zm-7.19 6.74l1.83-.93.93 1.82-1.82.93zM23.16 7.28L25 6.35l.93 1.82-1.82.94z"/><path class="cls-3" d="M32.47 14.62l.93 1.82 1.82-.92-.92-1.83"/><path class="cls-2" d="M25.31 21.48l1.83-.93.93 1.83-1.83.93zm13.85-.09l1.84-.92.93 1.82-1.83.93zM36.62 7.32l1.82-.93.93 1.82-1.82.93z"/><path class="cls-3" d="M60.17 18.81h4.75l-2.23-6.06zM55 26.2l.13-.17.14-.17.13-.17.14-.18.27-.37.26-.39.27-.41.26-.44.27-.45.27-.47.14-.24.13-.25.14-.27.14-.26.14-.28.14-.27.14-.29.15-.29.14-.3.14-.31.14-.31.15-.32.15-.32.14-.33.15-.34.15-.34.24-.57.24-.57.21-.54.21-.53.2-.52.18-.53.18-.49.15-.47.16-.43.13-.39.11-.34.1-.29.07-.26v-1.2h2.9l.21.7.21.7.21.67.21.66.21.65.2.64.2.62.21.6.2.59.2.58.19.56.2.55.19.53.2.52.18.51.19.49.2.48.18.46.18.44.18.43.18.4.17.39.17.37.16.35.17.34.15.31.16.3.15.27.15.26.15.24.13.22.15.21h-2.71l-2.36-6.54H59.8l-1 2.47v.07l-.12.27-.11.27-.1.26-.09.25-.08.23-.08.24-.07.22-.06.2-.06.2v1.89zm16.31 0v-.58l.06-.21V11.93l-.06-.21v-.51h3.34L75 11h3.2l.22.05.21.06.2.07.2.07.18.08.17.09.17.1.17.11.15.11.13.26.13.13.13.14.12.15.11.15.1.17.09.17.08.18.08.18.06.2.06.2v2.09L81 16v.23l-.06.23v.22l-.07.22-.08.2-.09.21-.1.19-.11.19-.12.19-.12.18-.25.14-.15.17-.15.15-.16.15-.17.14-.17.12-.2.07-.19.11-.19.09-.19.09-.2.08-.21.07-.21.05H75l-.14-.05-.13-.05h-.13l-.13-.06-.11-.07h1.54l.2-.06.19-.06.18-.06.18-.09.17-.08.17-.1.16-.1.15-.11.14-.12.14-.13.13-.13.13-.15L78 18l.11-.16.09-.16.1-.18.08-.17.07-.18.07-.2v-3.09l-.06-.14-.06-.14-.07-.12V13l-.07-.11-.09-.11-.09-.1-.1-.1-.1-.09-.11-.08-.12-.08-.12-.07-.13-.07h-.13L77 12.1h-2.92v14.2zm22.62-15l-.13 3.23-.07-.15-.07-.15-.07-.13-.07-.13-.08-.14-.08-.12-.09-.13-.08-.12-.09-.11-.1-.15-.1-.1-.1-.1-.1-.09-.11-.09-.11-.09-.11-.08-.12-.07-.11-.07-.14-.09-.12-.06-.13-.06h-.53L91 12h-2.79l-.13.05h-.21l-.12.05h-.12l-.12.07-.12.06-.11.06-.11.07-.11.08-.11.07-.1.08-.1.08-.11.09-.09.09-.1.09-.1.1-.09.1-.1.1-.16.16-.08.1-.08.12-.08.11-.08.11-.08.12-.07.12-.07.13-.06.12-.07.13v.13l-.06.13-.06.13v.73L85 16v5l.06.14.06.15.06.14.06.14.07.14.06.13.08.13.08.13.07.13.08.13.09.12.09.12.09.12.09.11.09.12.11.11.1.11.1.1.11.1.11.09.11.09.11.09.12.09.11.08.12.07.12.08.12.07.13.07.12.06.14.06.12.06.14.05.13.05.14.05h3.66l.14-.05.14-.05.14-.05.14-.05.13-.06.14-.06.13-.07.13-.06.12-.07.13-.07.12-.08.12-.08.12-.09.12-.09.11-.08.11-.1.11-.1.11-.1.11-.1.1-.11.11-.11-.06.2-.07.19-.07.19-.08.19-.09.19-.09.17-.11.17-.11.16-.12.17-.13.15-.14.16-.14.14-.15.14-.16.14-.17.13-.17.12-.18.12-.19.12-.2.1-.19.1-.2.08-.21.07-.21.07-.21.06-.22.06-.22.05-.23.05h-3l-.17-.05h-.17l-.17-.03-.16-.05-.1-.16-.16-.06-.16-.07-.15-.07-.15-.08-.12-.08-.16-.09-.14-.09-.14-.09-.14-.1-.14-.1-.14-.11L85 25l-.13-.12-.13-.11-.13-.12-.12-.13-.13-.13-.12-.14-.12-.13-.12-.2-.11-.13-.1-.15-.1-.15-.1-.15-.1-.15-.07-.19-.08-.16-.09-.16-.08-.17-.07-.16-.1-.12v-.17l-.06-.18-.06-.17-.06-.17v-5.46l.06-.19.06-.19.06-.19.07-.17.07-.18.08-.18.08-.17.09-.17.09-.16.09-.16.09-.16.1-.16.11-.16.13-.14.12-.15.12-.15.12-.13.13-.14.12-.14.14-.13.13-.12.14-.12.15-.12.14-.11.15-.11.16-.11.15-.1.16-.1.17-.09.16-.09.17-.08.17-.08.17-.08.19-.07.18-.07.18-.07.19-.06h.19l.19-.06.2-.05h.83L89 11h4.84zm2.93 15V26H97V11.21h3v14.94z"/></svg>