<svg xmlns="http://www.w3.org/2000/svg" viewBox="0 0 1000 1000"><style>.st1{fill:#e1e1e1}.st2{fill:#fd8369}.st4{fill:#de8e68}.st5{fill:#6fc9ce}.st7{fill:#fed892}.st10{fill:#74d5de}</style><g id="Background"><path fill="#f3f3f3" d="M109.9 43h727.7v717.3H109.9z"/><path class="st1" d="M109.9 43h727.7v54.6H109.9z"/><circle class="st2" cx="148.3" cy="71" r="8.6"/><circle class="st2" cx="176" cy="71" r="8.6"/><circle class="st2" cx="203.7" cy="71" r="8.6"/><path d="M145.5 137.4h290.9V295H145.5zm0 195h290.9V490H145.5zm361.7 0h290.9v339.9H507.2z" fill="#fff"/><path class="st1" d="M486.9 148.8h399.4V164H486.9zm0 42.9h399.4v15.2H486.9zm0 42.9h399.4v15.2H486.9zm0 42.9h399.4v15.2H486.9z"/></g><g id="Foreground"><path class="st4" d="M689.9 756.2h15.3v23.2h-15.3zm180.3 98h15.3v23.2h-15.3z"/><path class="st5" d="M802.2 541.5c-18.5 0-101.1 82.1-108.3 95.9-7.2 13.8-5.1 121.9-5.1 121.9l17.8 3.4L735.5 662c12.6-1.5 65.6-12.9 93-35 27.4-22.2-2.6-71.7-2.6-71.7l-23.7-13.8z"/><path class="st4" d="M771.3 430c-9.1 8.1-27.3 28.4-28.8 31-4.6-2.2-52.5-27.4-56.1-29-3.6-1.6-11.2-14.3-13.8-14.3-1.5 0-2.9 2.9-2.9 4.9 0 3.4 1.6 6 2.6 7.1-3.4-.5-33.4-2.8-33.4-.8 0 5.2 33.6 12.1 36.2 13.5 2.6 1.4 57.3 52 76.3 52 7.4 0 40.1-22.2 40.1-24.6 3.1-2.1 7.9-5.2 7.9-5.2V447l-11.4-8.3c0-.1-14.9-10.3-16.7-8.7z"/><path d="M770.1 424.2c2-16.2 39.3-53 56.4-36.6 14.9 14.3-12.1 65.4-19 67.4-7.8.8-37.9-19.8-37.4-30.8z" fill="#febf92"/><path class="st7" d="M883.9 390.5c19-8 45.6 36 42.6 52 0 7-39 22-45 18s-16.6-62 2.4-70z"/><path class="st10" d="M807.3 548.6l62.8 305.5h16.1l5.7-272.5c0-4.7-.4-34.3-.4-38.1-18.2 5.3-57 9.5-84.2 5.1z"/><path d="M870.2 877.4h15.3V894h-42.2zm-180.3-98h15.3V796H663z"/><path class="st2" d="M598 796h182.1v106.6H598zM140.7 908.4l-70.3-.8-24.6-90.3h117.9z"/><path d="M842.3 367c47 0 63.4 39.1 63.4 51.8 0 12.7-14.7 90.2-14.1 124.7.1 5.7-84.3 10.8-95.8 2.5-5.4-3.9-17-179 46.5-179z" fill="#fecc92"/><path class="st4" d="M926.5 442.5c13.3 20.4 12.5 67.4 12.5 74.5 0 7.1-49.6 70.9-53.9 70.9-2.6-2.6-9.8-10.5-9.8-12.9 2.3-4.2 31.8-68.7 37.1-73.3-2.4-2.9-23.5-36-24.4-41.5 18.5-3.1 36.4-10.9 38.5-17.7z"/><path class="st7" d="M926.5 442.5c3-16-21.3-62.4-42.6-52-18.5 9.1-8.4 66-2.4 70 7.2 3.1 42.2-7.4 45-18z"/><path d="M830.3 357.4c-1 3.1-1.5 12.7-.4 17 .1.2 20 1.7 22.2-1.8.1-2.9 4.9-28.7 11.4-36.7.6-.9-.7-3.4-.7-3.4l-23.1 9.6-9.4 15.3" fill="#d38466"/><path class="st2" d="M860.2 334.7c1.5 2 3.4 2.9 5.1 2.9 3.8 0 12.6-3.5 12.6-16 0-9-8.8-13.6-8.8-17.9 0-4.1 1.1-4.2 1.1-7.6 0-1.7-1.7-7.3-7-7.3-3 0-4.1 2.5-7.1 2.5-3.3 0-6.3-6.4-11.3-6.4-3.4 0-6.6 3.2-10.2 3.2-4.1 0-6.9-6.1-12.6-6.1-5.9 0-8 5.3-10.3 5.3-2.9 0-3.4-.8-6.3-.8-1.8 0-7.3 3.2-7.3 9 0 4.1 1.7 10.8 10.2 10.8 5 0 7.8 7.9 12.2 7.9 1.7 0 3.2-1.4 3.6-.7 1.7 3 5.2 11.2 5.2 11.2l15.9 8.9 15 1.1z"/><path class="st4" d="M856.7 330.6c0 1.4-.5 1.7-2.6 1.7-1 0-2.4-1.3-2.4-2.7 0-3.3 2.4-4 2.4-8.3 0-7.3-19.1-11.1-25.8-14.9-2.4 2.4-4.1 5.5-4.8 9l-4.3 22.1c-1.9 9.6 4.4 18.9 13.9 20.8s18.9-4.4 20.8-13.9l.7-3.8c.4.1.8.2 1.1.2 2.5 0 4.4-2.3 4.4-5.1.2-2.6-3.4-7.2-3.4-5.1z"/><path class="st5" d="M114.8 781.9C94.5 646 44.8 574.7 38.5 577.4c-8.9 3.9-11.5 80.2 4.4 159 .4 0 .7-.1 1.1-.1 4.6 0 8.3 3.7 8.3 8.3 0 1.4-.3 2.7-.9 3.8 2.7 1.4 4.6 4.2 4.6 7.4 0 4-2.9 7.4-6.7 8.2 4.7 18.2 10.6 36.2 17.6 52.9h44s6.9-15.2 3.9-35z"/><path class="st10" d="M232.3 637.8c-12.3 0-25.5 35.4-40.1 35.4-3.2 0-5.3-3.5-5.3-6.8 0-3.2 10.1-38.4 10.1-55.5 0-1.5-.1-3.1-.3-4.7-1.6 1-3.6 1.6-5.6 1.6-6 0-10.9-4.9-10.9-10.9 0-5.3 3.7-9.6 8.7-10.7-5.1-6.5-12.6-11.1-22.8-11.1-12.9 0-31.1 11.5-31.1 29.3 0 5 1.5 17.7 1.5 29.2 0 65.2-51.1 75-51.1 147.2 0 15.2 8.4 31.9 10.9 36 0 0 42.8.5 46.9.5s37.4-55.6 41.2-61.5c14.5-22.4 62.7-47 62.7-100.5 0-7.5-2.7-17.5-14.8-17.5z"/></g></svg>