<svg xmlns="http://www.w3.org/2000/svg" viewBox="0 0 797.46 814.59"><defs><style>.cls-3{fill:#de8e68}.cls-6{fill:#d37c59}.cls-9{fill:#dc8e6c}</style></defs><g id="Layer_2" data-name="Layer 2"><g id="vector"><path d="M582.11 94.67c45 40.43 74.45 96.84 121.73 177.92 47.5 81.08 113 186.82 88.16 249.86s-140.46 83.36-249.63 124.7-211.95 103.46-306.5 91.35S55 640.07 33.29 544.6c-21.93-95.7 20.55-200.53 51.15-296C114.82 153.14 133.32 67 186.53 28S327.68-2.62 402.14 13.59C476.59 30 537.11 54.25 582.11 94.67z" fill="#f8f8f8"/><path d="M171.08 774.78h-31.3v37.07H93.89v-37.07H0v-14l108.48-148.26h31.3v122.76h31.3zm-77.19-39.5v-46.19l-32.81 46.19zm103.32-22.79c0-57.43 16.71-102.71 75-102.71 58 0 74.14 45.28 74.14 102.71 0 57.13-16.1 102.1-74.14 102.1-58.29 0-75-44.97-75-102.1zm103.31 0c0-34.64-6.69-61.38-28.26-61.38-21.88 0-29.47 26.74-29.47 61.38 0 34.33 7.59 60.47 29.47 60.47 21.57.04 28.26-26.14 28.26-60.47zm234.58 62.29h-31.3v37.07h-45.88v-37.07H364v-14l108.5-148.26h31.3v122.76h31.3zm-77.18-39.5v-46.19l-32.82 46.19z" fill="#d3d3d3"/><path class="cls-3" transform="rotate(-180 545.24 768.5)" d="M536.73 761.3h17.01v14.4h-17.01z"/><path d="M555.35 773.45v14.4h-40.47v-5.24l21.05-9.16h19.42z"/><path class="cls-3" transform="rotate(-180 280.845 591.855)" d="M272.34 584.66h17.01v14.4h-17.01z"/><path d="M290.95 596.8v14.4h-40.46v-5.23l21.05-9.17h19.41z"/><path d="M536.15 404.21c.86 8.18 18.93 360.89 18.93 360.89h-18.93L444.1 433z" fill="#56cad8"/><path d="M545.87 365.35c0 47.9-17.61 91-53.26 91-48.94 0-113.73-31.2-131.56-48.81-4.45 13.16-67.57 178.92-67.57 178.92h-26.14s16.75-193 48.15-242.5c10.33-13.76 94.63-10.32 137.22 0s93.16 21.39 93.16 21.39z" fill="#74d5de"/><path class="cls-6" d="M419.46 86.26a6.15 6.15 0 0 1 6.54-4.92c3.83.27 10.09 10.39 10.09 18.58s-2.31 11.27-1.61 17.22 15.85 86.63 15.85 91.55c3.82.27 17.49-1.64 17.49-1.64l-9.57 38.54h-27.86l-18-155.23z"/><path d="M446.18 100l-5.87 23.72s-57.91-6.73-64.23-8.29 3.2-40.78 9.69-39.18S446.18 100 446.18 100z"/><path d="M499.24 170.17c74.08 0 55.81 191.39 47.16 198.55s-100.75-17-108.4-27.66 6.91-170.89 61.24-170.89z" fill="#fed385"/><path class="cls-3" d="M472.8 218.76c-4.07 1.38-27.94 10.69-27.94 10.69-.4-4.8-18.75-100-19.88-105.83a47.62 47.62 0 0 0 3.37-18.3C428.35 89.69 422 77 414.17 77S400 89.69 400 105.32a46.85 46.85 0 0 0 3.7 19.06c-.88 11.9-8.78 124.89 7.34 141 17 17 58.33 1.67 83.45-9.75 5.38-1.86-1.95-42.21-21.69-36.87z"/><path transform="rotate(14.87 446.238 113.066)" d="M438.44 107.64h15.5v10.83h-15.5z"/><path d="M546.45 205.33c11.29 21.92-33.42 61.41-45.79 58.47s-32.32-47.08-28.59-55 63.4-24.8 74.38-3.47z" fill="#fed892"/><path class="cls-6" d="M503.78 188.72c0 3.71-22.63 4.65-22.63 0V146h22.63z"/><ellipse class="cls-9" cx="484.29" cy="123.03" rx="29.54" ry="47.77"/><path d="M462.16 91.38a19.38 19.38 0 0 0 8.75 17.5c8.81 6 15.09 3.35 21.55 9 3.41 3.41 11.76 10 11.84 20.18 0 7.53 2.47 11.33 4.64 11.33s7.89-1.5 11.57-1.5c36.14 0 78.58 37.31 160 37.31 42.53 0 109.27-10.73 109.27-73.19 0-33.73-12.14-74.49-76.31-74.49-40.75 0-69.3 20-102.78 20-43 0-59.58-15.57-89.29-15.57-21.16 0-68.78 12.26-68.78 44.38 0 12.2 3.82 15.74 5 16.37.38-1.34 2.71-8.26 4.54-11.32z"/><circle class="cls-9" cx="501.26" cy="134.34" r="7.54"/></g></g></svg>