<svg id="Capa_1" data-name="Capa 1" xmlns="http://www.w3.org/2000/svg" viewBox="0 0 125 45"><defs><style>.cls-1,.cls-2{fill:#fff;}.cls-1{fill-rule:evenodd;}</style></defs><title>Mesa de trabajo 3</title><path class="cls-1" d="M3.37,40.29H4.81l-.68-1.81ZM1.8,42.51l.09-.09.07-.1.09-.11.08-.12L2.21,42l.08-.13.08-.14.09-.15.07-.15.09-.15.08-.17.09-.18.09-.18L3,40.53l.09-.2.08-.2L3.21,40l.07-.17.06-.16.06-.16.06-.16,0-.14L3.57,39l0-.13.1-.26,0-.2,0-.14,0-.08V38l0,0h.87l.13.42.12.41L5,39.2l.11.37.13.35.11.34.12.31.11.29.12.29.11.26.11.24.1.22.1.2.09.17.09.15.1.12H5.62l-.73-2H3.26L3,41.3l-.13.32-.09.27,0,.11,0,.11,0,.1v.17l0,0v.09l0,0Zm5.88-.11-.21.14-.18.13-.08.07-.06.06-.07.06,0,.06L7,43l0,.06,0,.06,0,.06,0,.06v.32l0,.08,0,.07,0,.07.06.07.06.06.08.06.08,0,.09,0,.09,0,.1,0h.1l.11,0h.35l.1,0h.09l.09,0,.09,0,.09,0,.08-.06.08-.07.07-.06.05-.06.06-.08,0-.08,0-.07,0-.09v-.33l0-.07,0-.06,0-.06,0,0-.05-.05-.06,0-.07,0-.08-.05-.11,0-.12,0-.15,0-.15,0-.18,0Zm.78-2.08v-.24l0-.07,0-.08,0-.07,0-.07,0-.06,0,0,0,0-.05,0,0,0-.06,0-.05,0H7.72l0,0-.06,0,0,0,0,0,0,0,0,.06,0,.05,0,0,0,.07,0,.07v.35l0,.08v.06l0,.08,0,.06,0,.07,0,.06.05.05,0,0,0,.05,0,0,.06,0h0l.06,0H8l.05,0h0l.05,0,0,0,0,0,0,0,0,0,0,0,0-.05,0,0,0-.06,0-.06v-.2Zm.14-.92H9l.11,0h.14v.06h0v0l0,0,0,0-.05,0,0,0H8.82l0,.06,0,.06,0,.06,0,.06,0,.08L9,40v.35l0,.09,0,.08,0,.08,0,.08-.06.08-.07.07-.07.07-.08.06L8.49,41l-.1,0-.1,0-.11,0-.11,0-.12,0-.15.06-.13.07-.12.07-.09.07-.07.06,0,.06,0,0v.15l0,0,.07,0,.08.05.12,0,.15,0,.17.05.2,0H8.2l.05,0,.18,0,.17.05.16,0,.14.05.11,0,.11,0,.09.05.07,0,.06.06.06.06,0,.06,0,.07,0,.07,0,.08v.39l0,.07,0,.07,0,.06,0,.06,0,.06,0,.06-.06,0-.07.06-.09.07L9,43.93,8.89,44l-.13.07-.14.09h0l0,0h0l-.15.09-.15.07-.14.07L8,44.5l-.13,0-.13,0-.12,0H7.37l-.12,0-.1,0-.11,0-.1,0-.11-.06-.09-.05-.09-.07-.08-.06-.07-.07,0-.08L6.39,44l0-.08,0-.09v-.36l0,0,0-.06,0-.06,0-.07,0-.07L6.59,43l.12-.14.15-.15L7,42.6l.09-.08.09-.07.08-.06.07-.07-.18,0-.14,0-.06,0-.05,0,0,0,0,0,0,0,0,0,0,0,0,0v-.21l0,0,0-.05,0,0,0,0,.07-.05.07,0,.08,0,.13-.07.12-.07.1-.07.09-.06-.07,0-.07,0-.07,0-.07,0-.06,0-.07,0,0,0L7,40.89l0-.07,0-.06,0-.07,0-.08,0-.07,0-.08v-.38l0-.1,0-.09,0-.09L7,39.72l.07-.09.09-.07.08-.06.1-.06.11,0,.1,0,.13,0,.12,0h.57l.06,0,.07,0,.06,0Zm1.81.89H11.6l0,0,0,0,0,0,0,0V39.9l0,0,0,0,0,0,0,0,0,0-.05,0,0,0-.06,0-.05,0-.06,0H11l-.06,0-.06,0-.06,0-.06,0,0,0-.06,0,0,0,0,.07,0,.06,0,.06,0,.07,0,.08v.08Zm1.87,1.47V42l0,.07,0,.07-.06.06-.05.06-.07.06-.08.06-.09.06-.1.05-.09,0-.09,0-.1,0-.11,0H11l-.16,0h-.07l-.07,0h-.07l-.06,0-.07,0-.05,0-.07,0,0,0-.06,0,0,0-.05-.06,0-.05L10,42,10,41.92l-.06-.14-.05-.15-.05-.15,0-.17,0-.18v-.37l0-.18,0-.16.05-.15,0-.08,0-.07,0-.06L10,40l.09-.12.09-.12.11-.1.11-.1.06,0,.06,0,.07,0,.07,0,.06,0,.07,0,.08,0,.07,0h.56l.1,0,.11,0,.1,0,.08,0,.09.06.07.06.07.07.08.07.05.08,0,.08,0,.09,0,.09,0,.1v.15l0,0,0,0-.06,0-.07,0-.15,0h-.22l-.32,0h-1.1l0,.1v.59l0,.13,0,.13,0,.11,0,.1.06.1.06.09.08.09.08.07.08.06.09,0,.1,0,.1,0h.47l.07,0h.06l.06,0,.05,0L12,42l.11-.06.11-.08Zm.6.75h0l0,0,0,0v0l0-.07,0-.09V39.73l0-.1,0-.08v0l0,0,0,0v0l.64-.07,0,.07v.35l.11-.11.11-.1.07-.05.05,0,.06,0,.06,0,.13-.06.12,0,.07,0h.43l.1,0,.08,0,.07,0,.07.05.05.06,0,.07,0,0,0,0v.06l0,.05,0,.13,0,.16,0,.17v.2l0,.21V42.3l0,.07,0,.06,0,0,0,0h-.68v-.59l0-.22V40.12l0-.08,0-.07,0-.06,0,0,0,0,0,0-.05,0-.05,0-.07,0h-.41l-.08,0-.07,0-.07,0-.06,0,0,0,0,0,0,.06,0,.08,0,.1,0,.12v.13l0,.16V42l0,.14,0,.1v.13l0,0v0l0,0v0h-.78Zm5.63-.7V42l0,.07,0,.07,0,.07,0,.06-.06,0-.06.06-.08,0-.08,0-.09,0-.09,0-.1,0h-.11l-.1,0h-.27l-.15,0-.15,0-.13,0-.07,0-.06,0-.06,0-.06,0-.06,0,0,0-.06-.06,0-.05-.06,0L16.32,42l0-.06,0-.06-.07-.13-.07-.15,0-.15,0-.16,0-.16v-.36l0-.09v-.17l0-.08,0-.07,0-.08,0-.07,0-.08,0-.07,0-.06.09-.13.11-.13.05-.06.08-.06.06,0,.07-.06.07,0,.07,0,.07,0,.07,0,.08,0,.08,0,.08,0,.09,0h.8l.09,0h.08l.08,0,0,.75,0-.07,0-.06,0-.06,0-.07,0,0,0,0,0,0,0,0-.05,0-.05,0-.05,0-.05,0-.06,0h-.29l-.11,0-.1,0-.11,0-.09.06-.09.07-.09.08-.07.09-.07.1-.06.11-.05.11,0,.12,0,.12,0,.14,0,.14v.3l0,.13,0,.13,0,.11,0,.12.05.1.06.1.07.1.07.07.09.07.09.06.09,0,.1,0,.1,0,.1,0h.25l.13,0H18l.07,0,.05,0,.06,0,.1-.07.11-.06,0,0,.05,0,0,0Zm.76-2.92L19,38.4l.51-.32.3.48ZM19,42.51h0l0,0v0l0,0,0-.07,0-.09,0-.1V39.78l0-.14,0-.09,0-.08,0,0v0l0,0h.52l.07,0,.07,0v.41l0,.19v2.38l0,.08,0,.06,0,.06,0,0Zm3.06-1.7-.36.15-.29.13-.12.06-.09.05-.08,0-.06,0,0,0L21,41.4l0,.05,0,0,0,0,0,.06v.26l0,0v0l0,0,0,0,0,0,.05,0,0,0,.05,0,.05,0,.05,0h.32l.07,0,.07,0,.05,0,.06,0,.05,0,0-.05,0,0,0-.06,0-.07,0-.08,0-.09v-.81Zm.11,1.76,0-.07,0-.06,0-.07,0-.07v-.14l0-.08V42l0,.07,0,.07,0,.06,0,.06-.05.06-.05,0,0,.05-.05,0-.13.06-.13,0H21.4l-.07,0H21.1l-.09,0h-.08l-.09,0-.07,0-.07,0-.07,0-.06,0-.07-.06-.06,0-.05-.06,0-.07,0-.06,0-.08v-.34l0-.06,0-.06,0-.06,0,0,.05,0,.06-.06.08,0,.09-.07.11-.06.13-.07.15-.07.15-.07.18-.07.2-.09.16-.09.07,0,0,0,0,0,0,0,0-.08,0-.08,0-.06V40l0-.07v-.07l0,0,0,0,0-.06,0,0,0,0,0,0,0,0-.06,0-.06,0h-.34l-.07,0-.06,0,0,0-.05,0,0,0,0,0,0,.07,0,.09,0,.08-.05.07,0,.05-.05,0,0,0-.05,0,0,0h-.11l-.05,0,0,0,0,0,0,0,0,0v-.24l0-.06,0-.06.06,0,.07-.06.07,0,.08-.06.1,0,.1,0,.11,0,.12,0,.12,0h.75l.09,0,.08,0,.07,0,.06,0,.06,0,.05,0,0,0,0,.05,0,.06,0,.07,0,.07v.47l0,.19v1.11l0,.22V42l0,.09,0,.08v.14l0,0,0,.06,0,0,0,0,0,0,0,0Zm3.11-.06,0,0v0l0-.05,0-.06,0-.14,0-.18V38.45l0-.16,0-.13,0-.1,0-.07h1l.21,0h.57l.16,0,.14,0,.13,0,.12.05.1,0,.11.06.08.06.09.09.07.09.06.1.05.12,0,.12,0,.12v.58l0,.14-.05.13-.05.12-.07.12-.07.1-.09.1-.09.09-.1.07-.11.07-.12,0-.12,0-.13,0-.14,0h-.43l-.08,0-.09,0-.08,0-.08,0-.08-.05h.35l.13,0,.11,0,.1,0,.1-.05.1-.07.08-.07L27.3,40l.06-.09.07-.1,0-.1,0-.12,0-.13v-.59l0-.11,0-.08,0-.08-.05-.07-.05-.07-.06-.05-.07,0-.08-.05-.09,0-.09,0h-.1l-.1,0h-.36l-.06,0h-.18v.71l0,.14V42l0,.1,0,.17,0,.14,0,0,0,.05,0,0,0,0Zm3.77-2.22h1.18l0,0h.06v0h0V39.9l0,0,0,0,0,0,0,0,0,0,0,0-.05,0-.05,0-.06,0-.05,0h-.32l-.06,0-.07,0-.06,0,0,0-.06,0-.05,0,0,0-.05.07,0,.06,0,.06,0,.07,0,.08,0,.08Zm1.87,1.47v.14l0,.07,0,.07,0,.07-.05.06-.06.06-.07.06-.08.06-.09.06-.09.05-.09,0-.1,0-.1,0-.1,0h-.38l-.14,0h-.08l-.06,0h-.08l-.06,0-.06,0-.06,0-.06,0-.06,0-.11-.09-.1-.11L28.68,42l-.07-.12-.07-.14-.06-.15,0-.15,0-.17v-.73l0-.16,0-.15,0-.08,0-.07,0-.06,0-.07.08-.12.1-.12.1-.1.11-.1.07,0,.06,0,.06,0,.07,0,.06,0,.07,0,.08,0,.07,0h.56l.11,0,.1,0,.1,0,.09,0,.08.06.07.06.08.07.06.07.06.08.05.08,0,.09L31,40v.28l0,0-.07,0-.07,0-.15,0h-.22l-.31,0H29l0,.1,0,.08v.51l0,.13,0,.13,0,.11.05.1.05.1.06.09.08.09.08.07.09.06.08,0,.1,0,.1,0h.5l.06,0h.06l.05,0,.05,0,.12-.06.1-.06.11-.08Zm.59.75h0l0,0,0,0v0l0,0v-.13l0-.1V42l0-.19V40.39l0-.28v-.23l0-.15v-.14l0,0v0l0,0,0,0,0,0h.07l.07,0h.18l.15,0,.07,0h0l0,0,0,0,0,0v.36l.08-.12.1-.1.08-.09.09-.07,0,0,.05,0,0,0,0,0h.4l0,0h0l0,0,0,0,0,.05,0,0v.13l0,0,0,0h0l0,0H33l-.11,0h-.38l0,0,0,0,0,0,0,0,0,0,0,.06,0,.07v.08l0,.11v2l0,.09,0,.07,0,0,0,0Zm4.3.06h0v0h0v0l0-.52,0,.07-.05.07,0,.07,0,0,0,.06-.06.05-.05,0-.06,0-.07,0-.06,0-.07,0-.06,0H35l-.07,0h-.28l-.13,0h-.06l0,0h-.06l0,0-.1-.07-.08-.07-.08-.09-.07-.1,0-.08,0-.1,0-.1,0-.1v-2.3l0,0,0,0,0,0h0l.47-.09h.11l0,0h0l0,0v.17l0,1.62v.39l0,.1,0,.09,0,.08,0,.07,0,0,0,.06.05,0,0,0,.06,0,.07,0h.33l.09,0h.08l.07,0,.06,0,.06-.05.05,0,0-.07,0-.07,0-.09,0-.1,0-.11v-.14l0-.15V39.68l0-.09,0-.07,0-.07,0,0h0l0,0h0l.7-.09v3l0,.08,0,.06,0,.06,0,0Zm2.82-1.76-.36.15-.29.13-.12.06-.09.05-.08,0-.06,0,0,0,0,.06,0,.05,0,0,0,0v.32l0,0,0,0,0,0,0,0,0,0,0,0,0,0,0,0,.06,0,0,0h.32l.07,0,.07,0,.05,0,0,0,0,0,.05-.05,0,0,0-.06,0-.07,0-.08,0-.09v-.81Zm.11,1.76,0-.07,0-.06V42.3l0-.07V42l-.07.14-.09.12,0,.06-.06,0,0,.05-.06,0-.12.06-.14,0H38l-.07,0h-.25l-.08,0h-.09l-.08,0-.07,0-.07,0-.07,0-.07,0-.07-.06-.05,0,0-.06,0-.07,0-.06,0-.08v-.34l0-.06,0-.06,0-.06,0,0,0,0,.07-.06.08,0,.09-.07.11-.06.12-.07.14-.07.16-.07.18-.07.2-.09.16-.09.06,0,0,0,0,0,0,0,0,0,0,0,0,0v0l0-.1v-.34l0-.07,0,0,0,0,0-.06,0,0,0,0,0,0-.05,0-.06,0-.05,0h-.35l-.07,0-.06,0-.05,0,0,0,0,0,0,0,0,.07,0,.09,0,.08,0,.07,0,.05,0,0,0,0-.05,0,0,0h-.12l0,0,0,0,0,0,0,0v-.28l0-.06,0-.06,0,0,.07-.06.07,0,.08-.06.1,0,.1,0,.11,0,.13,0,.12,0h.75l.08,0,.08,0,.07,0,.06,0,.06,0,0,0,0,0,0,.05,0,.06,0,.07,0,.07v.47l0,.19v1.6l0,.08,0,.07v.07l0,0,0,.06,0,0,0,0,0,0,0,0Zm1.16-.06h0l0,0v0l0,0v-.16l0-.1,0-.14V40.11l0-.23,0-.15v-.18l0,0v0l0,0,0,0,.65-.07,0,0v.39l.12-.11.11-.1.05-.05.06,0,.06,0,.06,0,.13-.06.13,0,.07,0h.42l.09,0,.09,0,.08,0,.07.05.06.06,0,.07,0,.08,0,.11,0,.13,0,.16,0,.17v2l0,.08,0,.07,0,.06,0,0,0,0h-.68V40.22l0-.1,0-.08,0-.07,0-.06,0,0,0,0,0,0,0,0-.06,0-.06,0h-.4l-.09,0-.07,0-.07,0-.06,0,0,0,0,0,0,.06,0,.08,0,.1,0,.12v1.9l0,.1,0,.09,0,.07v0l0,0v0h-.79Zm4.85-1.7-.35.15-.29.13-.12.06-.1.05-.09,0,0,0-.05,0,0,.06,0,.05,0,0,0,0v.32l0,0,0,0,0,0,0,0,0,0,0,0,0,0,0,0,0,0,.05,0h.33l.08,0,.06,0,.06,0,.05,0,0,0,0-.05,0,0,0-.06,0-.07,0-.08v-.09l0-.09v-.72Zm.1,1.76V42.5l0-.06V42.3l0-.07V42l-.09.14-.08.12-.05.06,0,0-.05.05-.06,0-.13.06-.12,0H44.1l-.06,0H43.8l-.08,0h-.09l-.09,0-.07,0-.07,0-.07,0-.07,0-.07-.06,0,0,0-.06,0-.07,0-.06L43,42l0-.06V41.8l0-.08,0-.06,0-.06,0-.06,0-.06.05,0,.06,0,.06-.06.07,0,.1-.07.11-.06.12-.07.15-.07.16-.07.17-.07.19-.09.16-.09.11-.08.08-.06,0,0,0,0,0,0v0l0-.1V40l0-.07v-.07l0,0,0,0,0-.06,0,0,0,0,0,0,0,0-.06,0,0,0h-.36l-.06,0,0,0-.06,0,0,0,0,0,0,0-.05.07,0,.09,0,.08,0,.07,0,.05,0,0,0,0,0,0-.05,0H43.3l0,0h0v0h0l0,0,0,0,0-.05v-.13l0-.06,0-.06,0-.06,0,0,.07-.06.07,0,.1-.06.1,0,.1,0,.11,0,.11,0,.13,0h.73l.09,0,.09,0,.07,0,.06,0,.06,0,.05,0,0,0,0,.05,0,.06,0,.07v.73l0,.23v1.1l0,.18v.17l.05.14,0,.11,0,0,0,0,0,0,0,0Zm4.5-.36h.17l.07,0,.07,0,.06,0,0,0,.06,0,0,0,0-.06,0-.07,0-.08v-.1l0-.1V39.73l0,0,0,0,0,0-.05,0,0,0-.05,0h-.3l-.12,0-.12,0-.11,0-.11.06-.1.06-.09.08-.09.08-.07.1-.07.1,0,.11,0,.13,0,.13,0,.14v.59l0,.13,0,.11,0,.12,0,.1.07.1.06.1.08.08.08.07.07.06.1.05.09,0,.1,0,.1,0Zm1.25-4.65v4.58l0,.14,0,.11,0,.07.05,0-.65.06,0,0v-.37l-.09.1-.09.09-.11.07-.12.07-.06,0h-.06l-.06,0h-.07l-.15,0h-.27l-.14,0-.13,0-.12,0-.11-.06-.1-.07-.05,0,0,0,0,0-.05-.05-.09-.11L48,42l-.06-.13,0-.14,0-.14,0-.16v-.63l0-.1,0-.08,0-.09,0-.08,0-.08,0-.08,0-.08,0-.07.05-.07,0-.06.06-.06.06-.07.06,0,.07-.06.06-.06.07,0,.08-.06.07,0,.08,0,.08,0,.08,0,.09,0,.09,0,.1,0,.1,0h.77v-1l0-.16V38l0-.1,0-.07,0-.07,0-.07Zm1.27,2.73h1.18l0,0,0,0,0,0,0,0V40l0-.05v0l0,0,0,0,0,0,0,0,0,0,0,0-.05,0,0,0-.06,0h-.31l-.06,0-.06,0-.06,0-.06,0-.05,0-.06,0,0,0-.05.07,0,.06L52,40l0,.07,0,.08,0,.08Zm1.87,1.47V42l0,.07,0,.07,0,.06-.07.06-.07.06-.08.06-.09.06-.1.05-.09,0-.1,0-.1,0-.1,0h-.37l-.15,0h-.07l-.06,0h-.07l-.06,0-.07,0-.06,0-.06,0,0,0-.11-.09-.11-.11L51.5,42l-.07-.12-.07-.14,0-.15,0-.15,0-.17,0-.18v-.37l0-.18,0-.16,0-.15,0-.08,0-.07,0-.06,0-.07.09-.12.09-.12.1-.1.12-.1.06,0,.06,0,.06,0,.07,0,.07,0,.07,0,.07,0,.07,0h.56l.11,0,.1,0,.1,0,.09,0,.08.06.08.06.07.07.07.07,0,.08,0,.08,0,.09,0,.09,0,.1v.15l0,0,0,0-.06,0-.08,0-.14,0h-.23l-.31,0H51.86l0,.1v.59l0,.13,0,.13,0,.11,0,.1.07.1.06.09.08.09.07.07.09.06.09,0,.1,0,.1,0h.48l.06,0h.06l0,0,.06,0,.12-.06.11-.06.11-.08ZM59.63,38l-.05,1,0-.08,0-.09,0-.07-.06-.07,0-.07-.07-.07-.06-.06-.07-.05-.06,0-.07,0-.08,0-.08,0-.08,0h-.1l-.08,0h-.46l-.08,0-.09,0-.08,0-.08,0-.07,0-.07,0-.07,0-.07,0-.07.05-.06,0,0,.06-.06,0-.05.06,0,.08,0,.06,0,.08,0,.07,0,.07,0,.09,0,.08,0,.09,0,.09,0,.1v.84l0,.1v.1l0,.1,0,.09,0,.1L57,41l0,.09,0,.08,0,.08.05.08,0,.07.06.07,0,.07.06.06.06.06.07.06.07.05.07,0,.07,0,.08,0,.08,0L58,42l.08,0,.08,0h.09l.09,0,.09,0h.48L59,42l.1,0,.08,0,.09,0,.08,0,.08,0,.08,0,.07-.05.07,0,.07-.06.07-.05.06-.07.06-.06,0,.11,0,.12-.06.1-.07.11-.08.09-.08.09-.1.08-.1.08-.11.07-.11.06-.12.06-.12,0-.14,0-.14,0h-.52l-.11,0h-.11l-.1,0-.11,0-.1,0-.1,0-.09,0-.09,0-.09-.05-.09-.06L57,42.17l-.08-.07L56.81,42l-.07-.08-.07-.07-.07-.09-.06-.09-.06-.09,0-.09,0-.1-.05-.1,0-.1,0-.1,0-.11,0-.11,0-.11,0-.12V39.9l0-.13,0-.12,0-.12,0-.12,0-.1.05-.11,0-.1.06-.1,0-.1.07-.09.07-.09.07-.08.08-.08.08-.08.09-.07.09-.07.09-.06.1-.06.1-.06.11,0,.11,0,.11,0,.13,0,.11,0L58,38h.13l.13,0h.62l.17,0,.17,0,.14,0h.23Zm2.14,1.57h-.1l-.09,0-.1,0-.08,0-.09,0-.07.06-.06.06-.06.08-.06.08,0,.1-.05.1,0,.11,0,.12,0,.14V41l0,.17,0,.15,0,.14,0,.13,0,.13.06.12.06.1.07.09.08.08.08.06.09,0,.1.05.11,0,.12,0H62l.09,0,.09,0,.07,0,.08-.05.07-.06.06-.07.07-.09,0-.08,0-.1,0-.12,0-.12,0-.14,0-.14v-.63l0-.14,0-.12,0-.12,0-.11L62.54,40l-.07-.1-.06-.08-.07-.08-.08-.06-.08-.06-.1,0-.1,0-.1,0Zm.13-.27h.33l.14,0,.13,0,.13.06.12.07.11.08.1.1.09.1.07.11.07.11.05.13,0,.13,0,.15V41l0,.2,0,.18,0,.18,0,.09,0,.08,0,.07,0,.08,0,.07L63,42,63,42l-.05.07-.06.06-.05,0-.06.05-.06,0-.06,0-.07,0-.07,0-.07,0-.07,0-.08,0-.08,0-.07,0H61.6l-.16,0-.14,0-.14,0L61,42.43l-.12-.07-.12-.07-.1-.1-.09-.11L60.53,42l-.07-.13-.05-.15,0-.15,0-.16v-.73l0-.08,0-.09,0-.07,0-.08,0-.08,0-.07,0-.07,0-.07,0-.06,0-.06,0-.07.05,0,.06-.06.06-.06,0,0,.07-.06.07,0,.06,0,.07,0,.07,0,.08,0,.08,0,.07,0,.08,0h.34Zm3.33.27h-.1l-.1,0-.09,0-.1,0-.07,0-.08.06-.06.06-.07.08L64.5,40l0,.1,0,.1,0,.11,0,.12,0,.14v.63l0,.15,0,.14,0,.13,0,.13.06.12.06.1.08.09.08.08.08.06.1,0,.09.05.1,0,.12,0h.21l.1,0,.08,0,.08,0,.08-.05.07-.06.06-.07L66,42l0-.08,0-.1,0-.12,0-.12,0-.14,0-.14v-.63l0-.14,0-.12,0-.12,0-.11L66,40l-.06-.1-.08-.08-.08-.08-.07-.06-.09-.06-.09,0-.1,0-.1,0Zm.11-.27h.33l.15,0,.14,0,.06,0,.06,0,.06,0,.06,0,0,0,.06,0,0,0,.05.05.08.1.08.11.06.11.06.13,0,.13,0,.15v.73l0,.18,0,.18,0,.09,0,.08,0,.07,0,.08-.05.07,0,.07,0,.06-.05.07-.06.06-.05,0-.06.05-.06,0-.06,0-.06,0-.08,0-.06,0-.08,0-.07,0-.07,0-.09,0H65l-.16,0-.14,0-.15,0-.12-.06-.12-.07-.12-.07-.1-.1L64,42.08,64,42l-.07-.13,0-.15-.05-.15,0-.16v-.64l0-.09v-.08l0-.09,0-.07,0-.08,0-.08,0-.07,0-.07L64,40l0-.06,0-.06.05-.07.06,0,.06-.06,0-.06.06,0,.07-.06.06,0,.07,0,.06,0,.07,0,.08,0,.07,0,.08,0,.07,0h.33ZM68,41.16v.58l0,.09,0,.09L68,42l0,0,0,0,0,0,0,0,0,0,.06,0,.07,0h.37l.11,0,.11,0,.09,0,.09-.05.09,0,.08-.07.07-.07.06-.08,0-.1,0-.09,0-.11,0-.11,0-.13v-.56l0-.13,0-.13,0-.11,0-.11-.06-.11-.07-.09-.07-.1-.07-.08-.08-.07L69,39.77l-.08,0-.1,0-.1,0h-.18l-.06,0-.08,0-.09,0-.08,0-.06,0-.05,0,0,0,0,0,0,0v.08l0,.1,0,.11,0,.14v.76Zm-.63,3.33,0,0,0,0,0,0v-.06l0-.12,0-.15V39.94l0-.2,0-.16v-.07l0-.06,0,0,0,0,.65-.09,0,.09v.37l.11-.11.13-.09.12-.08.12-.07.06,0,.06,0,.07,0,0,0H69l.13,0,.12,0,.1,0,.11.07.1.07.09.1.09.1.09.12.07.12.06.12.06.14,0,.14,0,.15v.59l0,.09,0,.08,0,.08,0,.09,0,.08,0,.07,0,.08,0,.07,0,.07,0,.07-.06.07-.06.06-.06.07-.08.06-.07,0-.08.05-.08,0-.08,0-.09,0-.08,0-.09,0-.09,0-.1,0-.09,0-.1,0H68v1.51l0,.14,0,.1v0l0,0,0,0,0,0Z"/><path class="cls-1" d="M71.25,40.26h1.12l.07,0h0l0,0h0V40l0-.05v0l0-.05,0,0,0,0,0,0,0,0,0,0,0,0,0,0,0,0h-.38l-.06,0-.06,0-.05,0-.06,0-.05,0-.06.06,0,.06,0,.06,0,.06,0,.08,0,.06v.15Zm1.84,1.46V42L73,42l0,.07,0,.07-.06.06-.08.07-.08.06-.09.06-.09.05-.09,0-.1,0-.1,0-.1,0H71.8l-.14,0-.13,0-.13,0-.06,0-.06,0,0,0,0,0-.06,0-.05,0,0-.05,0-.06,0-.06L70.88,42l0-.07,0-.07,0-.06,0-.07,0-.08,0-.07,0-.15,0-.17,0-.17v-.37l0-.18,0-.16,0-.15,0-.08,0-.07,0-.06,0-.07,0-.06,0-.06.05-.06,0-.06.06,0,0-.06.06,0,0,0,.06,0,.07,0,.06,0,.06,0,.07,0,.07,0h.07l.07,0,.16,0h.38l.11,0,.1,0,.11,0,.09,0,.09.06.08.06.07.07.06.07,0,.07,0,.08,0,.08,0,.09,0,.09v.19l0,0,0,0,0,0,0,0,0,0-.13,0h-.23l-.32,0h-1l0,.09,0,.09v.51l0,.12,0,.13,0,.11,0,.11.06.1,0,.09.08.08.08.07.09,0,.09.06.1,0,.11,0h.48l.1,0,.11,0,.12-.06.11-.08.11-.08Zm.59.79,0,0,0-.06,0-.06,0-.08,0-.1v-2.3l0-.14,0-.11,0-.08,0-.06,0,0h.16l.09,0H74l.16,0h.08l0,0,0,0v.25l0,.08v.06l.08-.12.08-.1.09-.09.07-.07.06,0,0,0,.06,0,0,0h.37l.07,0,.06,0h0v0l0,0v.27l0,0h0l0,0h-.19l-.13,0h-.38l0,0,0,0,0,0,0,0,0,0,0,.06,0,.07v2.11l0,.09v.08l0,.06,0,.06,0,0Zm3.82-1.7-.37.15-.28.13-.12.06-.09.05-.08,0-.06,0,0,0,0,0,0,.06,0,.05,0,.06,0,.06v.26l0,0,0,0,0,0,0,0,0,0,0,0,0,0,0,0,0,0,.05,0H77l.07,0,.06,0,.07,0,0,0,.06,0,0-.05,0-.06,0-.07,0-.08,0-.07,0-.09v-.79Zm.11,1.73,0,0,0-.05,0-.07,0-.07V42l0,.07,0,.07,0,.06,0,0,0,.06,0,0,0,0,0,0-.06,0-.06,0-.07,0-.07,0h-.07l-.07,0h-.4l-.09,0-.07,0-.07,0-.07,0-.07,0-.06-.06-.06-.07,0-.06,0-.06,0-.06,0-.07v-.28l0-.06,0-.06,0-.06,0-.06,0,0,.05,0,.06-.06.08,0,.09-.07.11-.07.13-.07.14-.07.16-.07.18-.08.2-.09.16-.07.07,0,0,0,0,0,0,0,0-.08,0-.08,0-.06v-.38l0-.07,0,0,0,0,0-.06,0,0,0,0,0,0-.05,0,0,0-.06,0h-.34l-.07,0-.06,0,0,0,0,0,0,0,0,0v.06l0,.1,0,.08,0,.07,0,.05,0,0,0,0,0,0,0,0H76l-.05,0,0,0,0,0,0,0,0,0v-.18l0-.06,0-.06,0-.06.06,0,.07-.06.06,0,.09-.06.1,0,.1,0,.11,0,.12,0,.12,0h.75l.08,0,.09,0,.07,0,.06,0,.06,0,0,0,0,0,0,.06,0,.06,0,.07,0,.08v1.77l0,.22v.1L78,42v.09l0,.08v.14l0,0,0,.06,0,0,0,0,0,0,0,0Zm3.55-.73V42l0,.08,0,.08,0,.06,0,.07-.06,0-.07.06-.07,0-.08,0-.09,0-.09,0-.1,0H80l-.15,0h-.08l-.07,0-.06,0-.07,0-.06,0-.07,0-.06,0-.06,0-.05-.05-.07,0,0-.06-.05,0L79,42l-.09-.12-.07-.14,0-.14,0-.14,0-.15,0-.16v-.36l0-.17,0-.09v-.08l0-.07,0-.08,0-.07,0-.08,0-.07,0-.06L79,40,79,39.9l0-.06.07-.06.06-.06.06-.06.06,0,.07-.06.07,0,.07,0,.08,0,.07,0,.08,0,.08,0,.08,0,.08,0h.82l.07,0H81l.09,0,0,.75L81,40l-.07-.12-.07-.1-.07-.09-.1-.05-.11,0-.05,0H80.2l-.12,0-.1,0-.1,0-.09.06-.09.07-.08.08-.09.09-.07.1,0,.1-.06.12,0,.11,0,.13,0,.14v.57l0,.13,0,.11,0,.12.06.1,0,.1.07.1.09.07.08.07.09.06.09,0,.09,0,.11,0,.1,0h.32l.06,0,.12,0,.13,0,.1-.07L81,42l0,0,0,0,0,0Zm.75-2.92-.3-.49.52-.32.29.48Zm-.24,3.62,0,0,0-.06,0-.06,0-.08V39.64l0-.1,0-.08v-.05l0,0h.59l.07,0v.4l0,.2v2.27l0,.11,0,.08,0,.06,0,.06,0,0Zm2.82-2.95h-.11l-.1,0-.1,0-.08,0-.08,0-.08.06-.07.06-.06.08,0,.08,0,.1,0,.1,0,.11,0,.12v.76l0,.14,0,.14,0,.14,0,.12.05.11.07.11.07.09.09.09.08.07.09,0,.1.05.1,0,.11,0h.22l.09,0,.09,0,.08,0,.08-.05.06-.06.07-.07,0-.09.06-.08,0-.1,0-.12,0-.12,0-.14v-.14l0-.16v-.33l0-.14V40.5l0-.12,0-.12,0-.11,0-.1-.07-.11-.07-.09L85,39.77,85,39.7l-.09-.05-.08,0-.09,0-.11,0Zm.1-.27h.33l.15,0,.13,0,.13.06.11.06.11.08.1.08,0,.06,0,0,0,.06,0,.06.07.12,0,.13,0,.14,0,.15,0,.16V41l0,.2,0,.18,0,.18-.06.16-.07.15-.08.14-.1.14-.05.06-.06,0-.07.05-.06,0-.06,0-.07,0-.06,0-.08,0-.07,0-.08,0-.08,0-.08,0h-.51l-.15,0h-.08l-.07,0h-.07l-.07,0-.06,0-.07,0-.06,0,0,0-.06,0,0,0,0-.05,0-.06-.05,0,0-.06,0,0,0-.06,0-.07,0-.07,0-.07,0-.07,0-.15,0-.17,0-.17v-.55l0-.08v-.09l0-.08,0-.08,0-.07,0-.07,0-.07,0-.07.09-.14.11-.12.12-.1.11-.1.14-.07.13-.07.08,0,.07,0,.07,0,.08,0,.16,0Zm.19-1.59h.6l-.07.12-.08.12-.07.11-.07.11-.07.1-.08.09-.08.08-.08.08-.08.07-.08.06-.09.06-.09,0-.09,0-.1,0-.1,0-.1,0,.12-.17.11-.16.09-.16.08-.16.11-.14.08-.14.08-.14Zm1.79,4.81,0,0,0-.06,0,0v-.11l0-.1,0-.16V40.09l0-.22,0-.14v-.16l0,0,0-.06,0,0,.65,0v.07l0,.09v.26l0-.06.06-.07,0-.05.06-.06.06,0,0-.05.07,0,.06,0,.06,0,.06,0,.07,0,.07,0h.48l.1,0,.08,0,.07,0,.07.05.06.07,0,.07,0,0,0,0,0,0,0,.06,0,.12,0,.15,0,.17v2l0,.08,0,.07,0,.06,0,0,0,0h-.67V41.9l0-.2V40.32l0-.11v-.1l0-.09,0-.08,0-.06,0-.05,0,0,0,0,0,0h-.05l-.07,0h-.41l-.08,0-.07,0-.07,0-.06,0,0,0-.05,0,0,.06,0,.08,0,.1,0,.11,0,.14v1.43l0,.18,0,.16v.21l0,0,0,.06,0,0Zm5.2,0,0-.07,0-.11,0-.14,0-.16V38.45l0-.16,0-.14,0,0,0-.05,0,0,0,0h1l0,0,0,0,0,.05,0,0,0,.14,0,.16v.11l0,.12v3.14l0,.13v.1l0,.17,0,.13,0,0,0,0,0,0,0,0Zm1.7,0,0,0,0-.06,0-.06,0-.08,0-.1v-2.3l0-.14,0-.11,0-.08,0-.06,0,0,.66,0v.42l0-.06.06-.07,0-.05.06-.06.06,0,.06-.05.06,0,.07,0,0,0,.06,0,.06,0,.07,0h.5l.1,0,.07,0,.08,0,.06.05.06.07,0,.07,0,0,0,0,0,0,0,.06,0,.12,0,.15,0,.17V42.3l0,.07,0,.06,0,0,0,0h-.68V41.9l0-.2V40.11l0-.09,0-.08,0-.06,0-.05,0,0,0,0,0,0h0l-.07,0h-.42l-.07,0-.07,0-.07,0-.06,0,0,0,0,0,0,.06,0,.08,0,.1,0,.11v.14l0,.15V42l0,.16,0,.1v.14l0,.06,0,0Zm3.44-2.87-.32,0V39.4l.32,0,0-.9.51-.16,0,1.06h.64l0,0v.05l0,0v0l0,0,0,0h-.07l-.07,0h-.42l0,1.84v.42l0,.06v0l0,.05,0,0,0,0,0,0,0,0,0,0h.24l0,0h0l.11-.09.11-.08,0,.3-.07.08-.07.06-.08.06-.08,0-.09,0-.09,0-.1,0h-.3l-.06,0,0,0-.06,0,0,0,0,0,0-.06,0-.07,0-.08v-.08l0-.09,0-.09v-.26Zm2.3.62h1.14l.08,0h0l0,0h0V39.9l0,0V39.8l0,0,0,0,0,0,0,0,0,0,0,0-.06,0,0,0h-.39l-.07,0-.06,0-.06,0-.06,0-.05,0,0,.06,0,.06,0,.06,0,.06,0,.08,0,.06v.07Zm1.87,1.46v.16l0,.07,0,.07,0,.07,0,.07-.07.06-.07.07-.08.06-.09.06-.08.05-.1,0-.09,0-.1,0-.11,0h-.37l-.15,0h-.07l-.07,0h-.07l-.06,0-.06,0-.07,0,0,0-.06,0L99,42.27l-.1-.11L98.83,42l-.08-.14-.06-.13,0-.15,0-.15,0-.17,0-.17v-.37l0-.18,0-.16,0-.15,0-.08,0-.07,0-.06,0-.07.08-.12.09-.12,0,0,.06-.06,0,0,.06,0,.06,0,.06,0,.06,0,.07,0,.07,0,.07,0h.07l.08,0,.16,0h.4l.11,0,.1,0,.1,0,.1,0,.08.06.09.06.07.07,0,.07.06.07,0,.08,0,.08,0,.09v.25l0,0,0,0,0,0,0,0,0,0,0,0-.14,0h-.24l-.31,0H99.19l0,.09,0,.09V41l0,.14,0,.12,0,.13,0,.11,0,.11.06.1.07.09.07.08.08.07.09,0,.09.06.1,0,.1,0h.49l.11,0,.11,0,.12-.06.11-.08.1-.08Zm.6.79,0,0,0-.06,0-.06,0-.08V39.73l0-.11,0-.08,0-.06,0,0h.14l.08,0H102l.14,0h.1l0,0,0,0v0l0,0v.31l.1-.12.09-.1.09-.09.08-.07,0,0,0,0,0,0,0,0h.37l.06,0,0,0h0l0,0,0,0v0l0,0v.1l0,0v0l0,0h0l-.06,0h-.19l-.12,0h-.37l-.06,0,0,0,0,0,0,0,0,0V40l0,.07v.08l0,.11v1.92l0,.09,0,.08,0,.06,0,.06,0,0Zm2.22,0,0,0,0-.06,0-.06v-.08l0-.1v-2.3l0-.14v-.11l0-.08,0-.06,0,0,.65,0v.42l.06-.06.05-.07,0-.05.06-.06.11-.09.11-.07.06,0,.06,0,.07,0,.07,0h.52l.09,0,.08,0,.08,0,.06.05.05.07,0,.07,0,.08,0,.11,0,.12,0,.15,0,.17v2l0,.08v.1l0,0,0,0,0,0h-.7v-2.3l0-.1,0-.09,0-.08,0-.06,0-.05,0,0,0,0-.05,0h-.06l-.06,0h-.4l-.08,0-.07,0-.06,0-.06,0-.06,0,0,0,0,.06,0,.08,0,.1,0,.11,0,.14v1.87l0,.08,0,.06v0l0,0,0,0,0,0Zm4.84-1.7-.36.15-.29.13-.12.06-.09.05-.08,0-.06,0,0,0,0,0,0,.06,0,.05,0,.06,0,.06v.26l0,0,0,0,0,0,0,0,0,0,0,0,0,0,0,0,.05,0,.06,0h.31l.07,0,.07,0,.06,0,0,0,.05,0,0-.05,0-.06,0-.07,0-.08,0-.07,0-.09v-.79Zm.11,1.73v0l0-.05,0-.07,0-.07V42l0,.07,0,.07,0,.06,0,0-.06.06,0,0-.06,0,0,0-.06,0-.06,0-.06,0-.06,0h-.07l-.07,0h-.4l-.09,0-.07,0-.07,0-.07,0-.07,0-.06-.06,0-.07,0-.06,0-.06,0-.06V42l0-.06v-.22l0-.06,0-.06,0-.06,0-.06,0,0,0,0,.06-.06.08,0,.09-.07.11-.07.14-.07.13-.07.17-.07.17-.08.11-.05.09,0,.08,0,.07,0,.12-.08.07-.06,0,0,0,0v0l0,0v-.51l0,0,0,0,0-.06,0,0,0,0,0,0,0,0,0,0-.06,0H108l-.07,0-.06,0-.05,0,0,0,0,0,0,0v.06l0,.1,0,.08,0,.07,0,.05,0,0,0,0,0,0,0,0h-.1l-.06,0,0,0,0,0,0,0,0,0v-.24l0-.06,0-.06,0,0,.07-.06.07,0,.09-.06.09,0,.1,0,.11,0,.13,0,.12,0h.74l.09,0,.08,0,.07,0,.06,0,.06,0,.05,0,0,0,0,.06,0,.06,0,.07,0,.08v1.77l0,.22V42l0,.17,0,.14,0,.11,0,0,0,0,0,0,0,0Zm3.55-.73v.09l0,.08,0,.08,0,.08,0,.06,0,.07,0,0-.07.06-.07,0-.09,0-.09,0-.09,0-.1,0h-.48l-.15,0H111l-.07,0-.07,0-.07,0-.06,0-.06,0-.07,0-.06,0,0-.05-.06,0,0-.06-.06,0-.09-.12-.09-.12-.07-.14,0-.14-.05-.14,0-.15v-.69l0-.09,0-.08,0-.07,0-.08,0-.07,0-.08,0-.07,0-.06,0-.07,0-.07,0-.06.07-.06.06-.06.06-.06.07,0,.06-.06.07,0,.07,0,.08,0,.08,0,.07,0,.09,0,.07,0,.09,0h.81l.08,0h.08l.08,0,0,.75L112.2,40l-.06-.12-.07-.1-.08-.09-.1-.05-.11,0,0,0h-.29l-.11,0-.11,0-.1,0-.09.06-.09.07-.08.08-.09.09-.06.1-.06.1-.06.12,0,.11,0,.13,0,.14,0,.14v.3l0,.13,0,.13,0,.11,0,.12.06.1.06.1.06.1.09.07.08.07.09.06.09,0,.1,0,.1,0,.11,0h.31l.06,0,.12,0,.13,0,.1-.07.09-.06.05,0,0,0,0,0Zm.76-2.92-.3-.49.51-.32.3.48Zm-.25,3.62,0,0,0-.06,0-.06,0-.08V39.64l0-.1,0-.08v0l0,0,0,0h.6l.06,0v.1l0,.13v2.64l0,.11,0,.08,0,.06,0,0,0,0,0,0,0,0Zm2.82-2.95h-.11l-.1,0-.1,0-.08,0-.08,0-.08.06-.07.06-.06.08,0,.08,0,.1,0,.1,0,.11,0,.12v.76l0,.14,0,.14,0,.14,0,.12.06.11.07.11.07.09.08.09.09.07.08,0,.1.05.1,0,.11,0H116l.09,0,.1,0,.08,0,.07-.05.07-.06.07-.07,0-.09.05-.08,0-.1,0-.12,0-.12,0-.14,0-.14v-.49l0-.14V40.5l0-.12,0-.12,0-.11,0-.1-.06-.11-.08-.09-.07-.08-.09-.07-.08-.05-.09,0-.09,0-.1,0Zm.11-.27h.32l.15,0,.13,0,.13.06.12.06.1.08.1.08,0,.06,0,0,0,.06,0,.06.06.12.05.13,0,.14,0,.15,0,.16V41l0,.2,0,.18,0,.18,0,.07,0,.09,0,.08,0,.07,0,.07,0,.07,0,.07,0,.07-.06.06,0,0,0,.05-.07,0-.06,0-.06,0-.07,0-.07,0-.07,0-.08,0-.08,0-.07,0h-.52l-.15,0h-.08l-.07,0h-.07l-.07,0-.06,0-.07,0-.06,0-.05,0-.06,0-.05,0,0-.05,0-.06-.05,0,0-.06,0,0,0-.06,0-.07,0-.07,0-.07,0-.07,0-.15,0-.17v-.72l0-.08v-.09l0-.08,0-.08,0-.07,0-.07,0-.07,0-.07.09-.14.11-.12.12-.1.12-.1.13-.07.13-.07.08,0,.07,0,.08,0,.08,0,.15,0Zm2,3.22,0,0,0-.06,0-.06,0-.08,0-.1v-2.3l0-.14,0-.11,0-.08,0-.06,0,0,.66,0v.07l0,.09v.26l.05-.06.06-.07.05-.05.06-.06.06,0,.06-.05.06,0,.06,0,.06,0,.06,0,.06,0,.07,0h.5l.09,0,.08,0,.08,0,.06.05.06.07,0,.07,0,0,0,0,0,0,0,.06,0,.12,0,.15,0,.17V42.3l0,.07,0,.06,0,0,0,0h-.68V41.9l0-.2V40.32l0-.11v-.1l0-.09,0-.08,0-.06,0-.05,0,0,0,0,0,0h0l-.07,0H119l-.08,0-.07,0-.06,0-.07,0,0,0,0,0,0,.06,0,.08,0,.1,0,.11v.14l0,.15V42l0,.16,0,.1v.14l0,.06,0,0Zm4.85-1.7-.37.15-.29.13-.11.06-.09.05-.08,0-.07,0,0,0,0,0,0,.06,0,.05,0,.06v.32l0,0v0l0,0,0,0,0,0,.05,0,0,0,0,0,.06,0,0,0h.33l.07,0,.06,0,.07,0,0,0,.06,0,0-.05,0-.06,0-.07,0-.08,0-.07V41.6l0-.09v-.7Zm.11,1.73,0,0V42l-.09.14-.08.11,0,.06,0,0-.06,0,0,0-.06,0-.07,0-.06,0-.06,0H122l-.07,0h-.41l-.07,0-.08,0-.07,0-.08,0-.07,0,0-.06-.06-.07,0-.06,0-.06,0-.06,0-.07v-.28l0-.06,0-.06,0-.06,0-.06,0,0,0,0,.07-.06.07,0,.11-.07.1-.07.13-.07.15-.07.16-.07.19-.08.18-.09.15-.07.06,0,.05,0,0,0,0,0,0,0,0,0,0,0,0,0v-.44l0-.07,0,0,0,0,0-.06,0,0,0,0-.05,0,0,0-.06,0-.06,0h-.35l-.06,0-.06,0,0,0,0,0,0,0,0,0v0l0,0,0,0v.06l0,.08,0,.07,0,.05,0,0-.05,0,0,0-.06,0h-.1l-.05,0,0,0,0,0v0l0,0v-.24l0-.06,0-.06,0,0,.06-.06.08,0,.09-.06.09,0,.1,0,.11,0,.12,0,.13,0h.74l.09,0,.08,0,.07,0,.06,0,.06,0,.05,0,0,0,0,.06,0,.06v.07l0,.08v.47l0,.19v1.6l0,.08v.07l0,.07,0,0,0,.06,0,0,0,0,0,0,0,0Zm1.17,0h0l0,0,0,0,0,0,0-.1,0-.1V38.64l0-.28v-.21l0-.16v-.17l0,0v0l0,0,0,0h0l.69-.14v4.71l0,.08,0,.06,0,.06,0,0Z"/><path class="cls-2" d="M25.78,8l1.44,2.84,2.83-1.45,1.44,2.83,2.84-1.43,1.43,2.82,1.44,2.84,1.44,2.83,1.43,2.82,2.84-1.43,2.83-1.45,2.83-1.43,2.82-1.43L50,13.52,47.12,15l-1.43-2.82-2.83,1.43-1.45-2.83-2.82,1.44L37.15,9.34,35.71,6.51,34.27,3.69,32.83.86,30,2.29,27.17,3.74,24.35,5.17,21.51,6.61,23,9.45Zm17,6.31,1.15,2.26-2.27,1.14L40.5,15.46ZM31.24,5.21l1.14,2.26L30.13,8.62,29,6.36Z"/><path class="cls-2" d="M21.26,24.22l-1.43-2.83-1.44-2.83L15.56,20l-2.83,1.43L9.9,22.88,7.07,24.33l1.44,2.82,2.82-1.43,1.45,2.83,2.81-1.45L17,29.92l2.83-1.43,1.44,2.82,2.83-1.43L22.7,27.05Zm-5.57,2.1-1.15-2.26,2.27-1.15L18,25.17Z"/><path class="cls-2" d="M11.7,19.59l2.85-1.45,2.83-1.43-1.45-2.83L13.1,15.31l-1.43-2.82L8.84,13.93,7.39,11.1,4.56,12.53,3.13,9.7.29,11.14,1.74,14l1.43,2.85,1.45,2.82,1.43,2.84L8.88,21ZM6.47,15.83l2.26-1.15,1.15,2.26L7.62,18.09Z"/><path class="cls-2" d="M42.45,8.05l1.43,2.83,2.83-1.45,1.45,2.84L51,10.83l1.45,2.82,2.83-1.43L53.81,9.39,52.38,6.57,50.93,3.72,49.5.9,46.67,2.34,43.85,3.78,41,5.22,38.18,6.65l1.44,2.83Zm5.46-2.79,1.15,2.26L46.8,8.67,45.65,6.41Z"/><path class="cls-2" d="M57,26.83,55.52,24l-1.44-2.83-1.43-2.83-2.84,1.43L47,21.22l-2.84,1.43L41.31,24.1l1.45,2.82,2.83-1.44L47,28.32l2.83-1.44,1.45,2.81,2.82-1.42,1.43,2.81,2.84-1.43Zm-7-.72-1.15-2.27,2.26-1.14L52.2,25Z"/><path class="cls-2" d="M8.73,8.25l1.43,2.83L13,9.64l1.45,2.83L17.27,11l1.43,2.82,1.44,2.84,1.44,2.83L23,22.35l2.83-1.43,2.83-1.45L31.51,18l2.82-1.45L32.9,13.77l-2.82,1.44-1.45-2.83L25.8,13.82,24.37,11l-2.84,1.43L20.09,9.59,18.65,6.76,17.21,3.94,15.78,1.11,12.94,2.54,10.11,4,7.29,5.42,4.45,6.86,5.89,9.69Zm17,6.33,1.15,2.25L24.59,18l-1.15-2.27ZM14.18,5.45l1.15,2.26L13.06,8.86,11.91,6.6Z"/><path class="cls-2" d="M38.39,24.11,37,21.28l-1.45-2.83-2.83,1.43-2.83,1.45L27,22.76l-2.83,1.45L25.63,27l2.82-1.45,1.45,2.84L32.73,27l1.45,2.81L37,28.39l1.43,2.81,2.83-1.43-1.43-2.83ZM32.8,26.22,31.65,24l2.26-1.15,1.16,2.26Z"/><path class="cls-1" d="M74.82,20.64H80.7l-2.76-7.5Zm-6.47,9.15.17-.2.17-.21.16-.21L69,29l.34-.46.32-.49.34-.51.33-.54.33-.56.34-.58.16-.3.17-.31.17-.33.17-.33.17-.34.18-.34.17-.36.18-.36.18-.37.17-.38.18-.38.18-.4.19-.4.18-.41.17-.41.19-.43.31-.71.28-.7.27-.66.26-.67.24-.63.23-.62.22-.6.19-.58.2-.54.16-.48.14-.42.11-.37.09-.31.06-.25,0-.1,0-.1V12l0-.11v-.12l0-.12,0-.1,0-.11,0-.12,0-.13H80l.26.87.26.87.26.83.25.83.26.8.26.78.25.77.25.75.24.73.25.72.25.7.24.67.24.66.24.65.23.62L84,23l.24.6.22.57.23.55.22.52.22.5.21.49.21.46.2.42.21.42.19.39.2.37.18.34.18.32.19.29.17.28.18.25h-3.2L81.12,21.7H74.36l-1.25,3.05,0,.09-.15.34-.13.34-.12.31-.11.31-.11.29-.1.29-.08.27-.08.26-.07.25,0,.23L72,28l0,.21,0,.2,0,.19v.74l0,.13,0,.11,0,.13,0,.12Zm20.2,0,0-.06.06-.07,0-.08,0-.08,0-.1,0-.1,0-.11,0-.11.07-.26.06-.29,0-.33,0-.36,0-.21V27.4l0-.26,0-.29v-.32l0-.34v-.37l0-.4V15.61l0-.42V14.8l0-.36v-.33l0-.29,0-.27v-.23l0-.2,0-.38,0-.32-.06-.3-.07-.26,0-.11,0-.11,0-.09,0-.1,0-.08,0-.08-.06-.06,0-.07h1.61l.37,0h.4l.41,0,.43,0,.45,0,.47,0,.45,0,.42,0L94,11h.34l.3,0h1l.33,0,.31,0,.31,0,.28,0,.29.05.27.07.26.07.25.08.24.1.23.1.21.11.21.12.21.13.18.14.18.16.16.16.16.18.15.19.13.18.13.21.11.21.1.22.1.23.07.24.07.25.07.25,0,.27,0,.27,0,.28v1.22l0,.3,0,.29,0,.29-.07.28-.07.28-.09.27-.1.25-.11.26L100,19l-.13.23-.15.24-.16.21-.17.22-.18.21-.19.19-.2.18-.21.17-.21.15-.21.14-.23.14-.23.11-.24.11-.25.09-.26.09-.26.07-.27.06-.27,0-.28,0-.29,0h-.71l-.21,0-.19,0-.2,0-.19,0-.19,0-.18,0-.18,0-.18,0-.17-.05-.17-.05-.17-.06-.15-.07-.16-.07L92.45,21h.87l.27,0,.27,0,.26,0,.25-.06.24-.07.24-.07.23-.08.22-.1.21-.11.21-.12.19-.12.19-.14.18-.14.17-.17.16-.17.16-.18.14-.18L97,19l.12-.2.12-.22.1-.22.08-.22.09-.24.06-.24.06-.26,0-.26,0-.26,0-.28,0-.28v-.78l0-.23,0-.23,0-.22,0-.2,0-.19-.06-.2-.06-.18-.07-.17-.08-.17-.08-.15-.1-.15-.09-.14L97,13.19l-.11-.13-.12-.12-.13-.11-.14-.1-.14-.1-.15-.08L96,12.46l-.17-.07-.17-.06-.19-.06-.18,0-.21,0-.21,0-.21,0-.22,0H93l-.24,0h-.23l-.23,0-.22,0,0,.17,0,.23,0,.28,0,.32,0,.37,0,.42,0,.48V26.18l0,.35v.33l0,.3v.27l0,.23,0,.2,0,.36,0,.33.07.29.07.25,0,.12,0,.11,0,.09,0,.1,0,.08,0,.07,0,.07,0,.06Zm28-18.63-.17,4-.08-.19-.09-.18-.08-.18-.1-.17-.09-.17-.1-.15-.11-.16-.1-.15-.12-.14-.11-.13-.12-.12-.12-.13-.13-.11-.13-.11-.13-.11-.14-.1-.15-.1-.14-.08-.16-.08-.15-.08-.16-.07-.15-.06-.18-.05-.16,0-.17-.05-.18,0-.18,0-.18,0-.19,0-.2,0h-1.15l-.18,0-.18,0-.18,0-.18,0-.17,0-.17,0-.17,0-.16.05-.16,0-.17.05-.15.06-.16.07-.14.06-.15.07-.15.08-.15.07-.14.08-.14.09-.13.09-.13.09-.13.11-.13.1-.13.11-.12.1-.12.12-.12.12-.12.12-.11.13-.11.13-.1.13-.11.14-.1.14-.1.14-.09.15-.09.15-.08.15-.09.16-.07.15-.07.17-.07.16-.07.16-.07.17-.06.18-.06.17-.06.18,0,.19,0,.18,0,.19,0,.19,0,.19,0,.21,0,.19,0,.41,0,.42,0,.44v1.13l0,.21V21l0,.22,0,.21,0,.21,0,.21,0,.2,0,.2,0,.2,0,.19.06.2.05.18.06.19.06.19.07.18.07.18.08.18.08.17.07.17.09.16.09.16.1.17.09.15.1.16.11.15.11.15.11.15.11.14.12.14.12.14.13.13.13.13.13.12.14.12.14.11.13.11.15.1.14.11.14.09.15.09.16.09.15.08.16.08.16.08.16.07.17.06.16.06.17.07.17.05.18,0,.18,0,.18,0,.18,0,.19,0,.18,0,.19,0h.19l.2,0H113l.19,0,.19,0,.18,0,.18,0,.19,0,.18,0,.18,0,.18-.05.17-.05.18-.07.17-.06.17-.07.16-.07.17-.08.17-.07.15-.08.16-.09.15-.09.16-.09.15-.1.14-.11.14-.11.14-.11.14-.12.14-.12.14-.13.13-.13.12-.13.14-.14-.08.25-.08.24-.09.24-.1.23-.11.23-.11.22-.13.21-.15.2-.14.2-.16.2-.17.18-.18.18-.18.18-.2.16-.21.17-.22.15-.22.15-.24.14-.24.12-.24.13-.25.11-.25.1-.26.08-.27.09-.27.07-.27.06-.28.06-.29,0-.29,0-.3,0-.29,0h-1l-.23,0-.22,0-.23,0-.22,0-.22,0-.21,0-.21-.05-.21-.06-.21-.05-.21-.07-.2-.07-.2-.08-.19-.08-.2-.08-.2-.09-.18-.1-.19-.1-.19-.11-.17-.11-.18-.11-.17-.13-.17-.12-.18-.13-.17-.14-.16-.14-.16-.15-.16-.15-.16-.16-.15-.16-.15-.17-.15-.16-.14-.18-.13-.17-.13-.18-.13-.19-.12-.19-.12-.18-.11-.19-.1-.19-.1-.21-.11-.2-.09-.2-.08-.2-.09-.21-.08-.22-.07-.21-.07-.22-.06-.22-.06-.22-.06-.24,0-.22,0-.23,0-.24,0-.24,0-.24,0-.24,0-.25v-.25l0-.25V20.1l0-.28v-.27l0-.27,0-.27,0-.25,0-.27,0-.25,0-.25,0-.25.06-.24.06-.24.07-.24.08-.22.08-.24.08-.22.09-.22.09-.22.1-.21.11-.21.11-.2.12-.2.12-.2.12-.19.13-.2.14-.18.14-.18.15-.18.15-.17.16-.17.16-.17.17-.16.16-.16.17-.14.18-.15.18-.14.19-.13.19-.14.19-.12.2-.12.2-.12L107,12l.21-.1.21-.1.22-.1.23-.09.22-.08.23-.08.23-.08.24-.07.24-.06.25-.06.25-.06.24-.05.26,0,.26,0,.27,0,.26,0,.28,0h.28l.28,0h.76l.21,0,.24,0,.26,0,.28,0,.3,0,.33,0,.36,0,.34,0,.32,0,.31,0,.28,0h.25l.25,0h.41Zm3.62,18.63.06-.06,0-.07,0-.08,0-.08,0-.1,0-.1,0-.11,0-.11.06-.26.07-.29,0-.33,0-.36,0-.21,0-.23,0-.26,0-.29v-.66l0-.37V15.19l0-.39v-.69l0-.29,0-.27,0-.23,0-.2,0-.38,0-.32-.07-.3-.06-.26,0-.11,0-.11,0-.09,0-.1,0-.08,0-.08,0-.06-.06-.07h4l0,.06,0,.06,0,.07,0,.09,0,.08,0,.1,0,.1,0,.12,0,.12,0,.13,0,.14,0,.15-.06.32,0,.36,0,.2,0,.21,0,.26V14l0,.31V26.64l0,.3v.28l0,.25,0,.22,0,.21,0,.35.06.32,0,.16,0,.13,0,.13,0,.13,0,.11,0,.1,0,.11,0,.08,0,.08,0,.07,0,.07,0,.05Z"/></svg>