<!-- Generator: Adobe Illustrator 22.1.0, SVG Export Plug-In  -->
<svg version="1.1"
	 xmlns="http://www.w3.org/2000/svg" xmlns:xlink="http://www.w3.org/1999/xlink" xmlns:a="http://ns.adobe.com/AdobeSVGViewerExtensions/3.0/"
	 x="0px" y="0px" width="336.7px" height="118.3px" viewBox="0 0 336.7 118.3" style="enable-background:new 0 0 336.7 118.3;"
	 xml:space="preserve">
<style type="text/css">
	.st0{fill-rule:evenodd;clip-rule:evenodd;fill:#1B365D;}
	.st1{fill-rule:evenodd;clip-rule:evenodd;fill:#E09C34;}
	.st2{fill-rule:evenodd;clip-rule:evenodd;fill:#2E4576;}
</style>
<defs>
</defs>
<g>
	<g>
		<path class="st0" d="M8.3,106.7h3.9l-1.8-4.9L8.3,106.7z M4.1,112.7l0.2-0.3l0.2-0.3l0.2-0.3l0.2-0.3l0.2-0.4l0.2-0.4l0.2-0.4
			l0.2-0.4l0.2-0.4l0.2-0.4l0.2-0.4l0.2-0.5l0.2-0.5l0.2-0.5l0.2-0.5l0.2-0.5l0.2-0.5l0.2-0.5l0.2-0.4l0.2-0.4l0.2-0.4l0.1-0.4
			l0.1-0.4l0.1-0.4l0.3-0.7l0.1-0.5l0.1-0.4l0-0.2V101l0-0.1l0-0.1l0-0.1v-0.1v-0.1l0-0.1l0-0.1h2.3l0.4,1.1l0.3,1.1l0.4,1l0.3,1
			l0.3,0.9l0.3,0.9l0.3,0.8l0.3,0.8l0.3,0.8l0.3,0.7l0.3,0.7l0.3,0.6l0.3,0.5l0.2,0.5l0.3,0.4l0.3,0.3h-2.1l-2-5.3H8l-0.8,2.1
			l-0.3,0.9L6.6,111l-0.1,0.3l-0.1,0.3l0,0.3v0.3v0.1v0.1l0,0.1l0,0.1v0.1l0,0.1l0,0.1l0,0.1H4.1z M20,112.4l-0.5,0.4l-0.5,0.4
			l-0.2,0.2l-0.2,0.2l-0.2,0.2l-0.1,0.2l-0.1,0.1l-0.1,0.2l-0.1,0.2l-0.1,0.1l-0.1,0.2l0,0.1l0,0.1l0,0.1l0,0.2l0,0.2l0.1,0.2
			l0.1,0.2l0.1,0.2l0.2,0.2l0.2,0.2l0.2,0.2l0.2,0.1l0.2,0.1l0.3,0.1l0.3,0.1l0.3,0l0.3,0l0.3,0h0.3H21l0.3,0l0.3,0l0.3-0.1l0.2-0.1
			l0.2-0.1l0.2-0.1l0.2-0.2l0.2-0.2L23,116l0.1-0.2l0.1-0.2l0.1-0.2l0.1-0.2l0-0.2l0-0.3l0-0.2l0-0.2l-0.1-0.2l-0.1-0.2l-0.1-0.2
			l-0.1-0.1l-0.1-0.1l-0.2-0.1l-0.2-0.1l-0.2-0.1l-0.3-0.1l-0.3-0.1l-0.4-0.1l-0.4-0.1l-0.5-0.1L20,112.4z M22.1,106.7v-0.2l0-0.2
			l0-0.2l0-0.2l-0.1-0.2l-0.1-0.2l-0.1-0.2l-0.1-0.2l-0.1-0.1l-0.1-0.1l-0.1-0.1l-0.1-0.1l-0.1-0.1l-0.1,0l-0.1,0l-0.2,0h-0.1
			l-0.2,0l-0.1,0l-0.1,0l-0.1,0.1l-0.1,0.1l-0.1,0.1l-0.1,0.1l-0.1,0.1l-0.1,0.1l-0.1,0.1l-0.1,0.2l0,0.2l0,0.2l0,0.2v0.2v0.2l0,0.2
			l0,0.2l0,0.2l0.1,0.2l0.1,0.2l0.1,0.2l0.1,0.2l0.1,0.1l0.1,0.1l0.1,0.1l0.1,0.1l0.1,0.1l0.1,0l0.2,0h0.1h0.2l0.1,0l0.1,0l0.1-0.1
			l0.1-0.1l0.1-0.1l0.1-0.1l0.1-0.1l0.1-0.1l0.1-0.1l0.1-0.1l0.1-0.1l0-0.2l0-0.2l0-0.2V106.7z M22.5,104.3h0.1h0.1h0.2h0.2h0.4
			l0.3,0l0.2,0h0.2v0v0.2v0v0.1v0.1l-0.1,0.1l-0.1,0l-0.1,0.1l-0.1,0h-0.1h-0.1h-0.2h-0.2l0.1,0.2l0.1,0.2l0.1,0.2l0.1,0.2l0.1,0.2
			l0,0.2l0,0.2l0,0.3v0.2l0,0.2l-0.1,0.2l-0.1,0.2l-0.1,0.2l-0.1,0.2l-0.1,0.2l-0.2,0.2l-0.2,0.2l-0.2,0.2l-0.2,0.1l-0.3,0.1
			l-0.3,0.1l-0.3,0.1L21,109l-0.3,0.1l-0.4,0.2l-0.4,0.2l-0.3,0.2l-0.2,0.2l-0.2,0.1l-0.1,0.2l0,0.1l0,0.1l0,0.1v0.1v0.1l0,0l0,0.1
			l0.1,0.1l0.2,0.1l0.2,0.1l0.3,0.1l0.4,0.2l0.5,0.1l0.5,0.1l0.2,0l0.1,0l0.5,0.1l0.5,0.1l0.4,0.1l0.4,0.1l0.3,0.1l0.3,0.1l0.2,0.1
			l0.2,0.1l0.2,0.1l0.2,0.2l0.1,0.2l0.1,0.2l0.1,0.2l0.1,0.2l0,0.2l0,0.2l0,0.2l0,0.2l0,0.2l-0.1,0.2l-0.1,0.2l-0.1,0.2l-0.1,0.2
			l-0.1,0.2l-0.1,0.1l-0.1,0.1l-0.2,0.2l-0.2,0.2l-0.3,0.2l-0.3,0.2l-0.3,0.2l-0.4,0.2v0l0,0l-0.1,0l-0.1,0l-0.4,0.2l-0.4,0.2
			l-0.4,0.2l-0.4,0.2l-0.4,0.1l-0.3,0.1l-0.3,0.1h-0.3h-0.3l-0.3,0l-0.3-0.1l-0.3-0.1L18,118l-0.3-0.1l-0.3-0.1l-0.3-0.2l-0.2-0.2
			l-0.2-0.2l-0.1-0.2l-0.1-0.2l-0.1-0.2l-0.1-0.2l0-0.2l0-0.2v-0.2l0-0.1l0-0.2l0.1-0.1l0.1-0.2l0.1-0.2l0.1-0.2l0.1-0.2l0.3-0.4
			l0.3-0.4l0.4-0.4l0.5-0.4l0.2-0.2l0.2-0.2l0.2-0.2l0.2-0.2l-0.5-0.1l-0.4-0.1l-0.2-0.1l-0.1-0.1l-0.1-0.1l-0.1-0.1l-0.1-0.1
			l-0.1-0.1l-0.1-0.1l0-0.1l0-0.1l0-0.1l0-0.1v-0.1l0-0.1l0-0.1l0.1-0.1l0.1-0.1l0.1-0.1l0.2-0.1l0.2-0.1l0.2-0.1l0.4-0.2l0.3-0.2
			l0.3-0.2l0.2-0.2l-0.2,0l-0.2-0.1l-0.2-0.1l-0.2-0.1l-0.2-0.1l-0.2-0.1l-0.1-0.1l-0.1-0.1l-0.1-0.2l-0.1-0.2l-0.1-0.2l-0.1-0.2
			l-0.1-0.2l-0.1-0.2l0-0.2v-0.2v-0.3l0-0.3l0.1-0.3l0.1-0.3l0.1-0.3l0.2-0.2l0.2-0.2l0.2-0.2l0.2-0.2l0.3-0.2l0.3-0.1l0.3-0.1
			l0.3-0.1l0.3-0.1l0.4,0l0.4,0h0.2l0.2,0l0.2,0l0.2,0l0.2,0l0.2,0.1l0.2,0.1L22.5,104.3z M27.4,106.7h0.1h0.2H28h0.2h0.2h0.2h0.2
			h0.2h0.6l0.5,0l0.2,0l0.1,0l0.1,0l0.1,0l0.1-0.1l0.1-0.1l0-0.1l0-0.1l0-0.1l0-0.1l0-0.1l0-0.1l0-0.1l-0.1-0.1l-0.1-0.1l-0.1-0.1
			l-0.1-0.1l-0.1-0.1l-0.1-0.1l-0.1-0.1l-0.1-0.1l-0.1-0.1l-0.1-0.1l-0.1,0l-0.1,0h-0.2h-0.2l-0.2,0l-0.2,0.1l-0.2,0.1l-0.2,0.1
			l-0.1,0.1l-0.1,0.1l-0.1,0.1l-0.1,0.1l-0.1,0.2l-0.1,0.2l-0.1,0.2l-0.1,0.2l-0.1,0.2l0,0.2L27.4,106.7z M32.4,110.6v0.2l0,0.2
			l0,0.2l-0.1,0.2l-0.1,0.2l-0.1,0.2l-0.1,0.2l-0.2,0.2l-0.2,0.1l-0.3,0.2l-0.3,0.1l-0.3,0.1l-0.3,0.1l-0.3,0.1l-0.3,0.1l-0.3,0
			l-0.3,0l-0.4,0l-0.4,0l-0.2,0l-0.2-0.1l-0.2,0l-0.2-0.1l-0.2-0.1l-0.1-0.1l-0.2-0.1l-0.1-0.1l-0.2-0.1l-0.1-0.1l-0.1-0.1l-0.1-0.1
			l-0.2-0.3l-0.2-0.3l-0.2-0.4l-0.1-0.4l-0.1-0.4l-0.1-0.4l0-0.5l0-0.5l0-0.5l0-0.5l0.1-0.4l0.1-0.4l0.1-0.2l0.1-0.2l0.1-0.2
			l0.1-0.2l0.2-0.3l0.3-0.3l0.3-0.3l0.3-0.3l0.2-0.1l0.2-0.1l0.2-0.1l0.2-0.1l0.2-0.1l0.2-0.1l0.2-0.1l0.2,0l0.2,0l0.2,0l0.2,0h0.2
			l0.3,0l0.3,0l0.3,0.1l0.3,0.1l0.3,0.1l0.2,0.1l0.2,0.2l0.2,0.2l0.2,0.2l0.2,0.2l0.1,0.2l0.1,0.2l0.1,0.3l0.1,0.3l0,0.3l0,0.3v0.1
			l0,0.1l0,0.1l-0.1,0.1l-0.2,0.1l-0.2,0.1l-0.4,0.1l-0.6,0l-0.8,0h-1.1h-0.4h-0.3h-0.3H28h-0.2l-0.2,0l-0.2,0h-0.2l0,0.3l0,0.2v0.3
			v0.3v0.4l0,0.4l0,0.4l0.1,0.3l0.1,0.3l0.1,0.3l0.1,0.3l0.2,0.2l0.2,0.2l0.2,0.2l0.2,0.2l0.3,0.1l0.3,0.1l0.3,0.1l0.3,0l0.3,0
			l0.3,0l0.3,0l0.2,0l0.2,0l0.2-0.1l0.1-0.1l0.3-0.2l0.3-0.2l0.3-0.2L32.4,110.6z M34,112.7L34,112.7L34,112.7l0.1-0.1l0-0.1
			l0.1-0.2l0.1-0.3l0-0.3l0-0.4v-0.5v-0.6v-1.8v-0.6v-0.9v-0.8l0-0.6l0-0.4l-0.1-0.3l-0.1-0.2l0-0.1l0-0.1l0-0.1l0,0l1.7-0.2l0,0.2
			l0,0.2v0.3v0.3v0.2l0.3-0.3l0.3-0.3l0.2-0.1l0.1-0.1l0.2-0.1l0.2-0.1l0.3-0.2l0.3-0.1l0.2,0l0.2,0h0.2l0.2,0l0.3,0l0.3,0l0.3,0.1
			l0.2,0.1l0.2,0.1l0.2,0.1l0.1,0.2l0.1,0.2l0.1,0.1l0.1,0.1l0,0.1l0.1,0.1l0.1,0.4l0.1,0.4l0.1,0.5l0,0.5l0,0.6v0.7v1.9v0.6v0.4
			v0.4l0,0.3l0,0.2l0.1,0.2l0.1,0.1l0.1,0.1l0.1,0.1h-1.8v-0.5l0-0.5l0-0.6l0-0.6v-0.6v-0.6v-0.7v-0.7v-0.4l0-0.4l0-0.3l0-0.3l0-0.3
			l-0.1-0.2l-0.1-0.2l-0.1-0.2l-0.1-0.1l-0.1-0.1l-0.1-0.1l-0.1-0.1l-0.1-0.1l-0.2-0.1l-0.2,0l-0.2,0l-0.2,0l-0.3,0l-0.2,0l-0.2,0
			l-0.2,0.1l-0.2,0.1l-0.2,0.1l-0.1,0.1l-0.1,0.1l-0.1,0.2L36,106l-0.1,0.3l-0.1,0.3l0,0.4l0,0.4v0.5l0,0.5v1.8l0,0.6l0,0.5l0.1,0.4
			l0,0.3v0.1l0,0.1l0,0.1l0,0.1l0,0.1l0,0l0,0.1l0.1,0H34z M49.3,110.8L49.3,110.8l0,0.3l0,0.2l-0.1,0.2l-0.1,0.2l-0.1,0.2l-0.1,0.2
			l-0.1,0.1l-0.2,0.1l-0.2,0.1l-0.2,0.1l-0.3,0.1l-0.3,0.1l-0.3,0.1l-0.3,0l-0.3,0h-0.3l-0.4,0l-0.4,0l-0.4-0.1l-0.4-0.1l-0.2-0.1
			l-0.2-0.1l-0.2-0.1l-0.1-0.1l-0.2-0.1l-0.1-0.1l-0.1-0.1l-0.1-0.1l-0.1-0.1l-0.1-0.2l-0.1-0.2l-0.1-0.2l-0.2-0.4l-0.2-0.4
			l-0.1-0.4l-0.1-0.4l-0.1-0.4l0-0.5l0-0.3v-0.3l0-0.2l0-0.2l0-0.2l0.1-0.2l0.1-0.2l0.1-0.2l0.1-0.2l0.1-0.2l0.1-0.2l0.1-0.2
			l0.3-0.4l0.3-0.3l0.1-0.2l0.2-0.1l0.2-0.1l0.2-0.1l0.2-0.1l0.2-0.1l0.2-0.1l0.2-0.1l0.2-0.1l0.2-0.1l0.2-0.1l0.2,0l0.2,0l0.2,0
			l0.3,0h0.2h0.3l0.3,0l0.3,0l0.2,0h0.2l0.2,0l0.2,0l0.2,0.1l-0.1,2l-0.1-0.2l-0.1-0.2l-0.1-0.2l-0.1-0.2l-0.1-0.1l-0.1-0.1
			l-0.1-0.1l-0.1-0.1L48,105l-0.1-0.1l-0.1-0.1l-0.1-0.1l-0.1-0.1l-0.1,0l-0.2,0H47h-0.3l-0.3,0.1l-0.3,0.1l-0.3,0.1l-0.2,0.1
			l-0.3,0.2l-0.2,0.2l-0.2,0.3l-0.2,0.3l-0.1,0.3l-0.1,0.3l-0.1,0.3l-0.1,0.3l-0.1,0.4l0,0.4v0.4v0.4l0,0.4l0.1,0.3l0.1,0.3l0.1,0.3
			l0.1,0.3l0.1,0.3l0.2,0.3l0.2,0.2l0.2,0.2l0.3,0.1l0.2,0.1l0.3,0.1l0.3,0.1l0.3,0l0.3,0l0.4,0l0.4,0l0.2,0l0.2,0l0.1-0.1l0.2-0.1
			l0.3-0.2l0.3-0.2l0.1-0.1l0.1-0.1l0.1-0.1L49.3,110.8z M51.3,102.9l-0.8-1.3l1.4-0.9l0.8,1.3L51.3,102.9z M50.7,112.7L50.7,112.7
			L50.7,112.7l0.1-0.1l0-0.1l0.1-0.2L51,112l0-0.3l0-0.4v-0.5v-0.6v-1.8v-1.1v-0.8v-0.7l0-0.5l0-0.4l-0.1-0.3l-0.1-0.2l0-0.1l0-0.1
			l0-0.1l0,0l0.3,0l0.3,0l0.3,0l0.3,0h0.2l0.2,0l0.2,0l0.2-0.1v0.3l0,0.4l0,0.4l0,0.5v0.3v0.4v0.4v0.4v0.5v0.5v0.5v0.6v1.1l0,0.6
			l0,0.5l0,0.4l0,0.3l0.1,0.2l0.1,0.2l0.1,0.2l0.1,0.1H50.7z M58.9,108.1l-1,0.4l-0.8,0.4l-0.3,0.1l-0.3,0.1l-0.2,0.1l-0.2,0.1
			l-0.1,0.1l-0.1,0.1l-0.1,0.1l-0.1,0.1l-0.1,0.1l-0.1,0.1l0,0.2l0,0.1l0,0.1l0,0.1l0,0.1l0.1,0.1l0,0.1l0.1,0.1l0.1,0.1l0.1,0.1
			l0.1,0.1l0.1,0.1l0.1,0.1l0.2,0.1l0.1,0l0.1,0l0.2,0l0.1,0l0.2,0l0.2,0l0.2-0.1l0.2-0.1l0.1-0.1l0.1-0.1l0.1-0.1l0.1-0.1l0.1-0.1
			l0.1-0.2l0.1-0.2l0.1-0.2l0-0.2l0-0.3l0-0.3v-0.3V108.1z M59.2,112.8l-0.1-0.2l0-0.2l-0.1-0.2l-0.1-0.2v-0.2l0-0.2l0-0.2v-0.2
			l-0.1,0.2l-0.1,0.2l-0.1,0.2l-0.1,0.2l-0.1,0.1l-0.1,0.1l-0.1,0.1l-0.1,0.1l-0.4,0.2l-0.4,0.1l-0.2,0l-0.2,0l-0.2,0h-0.2h-0.2
			l-0.3,0l-0.2,0l-0.2-0.1l-0.2-0.1l-0.2-0.1l-0.2-0.1l-0.2-0.1l-0.2-0.1l-0.2-0.1l-0.1-0.2l-0.1-0.2l-0.1-0.2l-0.1-0.2l0-0.2l0-0.2
			l0-0.2l0-0.2l0-0.2l0.1-0.2l0.1-0.2l0.1-0.1l0.1-0.1l0.1-0.1l0.2-0.1l0.2-0.1l0.3-0.2l0.3-0.2l0.3-0.2l0.4-0.2l0.4-0.2l0.5-0.2
			l0.5-0.3l0.4-0.2l0.2-0.1l0.1-0.1l0.1-0.1l0.1-0.1l0.1-0.2l0.1-0.2l0-0.1l0-0.1l0-0.2v-0.1v-0.2l0-0.2l0-0.2l0-0.2l-0.1-0.1
			l-0.1-0.1l-0.1-0.1l-0.1-0.1l-0.1-0.1l-0.1-0.1l-0.1-0.1l-0.1-0.1l-0.2,0l-0.2,0l-0.2,0h-0.2l-0.2,0l-0.2,0l-0.2,0l-0.2,0.1
			l-0.1,0.1l-0.1,0.1l-0.1,0.1l-0.1,0.1l-0.1,0.2l-0.1,0.2l-0.1,0.2l-0.1,0.2l-0.1,0.1l-0.1,0.1l-0.1,0.1l-0.1,0.1l-0.1,0l-0.1,0
			l-0.2,0l-0.1,0l-0.1-0.1l-0.1-0.1l-0.1-0.1l-0.1-0.1l0-0.1v-0.2l0-0.2l0-0.2l0.1-0.2l0.1-0.1l0.2-0.1l0.2-0.1l0.2-0.1l0.2-0.1
			l0.3-0.1l0.3-0.1l0.3-0.1l0.3-0.1l0.3,0l0.4,0l0.4,0l0.4,0l0.3,0l0.3,0l0.3,0l0.2,0l0.2,0.1l0.2,0.1l0.2,0.1l0.1,0.1l0.1,0.1
			l0.1,0.1l0.1,0.1l0.1,0.2l0.1,0.2l0.1,0.2l0,0.2l0,0.2v0.2l0,0.3l0,0.4l0,0.5v0.6l0,0.6l0,0.6v0.6v0.7l0,0.6l0,0.3l0,0.2l0.1,0.2
			l0,0.2l0,0.2l0,0.2l0,0.1l0.1,0.1l0.1,0.1l0.1,0.1l0.1,0.1l0.1,0.1L59.2,112.8z M67.7,112.7L67.7,112.7l0.1-0.1l0.1-0.1l0-0.2
			l0.1-0.4l0.1-0.5l0-0.3l0-0.3v-0.4l0-0.5v-0.6v-0.7v-0.7V107v-0.7v-0.9v-0.8V104v-0.6l0-0.5v-0.5l0-0.4l0-0.3l-0.1-0.4l-0.1-0.3
			l-0.1-0.3l-0.1-0.2h0.6h0.5h0.5l0.5,0l0.6,0l0.6,0l0.5,0l0.4,0h0.3l0.4,0l0.4,0l0.4,0.1l0.4,0.1l0.3,0.1l0.3,0.1l0.3,0.2l0.2,0.2
			l0.2,0.2l0.2,0.3l0.2,0.3l0.1,0.3l0.1,0.3l0.1,0.3l0,0.4l0,0.4l0,0.4l0,0.4l-0.1,0.4l-0.1,0.4l-0.1,0.3l-0.2,0.3l-0.2,0.3
			l-0.2,0.3l-0.3,0.2l-0.3,0.2l-0.3,0.2l-0.3,0.1l-0.3,0.1l-0.3,0.1l-0.4,0.1h-0.4h-0.3h-0.3l-0.3,0l-0.2,0l-0.2-0.1l-0.2-0.1
			l-0.2-0.1l-0.2-0.1h0.2h0.4l0.4,0l0.3,0l0.3-0.1l0.3-0.1l0.3-0.1l0.3-0.2l0.2-0.2l0.2-0.2l0.2-0.3l0.2-0.3l0.1-0.3l0.1-0.3
			l0.1-0.3l0-0.4l0-0.4l0-0.3l0-0.3l0-0.3l-0.1-0.3l-0.1-0.2l-0.1-0.2l-0.1-0.2l-0.1-0.2l-0.2-0.1l-0.2-0.1l-0.2-0.1l-0.2-0.1
			l-0.2-0.1l-0.3,0l-0.3,0h-0.3h-0.2h-0.2h-0.2h-0.1l-0.2,0l-0.1,0h-0.2h-0.2l0,0.3l0,0.4l0,0.5v0.7l0,0.4l0,0.4v0.4l0,0.5v0.5v0.5
			v0.5v0.6v0.9v0.8v0.7v0.6l0,0.5v0.5l0,0.4l0,0.3l0.1,0.5l0.1,0.4l0,0.1l0.1,0.1l0,0.1l0.1,0.1H67.7z M77.8,106.7H78h0.2h0.3h0.2
			h0.2h0.2h0.2h0.2h0.6l0.5,0l0.2,0l0.1,0l0.1,0l0.1,0l0.1,0l0.1,0l0-0.1l0,0l0-0.1l0-0.1v-0.1V106v-0.1l0-0.1l0-0.1l0-0.1l-0.1-0.1
			l-0.1-0.1l-0.1-0.1l-0.1-0.1l-0.1-0.1l-0.1-0.1l-0.1-0.1l-0.1-0.1l-0.1-0.1l-0.2,0l-0.1,0h-0.2h-0.2l-0.2,0l-0.2,0.1l-0.2,0.1
			l-0.2,0.1l-0.1,0.1l-0.1,0.1l-0.1,0.1l-0.1,0.1l-0.1,0.2l-0.1,0.2l-0.1,0.2L78,106l-0.1,0.2l-0.1,0.2L77.8,106.7z M82.9,110.6v0.2
			l0,0.2l0,0.2l-0.1,0.2l-0.1,0.2l-0.1,0.2l-0.2,0.2l-0.2,0.2l-0.2,0.1l-0.2,0.2l-0.2,0.1l-0.3,0.1l-0.3,0.1l-0.3,0.1l-0.3,0.1
			l-0.3,0l-0.3,0l-0.4,0l-0.4,0l-0.2,0l-0.2-0.1l-0.2,0l-0.2-0.1l-0.2-0.1l-0.2-0.1l-0.2-0.1l-0.1-0.1l-0.3-0.2l-0.3-0.3l-0.3-0.3
			l-0.2-0.3l-0.2-0.4l-0.1-0.4l-0.1-0.4l-0.1-0.4l0-0.5l0-0.5l0-0.5l0-0.5l0.1-0.4l0.1-0.4l0.1-0.2l0.1-0.2l0.1-0.2l0.1-0.2l0.2-0.3
			l0.3-0.3l0.3-0.3l0.3-0.3l0.2-0.1l0.2-0.1l0.2-0.1l0.2-0.1l0.2-0.1l0.2-0.1l0.2-0.1l0.2,0l0.2,0l0.2,0l0.2,0H80l0.3,0l0.3,0
			l0.3,0.1l0.3,0.1l0.3,0.1l0.2,0.1l0.2,0.2l0.2,0.2l0.2,0.2l0.2,0.2l0.2,0.2l0.1,0.2l0.1,0.3L83,106l0,0.3l0,0.3l0,0.1l0,0.1l0,0.1
			l-0.1,0.1l-0.2,0.1l-0.2,0.1l-0.4,0.1l-0.6,0l-0.8,0h-1.1h-0.4h-0.3h-0.3h-0.2h-0.2l-0.2,0l-0.2,0h-0.2l-0.1,0.3l-0.1,0.2v0.3v0.3
			l0,0.4l0,0.4l0.1,0.4l0.1,0.3l0.1,0.3l0.1,0.3l0.1,0.3l0.2,0.2l0.2,0.2l0.2,0.2l0.2,0.2l0.2,0.1l0.3,0.1l0.3,0.1l0.3,0l0.3,0
			l0.4,0l0.4,0l0.1,0l0.2,0l0.1-0.1l0.1-0.1l0.3-0.2l0.3-0.2l0.3-0.2L82.9,110.6z M84.5,112.7L84.5,112.7l0.1-0.1l0,0l0-0.1l0-0.1
			l0-0.1l0-0.1V112l0.1-0.3l0-0.4l0-0.5v-0.6v-1.8v-0.6v-0.9l0-0.8l0-0.6l-0.1-0.4V105l0-0.1l0-0.1l0-0.1l0-0.1l0-0.1l-0.1-0.1l0,0
			l0.2,0l0.2-0.1l0.2,0l0.3,0l0.4-0.1l0.2,0l0.1,0l0,0l0.1,0.1l0,0.1l0,0.1l0,0.1l0,0.2v0.2v0.2v0.2l0.2-0.3l0.3-0.3l0.2-0.3
			l0.2-0.2l0.1-0.1l0.1-0.1l0.1-0.1l0.1,0l0.3,0l0.3,0l0.2,0l0.2,0l0.1,0l0.1,0l0.1,0l0.1,0.1l0.1,0.1l0.1,0.1l0.1,0.1v0.1v0.1
			l0,0.1l0,0.1l-0.1,0.1l-0.1,0l-0.1,0.1l-0.2,0l-0.2,0l-0.2,0l-0.3-0.1h-0.3h-0.2l-0.2,0l-0.2,0l-0.2,0l-0.1,0l-0.1,0.1l-0.1,0.1
			l-0.1,0.1l-0.1,0.1l-0.1,0.1l-0.1,0.2l0,0.2l0,0.3l0,0.3l0,0.4l0,0.4v0.5v0.2v0.2v0.3v0.4l0,0.4l0,0.4l0,0.3l0,0.3v0.5v0.4l0,0.3
			l0,0.3l0.1,0.2l0.1,0.2l0.1,0.1l0.1,0.1H84.5z M96.1,112.8L96.1,112.8H96h0v0v0v0v-0.1v-0.1l-0.1-1.4l-0.1,0.2l-0.1,0.2l-0.1,0.2
			l-0.1,0.1l-0.1,0.2l-0.1,0.1l-0.1,0.1l-0.2,0.1l-0.2,0.1l-0.2,0.1l-0.2,0.1l-0.2,0.1l-0.2,0l-0.2,0l-0.2,0h-0.2l-0.4,0l-0.3,0
			l-0.2,0l-0.2-0.1l-0.1,0l-0.1-0.1l-0.3-0.2l-0.2-0.2l-0.2-0.2l-0.2-0.3l-0.1-0.2l-0.1-0.3l-0.1-0.3l-0.1-0.3l0-0.4l0-0.5v-0.5
			v-0.6v-0.4v-0.8v-0.8V106v-0.8v-0.2v-0.1v-0.1l0-0.1l0-0.1l0-0.1l0-0.1l-0.1-0.1l-0.1-0.1l-0.1,0l1.3-0.2h0h0h0h0.1l0.1,0l0.1,0
			l0.1,0.1l0.1,0l0,0.1l0,0.1v0.1v0.2l-0.1,4.4v0.1v0.3l0,0.3l0,0.3l0.1,0.3l0.1,0.3l0.1,0.2l0.1,0.2l0.1,0.1l0.1,0.1l0.1,0.1
			l0.1,0.1l0.2,0.1l0.2,0.1l0.2,0l0.2,0H94h0.2l0.2,0l0.2,0l0.2-0.1l0.2-0.1l0.2-0.1l0.1-0.1l0.1-0.2l0.1-0.2l0.1-0.2l0.1-0.3
			l0.1-0.3l0-0.4l0-0.4l0-0.4v-0.5v-2.1v-0.5v-0.4l0-0.3l0-0.3l-0.1-0.2l-0.1-0.2l0-0.1l0,0l0-0.1l0,0l1.9-0.2l0,0.4l0,0.5v0.6v0.7
			l0,0.7l0,0.7l0,0.8v0.8v1.1l0,0.6l0,0.5l0,0.4l0,0.3l0.1,0.2l0.1,0.2l0.1,0.2l0.1,0.1L96.1,112.8z M103.8,108.1l-1,0.4l-0.8,0.4
			l-0.3,0.1l-0.3,0.1l-0.2,0.1l-0.2,0.1l-0.1,0.1l-0.1,0.1l-0.1,0.1l-0.1,0.1l0,0.1l0,0.1l0,0.2v0.1v0.1l0,0.1l0,0.1l0.1,0.1l0,0.1
			l0.1,0.1l0.1,0.1l0.1,0.1l0.1,0.1l0.1,0.1l0.1,0.1l0.2,0.1l0.1,0l0.1,0l0.2,0l0.1,0l0.2,0l0.2,0l0.2-0.1l0.2-0.1l0.2-0.1l0.1-0.1
			l0.1-0.1l0.1-0.1l0.1-0.1l0.1-0.2l0.1-0.2l0.1-0.2l0-0.2l0-0.3l0-0.3v-0.3V108.1z M104.1,112.8l-0.1-0.2l0-0.2l0-0.2v-0.2l0-0.2
			l0-0.2l0-0.2v-0.2l-0.2,0.4l-0.2,0.3l-0.1,0.1l-0.2,0.1l-0.1,0.1l-0.1,0.1l-0.3,0.2l-0.4,0.1l-0.2,0l-0.2,0l-0.2,0h-0.2h-0.3
			l-0.2,0l-0.2,0l-0.2-0.1l-0.2-0.1l-0.2-0.1l-0.2-0.1l-0.2-0.1l-0.2-0.1l-0.1-0.1l-0.1-0.2l-0.1-0.2l-0.1-0.2l-0.1-0.2l0-0.2l0-0.2
			l0-0.2l0-0.2l0-0.2l0.1-0.2l0.1-0.2l0.1-0.1l0.1-0.1l0.1-0.1l0.2-0.1l0.2-0.1l0.3-0.2l0.3-0.2l0.3-0.2l0.4-0.2l0.4-0.2l0.5-0.2
			l0.5-0.3l0.4-0.2l0.2-0.1l0.1-0.1l0.1-0.1l0.1-0.1l0.1-0.1l0.1-0.1l0-0.1l0-0.1l0.1-0.3v-0.3v-0.2l0-0.2l0-0.2l0-0.2l-0.1-0.1
			l-0.1-0.1l-0.1-0.1l-0.1-0.1l-0.1-0.1l-0.1-0.1l-0.1-0.1l-0.2-0.1l-0.2,0l-0.2,0l-0.2,0h-0.2l-0.2,0l-0.2,0l-0.2,0l-0.2,0.1
			l-0.1,0.1l-0.1,0.1l-0.1,0.1l-0.1,0.1l-0.1,0.2l-0.1,0.2l-0.1,0.2l-0.1,0.2l-0.1,0.1l-0.1,0.1l-0.1,0.1l-0.1,0.1l-0.1,0l-0.2,0
			l-0.1,0l-0.1,0l-0.1-0.1l-0.1-0.1l-0.1-0.1l0-0.1l0-0.1l0-0.2l0-0.2l0-0.2l0.1-0.2l0.1-0.1l0.1-0.1l0.2-0.1l0.2-0.1l0.2-0.1
			l0.3-0.1l0.3-0.1l0.3-0.1l0.3-0.1l0.3,0l0.4,0l0.4,0l0.4,0l0.3,0l0.3,0l0.3,0l0.2,0l0.2,0.1l0.2,0.1l0.2,0.1l0.1,0.1l0.1,0.1
			l0.1,0.1l0.1,0.1l0.1,0.2l0.1,0.2l0.1,0.2l0,0.2v0.2v0.2v0.3l0,0.4l0,0.5v0.6v0.6v0.6v0.6v0.7l0,0.6l0,0.3l0,0.2l0,0.2l0,0.2
			l0,0.2l0,0.2l0,0.1l0.1,0.1l0.1,0.1l0.1,0.1l0.1,0.1l0.1,0.1L104.1,112.8z M107.2,112.7L107.2,112.7l0.1-0.1l0,0l0-0.1l0-0.1
			l0-0.1l0-0.1V112l0.1-0.3l0-0.4l0-0.5v-0.6v-1.8v-0.6v-0.9l0-0.8l0-0.6l-0.1-0.4V105l0-0.1l0-0.1l0-0.1l0-0.1l0-0.1l-0.1-0.1
			l-0.1,0l1.8-0.2l0,0.1l0,0.1v0.1v0.1v0.3v0.3v0.2l0.3-0.3l0.3-0.3l0.1-0.1l0.1-0.1l0.2-0.1l0.2-0.1l0.3-0.2l0.4-0.1l0.2,0l0.2,0
			h0.2l0.2,0l0.3,0l0.3,0l0.3,0.1l0.2,0.1l0.2,0.1l0.2,0.1l0.2,0.2l0.1,0.2l0.1,0.2l0.1,0.3l0.1,0.4l0.1,0.4l0.1,0.5l0,0.5l0,0.6
			l0,0.7v1.9v0.6v0.4v0.4l0,0.3l0,0.2l0.1,0.2l0.1,0.1l0.1,0.1l0.1,0.1h-1.8l0-0.5l0-0.5l0-0.6l0-0.6v-0.6v-0.6v-0.7v-0.7v-0.4
			l0-0.4l0-0.3l0-0.3l0-0.3l-0.1-0.2l-0.1-0.2l-0.1-0.2l-0.1-0.1l-0.1-0.1l-0.1-0.1l-0.1-0.1l-0.1-0.1l-0.2-0.1l-0.2,0l-0.2,0
			l-0.2,0l-0.3,0l-0.2,0l-0.2,0l-0.2,0.1l-0.2,0.1l-0.2,0.1l-0.1,0.1l-0.1,0.1l-0.1,0.2l-0.1,0.2l-0.1,0.3l-0.1,0.3l0,0.4l0,0.4
			l0,0.5l0,0.5v1.8v0.6l0,0.5l0,0.4l0,0.3l0.1,0.3l0.1,0.2l0,0.1l0,0l0,0.1l0.1,0H107.2z M120.3,108.1l-0.9,0.4l-0.8,0.4l-0.3,0.1
			l-0.3,0.1l-0.2,0.1l-0.1,0.1l-0.1,0.1l-0.1,0.1l-0.1,0.1l-0.1,0.1l-0.1,0.1l0,0.1l0,0.2l0,0.1l0,0.1l0,0.1l0,0.1l0.1,0.1l0,0.1
			l0.1,0.1l0.1,0.1l0.1,0.1l0.1,0.1l0.1,0.1l0.1,0.1l0.1,0.1l0.1,0l0.1,0l0.1,0l0.2,0l0.2,0l0.2,0l0.2-0.1l0.2-0.1l0.1-0.1l0.1-0.1
			l0.1-0.1l0.1-0.1l0.1-0.1l0.1-0.2l0.1-0.2l0.1-0.2l0-0.2l0-0.3l0-0.3v-0.3V108.1z M120.6,112.8l0-0.2l0-0.2l0-0.2l0-0.2l0-0.2
			l0-0.2v-0.2v-0.2l-0.2,0.4l-0.2,0.3l-0.1,0.1l-0.1,0.1l-0.1,0.1l-0.2,0.1l-0.3,0.2l-0.3,0.1l-0.2,0l-0.2,0l-0.2,0H118h-0.3l-0.2,0
			l-0.2,0l-0.2-0.1l-0.2-0.1l-0.2-0.1l-0.2-0.1l-0.2-0.1l-0.2-0.1l-0.1-0.1l-0.1-0.2l-0.1-0.2l-0.1-0.2l-0.1-0.2l0-0.2v-0.2v-0.2
			l0-0.2l0-0.2l0.1-0.2l0.1-0.2l0.1-0.1l0.1-0.1l0.1-0.1l0.2-0.1l0.2-0.1l0.3-0.2l0.3-0.2l0.3-0.2l0.4-0.2l0.4-0.2l0.5-0.2l0.5-0.3
			l0.4-0.2l0.3-0.2l0.2-0.2l0.1-0.1l0-0.1l0-0.1l0-0.1l0-0.3l0-0.3v-0.2l0-0.2l0-0.2l0-0.2l0-0.1l-0.1-0.1l-0.1-0.1L120,105
			l-0.1-0.1l-0.1-0.1l-0.1-0.1l-0.1-0.1l-0.1,0l-0.2,0l-0.2,0h-0.2l-0.2,0l-0.2,0l-0.2,0l-0.1,0.1l-0.1,0.1l-0.1,0.1l-0.1,0.1
			l-0.1,0.1l-0.1,0.2l-0.1,0.2l-0.1,0.2l-0.1,0.2l-0.1,0.1l-0.1,0.1l-0.1,0.1l-0.1,0.1l-0.1,0l-0.1,0l-0.1,0l-0.1,0l-0.1,0l-0.1,0
			l0,0l0,0l-0.1-0.1l-0.1-0.1l0-0.1v-0.2v-0.2l0-0.2l0.1-0.2l0.1-0.1l0.1-0.1l0.2-0.1l0.2-0.1l0.3-0.1l0.3-0.1l0.3-0.1l0.3-0.1
			l0.3-0.1l0.3,0l0.4,0l0.4,0l0.4,0l0.3,0l0.3,0l0.3,0l0.3,0l0.2,0.1l0.2,0.1l0.2,0.1l0.2,0.1l0.1,0.1l0.1,0.1l0.1,0.1l0.1,0.2
			l0.1,0.2l0,0.2l0,0.2v0.2v0.2v0.3v0.4v0.5l0,0.6l0,0.6v0.6v0.6v0.7l0,0.6l0,0.5l0,0.4l0.1,0.4l0.1,0.3l0.1,0.1l0.1,0.1l0.1,0.1
			l0.1,0.1L120.6,112.8z M132.8,111.9h0.2l0.2,0l0.2,0l0.2-0.1l0.1-0.1l0.1-0.1l0.1-0.1l0.1-0.1l0.1-0.2l0.1-0.2l0.1-0.2l0-0.3
			l0-0.3l0-0.3v-0.4l0-0.4v-0.6v-0.5v-0.5v-0.4v-0.4v-0.3v-0.3V106l0-0.3l0-0.3l0-0.2l0-0.1l-0.1-0.1l-0.1-0.1l-0.1-0.1l-0.1-0.1
			l-0.1,0l-0.1,0l-0.2,0h-0.3h-0.3l-0.3,0.1l-0.3,0.1l-0.3,0.1l-0.3,0.1l-0.3,0.2l-0.3,0.2l-0.2,0.2l-0.2,0.3l-0.2,0.3l-0.1,0.3
			l-0.1,0.3l-0.1,0.4l-0.1,0.4l0,0.4l0,0.5l0,0.4l0,0.4l0.1,0.3l0.1,0.3l0.1,0.3l0.1,0.3l0.2,0.3l0.2,0.3l0.2,0.2l0.2,0.2l0.2,0.2
			l0.2,0.1l0.3,0.1l0.3,0.1l0.3,0L132.8,111.9z M136.1,99.3l0,0.3l0,0.3l0,0.4v0.4l0,0.4l0,0.5l0,0.5l0,0.6l0,0.6l0,0.6v0.7l0,0.7
			v0.7v0.7v0.7v0.7v0.7v0.6v0.5v0.5l0,0.4v0.3l0,0.3l0,0.2l0.1,0.4l0.1,0.3l0.1,0.2l0.1,0.1l-1.8,0.1l0-0.1l0-0.1v-0.1v-0.1v-0.2
			V112v-0.2l-0.3,0.3l-0.3,0.2l-0.3,0.2l-0.3,0.2l-0.2,0.1l-0.2,0l-0.2,0.1l-0.2,0l-0.4,0l-0.4,0l-0.4,0l-0.4,0l-0.4-0.1l-0.3-0.1
			l-0.3-0.2l-0.3-0.2l-0.1-0.1l-0.1-0.1l-0.1-0.1l-0.1-0.1l-0.2-0.3l-0.2-0.3l-0.2-0.4l-0.1-0.4l-0.1-0.4l-0.1-0.4l0-0.4l0-0.5v-0.3
			l0-0.3l0-0.3l0-0.3l0-0.2l0.1-0.2l0.1-0.2l0.1-0.2l0.1-0.2l0.1-0.2l0.1-0.2l0.1-0.2l0.1-0.2l0.1-0.2l0.2-0.2l0.2-0.1l0.2-0.2
			l0.2-0.1l0.2-0.1l0.2-0.1l0.2-0.1l0.2-0.1l0.2-0.1l0.2-0.1l0.2-0.1l0.3-0.1l0.3-0.1l0.3,0l0.3,0l0.3,0l0.3,0h0.3h0.3h0.2h0.1
			l0.1,0l0.1,0l0.1,0V102v-0.5l0-0.4l0-0.4v-0.3l-0.1-0.3l-0.1-0.2l-0.1-0.2l-0.1-0.2L136.1,99.3z M139.6,106.7h0.1h0.2h0.3h0.2h0.2
			h0.2h0.2h0.2h0.6l0.5,0l0.2,0l0.1,0l0.1,0l0.1,0l0.1-0.1l0.1-0.1l0-0.1l0-0.1l0-0.1V106v-0.1l0-0.1l0-0.1l0-0.1l-0.1-0.1l-0.1-0.1
			l-0.1-0.1l-0.1-0.1l-0.1-0.1l-0.1-0.1l-0.1-0.1l-0.1-0.1l-0.1-0.1l-0.1,0l-0.2,0h-0.1h-0.2l-0.2,0l-0.2,0.1l-0.2,0.1l-0.2,0.1
			l-0.1,0.1l-0.1,0.1l-0.1,0.1l-0.1,0.1l-0.1,0.2l-0.1,0.2l-0.1,0.2l-0.1,0.2l-0.1,0.2l-0.1,0.2L139.6,106.7z M144.6,110.6v0.2
			l0,0.2l0,0.2l-0.1,0.2l-0.1,0.2l-0.1,0.2l-0.2,0.2l-0.2,0.2l-0.2,0.1l-0.2,0.2l-0.3,0.1l-0.3,0.1l-0.3,0.1l-0.3,0.1l-0.3,0.1
			l-0.3,0l-0.3,0l-0.4,0l-0.4,0l-0.2,0l-0.2-0.1l-0.2,0l-0.2-0.1l-0.2-0.1l-0.2-0.1l-0.2-0.1l-0.1-0.1l-0.3-0.2l-0.3-0.3l-0.2-0.3
			l-0.2-0.3l-0.2-0.4l-0.1-0.4l-0.1-0.4l-0.1-0.4l0-0.5l0-0.5l0-0.5l0-0.5l0.1-0.4l0.1-0.4l0.1-0.2l0.1-0.2l0.1-0.2l0.1-0.2l0.2-0.3
			l0.3-0.3l0.3-0.3l0.3-0.3l0.2-0.1l0.2-0.1l0.2-0.1l0.2-0.1l0.2-0.1l0.2-0.1l0.2-0.1l0.2,0l0.2,0l0.2,0l0.2,0h0.2l0.3,0l0.3,0
			l0.3,0.1l0.3,0.1l0.3,0.1l0.3,0.1l0.2,0.2l0.2,0.2l0.2,0.2l0.2,0.2l0.1,0.2l0.1,0.2l0.1,0.3l0.1,0.3l0,0.3l0,0.3l0,0.1l0,0.1
			l0,0.1l-0.1,0.1l-0.2,0.1l-0.2,0.1l-0.4,0.1l-0.6,0l-0.8,0h-1.1H141h-0.3h-0.3h-0.2H140l-0.2,0l-0.2,0h-0.2l-0.1,0.3l0,0.2v0.3
			v0.3l0,0.4l0,0.4l0.1,0.4l0.1,0.3l0.1,0.3l0.1,0.3l0.2,0.3l0.2,0.2l0.2,0.2l0.2,0.2l0.2,0.2l0.2,0.1l0.3,0.1l0.3,0.1l0.3,0l0.3,0
			l0.4,0l0.3,0l0.2,0l0.1,0l0.1-0.1l0.2-0.1l0.3-0.2l0.3-0.2l0.3-0.2L144.6,110.6z M160.5,100.5l-0.1,2.6l-0.1-0.2l-0.1-0.2
			l-0.1-0.2l-0.1-0.2l-0.1-0.2l-0.2-0.2l-0.2-0.2l-0.2-0.1l-0.2-0.1l-0.2-0.1l-0.2-0.1l-0.2-0.1l-0.2-0.1l-0.3,0l-0.2,0h-0.3h-0.3
			l-0.3,0l-0.3,0l-0.2,0l-0.2,0.1l-0.2,0.1l-0.2,0.1l-0.2,0.1l-0.2,0.1l-0.2,0.1l-0.2,0.1l-0.2,0.1l-0.2,0.1l-0.2,0.1l-0.1,0.2
			l-0.2,0.1l-0.1,0.2l-0.1,0.2l-0.1,0.2l-0.1,0.2l-0.1,0.2l-0.1,0.2l-0.1,0.2l-0.1,0.2l-0.1,0.2l-0.1,0.3l-0.1,0.3l0,0.3l0,0.3
			l0,0.3l0,0.3v0.3v0.3l0,0.3l0,0.3l0,0.3l0,0.3l0,0.3l0.1,0.3l0.1,0.3l0.1,0.2l0.1,0.2l0.1,0.2l0.1,0.2l0.1,0.2l0.1,0.2l0.1,0.2
			l0.1,0.2l0.2,0.2l0.2,0.2l0.2,0.2l0.2,0.1l0.2,0.1l0.2,0.1l0.2,0.1l0.2,0.1l0.2,0.1l0.2,0.1l0.2,0.1l0.3,0l0.2,0l0.3,0h0.3l0.3,0
			l0.3,0l0.2,0l0.3,0l0.2-0.1l0.3,0l0.2-0.1l0.2-0.1l0.2-0.1l0.2-0.1l0.2-0.1l0.2-0.1l0.2-0.1l0.2-0.1l0.2-0.1l0.2-0.2l0.2-0.2
			l-0.1,0.3l-0.1,0.3l-0.1,0.3l-0.2,0.3l-0.2,0.3l-0.2,0.2l-0.3,0.2l-0.3,0.2l-0.3,0.2l-0.3,0.2l-0.3,0.1l-0.3,0.1l-0.4,0.1
			l-0.4,0.1l-0.4,0l-0.4,0h-0.3l-0.3,0l-0.3,0l-0.3,0l-0.3-0.1l-0.3-0.1l-0.3-0.1l-0.3-0.1l-0.3-0.1l-0.3-0.1l-0.2-0.1l-0.3-0.1
			l-0.2-0.2l-0.2-0.2l-0.2-0.2l-0.2-0.2l-0.2-0.2l-0.2-0.2l-0.2-0.3l-0.1-0.2l-0.1-0.3l-0.1-0.3l-0.1-0.3l-0.1-0.3l-0.1-0.3
			l-0.1-0.3l-0.1-0.3l-0.1-0.3l0-0.3l0-0.3l0-0.3v-0.3v-0.4l0-0.4l0-0.4l0-0.3l0.1-0.3l0.1-0.3l0.1-0.3l0.1-0.3l0.1-0.3l0.1-0.3
			l0.1-0.3l0.1-0.3l0.2-0.3l0.2-0.2l0.2-0.2l0.2-0.2l0.2-0.2l0.2-0.2l0.3-0.2l0.3-0.2l0.3-0.2l0.3-0.1l0.3-0.1l0.3-0.1l0.3-0.1
			l0.3-0.1l0.3-0.1l0.3-0.1l0.4,0l0.4,0l0.4,0h0.4h0.3h0.3l0.4,0l0.4,0l0.5,0.1l0.4,0l0.3,0H160.5z M166.3,104.7l-0.3,0l-0.3,0
			l-0.3,0.1l-0.2,0.1l-0.2,0.1l-0.2,0.2l-0.2,0.2l-0.2,0.2l-0.1,0.2l-0.1,0.3l-0.1,0.3l-0.1,0.3L164,107l-0.1,0.4l0,0.4l0,0.4l0,0.4
			l0,0.4l0.1,0.4l0.1,0.4l0.1,0.4l0.1,0.4l0.2,0.3l0.2,0.3l0.2,0.2l0.2,0.2l0.2,0.2l0.3,0.1l0.3,0.1l0.3,0.1l0.3,0l0.3,0l0.3,0
			l0.3,0l0.2-0.1l0.2-0.1l0.2-0.1l0.2-0.2l0.2-0.2l0.2-0.2l0.1-0.2l0.1-0.3l0.1-0.3l0.1-0.3l0-0.4l0-0.4l0-0.4v-0.4V108l0-0.4l0-0.4
			l-0.1-0.3l-0.1-0.3l-0.1-0.3l-0.1-0.3l-0.2-0.3l-0.2-0.2l-0.2-0.2l-0.2-0.2l-0.2-0.1l-0.3-0.1l-0.3-0.1l-0.3,0L166.3,104.7z
			 M166.7,104l0.5,0l0.4,0l0.4,0.1l0.4,0.1l0.3,0.2l0.3,0.2l0.3,0.2l0.3,0.3l0.2,0.3l0.2,0.3l0.2,0.3l0.1,0.3l0.1,0.4l0.1,0.4l0,0.4
			l0,0.4l0,0.6l-0.1,0.5l-0.1,0.5l-0.1,0.5l-0.1,0.2l-0.1,0.2l-0.1,0.2l-0.1,0.2l-0.1,0.2l-0.1,0.2l-0.1,0.2l-0.1,0.2l-0.1,0.2
			l-0.1,0.1l-0.1,0.1l-0.2,0.1l-0.2,0.1l-0.2,0.1l-0.2,0.1l-0.2,0.1l-0.2,0.1l-0.2,0.1l-0.2,0.1l-0.2,0l-0.2,0l-0.2,0l-0.2,0h-0.2
			l-0.5,0l-0.4,0l-0.4-0.1l-0.4-0.1l-0.3-0.2l-0.3-0.2l-0.3-0.2l-0.3-0.3l-0.2-0.3l-0.2-0.3l-0.2-0.4l-0.1-0.4l-0.1-0.4l-0.1-0.4
			l0-0.5l0-0.5l0-0.5l0-0.5l0-0.2l0.1-0.2l0-0.2l0.1-0.2l0.1-0.2l0.1-0.2l0.1-0.2l0.1-0.2l0.1-0.2l0.1-0.2l0.1-0.2l0.1-0.1l0.1-0.2
			l0.2-0.1l0.1-0.1l0.2-0.1l0.2-0.1l0.2-0.1l0.2-0.1l0.2-0.1l0.2-0.1l0.2-0.1l0.2-0.1l0.2,0l0.2,0l0.2,0l0.2,0H166.7z M175.7,104.7
			l-0.3,0l-0.3,0l-0.3,0.1l-0.3,0.1l-0.2,0.1l-0.2,0.2l-0.2,0.2l-0.2,0.2l-0.1,0.2l-0.1,0.3l-0.1,0.3l-0.1,0.3l-0.1,0.3l0,0.4l0,0.4
			v0.4v0.4l0,0.4l0,0.4l0.1,0.4l0.1,0.4l0.1,0.4l0.1,0.3l0.2,0.3l0.2,0.2l0.2,0.2l0.2,0.2l0.3,0.1l0.3,0.1l0.3,0.1l0.3,0l0.3,0
			l0.3,0l0.3,0l0.2-0.1l0.2-0.1l0.2-0.1l0.2-0.2l0.2-0.2l0.1-0.2l0.1-0.2l0.1-0.3l0.1-0.3l0.1-0.3l0.1-0.4l0-0.4l0-0.4l0-0.4l0-0.4
			l0-0.4l-0.1-0.4l-0.1-0.3l-0.1-0.3l-0.1-0.3l-0.2-0.3l-0.2-0.3l-0.2-0.2l-0.2-0.2l-0.2-0.2l-0.2-0.1l-0.3-0.1l-0.3-0.1l-0.3,0
			L175.7,104.7z M176,104l0.5,0l0.4,0l0.4,0.1l0.4,0.1l0.2,0.1l0.2,0.1l0.2,0.1l0.1,0.1l0.1,0.1l0.1,0.1l0.1,0.1l0.1,0.1l0.2,0.3
			l0.2,0.3l0.2,0.3l0.2,0.3l0.1,0.4l0.1,0.4l0,0.4l0,0.4l0,0.6l0,0.5l-0.1,0.5l-0.1,0.5l-0.1,0.2l-0.1,0.2l-0.1,0.2l-0.1,0.2
			l-0.1,0.2l-0.1,0.2l-0.1,0.2l-0.1,0.2l-0.1,0.2l-0.1,0.1l-0.2,0.1l-0.2,0.1l-0.2,0.1l-0.2,0.1l-0.2,0.1l-0.2,0.1l-0.2,0.1
			l-0.2,0.1l-0.2,0.1l-0.2,0l-0.2,0l-0.2,0l-0.2,0h-0.3l-0.5,0l-0.4,0l-0.4-0.1l-0.4-0.1l-0.3-0.2l-0.3-0.2l-0.3-0.2l-0.3-0.3
			l-0.2-0.3l-0.2-0.3l-0.2-0.4l-0.1-0.4l-0.1-0.4l-0.1-0.4l0-0.5l0-0.5v-0.3l0-0.3l0-0.2l0-0.3l0-0.2l0.1-0.2l0.1-0.2l0.1-0.2
			l0.1-0.2l0.1-0.2l0.1-0.2l0.1-0.2l0.1-0.2l0.1-0.2l0.1-0.2l0.1-0.1l0.2-0.2l0.1-0.1l0.2-0.1l0.2-0.1l0.2-0.1l0.2-0.1l0.2-0.1
			l0.2-0.1l0.2-0.1l0.2-0.1l0.2-0.1l0.2,0l0.2,0l0.2,0l0.2,0H176z M183,109v0.5v0.4l0,0.4l0,0.3l0,0.3l0.1,0.2l0.1,0.2l0.1,0.1
			l0.1,0.1l0.1,0.1l0.1,0.1l0.1,0.1l0.2,0.1l0.2,0.1l0.2,0l0.2,0l0.2,0l0.3,0l0.3,0l0.3-0.1l0.3-0.1l0.3-0.1l0.2-0.1l0.2-0.2
			l0.2-0.2l0.2-0.2l0.1-0.3l0.1-0.3l0.1-0.3l0.1-0.3l0.1-0.3l0-0.4l0-0.4l0-0.4l0-0.4l-0.1-0.4l-0.1-0.3l-0.1-0.3l-0.1-0.3l-0.2-0.3
			l-0.2-0.3l-0.2-0.3l-0.2-0.2l-0.2-0.2l-0.2-0.1l-0.2-0.1l-0.3-0.1l-0.3,0l-0.3,0l-0.2,0l-0.2,0l-0.2,0.1l-0.2,0.1l-0.2,0.1
			l-0.2,0.1l-0.1,0.1l-0.1,0.1l-0.1,0.1l0,0.1l0,0.1l0,0.1l-0.1,0.3l-0.1,0.3l0,0.4l0,0.5v0.7V109z M181.3,118L181.3,118l0.1-0.1
			l0-0.1l0-0.1l0.1-0.3l0.1-0.4l0-0.5l0-0.6V115v-0.9v-3v-0.9v-0.8v-0.7V108v-0.6l0-0.5v-0.4l0-0.4l0-0.3l-0.1-0.5l-0.1-0.4l0-0.2
			l0-0.1l-0.1-0.1l-0.1-0.1l1.8-0.2l0,0.2l0,0.3v0.1v0.2v0.2v0.2l0.3-0.3l0.3-0.3l0.3-0.2l0.3-0.2l0.2-0.1l0.2-0.1l0.2-0.1l0.1,0
			l0.3,0l0.3,0l0.3,0l0.3,0.1l0.3,0.1l0.3,0.1l0.3,0.2l0.3,0.2l0.3,0.3l0.3,0.3l0.2,0.3l0.2,0.3l0.2,0.3l0.1,0.4l0.1,0.4l0.1,0.4
			l0,0.4v0.4v0.3l0,0.2l0,0.3l0,0.2l-0.1,0.2l-0.1,0.2l-0.1,0.2l-0.1,0.2l-0.1,0.2l-0.1,0.2l-0.1,0.2l-0.1,0.2l-0.1,0.2l-0.1,0.2
			l-0.2,0.2l-0.2,0.2l-0.2,0.2l-0.2,0.1l-0.2,0.1l-0.2,0.1l-0.2,0.1l-0.2,0.1l-0.2,0.1l-0.2,0.1l-0.3,0.1l-0.3,0.1l-0.3,0.1l-0.3,0
			l-0.3,0l-0.3,0l-0.3,0h-0.3h-0.1h-0.2h-0.1h-0.1v0.3v0.1v0.1v0.2v0.3v0.2v0.2l0,0.9l0,0.7l0,0.6v0.5l0.1,0.4l0.1,0.3l0,0.1
			l0.1,0.1l0,0.1l0.1,0.1H181.3z"/>
		<path class="st0" d="M191.9,106.6h0.1h0.1h0.3h0.2h0.2h0.2h0.2h0.3h0.6h0.4l0.3,0l0.2,0l0.1,0l0.1,0l0-0.1l0,0l0-0.1l0-0.1l0-0.1
			V106v-0.1l0-0.1l0-0.1l0-0.1l-0.1-0.1l-0.1-0.1l-0.1-0.1L195,105l-0.1-0.1l-0.1-0.1l-0.1-0.1l-0.1-0.1l-0.1,0l-0.1,0l-0.1,0h-0.2
			h-0.2l-0.2,0l-0.2,0l-0.2,0l-0.2,0.1l-0.1,0.1l-0.1,0.1l-0.1,0.1l-0.1,0.2l-0.1,0.2l-0.1,0.2l-0.1,0.2L192,106l0,0.2l0,0.2
			L191.9,106.6z M196.9,110.6v0.2l0,0.2l0,0.2l-0.1,0.2l-0.1,0.2l-0.1,0.2l-0.2,0.2l-0.2,0.2l-0.2,0.1l-0.2,0.2l-0.3,0.1l-0.3,0.1
			l-0.3,0.1l-0.3,0.1l-0.3,0.1l-0.3,0l-0.3,0l-0.4,0l-0.4,0l-0.4-0.1l-0.3-0.1l-0.2-0.1l-0.1-0.1l-0.1-0.1l-0.1-0.1l-0.1-0.1
			l-0.1-0.1l-0.1-0.1l-0.1-0.1l-0.1-0.2l-0.1-0.2l-0.1-0.2l-0.1-0.2l-0.1-0.2l-0.1-0.2l-0.1-0.2l-0.1-0.2l-0.1-0.4l-0.1-0.4l0-0.5
			v-0.5v-0.5l0-0.5l0.1-0.4l0.1-0.4l0.1-0.2l0.1-0.2l0.1-0.2l0.1-0.2l0.1-0.2l0.1-0.2l0.1-0.1l0.1-0.2l0.1-0.1l0.1-0.1l0.1-0.1
			l0.1-0.1l0.2-0.1l0.2-0.1l0.2-0.1l0.2-0.1l0.2-0.1l0.2-0.1l0.2,0l0.2,0l0.4-0.1l0.4,0l0.3,0l0.3,0l0.3,0.1l0.3,0.1l0.3,0.1
			l0.3,0.1l0.3,0.2l0.2,0.2l0.2,0.2l0.2,0.2l0.1,0.2l0.1,0.2l0.1,0.2l0.1,0.3l0,0.2l0,0.3l0,0.1l0,0.1l0,0.1l-0.1,0.1l-0.1,0.1
			l-0.1,0.1l-0.1,0.1l-0.1,0l-0.4,0.1l-0.6,0l-0.9,0h-1.1h-0.3H193l-0.3,0l-0.2,0h-0.2h-0.2H192h-0.1l-0.1,0.3l-0.1,0.2v0.3v0.3v0.4
			l0,0.4l0,0.3l0.1,0.3l0.1,0.3l0.1,0.3l0.1,0.3l0.1,0.3l0.2,0.2l0.2,0.2l0.3,0.1l0.3,0.1l0.3,0.1l0.3,0.1l0.3,0l0.3,0h0.2l0.2,0
			l0.1,0l0.2,0l0.3-0.1l0.3-0.1l0.3-0.2l0.3-0.2l0.3-0.2L196.9,110.6z M198.5,112.7l0.1-0.1l0.1-0.2l0.1-0.2l0.1-0.2l0-0.3l0-0.4
			v-0.5v-0.6v-1.9v-0.6v-0.9v-0.7l0-0.6l0-0.4l-0.1-0.3l-0.1-0.2l-0.1-0.2l-0.1-0.1l0.2,0l0.2,0l0.2,0l0.2,0l0.4-0.1l0.1,0l0.1,0
			l0.1,0l0.1,0.1l0,0.1l0,0.1l0,0.1l0,0.2v0.2l0,0.2l0,0.2l0.2-0.3l0.2-0.3l0.2-0.3l0.2-0.2l0.1-0.1l0.1-0.1l0.1-0.1l0.1,0l0.3,0
			l0.3,0l0.3,0l0.2,0l0.2,0.1l0.2,0.1l0,0l0,0l0,0.1l0,0.1l0,0.1l0,0.2v0.1l0,0.1l0,0.1l-0.1,0.1l-0.1,0l-0.1,0.1l-0.2,0l-0.2,0
			l-0.2,0l-0.3,0h-0.3h-0.2l-0.2,0l-0.2,0l-0.2,0l-0.1,0l-0.1,0.1l-0.1,0.1l-0.1,0.1l-0.1,0.1l-0.1,0.1l0,0.2l0,0.2l0,0.3l0,0.7
			l0,0.9v0.1v0.2v0.3v0.4v0.4v0.4v0.3v0.3v0.5l0,0.4l0,0.3l0,0.3l0,0.2l0.1,0.2l0.1,0.2l0.1,0.1H198.5z M208.9,108.1l-1,0.4
			l-0.8,0.4l-0.3,0.1l-0.3,0.1l-0.2,0.1l-0.2,0.1l-0.1,0.1l-0.1,0.1l-0.1,0.1l-0.1,0.1l-0.1,0.1l-0.1,0.2l0,0.2l0,0.1l0,0.1l0,0.1
			l0,0.1l0.1,0.1l0.1,0.1l0.1,0.1l0.1,0.1l0.1,0.1l0.1,0.1l0.1,0.1l0.1,0.1l0.1,0.1l0.1,0l0.1,0l0.2,0l0.2,0l0.2,0l0.2,0l0.2-0.1
			l0.2-0.1l0.2-0.1l0.1-0.1l0.1-0.1l0.1-0.1l0.1-0.2l0.1-0.2l0.1-0.2l0.1-0.2l0-0.2l0-0.3l0-0.3v-0.3V108.1z M209.2,112.8l-0.1-0.1
			l0-0.1l-0.1-0.2l0-0.2l0-0.2l0-0.2l0-0.2l0-0.2l-0.1,0.2l-0.1,0.2l-0.1,0.2l-0.1,0.1l-0.1,0.1l-0.1,0.1l-0.1,0.1l-0.1,0.1
			l-0.2,0.1l-0.2,0.1l-0.2,0.1l-0.2,0.1l-0.2,0l-0.2,0l-0.2,0h-0.2l-0.2,0l-0.3,0l-0.2,0l-0.2-0.1l-0.2-0.1l-0.2-0.1l-0.2-0.1
			l-0.2-0.1l-0.2-0.2l-0.2-0.2l-0.1-0.2l-0.1-0.2l-0.1-0.2l-0.1-0.2l0-0.2l0-0.2l0-0.2l0-0.2l0.1-0.2l0.1-0.2l0.1-0.2l0.1-0.1
			l0.1-0.1l0.1-0.1l0.2-0.1l0.2-0.1l0.3-0.2l0.3-0.2l0.3-0.2l0.4-0.2l0.4-0.2l0.5-0.2l0.5-0.2l0.4-0.2l0.2-0.1l0.1-0.1l0.1-0.1
			l0.1-0.1l0.1-0.2l0.1-0.2l0-0.1l0-0.1l0-0.2l0-0.1l0-0.2l0-0.2l0-0.2l-0.1-0.2l-0.1-0.1l-0.1-0.1l-0.1-0.1l-0.1-0.1l-0.1-0.1
			l-0.1-0.1l-0.1-0.1l-0.1-0.1l-0.2,0l-0.2,0l-0.2,0h-0.2l-0.1,0l-0.2,0l-0.2,0l-0.2,0.1l-0.1,0.1l-0.1,0.1l-0.1,0.1l-0.1,0.1l0,0.2
			l-0.1,0.3l-0.1,0.2l-0.1,0.2l-0.1,0.1l-0.1,0.1l-0.1,0.1l-0.1,0.1l-0.1,0l-0.1,0l-0.2,0l-0.1,0l-0.1-0.1l-0.1-0.1l-0.1-0.1
			l-0.1-0.1l0-0.1v-0.2l0-0.2l0-0.2l0.1-0.2l0.1-0.1l0.1-0.1l0.2-0.1l0.2-0.1l0.2-0.1l0.3-0.1l0.3-0.1l0.3-0.1l0.3-0.1l0.3,0l0.4,0
			l0.4,0l0.4,0l0.3,0l0.3,0l0.3,0l0.2,0l0.2,0.1l0.2,0.1l0.2,0.1l0.1,0.1l0.1,0.1l0.1,0.1l0.1,0.1l0.1,0.2l0.1,0.2l0.1,0.2l0,0.2
			l0,0.2l0,0.1l0,0.3l0,0.4l0,0.5v0.6l0,0.6l0,0.6v0.6v0.7l0,0.6l0,0.3l0,0.2l0,0.2l0,0.2l0,0.2l0,0.2l0,0.1l0.1,0.1l0.1,0.1
			l0.1,0.1l0.1,0.1l0.1,0.1L209.2,112.8z M218.8,110.8l0,0.2l0,0.2l-0.1,0.2l-0.1,0.2l-0.1,0.2l-0.1,0.2l-0.1,0.1l-0.2,0.1l-0.2,0.1
			l-0.2,0.1l-0.2,0.1l-0.3,0.1l-0.3,0.1l-0.3,0l-0.3,0l-0.3,0l-0.4,0l-0.4-0.1l-0.2,0l-0.2-0.1l-0.2-0.1l-0.2-0.1l-0.2-0.1l-0.2-0.1
			l-0.1-0.1l-0.2-0.1l-0.1-0.1l-0.2-0.1l-0.1-0.1l-0.1-0.1l-0.3-0.3l-0.2-0.3l-0.2-0.4l-0.1-0.4l-0.1-0.4l-0.1-0.4L212,109v-0.5
			v-0.5l0.1-0.5l0-0.2l0-0.2l0.1-0.2l0.1-0.2l0.1-0.2l0.1-0.2l0.1-0.2l0.1-0.2l0.1-0.2l0.1-0.2l0.1-0.2l0.2-0.2l0.2-0.2l0.2-0.1
			l0.2-0.1l0.2-0.1l0.2-0.1l0.2-0.1l0.2-0.1l0.2-0.1l0.2-0.1l0.2-0.1l0.2-0.1l0.2,0l0.2,0l0.2,0l0.3,0h0.2h0.3l0.3,0l0.3,0l0.3,0
			h0.2l0.2,0l0.2,0l0.2,0.1l-0.1,2l-0.1-0.4l-0.2-0.3l-0.2-0.3l-0.2-0.2l-0.3-0.1l-0.3-0.1l-0.1,0l-0.1,0l-0.1,0h-0.2h-0.3l-0.3,0.1
			l-0.3,0.1l-0.3,0.1l-0.3,0.1l-0.2,0.2l-0.2,0.2l-0.2,0.3l-0.2,0.3l-0.1,0.3l-0.1,0.3l-0.1,0.3l-0.1,0.4l-0.1,0.4l0,0.4v0.4v0.4
			l0,0.4l0.1,0.3l0.1,0.3l0.1,0.3l0.1,0.3l0.1,0.3l0.2,0.3l0.2,0.2l0.2,0.2l0.2,0.1l0.3,0.1l0.3,0.1l0.3,0.1l0.3,0l0.3,0h0.2l0.2,0
			l0.2,0l0.2,0l0.3-0.1l0.3-0.1l0.3-0.2l0.3-0.2l0.1-0.1l0.1-0.1l0.1-0.1L218.8,110.8z M220.8,102.9l-0.8-1.3l1.4-0.9l0.8,1.3
			L220.8,102.9z M220.1,112.7l0.1-0.1l0.1-0.2l0.1-0.2l0.1-0.2l0-0.3l0-0.4v-0.5v-0.6v-1.9v-1v-0.8v-0.7l0-0.5l0-0.4l-0.1-0.3
			l-0.1-0.2l0-0.1l0-0.1l-0.1-0.1l0,0l0.3,0l0.3,0l0.3,0l0.3,0l0.2,0l0.2,0l0.2,0l0.2,0v0.3v0.3l0,0.5l0,0.5v0.3v0.4v0.4v0.4v0.5
			v0.5v0.5v0.6v1.1v0.6v0.5l0,0.4l0,0.3l0.1,0.2l0.1,0.2l0.1,0.2l0.1,0.1H220.1z M227.8,104.7l-0.3,0l-0.3,0l-0.3,0.1l-0.2,0.1
			l-0.2,0.1l-0.2,0.2l-0.2,0.2l-0.2,0.2l-0.1,0.2l-0.1,0.3l-0.1,0.3l-0.1,0.3l-0.1,0.3l0,0.4l0,0.4l0,0.4l0,0.4l0,0.4l0.1,0.4
			l0.1,0.4l0.1,0.4l0.1,0.3l0.1,0.3l0.2,0.3l0.2,0.3l0.2,0.2l0.2,0.2l0.3,0.1l0.3,0.1l0.3,0.1l0.3,0l0.3,0l0.3,0l0.3,0l0.2-0.1
			l0.2-0.1l0.2-0.1l0.2-0.2l0.2-0.2l0.1-0.2l0.2-0.2l0.1-0.3l0.1-0.3l0.1-0.3l0.1-0.4l0-0.4l0-0.4v-0.4V108l0-0.4l0-0.4l-0.1-0.3
			l-0.1-0.3l-0.1-0.3l-0.1-0.3l-0.2-0.3l-0.2-0.3l-0.2-0.2l-0.2-0.2l-0.2-0.1l-0.2-0.1l-0.3-0.1l-0.3,0L227.8,104.7z M228.1,104
			l0.4,0l0.4,0l0.4,0.1l0.4,0.1l0.3,0.1l0.3,0.2l0.3,0.2l0.3,0.2l0.1,0.1l0.1,0.1l0.1,0.2l0.1,0.1l0.2,0.3l0.1,0.3l0.1,0.4l0.1,0.4
			l0,0.4v0.4l0,0.6l0,0.5l-0.1,0.5l-0.1,0.5l-0.1,0.4l-0.2,0.4l-0.2,0.4l-0.3,0.4l-0.1,0.2l-0.2,0.1l-0.2,0.1l-0.2,0.1l-0.2,0.1
			l-0.2,0.1l-0.2,0.1l-0.2,0.1l-0.2,0.1l-0.2,0.1l-0.2,0.1l-0.2,0l-0.2,0l-0.2,0l-0.2,0h-0.3l-0.4,0l-0.4,0l-0.2,0l-0.2-0.1l-0.2,0
			l-0.2-0.1l-0.2-0.1l-0.2-0.1l-0.2-0.1l-0.1-0.1l-0.1-0.1l-0.1-0.1l-0.1-0.1l-0.1-0.1l-0.1-0.1l-0.1-0.1l-0.1-0.1l-0.1-0.2
			l-0.1-0.2l-0.1-0.2l-0.1-0.2l-0.1-0.2l-0.1-0.4l-0.1-0.4l-0.1-0.5v-0.5v-0.3V108l0-0.3l0-0.2l0.1-0.2l0-0.2l0.1-0.2l0.1-0.2
			l0.1-0.2l0.1-0.2l0.1-0.2l0.1-0.2l0.3-0.4l0.3-0.3l0.3-0.3l0.3-0.3l0.4-0.2l0.4-0.2l0.2-0.1l0.2-0.1l0.2-0.1l0.2,0l0.4-0.1
			L228.1,104z M228.6,99.7h1.6L230,100l-0.2,0.3l-0.2,0.3l-0.2,0.3l-0.2,0.3l-0.2,0.3l-0.2,0.2l-0.2,0.2l-0.2,0.2l-0.2,0.2l-0.3,0.2
			l-0.2,0.1l-0.3,0.1l-0.2,0.1l-0.3,0.1l-0.3,0.1l0.3-0.5l0.3-0.4l0.3-0.4l0.2-0.4l0.3-0.4l0.2-0.4l0.2-0.4L228.6,99.7z
			 M233.4,112.7l0.1-0.1l0.1-0.2l0-0.1l0-0.1l0-0.1V112l0-0.3l0.1-0.4l0-0.5l0-0.6v-1.9v-0.6l0-0.9l0-0.7l-0.1-0.6l0-0.4V105l0-0.1
			l0-0.1l0-0.1l-0.1-0.2l-0.1-0.1l1.7-0.1l0,0.2l0,0.2v0.2v0.3v0.2l0.1-0.2l0.1-0.2l0.1-0.1l0.1-0.1l0.2-0.1l0.1-0.1l0.2-0.1
			l0.2-0.1l0.2-0.1l0.2-0.1l0.2-0.1l0.2,0l0.4,0l0.4,0l0.3,0l0.3,0l0.3,0.1l0.2,0.1l0.2,0.1l0.2,0.1l0.1,0.2l0.1,0.2l0.1,0.1
			l0.1,0.1l0,0.1l0.1,0.2l0.1,0.3l0.1,0.4l0.1,0.5l0,0.5l0,0.6v0.6v2v0.5v0.5l0,0.4l0,0.3l0,0.2l0,0.2l0.1,0.1l0.1,0.1l0.1,0.1h-1.8
			l0-0.6v-0.5l0-0.5l0-0.5v-0.6v-0.6v-0.7v-0.7v-0.5v-0.4l0-0.3l0-0.3l0-0.3l0-0.2l-0.1-0.2l-0.1-0.2l-0.1-0.1l-0.1-0.1l-0.1-0.1
			l-0.1-0.1l-0.1,0l-0.2,0l-0.2,0h-0.2l-0.2,0l-0.3,0l-0.3,0l-0.2,0l-0.2,0.1l-0.2,0.1l-0.1,0.1l-0.1,0.1l-0.1,0.1l-0.1,0.2
			l-0.1,0.2l-0.1,0.3l-0.1,0.3l-0.1,0.4l0,0.4l0,0.5l0,0.5v1.9l0,0.6l0,0.5l0,0.4l0,0.3l0,0.1l0,0.1l0,0.1l0,0.1l0.1,0.2l0.1,0.1
			H233.4z M247.5,112.7l0.1-0.2l0.1-0.3l0.1-0.4l0.1-0.4l0-0.3l0-0.4l0-0.4l0-0.5l0-0.6l0-0.7v-0.7V107v-0.7v-0.9v-0.8l0-0.7l0-0.6
			l0-0.5l0-0.4l0-0.4l0-0.3l-0.1-0.4l-0.1-0.4l0-0.1l-0.1-0.1l0-0.1l-0.1-0.1h2.6l-0.1,0.1l-0.1,0.1l-0.1,0.1l0,0.1l-0.1,0.4
			l-0.1,0.4l0,0.3l0,0.3l0,0.4l0,0.5l0,0.6v0.6l0,0.7v0.8v0.7v0.7v0.8l0,0.7v0.6l0,0.5l0,0.5l0,0.4l0,0.4l0,0.3l0.1,0.4l0.1,0.4
			l0,0.1l0.1,0.1l0.1,0.1l0.1,0.1H247.5z M252.1,112.7l0.1-0.1l0.1-0.2l0.1-0.2l0-0.2l0-0.3l0-0.4l0-0.5v-0.6v-1.9v-0.6v-0.9l0-0.7
			l0-0.6l0-0.4l0-0.3l-0.1-0.2l-0.1-0.2l-0.1-0.1l1.8-0.1l0,0.2l0,0.2v0.2v0.3v0.2l0.1-0.2l0.1-0.2l0.1-0.1l0.2-0.1l0.1-0.1l0.2-0.1
			l0.2-0.1l0.2-0.1l0.1-0.1l0.2-0.1l0.2-0.1l0.2,0l0.4,0l0.4,0l0.3,0l0.3,0l0.3,0.1l0.2,0.1l0.2,0.1l0.2,0.1l0.1,0.2l0.1,0.2
			l0.1,0.1l0.1,0.1l0.1,0.1l0,0.2l0.1,0.3l0.1,0.4l0,0.5l0,0.5l0,0.6l0,0.6v2v0.5v0.5v0.4l0,0.3l0,0.2l0.1,0.2l0.1,0.1l0.1,0.1
			l0.1,0.1h-1.8v-0.6v-0.5l0-0.5l0-0.5v-0.6v-0.6v-0.7v-0.7v-0.5v-0.4l0-0.3l0-0.3l0-0.3l-0.1-0.2l-0.1-0.2l-0.1-0.2l-0.1-0.1
			l-0.1-0.1l-0.1-0.1l-0.1-0.1l-0.1,0l-0.2,0l-0.2,0H256l-0.3,0l-0.2,0l-0.2,0l-0.2,0l-0.2,0.1l-0.2,0.1l-0.2,0.1l-0.1,0.1l-0.1,0.1
			l-0.1,0.2l-0.1,0.2l-0.1,0.3l-0.1,0.3l0,0.4l0,0.4l0,0.5v0.5v1.9v0.6l0,0.5l0,0.4l0.1,0.3v0.1l0,0.1l0,0.1l0,0.1l0.1,0.2l0.1,0.1
			H252.1z M261.4,104.9l-0.9-0.1v-0.6l0.9-0.1l0.1-2.4l1.4-0.4l-0.1,2.9h1.6h0h0l0,0l0,0v0.1l0,0.1l0,0.1l0,0.1l-0.1,0.1l-0.1,0
			l-0.1,0l-0.1,0l-0.2,0.1l-0.3,0l-0.3,0l-0.4,0h-0.1l-0.1,5v0.1l0,0.4l0,0.4l0,0.2l0,0.1l0,0.1l0,0.1l0.1,0.1l0.1,0.1l0.1,0.1
			l0.1,0.1l0.1,0.1l0.1,0l0.1,0l0.1,0l0.2,0l0.1,0l0.1,0l0.1,0l0.3-0.2l0.3-0.2l-0.1,0.8l-0.2,0.2l-0.2,0.2l-0.2,0.2l-0.2,0.1
			l-0.2,0.1l-0.3,0.1l-0.3,0l-0.3,0l-0.2,0l-0.2,0l-0.2,0l-0.2-0.1l-0.1-0.1l-0.1-0.1l-0.1-0.1l-0.1-0.1l-0.1-0.2l-0.1-0.2l-0.1-0.2
			l0-0.2l0-0.2l0-0.3l0-0.3v-0.3v-0.1L261.4,104.9z M267.6,106.6h0.2h0.1h0.3h0.2h0.2h0.2h0.2h0.3h0.5h0.4l0.3,0l0.2,0l0.1,0l0.1,0
			l0.1-0.1l0,0l0-0.1l0-0.1l0-0.1V106l0-0.1l0-0.1l0-0.1l-0.1-0.1l0-0.1l-0.1-0.1l-0.1-0.1l-0.1-0.1l-0.1-0.1l-0.1-0.1l-0.1-0.1
			l-0.1-0.1l-0.1,0l-0.1,0l-0.2,0h-0.1h-0.2l-0.2,0l-0.2,0l-0.2,0l-0.2,0.1l-0.2,0.1l-0.2,0.1l-0.1,0.1l-0.1,0.2l-0.1,0.2l-0.1,0.2
			l-0.1,0.2l-0.1,0.2l-0.1,0.2l0,0.2L267.6,106.6z M272.6,110.6v0.2v0.2l0,0.2l-0.1,0.2l-0.1,0.2l-0.1,0.2l-0.2,0.2l-0.2,0.2
			l-0.2,0.1l-0.2,0.2l-0.2,0.1l-0.3,0.1l-0.2,0.1l-0.3,0.1l-0.3,0.1l-0.3,0l-0.3,0l-0.4,0l-0.4,0l-0.2,0l-0.2-0.1l-0.2,0l-0.2-0.1
			l-0.2-0.1l-0.2-0.1l-0.1-0.1l-0.2-0.1l-0.3-0.2l-0.3-0.3l-0.2-0.3l-0.2-0.4l-0.2-0.4l-0.1-0.4l-0.1-0.4l-0.1-0.4l0-0.5l0-0.5
			l0-0.5l0-0.5l0.1-0.4l0.1-0.4l0.1-0.2l0.1-0.2l0.1-0.2l0.1-0.2l0.2-0.3l0.3-0.3l0.1-0.1l0.1-0.1l0.1-0.1l0.1-0.1l0.2-0.1l0.2-0.1
			l0.2-0.1l0.2-0.1l0.2-0.1l0.2-0.1l0.2,0l0.2,0l0.4-0.1l0.5,0l0.3,0l0.3,0l0.3,0.1l0.3,0.1l0.3,0.1l0.2,0.1l0.2,0.2l0.2,0.2
			l0.2,0.2l0.1,0.2l0.1,0.2l0.1,0.2l0.1,0.2l0.1,0.3l0,0.2v0.3v0.1l0,0.1l0,0.1l0,0.1l-0.1,0.1l-0.1,0.1l-0.1,0.1l-0.1,0l-0.4,0.1
			l-0.6,0l-0.8,0h-1.1H269h-0.3l-0.3,0l-0.2,0h-0.2h-0.2h-0.2h-0.2l-0.1,0.3l-0.1,0.2v0.3v0.3v0.4l0,0.4l0,0.3l0.1,0.3l0.1,0.3
			l0.1,0.3l0.1,0.3l0.2,0.3l0.2,0.2l0.2,0.2l0.2,0.1l0.3,0.1l0.3,0.1l0.3,0.1l0.3,0l0.3,0h0.2l0.2,0l0.2,0l0.2,0l0.3-0.1l0.3-0.1
			l0.3-0.2l0.3-0.2l0.3-0.2L272.6,110.6z M274.3,112.7l0.1-0.1l0.1-0.2l0.1-0.2l0.1-0.2l0-0.3l0-0.4l0-0.5l0-0.6v-1.9v-0.6l0-0.9
			l0-0.7l0-0.6l0-0.4l-0.1-0.3l-0.1-0.2l-0.1-0.2l-0.1-0.1l0.2,0l0.2,0l0.2,0l0.3,0l0.4-0.1l0.2,0l0.1,0l0.1,0l0,0.1l0,0.1l0,0.1
			l0,0.1v0.2v0.2v0.2v0.2l0.3-0.3l0.2-0.3l0.2-0.3l0.2-0.2l0.1-0.1l0.1-0.1l0.1-0.1l0.1,0l0.3,0l0.3,0l0.3,0l0.2,0l0.2,0.1l0.1,0.1
			l0.1,0l0.1,0l0.1,0.1l0,0.1l0,0.1l0,0.2l0,0.1l0,0.1l0,0.1l0,0.1l-0.1,0l-0.1,0.1l-0.1,0l-0.2,0l-0.2,0l-0.3,0h-0.3h-0.2l-0.2,0
			l-0.2,0l-0.1,0l-0.1,0l-0.1,0.1l-0.1,0.1l-0.1,0.1l-0.1,0.1l0,0.1l-0.1,0.2l0,0.2l0,0.3l0,0.3l0,0.4l0,0.4l0,0.5l0,0.1l0,0.2
			l0,0.3l0,0.4v0.4v0.4v0.3v0.3v0.5v0.4l0,0.3l0,0.3l0.1,0.2l0.1,0.2l0.1,0.2l0.1,0.1H274.3z M280.3,112.7l0.1-0.1l0.1-0.2l0.1-0.2
			l0-0.2l0-0.3l0-0.4l0-0.5v-0.6v-1.9v-0.6v-0.9l0-0.7l0-0.6l0-0.4l0-0.3l-0.1-0.2l-0.1-0.2l-0.1-0.1l1.8-0.1v0.2v0.2l0,0.1l0,0.1
			v0.1v0.1v0.2l0.1-0.2l0.1-0.2l0.1-0.1l0.1-0.1l0.3-0.3l0.3-0.2l0.2-0.1l0.2-0.1l0.2-0.1l0.2,0l0.4,0l0.4,0l0.3,0l0.3,0l0.3,0.1
			l0.2,0.1l0.2,0.1l0.2,0.1l0.1,0.2l0.1,0.2l0.1,0.2l0.1,0.3l0.1,0.3l0.1,0.4l0,0.5l0,0.5l0,0.6v0.6v2v0.5l0,0.5l0,0.4l0,0.3
			l0.1,0.2v0.1l0,0.1l0,0.1l0,0.1l0.1,0.1l0.1,0.1h-1.9l0-0.6l0-0.5l0-0.5v-0.5v-0.6l0-0.6l0-0.7v-0.7v-0.5v-0.4l0-0.3l0-0.3l0-0.3
			l-0.1-0.2l-0.1-0.2l-0.1-0.2l-0.1-0.1l-0.1-0.1l-0.1-0.1l-0.1-0.1l-0.1,0l-0.2,0l-0.2,0h-0.2l-0.2,0l-0.2,0l-0.2,0l-0.2,0
			l-0.2,0.1l-0.2,0.1l-0.2,0.1l-0.1,0.1l-0.1,0.1l-0.1,0.2l-0.1,0.2l-0.1,0.3l-0.1,0.3l0,0.4l0,0.4l0,0.5v0.5v1.9v0.6v0.5l0,0.4
			l0,0.3l0.1,0.2l0.1,0.2l0,0.1l0.1,0.1l0.1,0.1l0.1,0H280.3z M293.4,108.1l-1,0.4l-0.8,0.4l-0.3,0.1l-0.3,0.1l-0.2,0.1l-0.2,0.1
			l-0.1,0.1l-0.1,0.1l-0.1,0.1l-0.1,0.1l-0.1,0.1l0,0.2l0,0.2v0.1v0.1l0,0.1l0,0.1l0,0.1l0.1,0.1l0.1,0.1l0.1,0.1l0.1,0.1l0.1,0.1
			l0.1,0.1l0.1,0.1l0.1,0.1l0.1,0l0.1,0l0.1,0l0.2,0l0.2,0l0.2,0l0.2-0.1l0.2-0.1l0.2-0.1l0.1-0.1l0.1-0.1l0.1-0.1l0.1-0.2l0.1-0.2
			l0.1-0.2l0.1-0.2l0-0.2l0-0.3l0-0.3v-0.3V108.1z M293.7,112.8l0-0.1l-0.1-0.1l-0.1-0.2l0-0.2l0-0.2l0-0.2l0-0.2l0-0.2l-0.1,0.2
			l-0.1,0.2l-0.1,0.2L293,112l-0.1,0.1l-0.1,0.1l-0.1,0.1l-0.1,0.1l-0.1,0.1l-0.2,0.1l-0.2,0.1l-0.2,0.1l-0.2,0l-0.2,0l-0.2,0h-0.2
			l-0.2,0l-0.2,0l-0.2,0l-0.2-0.1l-0.2-0.1l-0.2-0.1l-0.2-0.1l-0.2-0.1l-0.2-0.2L289,112l-0.1-0.2l-0.1-0.2l-0.1-0.2l0-0.2l0-0.2
			v-0.2v-0.2l0-0.2l0.1-0.2l0.1-0.2l0.1-0.2l0.1-0.1l0.1-0.1l0.1-0.1l0.2-0.1l0.2-0.1l0.3-0.2l0.3-0.2l0.4-0.2l0.4-0.2l0.4-0.2
			l0.5-0.2l0.3-0.1l0.3-0.1l0.2-0.1l0.2-0.1l0.3-0.2l0.2-0.2l0-0.1l0-0.1l0-0.1l0-0.1l0-0.3v-0.3v-0.2l0-0.2l0-0.2l0-0.2l-0.1-0.1
			l-0.1-0.1l-0.1-0.1L293,105l-0.1-0.1l-0.1-0.1l-0.1-0.1l-0.1-0.1l-0.2,0l-0.2,0l-0.2,0h-0.2l-0.2,0l-0.2,0l-0.2,0l-0.2,0.1
			l-0.1,0.1l-0.1,0.1l-0.1,0.1l-0.1,0.1l0,0.2l-0.1,0.3l-0.1,0.2l-0.1,0.2l-0.1,0.1l-0.1,0.1l-0.1,0.1l-0.1,0.1l-0.1,0l-0.1,0
			l-0.1,0l-0.1,0l-0.1-0.1l-0.1-0.1l-0.1-0.1l-0.1-0.1l0-0.1l0-0.2l0-0.2l0-0.2l0.1-0.2l0.1-0.1l0.1-0.1l0.2-0.1l0.2-0.1l0.2-0.1
			l0.3-0.1l0.3-0.1l0.3-0.1l0.3-0.1l0.3,0l0.4,0l0.4,0l0.4,0l0.3,0l0.3,0l0.3,0l0.3,0l0.2,0.1l0.2,0.1l0.2,0.1l0.1,0.1l0.1,0.1
			l0.1,0.1l0.1,0.1l0.1,0.2l0.1,0.2l0,0.2l0,0.2l0,0.2l0,0.1l0,0.3l0,0.4l0,0.5l0,0.6l0,0.6v0.6v0.6v0.7l0,0.6l0,0.5l0.1,0.4
			l0.1,0.4l0.1,0.3l0.1,0.1l0.1,0.1l0.1,0.1l0.1,0.1L293.7,112.8z M303.3,110.8v0.2l0,0.2l-0.1,0.2l-0.1,0.2l-0.1,0.2l-0.1,0.2
			l-0.1,0.1l-0.2,0.1l-0.2,0.1l-0.2,0.1l-0.2,0.1l-0.3,0.1l-0.3,0.1l-0.3,0l-0.3,0l-0.3,0l-0.4,0l-0.4-0.1l-0.2,0l-0.2-0.1l-0.2-0.1
			l-0.2-0.1l-0.2-0.1l-0.2-0.1l-0.2-0.1l-0.2-0.1l-0.1-0.1l-0.1-0.1l-0.1-0.1l-0.1-0.1l-0.3-0.3l-0.2-0.3l-0.2-0.4l-0.1-0.4
			l-0.1-0.4l-0.1-0.4l0-0.4l0-0.5l0-0.5l0-0.5l0-0.2l0.1-0.2l0-0.2l0.1-0.2l0.1-0.2l0.1-0.2l0.1-0.2l0.1-0.2l0.1-0.2l0.1-0.2
			l0.1-0.2l0.2-0.2l0.2-0.2l0.2-0.1l0.2-0.1l0.2-0.1l0.2-0.1l0.2-0.1l0.2-0.1l0.2-0.1l0.2-0.1l0.2-0.1l0.2-0.1l0.2,0l0.2,0l0.3,0
			l0.2,0h0.3h0.3l0.3,0l0.3,0l0.3,0h0.2l0.2,0l0.2,0l0.2,0.1l-0.1,2l-0.2-0.4l-0.2-0.3l-0.2-0.3l-0.2-0.2l-0.3-0.1l-0.3-0.1l-0.1,0
			l-0.1,0l-0.1,0H301h-0.3l-0.3,0.1l-0.3,0.1l-0.3,0.1l-0.3,0.1l-0.2,0.2l-0.2,0.2l-0.2,0.3l-0.2,0.3l-0.2,0.3l-0.1,0.3l-0.1,0.3
			l-0.1,0.4l-0.1,0.4l0,0.4l0,0.4l0,0.4l0,0.4l0.1,0.3l0.1,0.3l0.1,0.3l0.1,0.3l0.2,0.3l0.2,0.3l0.2,0.2l0.2,0.2l0.2,0.1l0.3,0.1
			l0.3,0.1l0.3,0.1l0.3,0l0.3,0h0.2l0.2,0l0.2,0l0.2,0l0.3-0.1l0.3-0.1l0.3-0.2l0.2-0.2l0.1-0.1l0.1-0.1l0.1-0.1L303.3,110.8z
			 M305.3,102.9l-0.8-1.3l1.4-0.9l0.8,1.3L305.3,102.9z M304.7,112.7l0.1-0.1l0.1-0.2l0.1-0.2l0.1-0.2l0-0.3l0-0.4l0-0.5v-0.6v-1.9
			v-1v-0.8l0-0.7l0-0.5l0-0.4l-0.1-0.3l-0.1-0.2l0-0.1l0-0.1l0-0.1l-0.1,0l0.3,0l0.2,0l0.2,0l0.2,0l0.3,0l0.2,0l0.2,0l0.2,0v0.3
			l0,0.3l0,0.5v0.5v0.3v0.4v0.4v0.4v0.5v0.5v0.5v0.6v1.1v0.6v0.5l0,0.4l0,0.3l0.1,0.2l0.1,0.2l0,0.1l0.1,0.1l0.1,0.1l0.1,0H304.7z
			 M312.3,104.7l-0.3,0l-0.3,0l-0.3,0.1l-0.2,0.1L311,105l-0.2,0.2l-0.2,0.2l-0.2,0.2l-0.1,0.2l-0.1,0.3l-0.1,0.3l-0.1,0.3l0,0.3
			l0,0.4l0,0.4l0,0.4l0,0.4l0,0.4l0.1,0.4l0.1,0.4l0.1,0.4l0.1,0.3l0.2,0.3l0.2,0.3l0.2,0.3l0.2,0.2l0.2,0.2l0.2,0.1l0.3,0.1
			l0.3,0.1l0.3,0l0.3,0l0.3,0l0.3,0l0.3-0.1l0.2-0.1l0.2-0.1l0.2-0.2l0.2-0.2l0.1-0.2l0.1-0.2l0.1-0.3l0.1-0.3l0.1-0.3l0.1-0.4
			l0.1-0.4l0-0.4v-0.4V108l0-0.4l0-0.4l-0.1-0.3l-0.1-0.3l-0.1-0.3l-0.1-0.3l-0.2-0.3l-0.2-0.3l-0.2-0.2l-0.2-0.2l-0.2-0.1l-0.2-0.1
			l-0.3-0.1l-0.3,0L312.3,104.7z M312.6,104l0.5,0l0.4,0l0.4,0.1l0.4,0.1l0.4,0.1l0.3,0.2l0.3,0.2l0.3,0.2l0.1,0.1l0.1,0.1l0.1,0.2
			l0.1,0.1l0.2,0.3l0.1,0.3l0.1,0.4l0.1,0.4l0,0.4l0,0.4l0,0.6l-0.1,0.5l-0.1,0.5l-0.1,0.5l-0.1,0.2l-0.1,0.2l-0.1,0.2l-0.1,0.2
			l-0.1,0.2l-0.1,0.2l-0.1,0.2l-0.1,0.2l-0.1,0.2l-0.1,0.1l-0.1,0.1l-0.2,0.1l-0.2,0.1l-0.2,0.1l-0.2,0.1l-0.2,0.1l-0.2,0.1
			l-0.2,0.1l-0.2,0.1l-0.2,0l-0.2,0l-0.2,0l-0.2,0h-0.2l-0.5,0l-0.4,0l-0.2,0l-0.2-0.1l-0.2,0l-0.2-0.1l-0.2-0.1l-0.2-0.1l-0.2-0.1
			l-0.1-0.1l-0.1-0.1l-0.1-0.1l-0.1-0.1l-0.1-0.1l-0.1-0.1l-0.1-0.1l-0.1-0.1l-0.1-0.2l-0.1-0.2l-0.1-0.2l-0.1-0.2l-0.1-0.2
			l-0.1-0.4l-0.1-0.4l0-0.5l0-0.5v-0.3l0-0.3l0-0.3l0-0.2l0-0.2l0-0.2l0.1-0.2l0.1-0.2l0.1-0.2l0.1-0.2l0.1-0.2l0.1-0.2l0.3-0.4
			l0.3-0.3l0.3-0.3l0.3-0.3l0.3-0.2l0.4-0.2l0.2-0.1l0.2-0.1l0.2-0.1l0.2,0l0.4-0.1L312.6,104z M317.9,112.7l0.1-0.1l0.1-0.2
			l0.1-0.2l0.1-0.2l0-0.3l0-0.4v-0.5l0-0.6v-1.9v-0.6l0-0.9v-0.7l0-0.6l0-0.4l-0.1-0.3l-0.1-0.2l-0.1-0.2l-0.1-0.1l1.8-0.1l0,0.2
			l0,0.2v0.2v0.3v0.2l0.1-0.2l0.1-0.2l0.1-0.1l0.1-0.1l0.2-0.1l0.2-0.1l0.1-0.1l0.2-0.1l0.2-0.1l0.2-0.1l0.2-0.1l0.2,0l0.4,0l0.4,0
			l0.3,0l0.3,0l0.2,0.1l0.2,0.1l0.2,0.1l0.2,0.1l0.1,0.2l0.1,0.2l0.1,0.1l0.1,0.1l0.1,0.1l0,0.2l0.1,0.3l0.1,0.4l0,0.5l0,0.5l0,0.6
			v0.6v2v0.5v0.5l0,0.4l0,0.3l0,0.2l0,0.2l0.1,0.1l0.1,0.1l0.1,0.1h-1.8v-0.6v-0.5l0-0.5l0-0.5v-0.6v-0.6v-0.7v-0.7v-0.5v-0.4l0-0.3
			l0-0.3l0-0.3l0-0.2l-0.1-0.2l-0.1-0.2l-0.1-0.1l-0.1-0.1l-0.1-0.1l-0.1-0.1l-0.1,0l-0.2,0l-0.2,0h-0.2l-0.2,0l-0.3,0l-0.3,0
			l-0.2,0l-0.2,0.1l-0.2,0.1l-0.2,0.1l-0.1,0.1l-0.1,0.1l-0.1,0.2l-0.1,0.2l-0.1,0.3l-0.1,0.3l0,0.4l0,0.4l0,0.5v0.5v1.9v0.6l0,0.5
			l0,0.4l0.1,0.3v0.1l0,0.1l0,0.1l0,0.1l0.1,0.2l0.1,0.1H317.9z M331,108.1l-1,0.4l-0.8,0.4l-0.3,0.1l-0.2,0.1l-0.2,0.1l-0.2,0.1
			l-0.1,0.1l-0.1,0.1l-0.1,0.1l-0.1,0.1l-0.1,0.1l0,0.2l0,0.2v0.1v0.1l0,0.1l0,0.1l0,0.1l0,0.1l0.1,0.1l0.1,0.1l0.1,0.1l0.1,0.1
			l0.1,0.1l0.1,0.1l0.1,0.1l0.1,0l0.2,0l0.1,0l0.2,0l0.2,0l0.2,0l0.2-0.1l0.2-0.1l0.2-0.1l0.1-0.1l0.1-0.1l0.1-0.1l0.1-0.2l0.1-0.2
			l0.1-0.2l0.1-0.2l0-0.2l0-0.3l0-0.3v-0.3V108.1z M331.3,112.8l-0.1-0.1l0-0.1l0-0.2l0-0.2l0-0.2l0-0.2v-0.2v-0.2l-0.2,0.4
			l-0.2,0.3l-0.1,0.1l-0.1,0.1l-0.1,0.1l-0.1,0.1l-0.2,0.1l-0.2,0.1l-0.2,0.1l-0.2,0.1l-0.2,0l-0.2,0l-0.2,0h-0.2l-0.2,0l-0.2,0
			l-0.2,0l-0.2-0.1l-0.2-0.1l-0.2-0.1l-0.2-0.1l-0.2-0.1l-0.1-0.2l-0.1-0.2l-0.1-0.2l-0.1-0.2l-0.1-0.2l-0.1-0.2l0-0.2l0-0.2l0-0.2
			l0-0.2l0.1-0.2l0.1-0.2l0.1-0.2l0.1-0.1l0.1-0.1l0.1-0.1l0.2-0.1l0.2-0.1l0.3-0.2l0.3-0.2l0.3-0.2l0.4-0.2l0.4-0.2l0.5-0.2
			l0.5-0.2l0.4-0.2l0.2-0.1l0.1-0.1l0.1-0.1l0.1-0.1l0.1-0.1l0.1-0.1l0.1-0.1l0-0.1l0-0.3l0-0.3l0-0.2l0-0.2l0-0.2l0-0.2l-0.1-0.1
			l-0.1-0.1l-0.1-0.1l-0.1-0.1l-0.1-0.1l-0.1-0.1l-0.1-0.1l-0.2-0.1l-0.1,0l-0.2,0l-0.2,0h-0.2l-0.2,0l-0.2,0l-0.2,0l-0.2,0.1
			l-0.1,0.1l-0.1,0.1l-0.1,0.1l-0.1,0.1l0,0.1l-0.1,0.1l-0.1,0.1l0,0.1l-0.1,0.2l-0.1,0.2l-0.1,0.1l-0.1,0.1l-0.1,0.1l-0.1,0.1
			l-0.1,0l-0.1,0l-0.1,0l-0.1,0l-0.1-0.1l-0.1-0.1l0-0.1l-0.1-0.1l0-0.1l0-0.2l0-0.2l0-0.2l0.1-0.2l0.1-0.1l0.1-0.1l0.2-0.1l0.2-0.1
			l0.2-0.1l0.3-0.1l0.3-0.1l0.3-0.1l0.3-0.1l0.3,0l0.4,0l0.4,0l0.4,0l0.3,0l0.3,0l0.3,0l0.2,0l0.2,0.1l0.2,0.1l0.2,0.1l0.1,0.1
			l0.1,0.1l0.1,0.1l0.1,0.1l0.1,0.2l0,0.2l0,0.2l0,0.2l0,0.2v0.1l0,0.3l0,0.4l0,0.5v0.6v0.6v0.6v0.6v0.7l0,0.6l0,0.3l0,0.2l0,0.2
			l0,0.2l0,0.2l0,0.2l0.1,0.1l0.1,0.1l0.1,0.1l0.1,0.1l0.1,0.1l0.1,0.1L331.3,112.8z M334.5,112.7L334.5,112.7l0.1-0.1l0-0.1
			l0.1-0.1l0.1-0.3l0.1-0.3l0-0.3l0-0.5v-0.6l0-0.8v-0.3v-0.3v-0.5v-0.5v-0.6V107v-0.5v-0.4v-2.9l0-0.9l0-0.8l0-0.6l0-0.4l0-0.2
			l0-0.2l0-0.1l0-0.1l0-0.1l0-0.1l-0.1,0l0,0l1.9-0.4l0,0.4l0,0.6v0.8v0.9v0.6v0.7v0.7v0.8v0.9v1v1v1.1v1.5v0.6v0.5l0,0.4l0,0.3
			l0.1,0.2l0.1,0.2l0.1,0.2l0.1,0.1H334.5z"/>
	</g>
	<g>
		<path class="st1" d="M157.2,77.9l-7.7,3.9l-3.9-7.6L138,78l-3.9-7.6l-7.7,3.9l-3.9-7.7l-7.7,3.9l-3.9-7.6l7.7-3.9l7.7-3.9l7.7-3.9
			l7.7-3.9l3.9,7.6l3.9,7.7l3.9,7.7L157.2,77.9z M53.6,23.6l3.9,7.7l7.7-3.9l3.9,7.7l7.7-3.9l3.9,7.6l7.6-3.9l3.9,7.6l-7.6,3.9
			l-7.7,3.9l-7.7,3.9l-7.6,3.9l-3.9-7.6l-3.9-7.7l-3.9-7.7l-3.9-7.6l-7.7,3.9l-3.9-7.7l-7.6,3.9L22.8,20l-7.7,3.9l-3.9-7.7l7.7-3.9
			l7.6-3.9l7.7-3.9l7.7-3.9l3.9,7.7l3.9,7.6L53.6,23.6z M0,27.8l7.7-3.9l3.9,7.7l7.7-3.9l3.9,7.6l7.7-3.9l3.9,7.6l7.6-3.9l3.9,7.7
			l-7.6,3.9l-7.7,3.9l-7.6,3.9l-7.7,3.9l-3.9-7.7l-3.9-7.6l-3.9-7.7L0,27.8z M64.5,78.5l-7.7,3.9L53,74.8l-7.7,3.9L41.4,71l-7.6,3.9
			l-3.9-7.7l-7.6,3.9l-3.9-7.6l7.7-3.9l7.7-3.9l7.6-3.9l7.7-3.9l3.9,7.7l3.9,7.7l3.9,7.6L64.5,78.5z M110.8,78.2l-7.7,3.9l-3.9-7.6
			l-7.6,3.8l-3.9-7.6l-7.7,3.9l-3.9-7.7l-7.6,3.9l-3.9-7.7l7.7-3.9l7.7-3.9l7.6-3.9l7.7-3.9l3.9,7.7l3.9,7.6l3.9,7.7L110.8,78.2z
			 M99.7,23l3.9,7.7l7.6-3.9l3.9,7.7l7.7-3.9l3.9,7.6l7.7-3.9l3.9,7.7l-7.6,3.9l-7.7,3.9l-7.7,3.9l-7.7,3.9l-3.9-7.6l-3.9-7.7
			l-3.9-7.7l-3.9-7.6l-7.7,3.9l-3.9-7.7L72.9,27l-3.9-7.7l-7.7,3.9l-3.9-7.7l7.7-3.9l7.6-3.9l7.7-3.9L88,0l3.9,7.7l3.9,7.6L99.7,23z
			 M148.7,30.7l-7.7,3.9l-3.9-7.6l-7.6,3.9l-3.9-7.7l-7.7,3.9l-3.9-7.7l-7.6,3.9l-3.9-7.7l7.7-3.9l7.7-3.9l7.6-3.9l7.7-3.9l3.9,7.6
			l3.9,7.7l3.9,7.6L148.7,30.7z"/>
		
			<rect x="17.9" y="38.6" transform="matrix(0.8914 -0.4532 0.4532 0.8914 -16.7227 14.228)" class="st2" width="6.9" height="6.9"/>
		<rect x="32.6" y="13.6" transform="matrix(0.8915 -0.453 0.453 0.8915 -3.8042 18.183)" class="st2" width="6.9" height="6.9"/>
		<polygon class="st2" points="68.8,37.1 62.6,40.2 65.7,46.3 71.9,43.2 		"/>
		<polygon class="st2" points="41.7,68.9 47.8,65.8 44.7,59.7 38.6,62.8 		"/>
		<polygon class="st2" points="80.7,21 86.8,17.9 83.7,11.8 77.6,14.9 		"/>
		<polyline class="st2" points="108.8,39.5 111.9,45.6 118,42.5 114.9,36.4 		"/>
		<rect x="86" y="60.5" transform="matrix(0.8915 -0.4531 0.4531 0.8915 -19.2788 47.4693)" class="st2" width="6.9" height="6.9"/>
		<polygon class="st2" points="134.3,68.3 140.4,65.2 137.3,59.1 131.2,62.2 		"/>
		<polygon class="st2" points="125.8,21.1 131.9,18 128.8,11.9 122.7,15 		"/>
		<path class="st0" d="M201.6,53.5h15.9L210,33.2L201.6,53.5z M184.1,78.3l0.4-0.5l0.5-0.6l0.4-0.6l0.4-0.6l0.9-1.2l0.9-1.3l0.9-1.4
			l0.9-1.5l0.9-1.5l0.9-1.6l0.4-0.8l0.5-0.8l0.5-0.9l0.5-0.9l0.5-0.9l0.5-0.9l0.5-1l0.5-1l0.5-1l0.5-1l0.5-1l0.5-1.1l0.5-1.1
			l0.5-1.1l0.5-1.1l0.5-1.2l0.8-1.9l0.8-1.9l0.7-1.8l0.7-1.8l0.7-1.7l0.6-1.7l0.6-1.6l0.5-1.6l0.5-1.5l0.4-1.3l0.4-1.1l0.3-1
			l0.2-0.8l0.2-0.7l0.1-0.3l0-0.3l0-0.2l0-0.2l0-0.3l0-0.3l0-0.3l0-0.3l-0.1-0.3l-0.1-0.3l-0.1-0.3l-0.1-0.3h9.7l0.7,2.4l0.7,2.3
			l0.7,2.3l0.7,2.2l0.7,2.2l0.7,2.1l0.7,2.1l0.7,2l0.7,2l0.7,1.9l0.7,1.9l0.7,1.8l0.7,1.8l0.6,1.7l0.6,1.7l0.6,1.6l0.7,1.6l0.6,1.5
			l0.6,1.5l0.6,1.4l0.6,1.4l0.6,1.3l0.6,1.2l0.5,1.2l0.5,1.1l0.5,1.1l0.5,1l0.5,0.9l0.5,0.9l0.5,0.8l0.5,0.7l0.5,0.7h-8.6l-7.9-21.9
			h-18.3l-3.4,8.3l-0.1,0.2l-0.4,0.9l-0.4,0.9l-0.3,0.9l-0.3,0.8l-0.3,0.8L195,70l-0.2,0.7l-0.2,0.7l-0.2,0.7l-0.1,0.6l-0.1,0.6
			l-0.1,0.6l-0.1,0.5l-0.1,0.5l0,0.5l0,0.4v0.3l0,0.3l0,0.3l0,0.3l0,0.3l0.1,0.3l0.1,0.3l0.1,0.3H184.1z M238.7,78.3l0.1-0.2
			l0.1-0.2l0.1-0.2l0.1-0.2l0.1-0.3l0.1-0.3l0.1-0.3l0.1-0.3l0.2-0.7l0.2-0.8l0.1-0.9l0.1-1l0.1-0.6l0-0.6l0-0.7l0-0.8l0-0.9l0-0.9
			l0-1l0-1.1l0-1.1l0-1.2l0-1.3l0-1.4V60l0-1.5v-1.6v-1.7v-3.1v-1.8v-1.7l0-1.6v-1.6l0-1.5l0-1.4l0-1.3l0-1.2l0-1.1l0-1.1l0-1l0-0.9
			l0-0.8l0-0.7l0-0.6l-0.1-0.5l-0.1-1l-0.1-0.9l-0.2-0.8l-0.2-0.7l-0.1-0.3l-0.1-0.3l-0.1-0.3l-0.1-0.3l-0.1-0.2l-0.1-0.2l-0.1-0.2
			l-0.1-0.2h2.5h0.9l1,0l1,0l1.1,0l1.1,0l1.2-0.1l1.2-0.1l1.3-0.1l1.2-0.1l1.1-0.1l1,0l0.9,0l0.8,0l0.7,0h0.6h0.5h0.9l0.9,0l0.8,0.1
			l0.8,0.1l0.8,0.1l0.8,0.1l0.7,0.2l0.7,0.2l0.7,0.2l0.6,0.3l0.6,0.3l0.6,0.3l0.6,0.3l0.5,0.4l0.5,0.4l0.5,0.4l0.4,0.4l0.4,0.5
			l0.4,0.5l0.4,0.5l0.3,0.6l0.3,0.6l0.3,0.6l0.3,0.6l0.2,0.7l0.2,0.7l0.2,0.7l0.1,0.7l0.1,0.7l0.1,0.8l0,0.8l0,0.8l0,0.9l0,0.8
			l-0.1,0.8l-0.1,0.8l-0.1,0.8l-0.2,0.8l-0.2,0.8l-0.2,0.7l-0.3,0.7l-0.3,0.7l-0.3,0.7l-0.4,0.6l-0.4,0.6l-0.4,0.6l-0.5,0.6
			l-0.5,0.6l-0.5,0.5l-0.5,0.5l-0.6,0.5l-0.6,0.4l-0.6,0.4l-0.6,0.4l-0.6,0.3l-0.7,0.3l-0.7,0.3l-0.7,0.2l-0.7,0.2l-0.7,0.1
			l-0.7,0.1l-0.8,0.1l-0.8,0l-0.8,0h-0.6l-0.5,0l-0.5,0l-0.5-0.1l-0.5-0.1l-0.5-0.1l-0.5-0.1l-0.5-0.1l-0.5-0.1l-0.5-0.1l-0.5-0.1
			l-0.5-0.1l-0.4-0.2l-0.4-0.2l-0.4-0.2l-0.4-0.2h0.8h0.8l0.8,0l0.7-0.1l0.7-0.1l0.7-0.1l0.7-0.1l0.7-0.2l0.6-0.2l0.6-0.2l0.6-0.3
			l0.6-0.3l0.6-0.3l0.5-0.3l0.5-0.4l0.5-0.4l0.5-0.4l0.4-0.5l0.4-0.5l0.4-0.5l0.4-0.5l0.3-0.5l0.3-0.6l0.3-0.6l0.2-0.6l0.2-0.7
			l0.2-0.7l0.2-0.7l0.1-0.7l0.1-0.7l0.1-0.8l0.1-0.8v-0.8v-0.7l0-0.6l0-0.6l-0.1-0.6l-0.1-0.6l-0.1-0.5l-0.1-0.5l-0.1-0.5l-0.2-0.5
			l-0.2-0.5l-0.2-0.5l-0.2-0.4l-0.3-0.4l-0.3-0.4l-0.3-0.4l-0.3-0.3l-0.3-0.3l-0.4-0.3l-0.4-0.3l-0.4-0.3l-0.4-0.2l-0.4-0.2
			l-0.5-0.2L258,31l-0.5-0.2l-0.5-0.1l-0.5-0.1l-0.6-0.1l-0.6-0.1l-0.6-0.1l-0.6,0l-0.7,0h-0.7l-0.7,0l-0.7,0l-0.7,0l-0.6,0.1
			l-0.6,0l-0.6,0.1l-0.6,0.1l-0.1,0.5l-0.1,0.6l-0.1,0.8l-0.1,0.9l-0.1,1l-0.1,1.1l0,1.3l0,1.4l0,0.8l0,0.8l0,0.8l0,0.8l0,0.9l0,0.9
			l0,0.9v1l0,1v1l0,1.1v1.1l0,1.1v1.2v1.2v1.2v1.8v1.7l0,1.7v1.6l0,1.5l0,1.4l0,1.3l0,1.2l0,1.1l0,1.1l0,1l0,0.9l0,0.8l0,0.7l0,0.6
			l0.1,0.5l0.1,1l0.1,0.9l0.2,0.8l0.2,0.7l0.1,0.3l0.1,0.3l0.1,0.3l0.1,0.3l0.1,0.2l0.1,0.2l0.1,0.2l0.1,0.2H238.7z M314.5,27.9
			l-0.4,10.8l-0.2-0.5l-0.2-0.5l-0.2-0.5l-0.3-0.5l-0.3-0.4l-0.3-0.4l-0.3-0.4l-0.3-0.4l-0.3-0.4l-0.3-0.4l-0.3-0.3l-0.3-0.3
			l-0.4-0.3l-0.4-0.3l-0.4-0.3l-0.4-0.3l-0.4-0.3l-0.4-0.2l-0.4-0.2l-0.4-0.2l-0.4-0.2l-0.4-0.2l-0.5-0.1L306,31l-0.5-0.1l-0.5-0.1
			l-0.5-0.1l-0.5-0.1l-0.5-0.1l-0.5,0l-0.5,0h-0.5h-0.5l-0.5,0l-0.5,0l-0.5,0l-0.5,0l-0.5,0.1l-0.5,0.1l-0.5,0.1l-0.5,0.1L297,31
			l-0.4,0.1l-0.4,0.1l-0.4,0.1l-0.4,0.1l-0.4,0.2l-0.4,0.2L294,32l-0.4,0.2l-0.4,0.2l-0.4,0.2l-0.4,0.2l-0.4,0.2l-0.4,0.3l-0.4,0.3
			l-0.4,0.3l-0.3,0.3l-0.4,0.3l-0.3,0.3l-0.3,0.3l-0.3,0.3l-0.3,0.3l-0.3,0.3l-0.3,0.4l-0.3,0.4l-0.3,0.4l-0.3,0.4l-0.3,0.4
			l-0.3,0.4l-0.2,0.4l-0.2,0.4l-0.2,0.4l-0.2,0.4l-0.2,0.4l-0.2,0.4l-0.2,0.4l-0.2,0.5l-0.1,0.5l-0.2,0.5l-0.1,0.5l-0.1,0.5
			l-0.1,0.5l-0.1,0.5l-0.1,0.5l-0.1,0.5l-0.1,0.5l-0.1,0.5l-0.1,1.1l-0.1,1.1l0,1.2l0,1.2V52l0,0.6l0,0.6l0,0.6l0,0.6L284,55
			l0.1,0.6l0.1,0.6l0.1,0.6l0.1,0.5l0.1,0.5l0.1,0.5l0.1,0.5l0.1,0.5l0.1,0.5l0.1,0.5l0.2,0.5l0.2,0.5l0.2,0.5l0.2,0.5l0.2,0.5
			l0.2,0.5l0.2,0.4l0.2,0.4l0.3,0.4l0.3,0.4l0.3,0.4l0.3,0.4l0.3,0.4l0.3,0.4l0.3,0.4l0.3,0.4l0.3,0.4l0.3,0.4l0.4,0.3l0.4,0.3
			l0.4,0.3l0.4,0.3l0.4,0.3L292,70l0.4,0.3l0.4,0.3l0.4,0.3l0.4,0.2l0.4,0.2l0.4,0.2l0.4,0.2l0.4,0.2l0.5,0.2l0.4,0.2l0.5,0.2
			l0.5,0.1l0.5,0.1l0.5,0.1l0.5,0.1l0.5,0.1l0.5,0.1l0.5,0.1l0.5,0.1l0.5,0l0.5,0l0.5,0l0.6,0h0.5h0.5l0.5,0l0.5,0l0.5,0l0.5-0.1
			l0.5-0.1l0.5-0.1l0.5-0.1l0.5-0.1l0.5-0.1l0.5-0.1l0.5-0.1l0.5-0.2l0.5-0.2l0.5-0.2l0.4-0.2l0.5-0.2l0.4-0.2l0.4-0.2l0.4-0.2
			l0.4-0.3l0.4-0.2l0.4-0.3l0.4-0.3l0.4-0.3l0.4-0.3l0.4-0.3l0.4-0.3l0.4-0.3l0.4-0.4l0.3-0.4l0.4-0.4l-0.2,0.7l-0.2,0.7l-0.2,0.7
			l-0.3,0.6l-0.3,0.6l-0.3,0.6l-0.4,0.6l-0.4,0.5l-0.4,0.5l-0.4,0.5l-0.5,0.5l-0.5,0.5l-0.5,0.5l-0.5,0.4l-0.6,0.4l-0.6,0.4
			l-0.6,0.4l-0.6,0.4l-0.7,0.3l-0.7,0.3l-0.7,0.3l-0.7,0.3l-0.7,0.2l-0.7,0.2l-0.7,0.2l-0.7,0.2l-0.8,0.1l-0.8,0.1l-0.8,0.1
			l-0.8,0.1l-0.8,0l-0.8,0l-0.6,0l-0.7,0l-0.6,0l-0.6-0.1l-0.6-0.1l-0.6-0.1l-0.6-0.1l-0.6-0.1l-0.6-0.1l-0.6-0.1l-0.6-0.1l-0.6-0.1
			l-0.5-0.2l-0.5-0.2l-0.6-0.2l-0.5-0.2l-0.5-0.2l-0.5-0.2l-0.5-0.3l-0.5-0.3l-0.5-0.3l-0.5-0.3l-0.5-0.3l-0.5-0.3l-0.5-0.3
			l-0.5-0.4l-0.5-0.4l-0.4-0.4l-0.4-0.4l-0.4-0.4l-0.4-0.4l-0.4-0.4l-0.4-0.5l-0.4-0.4l-0.4-0.5l-0.4-0.5l-0.4-0.5l-0.3-0.5
			l-0.3-0.5l-0.3-0.5l-0.3-0.5l-0.3-0.5l-0.3-0.5l-0.3-0.5l-0.3-0.5l-0.2-0.5l-0.2-0.6l-0.2-0.6l-0.2-0.6l-0.2-0.6l-0.2-0.6
			l-0.2-0.6l-0.1-0.6l-0.1-0.6l-0.1-0.6l-0.1-0.6l-0.1-0.7l-0.1-0.7l-0.1-0.7l-0.1-0.7l0-0.7l0-0.7l0-0.7v-0.7v-0.8l0-0.8l0-0.8
			l0-0.7l0.1-0.7l0.1-0.7l0.1-0.7l0.1-0.7l0.1-0.7l0.2-0.7l0.1-0.7l0.2-0.7l0.2-0.6l0.2-0.7l0.2-0.6l0.2-0.6l0.2-0.6l0.2-0.6
			l0.3-0.6l0.3-0.6l0.3-0.6l0.3-0.5l0.3-0.5l0.3-0.5l0.3-0.5l0.4-0.5l0.4-0.5l0.4-0.5l0.4-0.5l0.4-0.5l0.4-0.5l0.4-0.5l0.5-0.4
			l0.4-0.4l0.5-0.4l0.5-0.4l0.5-0.4l0.5-0.4l0.5-0.4l0.5-0.3l0.5-0.3l0.6-0.3l0.5-0.3l0.6-0.3l0.6-0.3l0.6-0.3L291,29l0.6-0.2
			l0.6-0.2l0.6-0.2l0.6-0.2l0.7-0.2l0.7-0.2l0.7-0.1l0.7-0.1l0.7-0.1l0.7-0.1l0.7-0.1l0.7-0.1l0.7-0.1l0.8,0l0.8,0l0.8,0h0.8h0.5
			l0.6,0l0.7,0l0.7,0.1l0.8,0.1l0.8,0.1l0.9,0.1l1,0.1l0.9,0.1l0.9,0.1l0.8,0.1l0.8,0.1l0.7,0l0.7,0l0.6,0H314.5z M324.3,78.3
			l0.1-0.2l0.1-0.2l0.1-0.2l0.1-0.2l0.1-0.3l0.1-0.3l0.1-0.3l0.1-0.3l0.2-0.7l0.2-0.8l0.1-0.9l0.1-1l0.1-0.6l0-0.6l0.1-0.7l0-0.8
			l0-0.9l0-0.9l0-1l0-1.1l0-1.1l0-1.2l0-1.3l0-1.4l0-1.5v-1.5v-1.6v-1.7v-3.1v-1.8v-1.7v-1.6l0-1.6l0-1.5l0-1.4l0-1.3l0-1.2l0-1.1
			l0-1.1l0-1l0-0.9l0-0.8l-0.1-0.7l0-0.6l-0.1-0.5l-0.1-1l-0.1-0.9l-0.2-0.8l-0.2-0.7l-0.1-0.3l-0.1-0.3l-0.1-0.3l-0.1-0.3l-0.1-0.2
			l-0.1-0.2l-0.1-0.2l-0.1-0.2H335l-0.1,0.1l-0.1,0.2l-0.1,0.2l-0.1,0.2l-0.1,0.2l-0.1,0.3l-0.1,0.3l-0.1,0.3L334,30l-0.1,0.4
			l-0.1,0.4l-0.1,0.4l-0.1,0.9l-0.1,1l0,0.5l-0.1,0.6l0,0.7l0,0.7l0,0.8l0,0.9l0,0.9l0,1l0,1.1l0,1.2v1.2l0,1.3l0,1.4v1.5v1.5V50
			v3.1v3v1.6v1.5v1.5l0,1.4l0,1.3v1.2l0,1.2l0,1.1l0,1l0,1l0,0.9l0,0.8l0,0.8l0,0.7l0.1,0.6l0,0.5l0.1,1l0.1,0.9l0.1,0.4l0.1,0.4
			l0.1,0.4l0.1,0.3l0.1,0.3l0.1,0.3l0.1,0.3l0.1,0.2l0.1,0.2l0.1,0.2l0.1,0.2l0.1,0.1H324.3z"/>
	</g>
</g>
</svg>
