<?xml version="1.0" encoding="utf-8"?>
<!-- Generator: Adobe Illustrator 24.2.3, SVG Export Plug-In . SVG Version: 6.00 Build 0)  -->
<svg version="1.1" id="Capa_1" xmlns="http://www.w3.org/2000/svg" xmlns:xlink="http://www.w3.org/1999/xlink" x="0px" y="0px"
	 viewBox="0 0 331.8 108.2" style="enable-background:new 0 0 331.8 108.2;" xml:space="preserve">
<style type="text/css">
	.st0{fill-rule:evenodd;clip-rule:evenodd;fill:#1B4379;}
	.st1{fill:#1B4379;}
</style>
<path class="st0" d="M4.6,102.8h3.9l-1.8-4.9L4.6,102.8z M0.4,108.8l0.2-0.3l0.2-0.3l0.2-0.3l0.2-0.3l0.2-0.4l0.2-0.4l0.2-0.4
	l0.2-0.4l0.2-0.4l0.2-0.4l0.2-0.4l0.2-0.5l0.2-0.5l0.2-0.5l0.2-0.5l0.2-0.5l0.2-0.5l0.2-0.5l0.2-0.4l0.2-0.4l0.1-0.4L5,99.8l0.1-0.4
	L5.3,99l0.2-0.7l0.1-0.5l0.1-0.4l0.1-0.2v-0.1v-0.1V97v-0.1v-0.1v-0.1v-0.1h2.3l0.4,1.1l0.3,1.1l0.4,1l0.3,1l0.3,0.9l0.3,0.9
	l0.3,0.8l0.3,0.8l0.3,0.8l0.3,0.7l0.3,0.7L12,107l0.2,0.5l0.2,0.5l0.2,0.4l0.2,0.3h-2.1l-2-5.3H4.5l-0.8,2l-0.3,0.9l-0.3,0.7
	L3,107.4l-0.1,0.3v0.2v0.4v0.1v0.1v0.1v0.1v0.1v0.1L0.4,108.8z M16.2,108.5l-0.6,0.4l-0.5,0.4l-0.2,0.2l-0.2,0.2l-0.2,0.2l-0.1,0.2
	l-0.1,0.1l-0.1,0.2l-0.1,0.2l-0.1,0.1l-0.1,0.2v0.1v0.1v0.4v0.2l0.1,0.2l0.1,0.2l0.1,0.2l0.2,0.2l0.2,0.2l0.2,0.2l0.2,0.1l0.2,0.1
	l0.2,0.1l0.3,0.1h0.3h0.3h0.3h0.6h0.3h0.2l0.2-0.1l0.2-0.1l0.2-0.1l0.2-0.1l0.2-0.2l0.2-0.2l0.1-0.2l0.1-0.2l0.1-0.2l0.1-0.2
	l0.1-0.2V111v-0.2v-0.2v-0.2l-0.1-0.2l0-0.2l-0.1-0.2l-0.1-0.1l-0.1-0.1l-0.2-0.1l-0.2-0.1l-0.2-0.1l-0.3-0.1l-0.3-0.1l-0.4-0.1
	l-0.4-0.1l-0.5-0.1L16.2,108.5z M18.3,102.9v-0.2v-0.2v-0.2V102l-0.1-0.2l-0.1-0.2l-0.1-0.2l-0.1-0.2l-0.1-0.1l-0.1-0.1l-0.1-0.1
	l-0.1-0.1l-0.1-0.1h-0.1h-0.1h-0.2h-0.3h-0.2h-0.1h-0.1l-0.1,0.1l-0.1,0.1l-0.1,0.1l-0.1,0.1l-0.1,0.1l-0.1,0.1l-0.1,0.1l-0.1,0.2
	v0.2v0.2v0.2v0.4v0.2v0.2v0.2l0.1,0.2l0.1,0.2l0.1,0.2l0.1,0.2l0.1,0.1l0.1,0.1l0.1,0.1l0.1,0.1l0.1,0.1h0.1h0.2h0.3h0.1h0.1
	l0.1-0.1l0.1-0.1l0.1-0.1l0.1-0.1l0.1-0.1L18,104l0.1-0.1l0.1-0.1l0.1-0.1v-0.2v-0.2V103L18.3,102.9z M18.7,100.4h1H20h0.2h0.1v0.4
	l-0.1,0.1h-0.1l-0.1,0.1h-0.1h-0.6l0.1,0.2l0.1,0.2l0.1,0.2l0.1,0.2l0.1,0.2v0.2v0.2v0.2v0.2v0.2l-0.1,0.2l-0.1,0.2l-0.1,0.2
	l-0.1,0.2l-0.1,0.2l-0.2,0.2l-0.2,0.2l-0.2,0.2l-0.2,0.1l-0.3,0.1l-0.3,0.1l-0.3,0.1l-0.3,0.1l-0.3,0.1l-0.4,0.2l-0.4,0.2l-0.3,0.2
	l-0.2,0.2l-0.2,0.1l-0.1,0.2v0.1v0.1v0.1v0.1l0,0v0.1l0.1,0.1l0.2,0.1l0.2,0.1l0.3,0.1l0.4,0.1l0.5,0.1l0.6,0.1h0.2h0.1l0.5,0.1
	l0.5,0.1l0.4,0.1l0.4,0.1l0.3,0.1l0.3,0.1l0.2,0.1l0.2,0.1l0.2,0.1l0.2,0.2l0.1,0.2l0.1,0.2l0.1,0.2l0.1,0.2v0.2v0.2v0.2v0.2
	l-0.1,0.2l-0.1,0.2l-0.1,0.2l-0.1,0.2l-0.1,0.2l-0.1,0.2l-0.1,0.1l-0.1,0.1l-0.2,0.2l-0.2,0.2l-0.2,0.2l-0.3,0.2l-0.3,0.2l-0.4,0.2
	l0,0l0,0h-0.1l-0.1,0l-0.4,0.2l-0.4,0.2l-0.4,0.2l-0.4,0.1l-0.4,0.1l-0.3,0.1l-0.3,0.1h-0.6h-0.3l-0.3-0.1l-0.3-0.1l-0.3-0.1
	l-0.3-0.1l-0.2-0.1l-0.2-0.2l-0.2-0.2l-0.2-0.2l-0.1-0.2l-0.1-0.2l-0.1-0.2l-0.1-0.2v-0.2v-0.2v-0.2v-0.1v-0.2l0.1-0.1l0.1-0.2
	l0.1-0.2l0.1-0.2l0.1-0.2l0.3-0.4l0.3-0.4l0.4-0.4l0.5-0.4l0.2-0.2l0.2-0.2l0.2-0.2l0.2-0.2l-0.5-0.1l-0.4-0.1l-0.2-0.1l-0.1-0.1
	l-0.1-0.1l-0.1-0.1l-0.1-0.1l-0.1-0.1l-0.1-0.1v-0.1v-0.1V107v-0.1v-0.1v-0.1v-0.1l0.1-0.1l0.1-0.1l0.1-0.1l0.2-0.1l0.2-0.1l0.2-0.1
	l0.4-0.2l0.3-0.2l0.3-0.2l0.2-0.2h-0.2l-0.2-0.1l-0.2-0.1l-0.2-0.1l-0.2-0.1l-0.2-0.1l-0.1-0.1l-0.1-0.1l-0.1-0.2l-0.1-0.2l-0.1-0.2
	l-0.1-0.2l-0.1-0.2l-0.1-0.2v-0.2v-0.5v-0.3l0.1-0.3l0.1-0.2l0.1-0.2l0.2-0.2l0.2-0.2l0.2-0.2l0.2-0.2l0.2-0.2l0.3-0.1l0.3-0.1
	l0.3-0.1l0.3-0.1H17h0.4h0.2h0.2h0.2h0.2h0.2l0.2,0.1l0.2,0.1L18.7,100.4z M23.6,102.8h2.3h0.5h0.2h0.1h0.1h0.1l0.1-0.1l0.1-0.1
	v-0.1v-0.1v-0.1v-0.1v-0.1v-0.1v-0.1l-0.1-0.1l-0.1-0.1l-0.1-0.1l-0.1-0.1l-0.1-0.1l-0.1-0.1l-0.1-0.1l-0.1-0.1l-0.1-0.1L26,101
	h-0.1h-0.1h-0.4h-0.2L25,101l-0.2,0.1l-0.2,0.1l-0.1,0.1l-0.1,0.1l-0.1,0.1l-0.1,0.1l-0.1,0.2l-0.1,0.2l-0.1,0.2l-0.1,0.2l-0.1,0.2
	L23.6,102.8L23.6,102.8z M28.6,106.8v0.2v0.2v0.2l-0.1,0.2l-0.1,0.2l-0.1,0.2l-0.1,0.2l-0.2,0.2l-0.2,0.1l-0.2,0.2l-0.2,0.1
	l-0.2,0.1l-0.3,0.1l-0.3,0.1l-0.3,0.1h-0.3h-0.3h-0.4h-0.4h-0.2l-0.2-0.1h-0.2l-0.2-0.1l-0.2-0.1l-0.1-0.1l-0.2-0.1l-0.1-0.1
	l-0.1-0.1l-0.1-0.1l-0.1-0.1l-0.1-0.1l-0.2-0.3l-0.2-0.3l-0.2-0.4l-0.1-0.4l-0.1-0.4l-0.1-0.4v-0.5v-0.5v-0.5v-0.5l0.1-0.4l0.1-0.4
	l0.1-0.2l0.1-0.2l0.1-0.2l0.1-0.2l0.2-0.3l0.2-0.3l0.3-0.3l0.3-0.2l0.2-0.1l0.2-0.1l0.2-0.1l0.2-0.1l0.2-0.1l0.2-0.1l0.2-0.1H25h0.2
	h0.2h0.2h0.2h0.3h0.3l0.3,0.1l0.3,0.1l0.3,0.1l0.2,0.1l0.2,0.2l0.2,0.2l0.2,0.2l0.2,0.2l0.1,0.2l0.1,0.2l0.1,0.2l0.1,0.2v0.2v0.3
	v0.1v0.1v0.1l-0.1,0.1l-0.2,0.1l-0.2,0.1l-0.4,0.1h-0.6h-0.8h-2.4h-0.2h-0.2h-0.2l-0.1,0.3v1.2v0.4v0.4l0.1,0.3l0.1,0.3l0.1,0.3
	l0.1,0.3l0.2,0.2l0.2,0.2l0.2,0.2l0.2,0.2l0.2,0.1l0.2,0.1l0.3,0.1h0.3h0.3h0.3h0.3H27h0.2l0.2-0.1l0.1-0.1l0.3-0.2l0.3-0.2l0.3-0.2
	L28.6,106.8z M30.2,108.8L30.2,108.8L30.2,108.8L30.2,108.8v-0.1l0.1-0.2l0.1-0.2v-0.3v-0.4v-5.2v-0.6v-0.4l-0.1-0.2l-0.1-0.2v-0.1
	v-0.1v-0.1v0l1.7-0.2l0.1,0.2v0.2v0.7l0.3-0.3l0.3-0.3l0.2-0.1l0.1-0.1l0.2-0.1l0.2-0.1l0.3-0.2l0.3-0.1h0.2h0.2h0.2h0.2H35h0.3
	l0.3,0.1l0.2,0.1l0.2,0.1l0.2,0.1l0.1,0.2l0.1,0.2l0.1,0.1l0.1,0.1l0.1,0.1l0.1,0.1l0.1,0.4l0.1,0.4l0.1,0.5v0.5v0.6v3.9v0.3v0.2
	l0.1,0.2l0.1,0.1l0.1,0.1l0.1,0.1h-1.8v-0.5v-0.5v-0.6v-0.6v-3v-0.4V103v-0.3v-0.3l-0.1-0.2l-0.1-0.2v-0.2l-0.1-0.1l-0.1-0.1
	l-0.1-0.1l-0.1-0.1l-0.1-0.1l-0.2-0.1h-0.2H34h-0.4h-0.2l-0.2,0l-0.2,0.1l-0.2,0.1l-0.2,0.1l-0.1,0.1l-0.1,0.1l-0.1,0.2l-0.1,0.2
	l-0.1,0.2l-0.1,0.3v0.4v0.4v0.5v0.5v1.8v0.6v0.5l0.1,0.4v0.3v0.1v0.1v0.1l0.1,0.1v0.1l0,0v0.1h0.1L30.2,108.8z M45.4,106.9
	L45.4,106.9v0.3v0.2l-0.1,0.2l-0.1,0.2l-0.1,0.2l-0.1,0.2l-0.1,0.1l-0.2,0.1l-0.2,0.1l-0.2,0.1l-0.2,0.1l-0.2,0.1l-0.2,0.1h-0.3
	h-0.3h-0.3h-0.4h-0.4l-0.4-0.1l-0.4-0.1l-0.2-0.1l-0.2-0.1l-0.2-0.1l-0.1-0.1l-0.2-0.1l-0.1-0.1l-0.1-0.1l-0.1-0.1l-0.1-0.1
	l-0.1-0.2l-0.1-0.2l-0.1-0.2l-0.2-0.4l-0.2-0.4l-0.1-0.4l-0.1-0.4l-0.1-0.4v-0.5v-0.2v-0.2v-0.2v-0.2v-0.2l0.1-0.2l0.1-0.2l0.1-0.2
	l0.1-0.2l0.1-0.2l0.1-0.2l0.1-0.2l0.2-0.4l0.3-0.3l0.1-0.2l0.2-0.1l0.2-0.1l0.2-0.1l0.2-0.1l0.2-0.1l0.2-0.1l0.2-0.1l0.2-0.1
	l0.2-0.1l0.2-0.1h0.2h0.2h0.2h0.2h0.5h0.3h0.2h0.2h0.2h0.2h0.2l0.2,0.1l-0.1,2l-0.1-0.2l-0.1-0.2l-0.1-0.2l-0.1-0.2l-0.1-0.1
	l-0.1-0.1l-0.1-0.1l-0.1-0.1l-0.1-0.1l-0.1-0.1l-0.1-0.1l-0.1-0.1l-0.1-0.1h-0.1h-0.2h-0.5l-0.3,0.1l-0.3,0.1l-0.3,0.1l-0.2,0.1
	l-0.3,0.2l-0.2,0.2l-0.2,0.2l-0.2,0.3l-0.1,0.3l-0.1,0.3l-0.1,0.3l-0.1,0.3l-0.1,0.4v0.4v0.8v0.4l0.1,0.3l0.1,0.3l0.1,0.3l0.1,0.3
	l0.1,0.3L41,107l0.2,0.2l0.2,0.2l0.3,0.1l0.2,0.1l0.2,0.1l0.3,0.1h0.3H43h0.4h0.4h0.2h0.2l0.1-0.1l0.2-0.1l0.3-0.2l0.3-0.2l0.1-0.1
	l0.1-0.1l0.1-0.1L45.4,106.9z M47.4,99l-0.8-1.3l1.4-0.9l0.8,1.3L47.4,99z M46.7,108.8L46.7,108.8L46.7,108.8L46.7,108.8v-0.1
	l0.1-0.2l0.1-0.2v-0.3v-0.4V102v-0.5v-0.4l-0.1-0.2l-0.1-0.2v-0.1v-0.1v-0.1l0,0H47h0.2h0.2h0.2H48h0.2h0.2l0.2-0.1v0.3v0.4v0.5v0.5
	v4.7v0.6v0.5v0.4v0.3l0.1,0.2l0.1,0.2l0.1,0.2l0.1,0.1L46.7,108.8z M55,104.2l-1,0.4l-0.8,0.4l-0.3,0.1l-0.3,0.1l-0.2,0.1l-0.2,0.1
	l-0.1,0.1l-0.1,0.1l-0.1,0.1l-0.1,0.1l-0.1,0.1l-0.1,0.1v0.2v0.1v0.1v0.1v0.1l0.1,0.1v0.1l0.1,0.1l0.1,0.1l0.1,0.1l0.1,0.1l0.1,0.1
	l0.1,0.1l0.1,0.1h0.1h0.1H53h0.1h0.2h0.2l0.2-0.1l0.2-0.1l0.1-0.1l0.1-0.1l0.1-0.1l0.1-0.1l0.1-0.1l0.1-0.2l0.1-0.2l0.1-0.2v-0.2
	V106v-0.3v-1.7L55,104.2z M55.3,108.9l-0.1-0.2v-0.2l-0.1-0.2l-0.1-0.2V108v-0.2v-0.2v-0.2l-0.1,0.2l-0.1,0.2l-0.1,0.2l-0.1,0.2
	l-0.1,0.1l-0.1,0.1l-0.1,0.1l-0.1,0.1l-0.4,0.2l-0.4,0.1h-0.2H53h-0.2h-0.4h-0.2H52l-0.2-0.1l-0.2-0.1l-0.2-0.1l-0.2-0.1l-0.2-0.1
	l-0.2-0.1l-0.2-0.1l-0.1-0.2l-0.1-0.2l-0.1-0.2l-0.1-0.2v-0.2V107v-0.2v-0.2v-0.2l0.1-0.2l0.1-0.2l0.1-0.1l0.1-0.1l0.1-0.1l0.2-0.1
	l0.2-0.1l0.2-0.2l0.3-0.2l0.3-0.2l0.4-0.2l0.4-0.2l0.5-0.2l0.5-0.2l0.4-0.2l0.2-0.1l0.1-0.1l0.1-0.1l0.1-0.1l0.1-0.2L55,103v-0.1
	v-0.1v-0.2v-0.4V102v-0.2v-0.2l-0.1-0.1l-0.1-0.1l-0.1-0.1l-0.1-0.1l-0.1-0.1l-0.1-0.1l-0.1-0.1l-0.1-0.1H54h-0.2h-0.2h-0.2h-0.2
	h-0.2h-0.2l-0.2,0.1l-0.1,0.1l-0.1,0.1l-0.1,0.1l-0.1,0.1l-0.1,0.2l-0.1,0.2l-0.1,0.2l-0.1,0.2l-0.1,0.1l-0.1,0.1l-0.1,0.1l-0.1,0.1
	h-0.1h-0.1H51h-0.1l-0.1-0.1l-0.1-0.1l-0.1-0.1l-0.1-0.1v-0.1v-0.2v-0.2v-0.2l0.1-0.2l0.1-0.1l0.1-0.1l0.2-0.1l0.2-0.1l0.2-0.1
	l0.3-0.1l0.3-0.1l0.3-0.1l0.3-0.1h0.3h0.4h0.4h0.4h0.3h0.3h0.3h0.2l0.2,0.1l0.2,0.1l0.2,0.1l0.1,0.1l0.1,0.1l0.1,0.1l0.1,0.1
	l0.1,0.2l0.1,0.2l0.1,0.2v0.2v0.2v0.2v0.3v0.4l-0.1,0.5v0.6v0.6v0.6v1.2v0.6v0.3v0.2l0.1,0.2v0.2v0.2v0.2v0.1l0.1,0.1l0.1,0.1
	l0.1,0.1l0.1,0.1l0.1,0.1L55.3,108.9z M63.6,108.8L63.6,108.8l0.1-0.1l0.1-0.1v-0.2l0.1-0.4l0.1-0.5v-0.3v-0.3v-0.4v-0.5v-6.4V99
	v-0.5v-0.4v-0.3l-0.1-0.4L63.8,97l-0.1-0.3l-0.1-0.2h1.6h0.5h0.6h0.6h0.4h0.4h0.3h0.4h0.4l0.4,0.1l0.4,0.1l0.3,0.1l0.3,0.1l0.3,0.2
	l0.2,0.2l0.2,0.2l0.2,0.2l0.2,0.3l0.1,0.3l0.1,0.3l0.1,0.3v0.4v0.4v0.4v0.4l-0.1,0.4l-0.1,0.4l-0.1,0.3L71,102l-0.2,0.3l-0.2,0.3
	l-0.2,0.2l-0.3,0.2l-0.3,0.2l-0.3,0.1l-0.3,0.1l-0.3,0.1l-0.4,0.1h-0.7h-0.2l-0.2,0l-0.2-0.1l-0.2-0.1l-0.2-0.1l-0.2-0.1h0.6l0.4,0
	h0.3l0.3-0.1l0.3-0.1l0.3-0.1l0.2-0.2l0.2-0.2l0.2-0.2l0.2-0.2l0.2-0.3l0.1-0.3l0.1-0.3l0.1-0.3v-0.4v-0.4v-0.3v-0.3v-0.3l-0.1-0.3
	l-0.1-0.2l-0.1-0.2l-0.1-0.2L69.2,98l-0.2-0.1l-0.2-0.1l-0.2-0.1l-0.2-0.1l-0.2-0.1h-0.3h-0.3h-1h-0.2h-0.1H66v0.3v0.4v0.5v0.6v0.4
	v0.4v0.4v0.5v5.1v0.5v0.5v0.4v0.3l0.1,0.5l0.1,0.4v0.1l0.1,0.1v0.1l0.1,0.1L63.6,108.8z M73.8,102.8H76h0.5h0.2h0.1H77H77h0.1h0.1
	v-0.1l0,0v-0.1v-0.1V102v-0.1v-0.1v-0.1l-0.1-0.1l-0.1-0.1l-0.1-0.1l-0.1-0.1l-0.1-0.1l-0.1-0.1l-0.1-0.1l-0.1-0.1l-0.1-0.1H76h-0.1
	h-0.2h-0.2l-0.2,0.1l-0.2,0.1l-0.2,0.1l-0.1,0.1l-0.1,0.1l-0.1,0.1l-0.1,0.1l-0.1,0.2l-0.1,0.2l-0.1,0.2l-0.1,0.2l-0.1,0.2l-0.1,0.2
	L73.8,102.8z M78.8,106.7v0.2v0.2v0.2l-0.1,0.2l-0.1,0.2l-0.1,0.2l-0.2,0.2l-0.2,0.2l-0.2,0.1l-0.2,0.2l-0.2,0.1l-0.2,0.1l-0.3,0.1
	l-0.3,0.1l-0.3,0.1h-0.3h-0.3h-0.4H75h-0.2l-0.2-0.1h-0.2l-0.2-0.1l-0.2-0.1l-0.2-0.1l-0.2-0.1l-0.1-0.1l-0.3-0.2l-0.3-0.3l-0.2-0.3
	l-0.2-0.3l-0.2-0.4l-0.1-0.4l-0.1-0.4l-0.1-0.4l-0.1-0.5v-0.5v-0.5l0.1-0.5l0.1-0.4l0.1-0.4l0.1-0.2l0.1-0.2l0.1-0.2l0.1-0.2
	l0.2-0.3l0.2-0.3l0.3-0.3l0.3-0.2l0.2-0.1l0.2-0.1l0.2-0.1l0.2-0.1l0.2-0.1l0.2-0.1l0.2-0.1h0.2h0.2h0.2h0.2H76h0.3h0.3l0.3,0.1
	l0.3,0.1l0.3,0.1l0.2,0.1l0.2,0.2l0.2,0.2l0.2,0.2l0.2,0.2l0.2,0.2l0.1,0.2l0.1,0.2l0.1,0.2v0.2v0.3v0.1v0.1v0.1l-0.1,0.1l-0.2,0.1
	l-0.2,0.1l-0.4,0.1h-0.6h-0.8h-2.4h-0.2H74h-0.2l-0.1,0.3l-0.1,0.2v0.6v0.4v0.4l0.1,0.4l0.1,0.3l0.1,0.3l0.1,0.3l0.1,0.3l0.2,0.2
	l0.2,0.2l0.2,0.2l0.2,0.2l0.2,0.1l0.3,0.1l0.3,0.1h0.3h0.3h0.4h0.4h0.1h0.2l0.1-0.1l0.1-0.1l0.3-0.2l0.3-0.2l0.3-0.2L78.8,106.7z
	 M80.4,108.7L80.4,108.7L80.4,108.7L80.4,108.7l0.1-0.1v-0.1v-0.1v-0.1v-0.1l0.1-0.3l0.1-0.4V107v-4v-0.8l-0.1-0.6l-0.1-0.4v-0.1
	V101v-0.1v-0.1l-0.1-0.1v-0.1l-0.1-0.1v0h0.2l0.2-0.1H81h0.3l0.4-0.1h0.2h0.1l0,0l0.1,0.1v0.1v0.1v0.1v0.2v0.5l0.2-0.3l0.3-0.3
	l0.2-0.2l0.2-0.2l0.1-0.1l0.1-0.1l0.1-0.1h0.1h0.3H84h0.2h0.2h0.1h0.1h0.1l0.1,0.1l0.1,0.1l0.1,0.1l0.1,0.1v0.2v0.1v0.1l-0.1,0.1
	h-0.1l-0.1,0.1h-0.2h-0.2h-0.2l-0.3-0.1h-0.5h-0.2H83h-0.2l-0.1,0l-0.1,0.1l-0.1,0.1l-0.1,0.1l-0.1,0.1l-0.1,0.1l-0.1,0.2v0.2v0.3
	v0.3v0.4v0.4v1.6v0.4v0.4v0.3v0.3v0.9v0.3v0.2l0.1,0.2l0.1,0.2l0.1,0.1l0.1,0.1L80.4,108.7z M92,108.8h-0.1v-0.2l-0.1-1.4l-0.1,0.2
	l-0.1,0.2l-0.1,0.2l-0.1,0.1l-0.1,0.2l-0.1,0.1l-0.1,0.1l-0.2,0.1l-0.2,0.1l-0.2,0.1l-0.2,0.1l-0.2,0.1h-0.2h-0.2h-0.2h-0.2h-0.4
	h-0.3h-0.2l-0.1-0.1H88l-0.1-0.1l-0.3-0.2l-0.2-0.2l-0.2-0.2l-0.2-0.3l-0.1-0.2l-0.1-0.2l-0.1-0.3l-0.1-0.3l-0.1-0.4v-0.5v-5.1v-0.1
	v-0.1l-0.1-0.1v-0.1l-0.1-0.1l-0.1-0.1h-0.1l1.3-0.2h0.1h0.1H88l0.1,0.1h0.1v0.1v0.1v0.4L88,105v0.5v0.3v0.3l0.1,0.2l0.1,0.2
	l0.1,0.2l0.1,0.2l0.1,0.1l0.1,0.1l0.1,0.1l0.1,0.1l0.2,0.1l0.2,0.1h0.2h0.2H90l0.2,0h0.2l0.2-0.1l0.2-0.1l0.2-0.1l0.1-0.1l0.1-0.2
	l0.1-0.2l0.1-0.2l0.1-0.3l0.1-0.3v-0.4v-0.4v-0.4v-3.4V101v-0.2l-0.1-0.2l-0.1-0.2v-0.1l0,0v-0.1h-0.1l1.9-0.2v0.4v0.5v1.2l-0.1,0.7
	v0.7v0.8v1.9v0.6v0.5v0.4v0.3l0.1,0.2l0.1,0.2l0.1,0.2l0.1,0.1L92,108.8z M99.6,104.1l-1,0.4l-0.8,0.4l-0.3,0.1l-0.2,0.1l-0.2,0.1
	l-0.2,0.1l-0.1,0.1l-0.1,0.1l-0.1,0.1l-0.1,0.1l-0.1,0.1v0.1v0.2v0.3v0.1v0.2l0.1,0.1v0.1l0.1,0.1l0.1,0.1l0.1,0.1l0.1,0.1l0.1,0.1
	l0.1,0.1l0.1,0.1h0.1h0.1h0.2h0.1H98h0.2l0.2-0.1l0.2-0.1l0.1-0.1l0.1-0.1l0.1-0.1l0.1-0.1l0.1-0.1l0.1-0.2l0.1-0.2l0.1-0.2v-0.2
	V106v-0.3v-1.7L99.6,104.1z M99.9,108.8l-0.1-0.2v-0.2v-0.2v-0.2v-0.2v-0.2v-0.2v-0.2l-0.2,0.4l-0.2,0.3l-0.1,0.1l-0.1,0.1l-0.1,0.1
	l-0.1,0.1l-0.3,0.2l-0.4,0.1h-0.2h-0.2h-0.2h-0.5h-0.2h-0.2l-0.2-0.1l-0.2-0.1l-0.2-0.1l-0.2-0.1l-0.2-0.1l-0.2-0.1l-0.1-0.1
	l-0.1-0.2l-0.1-0.2l-0.1-0.2l-0.1-0.2v-0.2v-0.2v-0.2v-0.2v-0.2l0.1-0.2l0.1-0.2l0.1-0.1l0.1-0.1l0.1-0.1l0.2-0.1l0.2-0.1l0.3-0.2
	l0.3-0.2l0.3-0.2l0.4-0.2l0.4-0.2l0.5-0.2l0.6-0.2l0.4-0.2l0.2-0.1l0.1-0.1l0.1-0.1l0.1-0.1l0.1-0.1l0.1-0.1V103l0,0l0.1-0.3v-0.5
	V102v-0.2v-0.2l-0.1-0.1l-0.1-0.1l-0.1-0.1l-0.1-0.1l-0.1-0.1l-0.1-0.1l-0.1-0.1l-0.2-0.1h-0.1h-0.2h-0.2h-0.2H98h-0.2h-0.2
	l-0.2,0.1l-0.1,0.1l-0.1,0.1l-0.1,0.1l-0.1,0.1l-0.1,0.2l-0.1,0.2l-0.1,0.2l-0.1,0.2l-0.1,0.1l-0.1,0.1l-0.1,0.1l-0.1,0.1H96h-0.2
	h-0.1h-0.1l-0.1-0.1l-0.1-0.1l-0.1-0.1l-0.1-0.1v-0.1v-0.2v-0.2v-0.2l0.1-0.2l0.1-0.1l0.1-0.1l0.2-0.1l0.2-0.1l0.2-0.1l0.3-0.1
	l0.3-0.1l0.3-0.1l0.3-0.1h0.3H98h0.4h0.4h0.3h0.3h0.2h0.2l0.2,0.1l0.2,0.1l0.2,0.1l0.1,0.1l0.1,0.1l0.1,0.1l0.1,0.1l0.1,0.2l0.1,0.2
	l0.1,0.2v0.2v0.7v0.4v0.5v3v0.6v0.3v0.2l0.1,0.2v0.2v0.2v0.2v0.1l0.1,0.1l0.1,0.1l0.1,0.1l0.1,0.1l0.1,0.1L99.9,108.8z M103,108.7
	L103,108.7l0.1-0.1l0,0v-0.1v-0.1v-0.1v-0.1v-0.1l0.1-0.3v-0.4V107v-4v-0.8v-0.6l-0.1-0.4v-0.1V101v-0.1v-0.1v-0.1v-0.1l-0.1-0.1
	l-0.1,0l1.8-0.2v0.1v0.1v1l0.3-0.3l0.3-0.3l0.1-0.1l0.1-0.1l0.2-0.1l0.2-0.1l0.3-0.2l0.4-0.1h0.2h0.2h0.2h0.2h0.3h0.3l0.3,0.1
	l0.2,0.1l0.2,0.1l0.2,0.1l0.2,0.2l0.1,0.2l0.1,0.2l0.1,0.3l0.1,0.4l0.1,0.4l0.1,0.5v0.5v0.6v0.6v3.3v0.3v0.2l0.1,0.2l0.1,0.1
	l0.1,0.1l0.1,0.1h-1.5v-0.5v-0.5v-0.6v-0.6v-3v-0.4v-0.3v-0.3v-0.3l-0.1-0.2l-0.1-0.2l-0.1-0.2l-0.1-0.1l-0.1-0.1l-0.1-0.1l-0.1-0.1
	l-0.1-0.1l-0.2-0.1h-0.2H107h-0.5h-0.2l-0.2,0l-0.2,0.1l-0.2,0.1l-0.2,0.1l-0.1,0.1l-0.1,0.1l-0.1,0.2l-0.1,0.2l-0.1,0.2l-0.1,0.3
	v0.4v0.4v0.5v0.5v2.4v0.5v0.4v0.3l0.1,0.2l0.1,0.2v0.1l0,0v0.1h0.1L103,108.7z M116,104.1l-0.9,0.4l-0.8,0.4L114,105l-0.3,0.1
	l-0.2,0.1l-0.1,0.1l-0.1,0.1l-0.1,0.1l-0.1,0.1l-0.1,0.1l-0.1,0.1v0.1v0.2v0.1v0.1v0.1v0.1l0.1,0.1v0.1l0.1,0.1l0.1,0.1l0.1,0.1
	l0.1,0.1l0.1,0.1l0.1,0.1l0.1,0.1h0.1h0.1h0.1h0.2h0.2h0.2l0.2-0.1l0.2-0.1l0.1-0.1l0.1-0.1l0.1-0.1l0.1-0.1l0.1-0.1l0.1-0.2
	l0.1-0.2l0.1-0.2v-0.2V106v-0.3V104L116,104.1z M116.3,108.8v-0.2v-0.2v-0.2v-0.2v-0.2v-0.2v-0.5l-0.2,0.4l-0.2,0.3l-0.1,0.1
	l-0.1,0.1l-0.1,0.1l-0.2,0.1l-0.3,0.2l-0.3,0.1h-0.2h-0.2h-0.2h-0.5h-0.2h-0.2l-0.2-0.1l-0.2-0.1l-0.2-0.1l-0.2-0.1l-0.2-0.1
	l-0.2-0.1l-0.1-0.1l-0.1-0.2l-0.1-0.2l-0.1-0.2l-0.1-0.2l-0.1-0.2v-0.4l0.1-0.2v-0.2l0.1-0.2l0.1-0.2l0.1-0.1l0.1-0.1l0.1-0.1
	l0.2-0.1l0.2-0.1l0.2-0.2l0.3-0.2l0.3-0.2l0.4-0.2l0.4-0.2l0.5-0.2l0.5-0.2l0.4-0.2l0.3-0.2l0.2-0.2l0.1-0.1v-0.1l0.1-0.1v0l0.1-0.3
	v-0.3v-0.2V102l-0.1-0.2v-0.2v-0.1l-0.1-0.1l-0.1-0.1l-0.1-0.1l-0.1-0.1l-0.1-0.1l-0.1-0.1l-0.1-0.1h-0.1h-0.2h-0.2h-0.3h-0.2h-0.2
	h-0.2l-0.1,0.1l-0.1,0.1l-0.2,0.1l-0.1,0.1l-0.1,0.1l-0.1,0.2l-0.1,0.2l-0.1,0.2L113,102l-0.1,0.1l-0.1,0.1l-0.1,0.1l-0.1,0.1h-0.1
	h-0.1h-0.1H112H112h-0.1l0,0v0l-0.1-0.1l-0.1-0.1v-0.1v-0.4v-0.2l0.1-0.2l0.1-0.1l0.1-0.1l0.2-0.1l0.2-0.1l0.2-0.1l0.3-0.1l0.3-0.1
	l0.3-0.1l0.3-0.1h0.3h0.4h0.4h0.4h0.3h0.3h0.2h0.2l0.2,0.1l0.2,0.1l0.2,0.1l0.2,0.1l0.1,0.1l0.1,0.1l0.1,0.1l0.1,0.2l0.1,0.2v0.2
	v0.2v1.5v0.6v0.6v1.8v0.6v0.5v0.4l0.1,0.4l0.1,0.3l0.1,0.1l0.1,0.1l0.1,0.1l0.1,0.1L116.3,108.8z M128.5,108h0.2h0.2h0.2l0.2-0.1
	l0.1-0.1l0.1-0.1l0.1-0.1l0.1-0.1l0.1-0.2l0.1-0.2l0.1-0.2v-0.2l0.1-0.3v-0.3v-0.4v-0.4v-3.2v-0.3v-0.3v-0.2v-0.1l-0.1-0.1l-0.1-0.1
	l-0.1-0.1l-0.1-0.1h-0.1h-0.1l-0.2,0h-0.6l-0.3,0.1l-0.3,0.1l-0.3,0.1l-0.3,0.1l-0.3,0.2l-0.3,0.2l-0.2,0.2l-0.2,0.3l-0.2,0.3
	l-0.1,0.3l-0.1,0.3l-0.1,0.4l-0.1,0.4v0.4v0.5v0.4v0.4l0.1,0.3l0.1,0.3l0.1,0.3l0.1,0.3l0.2,0.3l0.2,0.2l0.2,0.2l0.2,0.2l0.2,0.2
	l0.2,0.1l0.2,0.1l0.3,0.1h0.3L128.5,108z M131.9,95.5v0.3V96v0.4v0.4v0.4v0.5v0.5v0.6v0.6v0.6v0.6v0.7v5.1v0.4v0.3v0.3v0.2l0.1,0.4
	l0.1,0.3l0.1,0.2l0.1,0.1l-1.8,0.1v-0.1v-0.1v-0.9l-0.2,0.3l-0.2,0.2l-0.3,0.2l-0.3,0.2l-0.2,0.1h-0.2l-0.2,0.1h-0.2h-0.4H128h-0.4
	h-0.4l-0.4-0.1l-0.3-0.1l-0.3-0.2l-0.3-0.2l-0.1-0.1l-0.1-0.1l-0.1-0.1l-0.1-0.1l-0.2-0.3l-0.2-0.3l-0.2-0.4l-0.1-0.4l-0.1-0.4
	l-0.1-0.4v-0.4v-0.5v-0.3v-0.3V104v-0.3v-0.2l0.1-0.2l0.1-0.2l0.1-0.2l0.1-0.2l0.1-0.2l0.1-0.2l0.1-0.2l0.1-0.2l0.1-0.2l0.2-0.2
	l0.2-0.1l0.2-0.2l0.2-0.1l0.2-0.1l0.2-0.1l0.2-0.1l0.2-0.1l0.2-0.1l0.2-0.1l0.2-0.1l0.2-0.1l0.2-0.1h0.3h0.3h0.3h0.3h0.9h0.1h0.1
	h0.1v-2.6v-0.4v-0.4v-0.3l-0.1-0.2l-0.1-0.2l-0.1-0.2l-0.1-0.2L131.9,95.5z M135.3,102.8h2.3h0.5h0.2h0.1h0.1h0.1l0.1-0.1l0.1-0.1
	v-0.1v-0.1v-0.1V102v-0.1v-0.1l0-0.1l-0.1-0.1l-0.1-0.1l-0.1-0.1l-0.1-0.1l-0.1-0.1l-0.1-0.1l-0.1-0.1l-0.1-0.1l-0.1-0.1h-0.1h-0.2
	h-0.3h-0.2l-0.2,0.1l-0.2,0.1l-0.2,0.1l-0.1,0.1l-0.1,0.1l-0.1,0.1l-0.1,0.1l-0.1,0.2l-0.1,0.2l-0.1,0.2l-0.1,0.2l-0.1,0.2l-0.1,0.2
	L135.3,102.8z M140.3,106.8v0.2v0.2v0.2l-0.1,0.2l-0.1,0.2l-0.1,0.2l-0.2,0.2l-0.2,0.2l-0.2,0.1l-0.2,0.2l-0.2,0.1l-0.2,0.1
	l-0.2,0.1l-0.3,0.1l-0.3,0.1h-0.2h-0.3h-0.4h-0.4h-0.2l-0.2-0.1H136l-0.2-0.1l-0.2-0.1l-0.2-0.1l-0.2-0.1l-0.1-0.1l-0.3-0.2
	l-0.3-0.3l-0.2-0.3l-0.2-0.3l-0.2-0.4l-0.1-0.4l-0.2-0.5l-0.1-0.4l0-0.5v-0.5v-0.5l0-0.5l0.1-0.4l0.1-0.4l0.1-0.2l0.1-0.2l0.1-0.2
	l0.1-0.2l0.2-0.3l0.2-0.3l0.3-0.3l0.3-0.2l0.2-0.1l0.2-0.1l0.2-0.1l0.2-0.1l0.2-0.1l0.2-0.1l0.2-0.1h0.2h0.2h0.2h0.2h0.2h0.3h0.3
	l0.3,0.1l0.3,0.1l0.2,0.1l0.2,0.1l0.2,0.2l0.2,0.2l0.2,0.2l0.2,0.2l0.1,0.2l0.1,0.2l0.1,0.2l0.1,0.2v0.2v0.3v0.1v0.1v0.1l-0.1,0.1
	l-0.2,0.1l-0.2,0.1l-0.4,0.1H139h-0.8h-2.4h-0.2h-0.2h-0.2l-0.1,0.3v0.2v1v0.4l0.1,0.4l0.1,0.3l0.1,0.3l0.1,0.3l0.2,0.3l0.2,0.2
	l0.2,0.2l0.2,0.2l0.2,0.2l0.2,0.1l0.3,0.1l0.3,0.1h0.3h0.3h0.4h0.3h0.2h0.1l0.1-0.1l0.2-0.1l0.3-0.2l0.3-0.2l0.3-0.2L140.3,106.8z
	 M156.1,96.6l-0.1,2.6l-0.1-0.2l-0.1-0.2l-0.1-0.2l-0.1-0.2l-0.1-0.2l-0.2-0.2l-0.2-0.2l-0.2-0.1l-0.2-0.1l-0.2-0.1l-0.2-0.1
	l-0.2-0.1l-0.2-0.1h-0.2h-0.2h-0.5h-0.2h-0.2h-0.2l-0.2,0.1l-0.2,0.1l-0.2,0.1l-0.2,0.1l-0.2,0.1l-0.2,0.1l-0.2,0.1l-0.2,0.1
	l-0.2,0.1l-0.2,0.1l-0.1,0.2l-0.2,0.1l-0.1,0.2l-0.1,0.2l-0.1,0.2l-0.1,0.2l-0.1,0.2l-0.1,0.2L149,100l-0.1,0.2l-0.1,0.2l-0.1,0.2
	l-0.1,0.2v0.2v0.3v0.3v0.3v0.6v0.3v0.3l0,0.3v0.3v0.3l0.1,0.2l0.1,0.2l0.1,0.2l0.1,0.2l0.1,0.2l0.1,0.2l0.1,0.2l0.1,0.2l0.1,0.2
	l0.1,0.2l0.2,0.2l0.2,0.2l0.2,0.1l0.2,0.1l0.2,0.1l0.2,0.1l0.2,0.1l0.2,0.1l0.2,0.1l0.2,0.1l0.2,0.1h0.2h0.2h0.2h0.3h0.3h0.2h0.2
	h0.2l0.2-0.1h0.2l0.2-0.1l0.2-0.1l0.2-0.1l0.2-0.1l0.2-0.1l0.2-0.1l0.2-0.1l0.2-0.1l0.2-0.1l0.2-0.2l0.2-0.2l-0.1,0.3l-0.1,0.3
	l-0.1,0.3l-0.2,0.3l-0.2,0.2l-0.2,0.2l-0.1,0.2l-0.3,0.2l-0.3,0.2l-0.3,0.2l-0.3,0.1l-0.3,0.1l-0.4,0.1l-0.4,0.1H153h-0.4h-0.3H152
	h-0.3h-0.3l-0.3-0.1l-0.3-0.1l-0.3-0.1l-0.3-0.1l-0.2-0.1l-0.2-0.1l-0.2-0.1l-0.2-0.1l-0.2-0.2l-0.2-0.2l-0.2-0.2l-0.2-0.2l-0.2-0.2
	l-0.2-0.2l-0.2-0.2l-0.1-0.2l-0.1-0.2l-0.1-0.2l-0.1-0.3l-0.1-0.3l-0.1-0.3l-0.1-0.3l-0.1-0.3l-0.1-0.3v-0.3v-0.3v-0.3v-0.7v-0.4
	v-0.4v-0.3l0.1-0.3l0.1-0.3l0.1-0.3l0.1-0.3l0.1-0.3l0.1-0.3l0.1-0.3l0.1-0.2l0.2-0.3l0.2-0.2l0.2-0.2l0.2-0.2l0.2-0.2l0.2-0.2
	l0.2-0.2l0.2-0.2l0.3-0.2l0.3-0.1l0.3-0.1l0.3-0.1l0.3-0.1l0.3-0.1l0.3-0.1l0.3-0.1h0.4h0.4h0.4h0.9h0.4h0.4l0.5,0.1h0.4h0.3
	L156.1,96.6z M161.9,100.9h-0.3h-0.2l-0.2,0.1l-0.2,0.1l-0.2,0.1l-0.2,0.2l-0.2,0.2l-0.2,0.2l-0.1,0.2l-0.1,0.2l-0.1,0.3l-0.1,0.3
	l-0.1,0.3l-0.1,0.4v0.4v0.4v0.4v0.4l0.1,0.4l0.1,0.4l0.1,0.4l0.1,0.4l0.2,0.3l0.2,0.3l0.2,0.2l0.2,0.2l0.2,0.2l0.2,0.1l0.3,0.1
	l0.3,0.1h0.3h0.3h0.2h0.3l0.2-0.1l0.2-0.1l0.2-0.1l0.2-0.2l0.2-0.2l0.2-0.2l0.1-0.2l0.1-0.3l0.1-0.3l0.1-0.3v-0.4v-0.4V105v-0.9
	v-0.4v-0.4l-0.1-0.3l-0.1-0.3l-0.1-0.3l-0.1-0.3l-0.2-0.3l-0.2-0.2l-0.2-0.2l-0.2-0.2l-0.2-0.1l-0.2-0.1l-0.3-0.1h-0.3L161.9,100.9z
	 M162.3,100.1h0.5h0.4l0.4,0.1l0.4,0.1l0.3,0.2l0.3,0.2l0.3,0.2l0.3,0.3l0.2,0.3l0.2,0.3l0.2,0.3l0.1,0.3l0.1,0.4l0.1,0.4l0,0.4v0.4
	v0.6l-0.1,0.5l-0.1,0.5l-0.1,0.5l-0.1,0.2l-0.1,0.2l-0.1,0.2l-0.1,0.2l-0.1,0.2l-0.1,0.2l-0.1,0.2l-0.1,0.2l-0.1,0.2l-0.1,0.1
	l-0.1,0.1l-0.2,0.1l-0.2,0.1l-0.2,0.1l-0.2,0.1l-0.2,0.1l-0.2,0.1l-0.2,0.1l-0.2,0.1h-0.2l-0.2,0.2h-0.2h-0.2H162h-0.5h-0.4
	l-0.4-0.1l-0.4-0.1l-0.3-0.2l-0.3-0.2l-0.3-0.2l-0.3-0.2l-0.2-0.3l-0.2-0.3l-0.2-0.4l-0.1-0.4l-0.1-0.4l-0.1-0.4l0-0.5v-1l0-0.5
	v-0.2l0.1-0.2l0-0.2l0.1-0.2l0.1-0.2l0.1-0.2l0.1-0.2l0.1-0.2l0.1-0.2l0.1-0.2l0.1-0.2l0.1-0.1l0.1-0.2l0.2-0.1l0.2-0.2l0.2-0.1
	l0.2-0.1l0.2-0.1l0.2-0.1l0.2-0.1l0.2-0.1l0.2-0.1l0.2-0.1h0.2h0.2h0.2h0.2L162.3,100.1z M171.3,100.9H171h-0.3l-0.2,0.1l-0.2,0.1
	l-0.2,0.1l-0.2,0.2l-0.2,0.2l-0.2,0.2l-0.1,0.2l-0.1,0.2l-0.1,0.3l-0.1,0.3l-0.1,0.3v0.4v0.4v0.9v0.4v0.4l0.1,0.4l0.1,0.4l0.1,0.4
	l0.1,0.3l0.2,0.3l0.2,0.2l0.2,0.2l0.2,0.2l0.2,0.1l0.2,0.1l0.3,0.1h0.3h0.3h0.3h0.2l0.2-0.1l0.3-0.1l0.2-0.1l0.2-0.2l0.2-0.2
	l0.1-0.2l0.1-0.2l0.1-0.3l0.1-0.3l0.1-0.3l0.1-0.4l0-0.4V105v-0.4v-0.4v-0.4l-0.1-0.4l-0.1-0.3l-0.1-0.3l-0.1-0.3l-0.2-0.3l-0.2-0.3
	l-0.2-0.2l-0.2-0.2l-0.2-0.2l-0.2-0.1l-0.3-0.1l-0.2-0.1h-0.3L171.3,100.9z M171.6,100.1h0.5h0.4l0.4,0.1l0.4,0.1l0.2,0.1l0.2,0.1
	l0.2,0.1l0.1,0.1l0.1,0.1l0.1,0.1l0.1,0.1l0.1,0.1l0.2,0.3l0.2,0.3l0.2,0.3l0.1,0.3l0.1,0.4l0.1,0.4v0.4v0.4v0.6v0.5l-0.1,0.5
	l-0.1,0.5l-0.1,0.2l-0.1,0.2l-0.1,0.2l-0.1,0.2l-0.1,0.2l-0.1,0.2l-0.1,0.2l-0.1,0.2l-0.1,0.2L174,108l-0.1,0.1l-0.2,0.1l-0.2,0.1
	l-0.2,0.1l-0.2,0.1l-0.2,0.1l-0.2,0.1l-0.2,0.1l-0.2,0.1h-0.2l-0.2,0h-0.3h-0.2h-0.2h-0.5h-0.4l-0.4-0.1l-0.4-0.1l-0.3-0.2l-0.3-0.2
	l-0.3-0.2l-0.3-0.2l-0.2-0.3l-0.2-0.3l-0.2-0.4l-0.1-0.4l-0.1-0.4l-0.1-0.4v-0.5v-0.5v-0.2v-0.2v-0.2v-0.2v-0.2l0.1-0.2l0.1-0.2
	l0.1-0.2l0.1-0.2l0.1-0.2l0.1-0.2l0.1-0.2l0.1-0.2l0.1-0.2l0.1-0.2l0.1-0.1l0.2-0.2l0.1-0.1l0.2-0.1l0.2-0.1l0.2-0.1l0.2-0.1
	l0.2-0.1l0.2-0.1l0.2-0.1l0.2-0.1l0.2-0.1h0.2h0.2h0.2h0.2L171.6,100.1z M178.6,105.1v0.9v0.4v0.3v0.2l0,0.2l0.1,0.2l0.1,0.1
	l0.1,0.1l0.1,0.1l0.1,0.1l0.1,0.1l0.2,0.1l0.2,0.1h0.2h0.2h0.2h0.3h0.3l0.3-0.1l0.2-0.1l0.2-0.1l0.2-0.1l0.2-0.2l0.2-0.2l0.2-0.2
	l0.1-0.3l0.1-0.2l0.1-0.3l0.1-0.3l0.1-0.3v-0.4v-0.4v-0.4V104l-0.1-0.4l-0.1-0.3l-0.1-0.3l-0.1-0.3l-0.2-0.3l-0.2-0.2L182,102
	l-0.2-0.2l-0.2-0.2l-0.2-0.1l-0.2-0.1l-0.3-0.1l-0.3,0h-0.3h-0.2l-0.2,0l-0.2,0.1l-0.2,0.1l-0.2,0.1l-0.2,0.1l-0.1,0.1l-0.1,0.1
	l-0.1,0.1v0.1v0.1v0.1l-0.1,0.3l-0.1,0.3v0.4v0.5L178.6,105.1L178.6,105.1z M176.9,114.1L176.9,114.1l0.1-0.1v-0.1v-0.1l0.1-0.3
	l0.1-0.4v-0.5v-0.6v-8.4V103v-0.4v-0.4v-0.3l-0.1-0.5l-0.1-0.4v-0.2v-0.1l-0.1-0.1l-0.1-0.1l1.8-0.2v0.2v0.3v0.7l0.3-0.3l0.3-0.2
	l0.3-0.2l0.3-0.2l0.2-0.1l0.2-0.1l0.2-0.1h0.1h0.3h0.3h0.3l0.3,0.1l0.3,0.1l0.3,0.1l0.3,0.2l0.3,0.2l0.2,0.2l0.2,0.3l0.2,0.3
	l0.2,0.3l0.2,0.3l0.1,0.4l0.1,0.4l0.1,0.4l0,0.4v0.7v0.2v0.2v0.2l-0.1,0.2l-0.1,0.2l-0.1,0.2l-0.1,0.2l-0.1,0.2l-0.1,0.2l-0.1,0.2
	l-0.2,0.1l-0.1,0.2l-0.1,0.2l-0.2,0.2l-0.2,0.2l-0.2,0.2l-0.2,0.1l-0.2,0.1l-0.2,0.1l-0.2,0.1l-0.2,0.1l-0.2,0.1l-0.2,0.1l-0.2,0.1
	l-0.2,0.1l-0.2,0.1h-0.3l-0.3,0h-0.3h-0.3h-0.8v1.4v0.9v0.8v0.6v0.5l0.1,0.4l0.1,0.3v0.1l0.1,0.1v0.1l0.1,0.1L176.9,114.1z"/>
<path class="st0" d="M187.5,102.7h2.7h0.3h0.2h0.1h0.1v-0.1l0,0v-0.1v-0.1v-0.1V102v-0.1v-0.1v-0.1l-0.1-0.1l-0.1-0.1l-0.1-0.1
	l-0.1-0.1l-0.1-0.1l-0.1-0.1l-0.1-0.1l-0.1-0.1h-0.1h-0.1h-0.1h-0.4H189h-0.2h-0.2l-0.2,0.1l-0.1,0.1l-0.1,0.1l-0.1,0.1l-0.1,0.2
	l-0.1,0.2l-0.1,0.2l-0.1,0.2l-0.1,0.2v0.2v0.2L187.5,102.7z M192.5,106.6v0.2v0.2v0.2l-0.1,0.2l-0.1,0.2l-0.1,0.2L192,108l-0.2,0.2
	l-0.2,0.1l-0.2,0.2l-0.3,0.1l-0.2,0.1l-0.2,0.1l-0.3,0.1L190,109h-0.4h-0.3h-0.4h-0.4l-0.4-0.1l-0.3-0.1l-0.2-0.1l-0.1-0.1l-0.1-0.1
	l-0.1-0.1l-0.1-0.1l-0.1-0.1l-0.1-0.1l-0.1-0.1l-0.1-0.2l-0.1-0.2l-0.1-0.2l-0.1-0.2l-0.1-0.2l-0.1-0.2l-0.1-0.2l-0.1-0.2l-0.1-0.4
	l-0.1-0.4l0-0.5v-1l0-0.5l0.1-0.4l0.1-0.4l0.1-0.2l0.1-0.2l0.1-0.2l0.1-0.2l0.1-0.2l0.1-0.2l0.1-0.1l0.1-0.2l0.1-0.1l0.1-0.1
	l0.1-0.1l0.1-0.1l0.2-0.1l0.2-0.1l0.2-0.1l0.2-0.1l0.2-0.1l0.2-0.1h0.2h0.2l0.4-0.1h0.7h0.3l0.3,0.1l0.3,0.1l0.3,0.1l0.3,0.1
	l0.2,0.2l0.2,0.2l0.2,0.2l0.2,0.2l0.1,0.2l0.1,0.2l0.1,0.2l0.1,0.2v0.2v0.3v0.1v0.1v0.1l-0.1,0.1l-0.1,0.1l-0.1,0.1l-0.1,0.1H192
	l-0.4,0.1h-0.6h-0.9h-1.7h-0.2H188h-0.6l-0.1,0.2l-0.1,0.2v1v0.4v0.3l0.1,0.3l0.1,0.3l0.1,0.3l0.1,0.3l0.1,0.2l0.2,0.2l0.2,0.2
	l0.2,0.1l0.2,0.1l0.3,0.1l0.3,0.1h0.3h0.3h0.2h0.2h0.1h0.2l0.3-0.1l0.3-0.1l0.3-0.2l0.3-0.2l0.3-0.2L192.5,106.6z M194,108.8
	l0.1-0.1l0.1-0.2l0.1-0.2l0.1-0.2v-0.3v-0.4v-5.2v-0.6v-0.4l-0.1-0.3l-0.1-0.2l-0.1-0.2l-0.1-0.1h0.2h0.2h0.2h0.2l0.4-0.1h0.1h0.1
	h0.1l0.1,0.1v0.1v0.1v0.1v0.2v0v0.2v0.2l0.2-0.3l0.2-0.3l0.2-0.2l0.2-0.2l0.1-0.1l0.1-0.1l0.1-0.1h0.1h0.3h0.5h0.2l0.2,0.1l0.2,0.1
	l0,0l0,0l0,0.1v0.1v0.1v0.2v0.1v0.1v0.1l-0.1,0.1h-0.1l-0.1,0.1h-0.2h-0.2h-0.2h-0.3h-0.5h-0.2h-0.2h-0.2l-0.1,0l-0.1,0.1l-0.1,0.1
	l-0.1,0.1l-0.1,0.1l-0.1,0.1v0.2v0.2v0.3v0.7v0.9v2.9v0.4v0.3v0.2v0.2l0.1,0.2l0.1,0.2l0.1,0.1L194,108.8z M204.3,104.2l-1,0.4
	l-0.8,0.4l-0.3,0.1l-0.2,0.1l-0.2,0.1l-0.2,0.1l-0.1,0.1l-0.1,0.1l-0.1,0.1l-0.1,0.1l-0.1,0.1l-0.1,0.2v0.2v0.1v0.1v0.1v0.1l0.1,0.1
	l0.1,0.1l0.1,0.1l0.1,0.1l0.1,0.1l0.1,0.1l0.1,0.1l0.1,0.1l0.1,0.1h0.1h0.1h0.2h0.2h0.2h0.2l0.2-0.1l0.2-0.1l0.2-0.1l0.1-0.1
	l0.1-0.1l0.1-0.1l0.1-0.2l0.1-0.2l0.1-0.2l0.1-0.2l0-0.2V106v-0.3L204.3,104.2L204.3,104.2z M204.6,108.8l-0.1-0.1l0-0.1l-0.1-0.2
	v-0.2V108v-0.2v-0.2v-0.2l-0.1,0.2l-0.1,0.2l-0.1,0.2l-0.1,0.1l-0.1,0.1l-0.1,0.1l-0.1,0.1l-0.1,0.1l-0.2,0.1l-0.2,0.1l-0.2,0.1
	l-0.2,0.1h-0.2h-0.2h-0.2H202h-0.2h-0.3l-0.2,0l-0.2-0.1l-0.2-0.1l-0.2-0.1l-0.2-0.1l-0.2-0.1l-0.2-0.2L200,108l-0.1-0.2l-0.1-0.2
	l-0.1-0.2l-0.1-0.2v-0.2v-0.2v-0.2v-0.2l0.1-0.2l0.1-0.2l0.1-0.2l0.1-0.1l0.1-0.1l0.1-0.1l0.2-0.1l0.2-0.1l0.2-0.2l0.3-0.2l0.3-0.2
	l0.4-0.2l0.4-0.2l0.5-0.2l0.5-0.2l0.4-0.2l0.2-0.1l0.1-0.1l0.1-0.1l0.1-0.1l0.1-0.2l0.1-0.2l0-0.1v-0.1v-0.2v-0.1v-0.2v-0.2v-0.2
	l-0.1-0.2l-0.1-0.1l-0.1-0.1l-0.1-0.1l-0.1-0.1l-0.1-0.1l-0.1-0.1l-0.1-0.1l-0.1-0.1h-0.2h-0.2h-0.2h-0.4h-0.1h-0.2h-0.2l-0.2,0.1
	l-0.1,0.1l-0.1,0.1l-0.1,0.1l-0.1,0.1v0.2l-0.1,0.3l-0.1,0.2l-0.1,0.2l-0.1,0.1l-0.1,0.1l-0.1,0.1l-0.1,0.1h-0.1h-0.1h-0.2h-0.1
	l-0.1-0.1l-0.1-0.1l-0.1-0.1l-0.1-0.1v-0.1v-0.2v-0.2v-0.2l0.1-0.2l0.1-0.1l0.1-0.1l0.2-0.1l0.2-0.1l0.2-0.1l0.3-0.1l0.3-0.1
	l0.3-0.1l0.3-0.1h0.3h0.4h0.4h0.7h0.3h0.2h0.2l0.2,0.1l0.2,0.1l0.2,0.1l0.1,0.1l0.1,0.1l0.1,0.1l0.1,0.1l0.1,0.2l0.1,0.2l0.1,0.2
	v0.2v0.2v0.1v0.3v0.4v0.5v0.6v0.6v0.6v1.2v0.6v0.3v0.2v0.2l0,0.2v0.2v0.2v0.1l0.1,0.1l0.1,0.1l0.1,0.1l0.1,0.1l0.1,0.1L204.6,108.8z
	 M214.2,106.8v0.2v0.2l-0.1,0.2l-0.1,0.2l-0.1,0.2l-0.1,0.2l-0.1,0.1l-0.2,0.1l-0.2,0.1l-0.2,0.1l-0.2,0.1l-0.2,0.1l-0.3,0.1l-0.3,0
	h-0.4h-0.3h-0.4l-0.4-0.1h-0.2l-0.2-0.1l-0.2-0.1l-0.2-0.1l-0.2-0.1l-0.2-0.1l-0.1-0.1l-0.2-0.1l-0.1-0.1l-0.2-0.1l-0.1-0.1
	l-0.1-0.1l-0.2-0.3l-0.2-0.3l-0.2-0.4l-0.1-0.4l0-0.4l-0.1-0.4l-0.1-0.4v-1l0.1-0.5v-0.2l0-0.2l0.1-0.2l0.1-0.2l0.1-0.2l0.1-0.2
	l0.1-0.2l0.1-0.2l0.1-0.2l0.1-0.2l0.1-0.2l0.2-0.2l0.2-0.2l0.2-0.1l0.2-0.1l0.2-0.1l0.2-0.1l0.2-0.1l0.2-0.1l0.2-0.1l0.2-0.1
	l0.2-0.1l0.2-0.1h0.2h0.2h0.2h1h0.2h0.2h0.2h0.2h0.2l0.2,0.1l-0.1,2l-0.1-0.2l-0.2-0.3l-0.2-0.3l-0.2-0.2l-0.3-0.1l-0.3-0.1h-0.1
	h-0.1h-0.1h-0.5l-0.3,0.1L211,101l-0.3,0.1l-0.2,0.1l-0.2,0.2l-0.2,0.2l-0.2,0.2l-0.2,0.3l-0.1,0.3l-0.1,0.3l-0.1,0.3l-0.1,0.4
	l-0.1,0.4v0.4v0.8v0.4l0.1,0.3l0.1,0.3l0.1,0.3l0.1,0.3l0.1,0.3l0.2,0.2l0.2,0.2l0.2,0.2l0.2,0.1l0.2,0.1l0.2,0.1l0.3,0.1h0.3h0.3
	h0.2h0.2h0.2h0.2l0.3-0.1l0.3-0.1l0.3-0.2l0.2-0.2l0.1-0.1l0.1-0.1l0.1-0.1L214.2,106.8z M216.2,99l-0.8-1.3l1.4-0.9l0.8,1.3
	L216.2,99z M215.5,108.7l0.1-0.1l0.1-0.2l0.1-0.2l0.1-0.2v-0.3v-0.4v-5.5v-0.5V101l-0.1-0.3l-0.1-0.2v-0.1v-0.1l-0.1-0.1l0,0h0.2
	h0.2h0.2h0.3h0.2h0.2h0.2h0.2v0.6v0.5l0,0.5v5.7v0.4v0.3l0.1,0.2l0.1,0.2l0.1,0.2l0.1,0.1L215.5,108.7z M223.1,100.8h-0.3h-0.3
	l-0.3,0.1l-0.2,0.1l-0.2,0.1l-0.2,0.2l-0.2,0.2l-0.2,0.2l-0.1,0.2l-0.1,0.2l-0.1,0.3l-0.1,0.3l-0.1,0.3v0.4v0.4v0.4v0.4v0.4l0.1,0.4
	l0.1,0.4l0.1,0.4l0.1,0.3l0.1,0.3l0.2,0.3l0.2,0.2l0.2,0.2l0.2,0.2l0.3,0.1l0.3,0.1l0.3,0.1h0.3h0.3h0.3h0.2l0.2-0.1l0.2-0.1
	l0.2-0.1l0.2-0.2l0.2-0.2l0.1-0.2l0.1-0.2l0.1-0.3l0.1-0.3l0.1-0.3l0.1-0.4v-0.4v-0.4V104v-0.4v-0.4l-0.1-0.3l-0.1-0.3l-0.1-0.3
	l-0.1-0.3l-0.2-0.3l-0.2-0.2l-0.2-0.2l-0.2-0.2l-0.2-0.1l-0.2-0.1l-0.2-0.1h-0.3L223.1,100.8z M223.4,100.1h0.4h0.4l0.4,0.1l0.4,0.1
	l0.3,0.1l0.3,0.2l0.3,0.2l0.3,0.2l0.1,0.1l0.1,0.1l0.1,0.2l0.1,0.1l0.2,0.3l0.1,0.3l0.1,0.4l0.1,0.4v0.4v0.5v0.6v0.5l-0.1,0.5
	l-0.1,0.5l-0.1,0.4l-0.2,0.4l-0.2,0.4l-0.2,0.4l-0.1,0.2l-0.2,0.1l-0.2,0.1l-0.2,0.1l-0.2,0.1l-0.2,0.1l-0.2,0.1l-0.2,0.1l-0.2,0.1
	l-0.2,0.1l-0.2,0.1H224l-0.2,0h-0.2h-0.2h-0.2h-0.4h-0.4H222l-0.2-0.1h-0.2l-0.2-0.1l-0.2-0.1l-0.2-0.1l-0.2-0.1l-0.1-0.1l-0.1-0.1
	l-0.1-0.1l-0.1-0.1l-0.1-0.1l-0.1-0.1l-0.1-0.1l-0.1-0.1l-0.1-0.2l-0.1-0.3l-0.1-0.2l-0.1-0.2l-0.1-0.2l-0.1-0.4l-0.1-0.4l-0.1-0.5
	v-1v-0.2v-0.2l0.1-0.2l0-0.2l0.1-0.2l0.1-0.2l0.1-0.2l0.1-0.2l0.1-0.2l0.1-0.2l0.2-0.4l0.3-0.3l0.3-0.3l0.3-0.2l0.4-0.2l0.4-0.2
	l0.2-0.1l0.2-0.1l0.2-0.1h0.2l0.4-0.1L223.4,100.1z M223.9,95.8h1.6l-0.2,0.3l-0.2,0.3l-0.2,0.3l-0.2,0.3l-0.2,0.2l-0.2,0.2
	l-0.2,0.2l-0.2,0.2l-0.2,0.2l-0.2,0.2l-0.2,0.2l-0.2,0.1l-0.3,0.1l-0.2,0.1l-0.3,0.1L222,99l0.3-0.5l0.3-0.4l0.2-0.4l0.2-0.4
	l0.3-0.4l0.2-0.4l0.2-0.4L223.9,95.8z M228.7,108.8l0.1-0.1l0.1-0.2v-0.1v-0.1v-0.1v-0.1v-0.3l0.1-0.4v-0.5v-0.6v-2.5V103v-0.7
	l-0.1-0.6v-0.4v-0.1V101v-0.1v-0.1l-0.1-0.2l-0.1-0.1l1.7-0.1v0.2v0.2v0.7l0.1-0.2l0.1-0.2l0.1-0.1l0.1-0.1l0.2-0.1l0.1-0.1l0.2-0.1
	l0.2-0.1l0.2-0.1l0.2-0.1l0.2-0.1h0.2h0.4h0.7h0.3l0.2,0.1l0.2,0.1l0.2,0.1l0.2,0.1l0.1,0.2l0.1,0.2l0.1,0.1l0.1,0.1v0.1l0.1,0.2
	l0.1,0.3l0.1,0.4l0.1,0.5v0.5v0.6v3.6v0.4v0.3l0,0.2v0.2l0.1,0.1l0.1,0.1l0.1,0.1h-1.8v-0.5v-0.5v-0.5v-0.5v-3.4v-0.3v-0.3l0-0.3
	v-0.2l-0.1-0.2l-0.1-0.2l-0.1-0.1l-0.1-0.1l-0.1-0.1l-0.1-0.1H233l-0.2,0h-0.2h0h-0.2h-0.2h-0.2l-0.2,0l-0.2,0.1l-0.2,0.1l-0.1,0.1
	l-0.1,0.1l-0.1,0.1l-0.1,0.2l-0.1,0.2l-0.1,0.2l-0.1,0.3l-0.1,0.4v0.4v0.5v0.5v1.9v0.6v0.5v0.4v0.3v0.1v0.1v0.1l0,0.1l0.1,0.2
	l0.1,0.1L228.7,108.8z M242.7,108.8l0.1-0.2l0.1-0.3l0.1-0.4l0.1-0.4v-0.3v-0.4v-0.4v-0.5v-0.6v-5.2v-0.6v-0.5v-0.4v-0.4v-0.3
	l-0.1-0.4L243,97v-0.1l-0.1-0.1v-0.1l-0.1-0.1h2.6l-0.1,0.1l-0.1,0.1l-0.1,0.1V97l-0.1,0.4l-0.1,0.4v0.3l0,0.3v0.4v0.5v0.6v0.6v0.7
	v2.9v0.7v0.6v0.5v0.5v0.4l0,0.4v0.3l0.1,0.4l0.1,0.4v0.1l0.1,0.1l0.1,0.1l0.1,0.1L242.7,108.8z M247.3,108.8l0.1-0.1l0.1-0.2
	l0.1-0.2l0-0.2v-0.3v-0.4v-0.5V103v-0.7v-0.6v-0.4l0-0.3l-0.1-0.2l-0.1-0.2l-0.1-0.1l1.8-0.1v0.2v0.2v0.7l0.1-0.2l0.1-0.2l0.1-0.1
	l0.2-0.1l0.1-0.1l0.2-0.1l0.2-0.1l0.2-0.1l0.1-0.1l0.2-0.1l0.2-0.1h0.2h0.4h0.7h0.3l0.2,0.1l0.2,0.1l0.2,0.1l0.2,0.1l0.1,0.2
	l0.1,0.2l0.1,0.1l0.1,0.1l0.1,0.1v0.2l0.1,0.3l0.1,0.4v0.5v0.5v0.6v0.6v3.4v0.3v0.2l0.1,0.2l0.1,0.1l0.1,0.1l0.1,0.1h-1.8v-1.1v-0.5
	v-0.5v-3.4v-0.3v-0.3v-0.3l-0.1-0.2l-0.1-0.2l-0.1-0.2l-0.1-0.1l-0.1-0.1l-0.1-0.1l-0.1-0.1h-0.1l-0.2,0h-0.2H251h-0.2h-0.2h-0.2
	l-0.2,0l-0.2,0.1l-0.2,0.1l-0.2,0.1l-0.1,0.1l-0.1,0.1l-0.1,0.2l-0.1,0.2l-0.1,0.2l-0.1,0.3l0,0.4v0.4v0.5v3v0.5v0.4l0.1,0.3v0.1
	v0.1v0.1v0.1l0.1,0.2l0.1,0.1L247.3,108.8z M256.6,101l-0.9-0.1v-0.6l0.9-0.1l0.1-2.4l1.4-0.4l-0.1,2.9h1.7l0,0l0,0v0.1v0.1v0.1v0.1
	l-0.1,0.1h-0.1l-0.1,0h-0.1l-0.2,0.1h-0.3h-0.3h-0.4H258l-0.1,5v0.1v0.4v0.4v0.2v0.1l0,0.1v0.1l0.1,0.1l0.1,0.1l0.1,0.1l0.1,0.1
	l0.1,0.1h0.1h0.1h0.1h0.2l0.1,0h0.1h0.1l0.3-0.2l0.3-0.2l-0.1,0.8l-0.2,0.2l-0.2,0.2l-0.2,0.2l-0.2,0.1l-0.2,0.1l-0.3,0.1h-0.3H258
	h-0.2h-0.2l-0.2,0l-0.2-0.1l-0.1-0.1l-0.1-0.1l-0.1-0.1l-0.1-0.1l-0.1-0.2l-0.1-0.2l-0.1-0.2v-0.2v-0.2V107v-0.3v-0.4L256.6,101z
	 M262.8,102.7h2.8h0.3h0.2h0.1h0.1l0.1-0.1l0,0v-0.1v-0.1v-0.1v-0.1v-0.1V102v-0.1l-0.1-0.1v-0.1l-0.1-0.1l-0.1-0.1l-0.1-0.1
	l-0.1-0.1l-0.2-0.2l-0.1-0.1l-0.1-0.1h-0.1h-0.1h-0.2h-0.3h-0.2h-0.2h-0.2l-0.2,0.1l-0.2,0.1l-0.2,0.1l-0.1,0.1l-0.1,0.2l-0.1,0.2
	l-0.1,0.2L263,102l-0.1,0.2l-0.1,0.2l0,0.2L262.8,102.7z M267.8,106.6v0.4v0.2l-0.1,0.2l-0.1,0.2l-0.1,0.2l-0.2,0.2l-0.2,0.2
	l-0.2,0.1l-0.2,0.2l-0.2,0.1l-0.3,0.1l-0.2,0.1l-0.3,0.1l-0.3,0.1h-0.3h-0.3h-0.4H264h-0.2l-0.2-0.1h-0.2l-0.2-0.1l-0.2-0.1
	l-0.2-0.1l-0.1-0.1l-0.2-0.1l-0.3-0.2l-0.3-0.3l-0.2-0.3l-0.2-0.4l-0.2-0.4l-0.1-0.4l-0.1-0.4l-0.1-0.4v-0.5v-0.5v-0.5v-0.5l0.1-0.4
	l0.1-0.4l0.1-0.2l0.1-0.2l0.1-0.2l0.1-0.2l0.2-0.3l0.3-0.3l0.1-0.1l0.1-0.1l0.1-0.1l0.1-0.1l0.2-0.1l0.2-0.1l0.2-0.1l0.2-0.1
	l0.2-0.1l0.2-0.1h0.2h0.2l0.4-0.1h0.8h0.3l0.3,0.1l0.3,0.1l0.3,0.1l0.2,0.1l0.2,0.2l0.2,0.2l0.2,0.2l0.1,0.2l0.1,0.2l0.1,0.2
	l0.1,0.2l0.1,0.2l0,0.2v0.3v0.1v0.1l0,0.1l-0.1,0.1l-0.2-0.1l-0.1,0.1h-0.1l-0.4,0.1h-0.6h-0.8h-1.7h-0.3h-0.2h-0.7l-0.1,0.2
	l-0.1,0.2v1v0.4l0,0.3l0.1,0.3l0.1,0.3l0.1,0.3l0.1,0.3l0.2,0.2l0.2,0.2l0.2,0.2l0.2,0.1l0.2,0.1l0.3,0.1l0.3,0.1h0.3h0.3h0.2h0.2
	h0.2h0.2l0.3-0.1l0.3-0.1l0.3-0.2l0.3-0.2l0.3-0.2L267.8,106.6z M269.4,108.8l0.1-0.1l0.1-0.2l0.1-0.2l0.1-0.2v-0.3v-0.4v-0.5v-0.6
	v-2.5V103v-0.7v-0.6v-0.4l-0.1-0.3l-0.1-0.2l-0.1-0.2l-0.1-0.1h0.2h0.2h0.2h0.3l0.4-0.1h0.2h0.1h0.1v0.1v0.1v0.1v0.1v0.7l0.3-0.3
	l0.2-0.3l0.2-0.2l0.2-0.2l0.1-0.1l0.1-0.1l0.1-0.1h0.1h0.3h0.5h0.2l0.2,0.1l0.1,0.1h0.1h0.1l0.1,0.1v0.1v0.1v0.2v0.1v0.1v0.1v0.1
	h-0.1l-0.1,0.1h-0.1h-0.2h-0.2h-0.3h-0.5h-0.2H272h-0.1l-0.1,0l-0.1,0.1l-0.1,0.1l-0.1,0.1l-0.1,0.1l0,0.1l-0.1,0.2v0.2v0.3v0.3v0.4
	v0.4v0.5v0.1v0.2v0.3v0.4v2.2v0.3v0.2l0.1,0.2l0.1,0.2l0.1,0.2l0.1,0.1L269.4,108.8z M275.4,108.8l0.1-0.1l0.1-0.2l0.1-0.2v-0.2
	v-0.3v-0.4v-0.5V103v-0.7v-0.6v-0.4V101l-0.1-0.2l-0.1-0.2l-0.1-0.1l1.8-0.1v0.4v0.1v0.1v0.5l0.1-0.2l0.1-0.2l0.2-0.1l0.1-0.1
	l0.3-0.2l0.3-0.2l0.2-0.1l0.2-0.1l0.2-0.1h0.2h0.4h0.7h0.3l0.2,0.1l0.2,0.1l0.2,0.1l0.2,0.1l0.1,0.2l0.1,0.2l0.1,0.2l0.1,0.3
	l0.1,0.3l0.1,0.4v0.5v0.5v0.6v3.1v0.5v0.4v0.3l0.1,0.2v0.1v0.1v0.1v0.1l0.1,0.1l0.1,0.1h-1.9v-0.5v-0.5v-0.5V106l0-0.6v-0.6v-1.5
	v-0.3v-0.3v-0.3l-0.1-0.2l-0.1-0.2l-0.1-0.2l-0.1-0.1l-0.1-0.1l-0.1-0.1l-0.1-0.1h-0.1l-0.2,0h-0.2H279h-0.2h-0.2h-0.2l-0.2,0
	l-0.2,0.1l-0.2,0.1l-0.2,0.1l-0.1,0.1l-0.1,0.1l-0.1,0.2l-0.1,0.2l-0.1,0.2l-0.1,0.3v0.4v0.4v0.5v3.5v0.4v0.3l0.1,0.2l0.1,0.2v0.1
	l0.1,0.1l0.1,0.1l0.1,0L275.4,108.8z M288.5,104.2l-1,0.4l-0.8,0.4l-0.3,0.1l-0.2,0.1l-0.2,0.1l-0.2,0.1l-0.1,0.1l-0.1,0.1l-0.1,0.1
	l-0.1,0.1l-0.1,0.1v0.2v0.2v0.3v0.1v0.1l0,0.1l0.1,0.1l0.1,0.1l0.1,0.1l0.1,0.1l0.1,0.1l0.1,0.1l0.1,0.1l0.1,0.1h0.1h0.1h0.1h0.2
	h0.2h0.2l0.2-0.1l0.2-0.1l0.2-0.1l0.1-0.1l0.1-0.1l0.1-0.1l0.1-0.2l0.1-0.2l0.1-0.2l0.1-0.2v-0.2V106v-0.3v-1.6L288.5,104.2z
	 M288.7,108.8v-0.1l-0.1-0.1l-0.1-0.2v-0.2V108v-0.2v-0.2v-0.2l-0.1,0.2l-0.1,0.2l-0.1,0.2l-0.1,0.1l-0.1,0.1l-0.1,0.1l-0.1,0.1
	l-0.1,0.1l-0.1,0.1l-0.2,0.1l-0.2,0.1l-0.2,0.1h-0.2h-0.2h-0.2h-0.2H286h-0.2l-0.2,0l-0.2-0.1l-0.2-0.1l-0.2-0.1l-0.2-0.1l-0.2-0.1
	l-0.2-0.2l-0.1-0.2l-0.1-0.2l-0.1-0.2l-0.1-0.2v-0.2v-0.2v-0.4v-0.2l0.1-0.2l0.1-0.2l0.1-0.2l0.1-0.1l0.1-0.1l0.1-0.1l0.2-0.1
	l0.2-0.1l0.3-0.2l0.3-0.2l0.4-0.2l0.4-0.2l0.4-0.2l0.5-0.2l0.3-0.1l0.3-0.1l0.2-0.1l0.2-0.1l0.3-0.2l0.2-0.2v-0.1v-0.1v-0.1l0-0.1
	v-0.3v-0.5v-0.2v-0.2v-0.2l-0.1-0.1l-0.1-0.1l-0.1-0.1l-0.1-0.1l-0.1-0.1l-0.1-0.1l-0.1-0.1l-0.1-0.1h-0.2h-0.2h-0.2H287h-0.2h-0.2
	h-0.2l-0.2,0.1l-0.1,0.1l-0.1,0.1l-0.1,0.1l-0.1,0.1v0.2l-0.1,0.3l-0.1,0.2l-0.1,0.2l-0.1,0.1l-0.1,0.1l-0.1,0.1l-0.1,0.1h-0.1h-0.1
	h-0.1h-0.1l-0.1-0.1l-0.1-0.1l-0.1-0.1l-0.1-0.1v-0.1v-0.2v-0.2v-0.2l0.1-0.2l0.1-0.1l0.1-0.1l0.2-0.1l0.2-0.1l0.2-0.1l0.3-0.1
	l0.3-0.1l0.3-0.1l0.3-0.1h0.3h0.4h0.4h0.7h0.3h0.2h0.2l0.2,0.1l0.2,0.1l0.2,0.1l0.1,0.1l0.1,0.1l0.1,0.1l0.1,0.1l0.1,0.2l0.1,0.2
	v0.2v0.2v0.4v0.3v0.4v0.5v0.6v0.6v1.8v0.6v0.5l0.1,0.4l0.1,0.4l0.1,0.3l0.1,0.1l0.1,0.1l0.1,0.1l0.1,0.1L288.7,108.8z M298.3,106.8
	v0.2v0.2l-0.1,0.2l-0.1,0.2l-0.1,0.2l-0.1,0.2l-0.1,0.1l-0.2,0.1l-0.2,0.1l-0.2,0.1l-0.2,0.1l-0.2,0.1l-0.3,0.1l-0.3,0h-0.3h-0.3
	h-0.4l-0.4-0.1h-0.2l-0.2-0.1l-0.2-0.1l-0.2-0.1l-0.2-0.1l-0.2-0.1l-0.2-0.1l-0.2-0.1l-0.1-0.1L293,108l-0.1-0.1l-0.1-0.1l-0.2-0.3
	l-0.2-0.3l-0.2-0.4l-0.1-0.4l-0.1-0.4l-0.1-0.4v-0.4v-0.5v-0.5v-0.5v-0.2l0.1-0.2V103l0.1-0.2l0.1-0.2l0.1-0.2l0.1-0.2l0.1-0.2
	l0.1-0.2l0.1-0.2l0.1-0.2l0.2-0.2l0.2-0.2l0.2-0.1l0.2-0.1l0.2-0.1l0.2-0.1l0.2-0.1l0.2-0.1l0.2-0.1l0.2-0.1l0.2-0.1l0.2-0.1h0.2
	h0.2h0.2h1h0.2h0.2h0.2h0.2h0.2l0.2,0.1l-0.1,2l-0.2-0.4l-0.2-0.3l-0.2-0.3l-0.2-0.2l-0.3-0.1l-0.3-0.1h-0.1h-0.1h-0.1h-0.5
	l-0.3,0.1l-0.3,0.1l-0.3,0.1l-0.2,0.1l-0.2,0.2l-0.2,0.2l-0.2,0.2l-0.2,0.3l-0.2,0.3l-0.1,0.3l-0.1,0.3l-0.1,0.4l-0.1,0.4v0.4v0.4
	v0.4v0.4l0.1,0.3l0.1,0.3l0.1,0.3l0.1,0.3l0.2,0.3l0.2,0.2l0.2,0.2l0.2,0.2l0.2,0.1l0.2,0.1l0.2,0.1l0.3,0.1h0.3h0.3h0.2h0.2h0.2
	h0.2l0.3-0.1l0.3-0.1l0.3-0.2l0.2-0.2l0.1-0.1l0.1-0.1l0.1-0.1L298.3,106.8z M300.3,99l-0.8-1.3l1.4-0.9l0.8,1.3L300.3,99z
	 M299.7,108.8l0.1-0.1l0.1-0.2l0.1-0.2l0.1-0.2v-0.3v-0.4v-0.5v-4.3v-0.7v-0.5V101l-0.1-0.3l-0.1-0.2v-0.1v-0.1v-0.1h-0.1h0.3h0.2
	h0.2h0.2h0.3h0.2h0.2h0.2v0.3v0.3v0.5v6.3v0.4v0.3l0.1,0.2l0.1,0.2v0.1l0.1,0.1l0.1,0.1l0.1,0L299.7,108.8z M307.2,100.8H307h-0.3
	l-0.3,0.1l-0.2,0.1l-0.2,0.1l-0.2,0.2l-0.2,0.2l-0.2,0.2l-0.1,0.2l-0.1,0.2l-0.1,0.3l-0.1,0.3v0.3l0,0.4v0.4v0.4v0.4v0.4l0.1,0.4
	l0.1,0.4l0.1,0.4l0.1,0.3l0.2,0.3l0.2,0.3l0.2,0.2l0.2,0.2l0.2,0.2l0.2,0.1l0.3,0.1l0.3,0.1h0.3h0.3h0.2h0.2l0.2-0.1l0.2-0.1
	l0.2-0.1l0.2-0.2l0.2-0.2l0.1-0.2l0.1-0.2l0.1-0.3l0.1-0.3l0.1-0.3l0.1-0.4l0.1-0.4V105v-0.9v-0.4v-0.4l-0.1-0.3l-0.1-0.3l-0.1-0.3
	l-0.1-0.3l-0.2-0.3l-0.2-0.2l-0.2-0.2l-0.2-0.2l-0.2-0.1l-0.2-0.1l-0.2-0.1h-0.3L307.2,100.8z M307.5,100.1h0.5h0.4l0.4,0.1l0.4,0.1
	l0.4,0.1l0.3,0.2l0.3,0.2l0.3,0.2l0.1,0.1l0.1,0.1l0.1,0.2l0.1,0.1l0.2,0.3l0.1,0.3l0.1,0.4l0.1,0.4v0.4v0.4v0.6l-0.1,0.5l-0.1,0.5
	l-0.1,0.5l-0.1,0.2l-0.1,0.2l-0.1,0.2l-0.1,0.2l-0.1,0.2l-0.1,0.2l-0.1,0.2l-0.1,0.2l-0.1,0.2l-0.1,0.1l-0.1,0.1l-0.2,0.1l-0.2,0.1
	l-0.2,0.1l-0.2,0.1l-0.2,0.1l-0.2,0.1l-0.2,0.1l-0.2,0.1h-0.2l-0.2,0h-0.2h-0.2h-0.2h-0.5h-0.4h-0.2l-0.2-0.1h-0.2l-0.2-0.1
	l-0.2-0.1l-0.2-0.1l-0.2-0.1l-0.1-0.1l-0.1-0.1l-0.1-0.1l-0.1-0.1l-0.1-0.1l-0.1-0.1l-0.1-0.1l-0.1-0.1l-0.1-0.2l-0.1-0.2l-0.1-0.2
	l-0.1-0.2l-0.1-0.2l-0.1-0.4l-0.1-0.4v-0.5v-0.5v-0.2v-0.3v-0.2v-0.2v-0.2v-0.2l0.1-0.2l0.1-0.2l0.1-0.2l0.1-0.2l0.1-0.2l0.1-0.2
	l0.2-0.4l0.3-0.3l0.3-0.3l0.3-0.2l0.3-0.2l0.4-0.2l0.2-0.1l0.2-0.1l0.2-0.1h0.2l0.4-0.1L307.5,100.1z M312.9,108.8l0.1-0.1l0.1-0.2
	l0.1-0.2l0.1-0.2v-0.3v-0.4v-0.5v-0.6v-2.5V103v-0.7v-0.6v-0.4l-0.1-0.3l-0.1-0.2l-0.1-0.2l-0.1-0.1l1.8-0.1v0.2v0.2v0.7l0.1-0.2
	l0.1-0.2l0.1-0.1l0.1-0.1l0.2-0.1l0.2-0.1l0.1-0.1l0.2-0.1l0.2-0.1l0.2-0.1l0.2-0.1h0.2h0.4h0.7h0.3l0.2,0.1l0.2,0.1l0.2,0.1
	l0.2,0.1l0.1,0.2l0.1,0.2l0.1,0.1l0.1,0.1l0.1,0.1v0.2l0.1,0.3l0.1,0.4l0,0.5v0.5v0.6v3.6v0.4v0.3v0.2v0.2l0.1,0.1l0.1,0.1l0.1,0.1
	h-1.8v-1.1v-0.5v-0.5v-3.4v-0.3v-0.3l0-0.3v-0.2l-0.1-0.2l-0.1-0.2l-0.1-0.1l-0.1-0.1l-0.1-0.1l-0.1-0.1h-0.1l-0.2,0h-0.2h-0.2h-0.2
	h-0.3h-0.2l-0.2,0l-0.2,0.1l-0.2,0.1l-0.2,0.1l-0.1,0.1l-0.1,0.1l-0.1,0.2l-0.1,0.2l-0.1,0.2l-0.1,0.3v0.4v0.4v0.5v3v0.5v0.4
	l0.1,0.3v0.1v0.1v0.1v0.1l0.1,0.2l0.1,0.1L312.9,108.8z M325.9,104.2l-1,0.4l-0.8,0.4l-0.3,0.1l-0.2,0.1l-0.2,0.1l-0.2,0.1l-0.1,0.1
	l-0.1,0.1l-0.1,0.1l-0.1,0.1l-0.1,0.1l0,0.2v0.2v0.3v0.1l0,0.1v0.1v0.1l0.1,0.1l0.1,0.1l0.1,0.1l0.1,0.1l0.1,0.1l0.1,0.1l0.1,0.1
	h0.1h0.2h0.1h0.2h0.2h0.2l0.2-0.1l0.2-0.1l0.2-0.1l0.1-0.1l0.1-0.1l0.1-0.1l0.1-0.2l0.2-0.1l0.1-0.2l0.1-0.2v-0.2l0-0.2v-0.3
	L325.9,104.2L325.9,104.2z M326.2,108.9l-0.1-0.1v-0.1v-0.2v-0.2l0-0.2v-0.2v-0.5l-0.2,0.4l-0.2,0.3l-0.1,0.1l-0.1,0.1l-0.1,0.1
	l-0.1,0.1l-0.2,0.1l-0.2,0.1l-0.2,0.1l-0.2,0.1h-0.2H324h-0.2h-0.2h-0.2h-0.2l-0.2,0l-0.2-0.1l-0.2-0.1l-0.2-0.1l-0.2-0.1l-0.2-0.1
	l-0.1-0.2l-0.1-0.2l-0.1-0.2l-0.1-0.2l-0.1-0.2l-0.1-0.2v-0.2V107v-0.2v-0.2l0.1-0.2l0.1-0.2l0.1-0.2l0.1-0.1l0.1-0.1l0.1-0.1
	l0.2-0.1l0.2-0.1l0.3-0.2l0.3-0.2l0.3-0.2l0.4-0.2l0.4-0.2l0.5-0.2l0.5-0.2l0.4-0.2l0.2-0.1l0.1-0.1l0.1-0.1l0.1-0.1l0.1-0.1
	l0.1-0.1l0.1-0.1V103v-0.3v-0.3v-0.2v-0.2v-0.2v-0.2l-0.1-0.1l-0.1-0.1l-0.1-0.1l-0.1-0.1l-0.1-0.1l-0.1-0.1l-0.1-0.1l-0.2-0.1H325
	h-0.2h-0.2h-0.2h-0.2h-0.2h-0.2l-0.2,0.1l-0.1,0.1l-0.1,0.1l-0.1,0.1l-0.1,0.1l0,0.1l-0.1,0.1l-0.1,0.1v0.1l-0.1,0.2l-0.1,0.2
	l-0.1,0.1l-0.1,0.1l-0.1,0.1l-0.1,0.1h-0.1h-0.1H322h-0.1l-0.1-0.1l-0.1-0.1v-0.1l-0.1-0.1v-0.1v-0.2v-0.2v-0.2l0.1-0.2l0.1-0.1
	l0.1-0.1l0.2-0.1l0.2-0.1l0.2-0.1l0.2-0.1l0.3-0.1l0.3-0.1l0.3-0.1h0.3h0.4h0.4h0.7h0.3h0.2h0.2l0.2,0.1l0.2,0.1l0.2,0.1l0.1,0.1
	l0.1,0.1l0.1,0.1l0.1,0.1l0.1,0.2v0.2v0.2v0.2v0.2v0.1v0.3v0.4v0.5v3v0.6v0.3v0.2v0.2v0.2v0.2v0.2l0.1,0.1l0.1,0.1l0.1,0.1l0.1,0.1
	l0.1,0.1l0.1,0.1L326.2,108.9z M329.3,108.8L329.3,108.8L329.3,108.8l0.1-0.1l0-0.1l0.1-0.2l0.1-0.3l0-0.3v-1.1v-0.8v-6.5v-0.9v-0.8
	V97v-0.4v-0.2v-0.2v-0.1v-0.1V96l0-0.1h-0.1l0,0l1.9-0.4v0.4v0.6v11v0.4v0.3l0.1,0.2l0.1,0.2l0.1,0.2l0.1,0.1L329.3,108.8z"/>
<path class="st0" d="M198.6,54.7h15.9l-7.5-20.2L198.6,54.7z M181.2,79.4l0.4-0.5l0.5-0.6l0.4-0.6l0.4-0.6l0.9-1.2l0.9-1.3l0.9-1.4
	l0.9-1.5l0.9-1.5l0.9-1.6l0.4-0.8l0.5-0.9l0.5-0.9l0.5-0.9l0.5-0.9l0.5-0.9l0.5-1l0.5-1l0.5-1l0.5-1l0.5-1l0.5-1.1l0.5-1.1l0.5-1.1
	l0.5-1.1l0.5-1.1l0.8-1.9l0.8-1.9l0.7-1.8l0.7-1.8l0.6-1.7l0.6-1.7l0.6-1.6l0.5-1.6l0.5-1.5l0.4-1.3l0.4-1.1l0.3-1l0.2-0.8l0.2-0.7
	l0.1-0.3v-0.2v-0.2v-0.5l0-0.3v-0.3v-0.3l-0.1-0.3l-0.1-0.3l-0.1-0.3l-0.1-0.3h9.7l0.7,2.4l0.7,2.3l0.7,2.2l0.7,2.2l0.7,2.2l0.7,2.1
	l0.7,2.1l0.7,2l0.7,2l0.7,1.9l0.6,1.9l0.6,1.8l0.7,1.8l0.6,1.7l0.6,1.7l0.6,1.6l0.6,1.6l0.6,1.5l0.6,1.5l0.6,1.4l0.6,1.4l0.6,1.3
	l0.6,1.2l0.5,1.1l0.5,1.1l0.5,1l0.5,1l0.5,0.9l0.5,0.9l0.5,0.8l0.5,0.7l0.5,0.7h-8.6l-7.9-21.9h-18.3l-3.4,8.3L194,66l-0.4,0.9
	l-0.4,0.9l-0.3,0.9l-0.3,0.8l-0.3,0.8l-0.2,0.8l-0.2,0.7l-0.2,0.7l-0.2,0.7l-0.1,0.6l-0.1,0.6L191,75l-0.1,0.5l-0.1,0.5v0.5v0.4v0.3
	v0.3v0.3V78v0.3l0.1,0.3L191,79l0.1,0.3L181.2,79.4z M235.7,79.4l0.1-0.2L236,79l0.1-0.2l0.1-0.2l0.1-0.2l0.1-0.3l0.1-0.3l0.1-0.3
	l0.2-0.7l0.2-0.8l0.1-0.9l0.1-1l0.1-0.6l0-0.6v-0.7v-0.8v-0.9v-0.9v-1l0-1.1v-1.1v-1.2v-1.3v-1.4v-1.4v-1.5v-9.9V48v-1.6V45v-1.4
	v-1.3v-1.2l0-1.1v-1.1v-1V37v-0.8v-0.7l0-0.6l-0.1-0.5l-0.1-1l-0.1-0.9l-0.2-0.8l-0.2-0.6l-0.1-0.3l-0.1-0.3l-0.1-0.3l-0.1-0.2
	l-0.1-0.2l-0.1-0.2l-0.1-0.2l-0.1-0.2h3.4h1h1h1.1h1.1l1.1-0.1l1.2-0.1l1.3-0.1l1.2-0.1l1.1-0.1h1h0.9h0.8h0.7h2h0.9l0.8,0.1
	l0.8,0.1l0.8,0.1l0.8,0.1l0.7,0.2l0.7,0.2l0.7,0.2l0.6,0.3l0.6,0.3l0.6,0.3l0.6,0.3l0.5,0.4l0.5,0.4l0.5,0.4l0.4,0.4l0.4,0.5
	l0.4,0.5l0.4,0.5l0.3,0.6l0.3,0.6l0.3,0.6l0.3,0.6l0.2,0.6l0.2,0.7l0.2,0.7l0.1,0.7l0.1,0.7l0.1,0.8v0.8v0.8V43v0.8l-0.1,0.8
	l-0.1,0.8l-0.1,0.8L268,47l-0.2,0.8l-0.2,0.7l-0.3,0.7l-0.3,0.7l-0.3,0.6l-0.4,0.6l-0.4,0.6l-0.4,0.6l-0.5,0.6l-0.5,0.6l-0.5,0.5
	l-0.5,0.5L263,55l-0.6,0.4l-0.6,0.4l-0.6,0.4l-0.6,0.3l-0.6,0.3l-0.7,0.2l-0.7,0.2l-0.7,0.2l-0.7,0.1l-0.7,0.1l-0.8,0.1h-0.8h-0.8
	h-0.6h-0.5h-0.5l-0.5-0.1l-0.5-0.1l-0.5-0.1l-0.5-0.1l-0.5-0.1l-0.5-0.1l-0.5-0.1l-0.5-0.1l-0.5-0.1l-0.4-0.2l-0.4-0.2l-0.4-0.5
	l-0.4-0.2h1.6h0.8l0.7-0.1l0.7-0.1l0.7-0.1l0.7-0.1l0.6-0.2l0.6-0.2l0.6-0.2l0.6-0.3l0.6-0.3l0.6-0.3l0.5-0.3l0.5-0.4l0.5-0.4
	l0.5-0.4l0.4-0.5l0.4-0.5l0.4-0.5l0.4-0.5l0.3-0.5l0.3-0.6l0.3-0.6l0.2-0.6l0.2-0.6l0.2-0.6l0.2-0.7l0.1-0.7l0.1-0.7l0.1-0.8
	l0.1-0.8v-1.5V41v-0.6l-0.1-0.6l-0.1-0.6l-0.1-0.5l-0.1-0.5l-0.1-0.5l-0.2-0.5l-0.2-0.5l-0.2-0.5l-0.2-0.4l-0.2-0.4l-0.2-0.4
	l-0.3-0.4l-0.3-0.3l-0.3-0.3l-0.4-0.3l-0.4-0.3l-0.4-0.3l-0.4-0.2l-0.4-0.2l-0.5-0.2l-0.5-0.2l-0.5-0.2l-0.5-0.1l-0.5-0.1l-0.6-0.1
	l-0.6-0.1l-0.6-0.1h-0.6h-0.6h-0.7h-0.7h-0.7l-0.7,0l-0.6,0.1h-0.6l-0.6,0.1l-0.6,0.1l-0.1,0.5l-0.1,0.6l-0.1,0.8l-0.1,0.9l-0.1,1
	l-0.1,1.1V38v1.4v0.8V41v0.8v0.8v0.9v0.9v0.9v1v1v1v1.1v1.1v1.1v7.1v1.7V62v1.5v1.4v1.3v1.2v1.1v1.1v1v0.9v0.8V73v0.6l0.1,0.5l0.1,1
	l0.1,0.9l0.2,0.8l0.2,0.7l0.1,0.3l0.1,0.3l0.1,0.2l0.1,0.2l0.1,0.2l0.1,0.2l0.1,0.2l0.1,0.2L235.7,79.4z M311.4,29.1l-0.4,10.8
	l-0.2-0.5l-0.2-0.5l-0.2-0.5l-0.3-0.5l-0.2-0.4l-0.3-0.4l-0.3-0.4l-0.3-0.4l-0.3-0.4l-0.3-0.4l-0.3-0.3l-0.3-0.3l-0.4-0.3l-0.4-0.3
	l-0.3-0.2l-0.4-0.3l-0.4-0.2l-0.4-0.2l-0.4-0.2l-0.4-0.2l-0.4-0.2l-0.4-0.2l-0.5-0.1l-0.4-0.1l-0.5-0.1l-0.5-0.1l-0.5-0.1l-0.5-0.1
	l-0.5-0.1h-0.5h-0.5h-1.1h-0.5h-0.5h-0.5h-0.5l-0.5,0.1l-0.5,0.1l-0.5,0.1l-0.5,0.1l-0.5,0.1l-0.4,0.1l-0.4,0.1l-0.4,0.1l-0.5,0.1
	l-0.4,0.2l-0.4,0.2l-0.4,0.2l-0.4,0.2l-0.4,0.2l-0.4,0.2l-0.4,0.2l-0.4,0.2l-0.4,0.2l-0.4,0.2l-0.4,0.3l-0.3,0.3l-0.4,0.3l-0.3,0.3
	l-0.3,0.3l-0.3,0.3l-0.3,0.3l-0.3,0.3l-0.3,0.4l-0.3,0.4l-0.3,0.4l-0.2,0.4l-0.3,0.4l-0.2,0.4l-0.2,0.4l-0.2,0.4l-0.2,0.4l-0.2,0.4
	l-0.2,0.4l-0.3,0.5l-0.2,0.4l-0.2,0.5l-0.1,0.5l-0.2,0.5l-0.1,0.5l-0.1,0.5l-0.1,0.5l-0.1,0.5l-0.1,0.5l-0.1,0.5l-0.1,0.5l-0.1,0.5
	l-0.1,1.1l-0.1,1.1v1.2v1.2v0.6v0.6v0.6v0.6v0.6l0.1,0.6l0.1,0.6l0.1,0.6l0.1,0.6l0.1,0.5l0.1,0.5l0.1,0.5l0.1,0.5l0.1,0.5l0.1,0.5
	l0.1,0.5l0.2,0.5l0.2,0.5l0.2,0.5l0.2,0.5l0.2,0.5l0.2,0.5l0.2,0.4l0.2,0.4l0.3,0.4l0.2,0.4l0.3,0.4l0.3,0.4l0.3,0.4l0.3,0.4
	l0.3,0.4l0.3,0.4l0.3,0.4l0.3,0.4l0.4,0.3l0.4,0.3l0.4,0.3l0.4,0.3l0.4,0.3l0.4,0.3l0.4,0.3l0.4,0.2l0.4,0.2l0.4,0.2l0.4,0.2
	l0.4,0.2l0.4,0.2l0.4,0.2l0.5,0.2l0.4,0.2l0.5,0.2l0.5,0.1l0.5,0.1l0.5,0.1l0.5,0.1l0.5,0.1l0.5,0.1l0.5,0.1l0.5,0.1h0.5h0.5h0.5
	h0.5h1.1h0.5h0.5h0.5l0.5-0.1l0.5-0.1l0.5-0.1l0.5-0.1l0.5-0.1l0.5-0.1l0.5-0.1l0.5-0.1l0.5-0.2l0.5-0.2l0.5-0.2l0.4-0.2l0.5-0.2
	l0.4-0.2l0.4-0.2l0.4-0.2l0.4-0.2l0.4-0.2l0.4-0.3l0.4-0.3l0.4-0.3l0.4-0.3l0.4-0.3l0.4-0.3l0.4-0.3l0.4-0.4l0.3-0.4l0.4-0.4
	l-0.2,0.7l-0.2,0.6l-0.2,0.6l-0.3,0.6l-0.3,0.6l-0.3,0.6l-0.4,0.6l-0.4,0.5l-0.4,0.5l-0.4,0.5l-0.5,0.5l-0.5,0.5l-0.5,0.5l-0.5,0.4
	l-0.6,0.5L308,77l-0.6,0.4l-0.6,0.4l-0.6,0.3l-0.6,0.3l-0.7,0.3l-0.7,0.3l-0.7,0.2l-0.7,0.2l-0.7,0.2l-0.7,0.2l-0.8,0.1l-0.8,0.1
	l-0.8,0.1l-0.8,0.1h-0.8h-0.8h-0.6h-0.7h-0.6l-0.6-0.1l-0.6-0.1l-0.6-0.1l-0.6-0.1l-0.6-0.1l-0.6-0.1l-0.6-0.1l-0.6-0.1l-0.6-0.1
	l-0.5-0.2l-0.5-0.2l-0.5-0.2l-0.5-0.2l-0.5-0.2L286,78l-0.5-0.2l-0.5-0.3l-0.5-0.3l-0.5-0.3l-0.5-0.3l-0.5-0.3l-0.5-0.3l-0.5-0.4
	l-0.5-0.4l-0.4-0.4l-0.4-0.4l-0.4-0.4l-0.4-0.4l-0.4-0.4l-0.4-0.5l-0.4-0.4l-0.4-0.5l-0.4-0.5l-0.4-0.5l-0.3-0.5l-0.3-0.5l-0.3-0.5
	l-0.3-0.5l-0.3-0.5l-0.3-0.5l-0.3-0.5l-0.2-0.5l-0.2-0.5l-0.2-0.6l-0.2-0.5l-0.2-0.6l-0.2-0.6l-0.2-0.6l-0.2-0.6l-0.1-0.6l-0.1-0.6
	l-0.1-0.6l-0.1-0.6l-0.1-0.7l-0.1-0.6l-0.1-0.6l-0.1-0.7l0-0.7v-0.7v-0.7V54v-0.8v-0.8l0-0.7l0.1-0.7l0.1-0.7l0.1-0.7l0.1-0.7
	l0.1-0.7l0.1-0.7l0.1-0.6l0.2-0.7l0.2-0.6l0.2-0.6l0.2-0.6l0.2-0.6l0.2-0.6l0.2-0.6l0.2-0.6l0.3-0.6l0.3-0.6l0.3-0.5l0.3-0.5
	l0.3-0.5l0.3-0.5l0.4-0.5l0.4-0.5l0.4-0.5l0.4-0.5l0.4-0.5l0.4-0.5l0.4-0.5l0.5-0.4l0.4-0.4l0.5-0.4l0.5-0.4l0.5-0.4l0.5-0.4
	l0.5-0.4l0.5-0.3l0.5-0.3l0.5-0.3l0.5-0.3l0.6-0.3l0.6-0.3l0.6-0.2l0.6-0.3l0.6-0.2l0.6-0.2l0.6-0.2l0.6-0.2l0.7-0.2l0.7-0.2
	l0.7-0.1l0.7-0.1l0.7-0.1l0.7-0.1l0.7-0.1l0.7-0.1l0.7-0.1h0.8h0.8h0.8h1.3h0.6h0.6l0.7,0.1l0.8,0.1l0.8,0.1l0.9,0.1l1,0.1l0.9,0.1
	l0.9,0.1l0.8,0.1L309,29h0.7h0.7h0.6L311.4,29.1z M321.2,79.4l0.1-0.2l0.1-0.2l0.1-0.2l0.1-0.2l0.1-0.2l0.1-0.3l0.1-0.3l0.1-0.3
	l0.2-0.7l0.2-0.8l0.1-0.9l0.1-1l0.1-0.6v-0.6l0.1-0.7v-0.8v-0.9l0-0.9v-1v-1.1v-1.1v-1.2v-1.3v-1.4v-1.5V48v-1.6V45v-1.4v-1.3v-1.2
	v-1.1v-1.1l0-1V37v-0.8l-0.1-0.7v-0.6l-0.1-0.5l-0.1-1l-0.1-0.9l-0.2-0.8l-0.2-0.7l-0.1-0.3l-0.1-0.3l-0.1-0.3l-0.1-0.2l-0.1-0.2
	l-0.1-0.2l-0.1-0.2l-0.1-0.2h10.7l-0.1,0.1l-0.1,0.2l-0.1,0.2l-0.1,0.2l-0.1,0.2l-0.1,0.2l-0.1,0.3l-0.1,0.3l-0.1,0.3l-0.1,0.4
	l-0.1,0.5l-0.1,0.4l-0.1,0.9l-0.1,1l0,0.5l-0.1,0.6v0.7v0.7l0,0.8v0.9v1v1v1.1v1.1V44v1.3v1.4v15.1v1.4v1.3v1.2v1.2V68v1v1v0.9
	l0,0.8v0.8v0.7l0.1,0.6l0,0.5l0.1,1l0.1,0.9l0.1,0.4l0.1,0.4l0.1,0.4l0.1,0.3l0.1,0.3l0.1,0.3l0.1,0.3l0.1,0.2l0.1,0.2l0.1,0.2
	l0.1,0.2l0.1,0.1L321.2,79.4z"/>
<path class="st1" d="M66.2,18.5l3.8,7.4l7.3-3.8l3.7,7.4l7.4-3.7l3.7,7.3l3.8,7.4l3.7,7.4l3.7,7.3l7.4-3.7l7.4-3.8l7.4-3.7l7.3-3.7
	l-3.7-7.4l-7.4,3.7l-3.7-7.3l-7.4,3.7l-3.8-7.4l-7.3,3.8L95.7,22L92,14.6l-3.7-7.3L84.5,0l-7.4,3.7l-7.4,3.8l-7.3,3.7L55.1,15
	l3.7,7.4L66.2,18.5z M110.3,34.9l3,5.9l-5.9,3l-3-5.9L110.3,34.9z M80.4,11.3l3,5.9l-5.9,3l-3-5.9L80.4,11.3z"/>
<path class="st1" d="M54.4,60.7l-3.7-7.4L47,46l-7.3,3.7l-7.3,3.7L25,57.2l-7.4,3.8l3.7,7.3l7.3-3.7l3.8,7.4l7.3-3.8l3.8,7.3
	l7.4-3.7l3.7,7.3l7.4-3.7L58.2,68L54.4,60.7z M40,66.1l-3-5.9l5.9-3l3,5.9L40,66.1z"/>
<path class="st1" d="M29.6,48.6l7.4-3.8l7.3-3.7l-3.8-7.4l-7.3,3.7l-3.7-7.3l-7.4,3.7l-3.8-7.3l-7.4,3.7l-3.7-7.4L0,26.7L3.8,34
	l3.7,7.4l3.8,7.3l3.7,7.4l7.4-3.8L29.6,48.6z M16.1,38.9l5.9-3l3,5.9l-5.9,3L16.1,38.9z"/>
<path class="st1" d="M109.5,18.6l3.7,7.4l7.4-3.8l3.8,7.4l7.3-3.7l3.8,7.3l7.4-3.7l-3.8-7.4l-3.7-7.3l-3.8-7.4l-3.7-7.3l-7.4,3.8
	l-7.3,3.7l-7.4,3.8L98.4,15l3.8,7.4L109.5,18.6z M123.6,11.4l3,5.9l-5.9,3l-3-5.9L123.6,11.4z"/>
<path class="st1" d="M147.2,67.4l-3.7-7.4l-3.8-7.3l-3.7-7.3l-7.3,3.7l-7.4,3.8l-7.4,3.7l-7.4,3.8l3.8,7.3l7.4-3.7l3.7,7.4l7.4-3.8
	l3.8,7.3l7.3-3.7l3.7,7.3l7.4-3.7L147.2,67.4z M128.9,65.6l-3-5.9l5.9-3l3,5.9L128.9,65.6z"/>
<path class="st1" d="M21.9,19.2l3.7,7.4l7.3-3.7l3.8,7.4l7.4-3.7l3.7,7.3l3.8,7.4l3.7,7.4l3.8,7.3l7.3-3.7l7.4-3.8l7.4-3.7l7.3-3.8
	l-3.8-7.3l-7.3,3.7l-3.8-7.3l-7.4,3.7l-3.7-7.4L55.1,30l-3.7-7.4l-3.8-7.3L43.9,8l-3.7-7.4l-7.4,3.7l-7.4,3.8l-7.3,3.7l-7.4,3.8
	l3.7,7.4L21.9,19.2z M66,35.6l3,5.9l-5.9,3l-3-5.9L66,35.6z M36,11.9l3,5.9l-5.9,3l-3-5.9L36,11.9z"/>
<path class="st1" d="M98.9,60.4L95.2,53l-3.8-7.4l-7.4,3.7l-7.3,3.8l-7.4,3.7L62,60.6l3.7,7.4l7.3-3.8l3.8,7.4l7.4-3.8l3.8,7.3
	l7.3-3.7l3.7,7.3l7.4-3.7l-3.8-7.3L98.9,60.4z M84.4,65.8l-3-5.9l5.9-3l3,5.9L84.4,65.8z"/>
</svg>
