<!-- Generator: Adobe Illustrator 22.1.0, SVG Export Plug-In  -->
<svg version="1.1"
	 xmlns="http://www.w3.org/2000/svg" xmlns:xlink="http://www.w3.org/1999/xlink" xmlns:a="http://ns.adobe.com/AdobeSVGViewerExtensions/3.0/"
	 x="0px" y="0px" width="566.9px" height="297.2px" viewBox="0 0 566.9 297.2" style="enable-background:new 0 0 566.9 297.2;"
	 xml:space="preserve">
<style type="text/css">
	.st0{opacity:5.000000e-02;}
	.st1{fill:#FFFFFF;}
</style>
<defs>
</defs>
<g class="st0">
	<path class="st1" d="M248.7,69.7l14.1,27.7l27.6-14.1l14,27.6l27.7-14l14,27.6l14.1,27.6l14,27.6l14,27.6l27.7-14l27.6-14.1
		l27.6-14l27.6-14l-14-27.7l-27.7,14l-14-27.6l-27.6,14l-14.1-27.6l-27.6,14.1l-14-27.7l-14-27.6l-14.1-27.6L317.6,0l-27.6,14
		l-27.6,14.1l-27.6,14l-27.6,14.1l14,27.6L248.7,69.7z M414.5,131.2l11.2,22.1l-22.1,11.2l-11.2-22L414.5,131.2z M302,42.4
		l11.1,22.1l-22,11.2l-11.2-22.1L302,42.4z"/>
	<path class="st1" d="M204.7,228l-14-27.6l-14.1-27.6l-27.6,14.1l-27.6,14l-27.6,14L66.1,229l14,27.6l27.6-14l14.1,27.6l27.5-14.1
		l14.1,27.5l27.6-13.9l14,27.5l27.6-14l-14.1-27.6L204.7,228z M150.3,248.5l-11.2-22.1l22.1-11.2l11.2,22.1L150.3,248.5z"/>
	<path class="st1" d="M111.4,182.8l27.8-14.1l27.6-14l-14.1-27.6L125,141l-14-27.6l-27.6,14L69.3,100l-27.6,14l-14-27.6L0,100.3
		l14.1,27.6l14,27.8l14.1,27.6l14,27.6l27.6-14.1L111.4,182.8z M60.3,146.1l22.1-11.2L93.6,157l-22.1,11.2L60.3,146.1z"/>
	<path class="st1" d="M411.4,70.1l14,27.6L453,83.7l14.1,27.7l27.6-14l14.1,27.5l27.6-14l-14.1-27.6l-14-27.6l-14.1-27.8l-14-27.6
		l-27.6,14.1l-27.6,14l-27.6,14.1l-27.7,14l14.1,27.6L411.4,70.1z M464.7,43L475.9,65l-22.1,11.2l-11.2-22.1L464.7,43z"/>
	<path class="st1" d="M553,253.4l-14-27.6l-14.1-27.6l-14-27.6l-27.6,14l-27.7,14.1l-27.6,14l-27.6,14.1l14.1,27.6l27.6-14l14,27.7
		l27.6-14.1l14.1,27.5l27.5-13.9l14,27.5l27.6-14L553,253.4z M484.5,246.4l-11.2-22.1l22.1-11.2l11.2,22L484.5,246.4z"/>
	<path class="st1" d="M82.3,72.1l14,27.6l27.6-14l14.1,27.6l27.6-14l14,27.6l14.1,27.6l14,27.6l14.1,27.6l27.5-14l27.6-14.1l27.6-14
		l27.6-14.1l-14-27.6l-27.6,14l-14.1-27.6l-27.6,14l-14-27.6l-27.7,14l-14-27.6l-14-27.6l-14-27.6l-14-27.6l-27.7,14L95.8,30.5
		l-27.6,14L40.6,58.6l14,27.6L82.3,72.1z M248,133.9l11.2,22l-22.1,11.2l-11.2-22.1L248,133.9z M135.5,44.8l11.2,22.1l-22.1,11.2
		L113.4,56L135.5,44.8z"/>
	<path class="st1" d="M371.7,226.9l-14-27.6l-14.1-27.6l-27.6,14l-27.6,14.1l-27.6,14l-27.6,14.1l14,27.6l27.6-14.1l14.1,27.7
		l27.6-14.1l14.1,27.5l27.6-13.8l14,27.5l27.6-14l-14-27.6L371.7,226.9z M317.2,247.4L306,225.4l22.1-11.2l11.2,22.1L317.2,247.4z"
		/>
</g>
</svg>